<?xml version="1.0" encoding="UTF-8"?>
<svg version="1.1" viewBox="0 0 1024 1024" width="1280" height="1280" xmlns="http://www.w3.org/2000/svg">
<path transform="translate(505,339)" d="m0 0 4 2 28 48 13 22 34 58 17 28 13 22 17 28 17 29 4 7-2 6-15 27-14 24-12 21-5 7-4-2-12-19-8-14 2-4 15-15 9-11 7-10 1-7-8-16-13-21-14-24-11-18-11-2-7-8-15-27-17-28-8-12-1-3-6-1-7 6-12 19-17 28-12 19-16 26-12 20-15 24-11 17-7 13-1 8 6 12 2 2 4-1 21-31 8-10 4-2 37-1h110l3 3 2 4-1 6-9 11-8 7-5 2h-17l-47-6-3-1-1 80-1 5-3-1-15-25-17-29-10-17-2-4h-9l-5 4-15 23-26 42-3 3-3-1-12-23-18-34-11-21 1-6 17-28 10-17 34-56 19-32 17-28 17-29 9-15 19-32 12-20z" fill="#0F120F"/>
<path transform="translate(502,454)" d="m0 0 4 1 5 6 14 23 13 20 24 36 5 8-1 3h-30l-16-27-10-18-6-9-5 1-9 12-17 29-7 10-2 2h-14l-4-5 1-7 12-19 11-17 16-25 11-17z" fill="#101310"/>
</svg>
