<?xml version="1.0" encoding="UTF-8"?>
<svg version="1.1" xmlns="http://www.w3.org/2000/svg" width="512" height="512">
<path d="M0 0 C1.53450793 -0.00417831 3.06901277 -0.00965854 4.60351193 -0.01631981 C8.79919869 -0.03072805 12.99468824 -0.02654422 17.19038558 -0.019153 C21.72356094 -0.01441214 26.2566942 -0.02693929 30.78985596 -0.03717041 C39.66259329 -0.05434584 48.53525976 -0.05520101 57.4080094 -0.04995751 C64.62163438 -0.04591219 71.83523847 -0.04736366 79.04886246 -0.05270576 C80.59028467 -0.0538284 80.59028467 -0.0538284 82.16284672 -0.05497371 C84.25060661 -0.05650523 86.3383665 -0.05804357 88.42612638 -0.05958868 C107.99442155 -0.07330921 127.56267671 -0.06787919 147.13097097 -0.05640347 C165.02161346 -0.04647183 182.91215252 -0.05941136 200.80277906 -0.08333766 C219.18620609 -0.10773721 237.56958495 -0.1173344 255.95302784 -0.11068493 C266.26860062 -0.10719459 276.58409387 -0.10941261 286.89965439 -0.12693596 C295.68112349 -0.14166863 304.46245705 -0.14227942 313.24392353 -0.12486505 C317.72140371 -0.11636144 322.19864185 -0.11418984 326.67610931 -0.1295166 C330.78073443 -0.14339277 334.88491084 -0.13856322 338.98951019 -0.11927737 C340.46855234 -0.11552599 341.94763068 -0.11841431 343.4266405 -0.12888902 C359.32709185 -0.23342725 370.82535548 3.86332431 382.50564575 14.70018005 C392.07979676 24.81626414 395.22228793 36.36844107 395.14332581 49.98750305 C395.15140411 51.67820992 395.15140411 51.67820992 395.15964562 53.40307248 C395.17388752 57.1583085 395.16683055 60.91319015 395.15969849 64.66844177 C395.16540403 67.36963506 395.172269 70.0708034 395.18049622 72.77198792 C395.19764564 79.33463925 395.19853225 85.89719467 395.19328331 92.45986257 C395.18923305 97.79705961 395.19069531 103.13422841 395.19603157 108.4714241 C395.19677999 109.23260423 395.19752841 109.99378436 395.19829952 110.77803055 C395.19983108 112.32463844 395.20136943 113.87124633 395.20291448 115.4178542 C395.21662566 129.90438233 395.21121165 144.39085637 395.19972927 158.87738325 C395.18979908 172.1121407 395.20273629 185.34675831 395.22666346 198.5814942 C395.25108296 212.19175261 395.26065529 225.80194597 395.25401074 239.41222584 C395.25052474 247.04502437 395.25270944 254.67771539 395.27026176 262.31049728 C395.2850195 268.8082797 395.28557282 275.30587892 395.26819085 281.80365787 C395.25970732 285.11468935 395.25965315 288.42512699 395.27284241 291.73618317 C395.28608266 295.33572405 395.27447645 298.93438603 395.2568512 302.53388977 C395.2664562 303.56601621 395.27606121 304.59814264 395.28595728 305.66154563 C395.14767654 319.45740636 389.7049231 330.15505683 380.44314575 340.13768005 C369.07701437 350.89491154 356.63336438 352.84264854 341.5112915 352.77536011 C339.97678357 352.77953841 338.44227874 352.78501865 336.90777957 352.79167992 C332.71209282 352.80608815 328.51660327 352.80190433 324.32090592 352.79451311 C319.78773056 352.78977225 315.2545973 352.8022994 310.72143555 352.81253052 C301.84869822 352.82970595 292.97603174 352.83056112 284.10328211 352.82531761 C276.88965712 352.8212723 269.67605304 352.82272377 262.46242905 352.82806587 C260.92100684 352.82918851 260.92100684 352.82918851 259.34844478 352.83033382 C257.26068489 352.83186533 255.17292501 352.83340368 253.08516513 352.83494879 C233.51686996 352.84866932 213.94861479 352.8432393 194.38032053 352.83176357 C176.48967804 352.82183194 158.59913898 352.83477147 140.70851244 352.85869776 C122.32508542 352.88309732 103.94170655 352.89269451 85.55826366 352.88604504 C75.24269088 352.88255469 64.92719763 352.88477271 54.61163712 352.90229607 C45.83016801 352.91702874 37.04883445 352.91763953 28.26736797 352.90022516 C23.7898878 352.89172154 19.31264965 352.88954995 14.83518219 352.90487671 C10.73055707 352.91875288 6.62638066 352.91392333 2.52178131 352.89463747 C1.04273916 352.8908861 -0.43633918 352.89377442 -1.91534899 352.90424912 C-17.81580035 353.00878735 -29.31406398 348.9120358 -40.99435425 338.07518005 C-50.56850526 327.95909597 -53.71099643 316.40691904 -53.6320343 302.78785706 C-53.63741984 301.66071915 -53.64280538 300.53358124 -53.64835411 299.37228763 C-53.66259601 295.61705161 -53.65553904 291.86216996 -53.64840698 288.10691833 C-53.65411252 285.40572505 -53.6609775 282.7045567 -53.66920471 280.00337219 C-53.68635414 273.44072086 -53.68724074 266.87816544 -53.68199181 260.31549753 C-53.67794154 254.9783005 -53.67940381 249.6411317 -53.68474007 244.303936 C-53.68548849 243.54275588 -53.68623691 242.78157575 -53.68700801 241.99732956 C-53.68853958 240.45072166 -53.69007792 238.90411378 -53.69162298 237.3575059 C-53.70533415 222.87097778 -53.69992015 208.38450374 -53.68843777 193.89797686 C-53.67850758 180.6632194 -53.69144478 167.4286018 -53.71537196 154.19386591 C-53.73979146 140.58360749 -53.74936379 126.97341414 -53.74271923 113.36313426 C-53.73923324 105.73033574 -53.74141794 98.09764471 -53.75897026 90.46486282 C-53.773728 83.96708041 -53.77428132 77.46948119 -53.75689935 70.97170223 C-53.74841582 67.66067076 -53.74836164 64.35023312 -53.7615509 61.03917694 C-53.77479115 57.43963606 -53.76318495 53.84097407 -53.74555969 50.24147034 C-53.7551647 49.2093439 -53.76476971 48.17721747 -53.77466577 47.11381447 C-53.63638504 33.31795375 -48.19363159 22.62030328 -38.93185425 12.63768005 C-27.56572286 1.88044856 -15.12207287 -0.06728843 0 0 Z M4.75564575 32.38768005 C9.41876222 37.9575531 9.41876222 37.9575531 14.50564575 42.76268005 C17.63370211 45.4251097 20.70968701 48.1313677 23.75564575 50.88768005 C26.73627296 53.57751436 29.72809808 56.25078369 32.75564575 58.88768005 C36.65077386 62.28021099 40.48347338 65.73962206 44.31814575 69.20018005 C46.44982056 71.11322155 48.59583685 73.00655617 50.75564575 74.88768005 C54.65077386 78.28021099 58.48347338 81.73962206 62.31814575 85.20018005 C64.44982056 87.11322155 66.59583685 89.00655617 68.75564575 90.88768005 C72.65077386 94.28021099 76.48347338 97.73962206 80.31814575 101.20018005 C82.44982056 103.11322155 84.59583685 105.00655617 86.75564575 106.88768005 C90.65077386 110.28021099 94.48347338 113.73962206 98.31814575 117.20018005 C100.44982056 119.11322155 102.59583685 121.00655617 104.75564575 122.88768005 C108.65077386 126.28021099 112.48347338 129.73962206 116.31814575 133.20018005 C118.44982056 135.11322155 120.59583685 137.00655617 122.75564575 138.88768005 C126.65077386 142.28021099 130.48347338 145.73962206 134.31814575 149.20018005 C137.08925539 151.68707332 139.89120561 154.13606844 142.70095825 156.5790863 C145.03585466 158.63432782 147.33144109 160.73011039 149.63064575 162.82518005 C151.33448563 164.35104587 153.04287839 165.87184207 154.75564575 167.38768005 C155.61802856 168.15209412 156.48041138 168.91650818 157.368927 169.7040863 C163.69609684 175.17815989 163.69609684 175.17815989 171.75564575 176.38768005 C177.93596635 174.51581704 181.71712963 172.15937907 186.25564575 167.63768005 C187.38646341 166.5523224 188.51797084 165.46768294 189.650177 164.3837738 C190.1859436 163.86412048 190.72171021 163.34446716 191.27371216 162.80906677 C193.11277473 161.04514218 195.01325173 159.36388179 196.94314575 157.70018005 C199.91291364 155.13054931 202.84075646 152.5194845 205.75564575 149.88768005 C209.3724092 146.62377157 213.01954184 143.39977056 216.69314575 140.20018005 C219.06529004 138.11556841 221.4112064 136.00339361 223.75564575 133.88768005 C227.3724092 130.62377157 231.01954184 127.39977056 234.69314575 124.20018005 C237.06529004 122.11556841 239.4112064 120.00339361 241.75564575 117.88768005 C245.3724092 114.62377157 249.01954184 111.39977056 252.69314575 108.20018005 C255.06529004 106.11556841 257.4112064 104.00339361 259.75564575 101.88768005 C263.3724092 98.62377157 267.01954184 95.39977056 270.69314575 92.20018005 C273.06529004 90.11556841 275.4112064 88.00339361 277.75564575 85.88768005 C281.3724092 82.62377157 285.01954184 79.39977056 288.69314575 76.20018005 C291.06529004 74.11556841 293.4112064 72.00339361 295.75564575 69.88768005 C299.3724092 66.62377157 303.01954184 63.39977056 306.69314575 60.20018005 C309.06529004 58.11556841 311.4112064 56.00339361 313.75564575 53.88768005 C316.73627296 51.19784575 319.72809808 48.52457641 322.75564575 45.88768005 C325.93605793 43.11133664 329.1027075 40.32021215 332.25564575 37.51268005 C333.11158325 36.75213318 333.96752075 35.9915863 334.84939575 35.20799255 C335.47845825 34.60728943 336.10752075 34.0065863 336.75564575 33.38768005 C336.75564575 33.05768005 336.75564575 32.72768005 336.75564575 32.38768005 C227.19564575 32.38768005 117.63564575 32.38768005 4.75564575 32.38768005 Z M-21.24435425 55.38768005 C-21.24435425 132.60768005 -21.24435425 209.82768005 -21.24435425 289.38768005 C-18.49293067 286.63625647 -16.62044795 284.69699997 -14.58834839 281.57688904 C-14.10048355 280.83333664 -13.61261871 280.08978424 -13.10997009 279.32369995 C-12.58841843 278.51852432 -12.06686676 277.71334869 -11.5295105 276.8837738 C-10.97077744 276.03037918 -10.41204437 275.17698456 -9.83638 274.29772949 C-8.62537565 272.44763616 -7.41639129 270.59621939 -6.209198 268.74363708 C-2.94174973 263.73092191 0.34224622 258.72908128 3.6267395 253.7275238 C4.30332611 252.6968277 4.97991272 251.66613159 5.67700195 250.60420227 C12.44803764 240.30522736 19.34198505 230.09121939 26.25564575 219.88768005 C37.74486073 202.92388097 49.06964939 185.85691429 60.30447388 168.72361755 C60.88292053 167.84247284 61.46136719 166.96132812 62.05734253 166.05348206 C63.16419511 164.36686763 64.26959854 162.67930108 65.37338257 160.99067688 C68.68124965 155.94899119 72.09276051 151.03629883 75.78347778 146.26487732 C76.94415062 144.43039368 76.94415062 144.43039368 76.58547974 142.31053162 C75.16119024 139.01023622 72.33996518 136.90754043 69.69314575 134.57518005 C68.80405518 133.77406799 68.80405518 133.77406799 67.89700317 132.95677185 C66.19137884 131.42424593 64.47598862 129.90364661 62.75564575 128.38768005 C62.00025513 127.71994568 61.2448645 127.0522113 60.46658325 126.36424255 C59.21873316 125.27044803 57.96751775 124.18047877 56.712677 123.0947113 C54.37005425 121.05134575 52.06291153 118.97087146 49.75564575 116.88768005 C46.77501855 114.19784575 43.78319342 111.52457641 40.75564575 108.88768005 C36.86051765 105.49514912 33.02781812 102.03573805 29.19314575 98.57518005 C27.06147095 96.66213856 24.91545465 94.76880393 22.75564575 92.88768005 C18.86051765 89.49514912 15.02781812 86.03573805 11.19314575 82.57518005 C8.42067267 80.08706319 5.61719726 77.63700542 2.806427 75.19236755 C0.49475779 73.15809864 -1.77966855 71.08545696 -4.05685425 69.01268005 C-11.99651003 60.54471047 -11.99651003 60.54471047 -21.24435425 55.38768005 Z M357.19314575 59.45018005 C354.06972596 62.29005536 350.94189356 65.11844627 347.75564575 67.88768005 C344.72809808 70.52457641 341.73627296 73.19784575 338.75564575 75.88768005 C335.1388823 79.15158853 331.49174967 82.37558955 327.81814575 85.57518005 C325.44600147 87.6597917 323.1000851 89.7719665 320.75564575 91.88768005 C317.1388823 95.15158853 313.49174967 98.37558955 309.81814575 101.57518005 C307.44600147 103.6597917 305.1000851 105.7719665 302.75564575 107.88768005 C299.1388823 111.15158853 295.49174967 114.37558955 291.81814575 117.57518005 C289.44600147 119.6597917 287.1000851 121.7719665 284.75564575 123.88768005 C278.17541636 129.82298651 271.49352785 135.63240576 264.75564575 141.38768005 C265.37185193 144.44338416 266.3550329 146.60489109 268.07107544 149.19847107 C268.80321259 150.31379967 268.80321259 150.31379967 269.55014038 151.45166016 C270.35569366 152.6594236 270.35569366 152.6594236 271.17752075 153.8915863 C271.74049866 154.74498093 272.30347656 155.59837555 272.8835144 156.47763062 C274.75176031 159.30569777 276.62852069 162.12800008 278.50564575 164.95018005 C279.82299384 166.93957086 281.14004668 168.9291572 282.45681763 170.91893005 C291.9036593 185.1752832 301.45313552 199.36176604 311.04031372 213.52400208 C321.87098287 229.52417324 332.53560144 245.6297318 343.12869263 261.78807068 C352.15742089 275.78447645 352.15742089 275.78447645 361.75564575 289.38768005 C362.08564575 289.38768005 362.41564575 289.38768005 362.75564575 289.38768005 C362.75564575 212.16768005 362.75564575 134.94768005 362.75564575 55.38768005 C360.65852833 55.38768005 358.61170661 58.15290073 357.19314575 59.45018005 Z M101.75564575 165.38768005 C100.52287134 166.77165421 100.52287134 166.77165421 99.32669067 168.63670349 C98.83867477 169.35734985 98.35065887 170.07799622 97.84785461 170.82048035 C97.05004326 172.02163483 97.05004326 172.02163483 96.2361145 173.24705505 C95.67455154 174.0811792 95.11298859 174.91530334 94.53440857 175.77470398 C92.66372457 178.55778106 90.8033591 181.34759556 88.94314575 184.13768005 C87.63105765 186.09498748 86.31855136 188.05201464 85.00564575 190.0087738 C75.41287191 204.32572151 65.92527666 218.71186864 56.46365356 233.1157074 C47.21912812 247.18837582 37.87187846 261.18777951 28.44314575 275.13768005 C27.83371124 276.0394397 27.22427673 276.94119934 26.59637451 277.87028503 C24.24791152 281.34477425 21.89910632 284.81903172 19.54975891 288.29292297 C14.66266032 295.52069429 9.79203443 302.75922183 4.94314575 310.01268005 C4.29112183 310.98431091 3.6390979 311.95594177 2.96731567 312.95701599 C2.11037109 314.24140564 2.11037109 314.24140564 1.2361145 315.55174255 C0.75037964 316.27829041 0.26464478 317.00483826 -0.23580933 317.75340271 C-1.33188226 319.20944261 -1.33188226 319.20944261 -1.24435425 320.38768005 C112.27564575 320.38768005 225.79564575 320.38768005 342.75564575 320.38768005 C338.45580682 313.63079031 334.14960056 306.88933169 329.74783325 300.20018005 C329.19334503 299.35669006 328.63885681 298.51320007 328.06756592 297.64414978 C326.25661605 294.89109723 324.44387261 292.1392334 322.63064575 289.38768005 C321.99860229 288.42805359 321.36655884 287.46842712 320.71536255 286.47972107 C310.73477585 271.33362267 300.63892543 256.26910843 290.46932983 241.24943542 C279.63929409 225.24985572 268.97522634 209.14492095 258.38259888 192.98728943 C252.29093191 183.70194752 246.14604549 174.47085057 239.75564575 165.38768005 C236.28821104 167.03156513 233.83255513 168.95983874 231.00564575 171.57518005 C227.94787756 174.37813423 224.88845393 177.16875914 221.75564575 179.88768005 C218.75905152 182.49315255 215.81574969 185.15066945 212.88064575 187.82518005 C197.82256177 201.31998203 184.50844907 208.60198639 163.98123169 207.57859802 C148.28344259 206.23199084 138.04564261 195.99064059 127.20535278 185.74461365 C124.77091102 183.46596303 122.25086823 181.29013345 119.728302 179.1103363 C116.45986007 176.25611276 113.2604578 173.32518402 110.05252075 170.40330505 C106.39008599 166.77475802 106.39008599 166.77475802 101.75564575 165.38768005 Z " fill="#000000" transform="translate(85.24435424804688,79.61231994628906)"/>
</svg>
