<?xml version="1.0" encoding="UTF-8"?>
<svg version="1.1" xmlns="http://www.w3.org/2000/svg" width="512" height="512">
<path d="M0 0 C3.01737722 0.00545213 6.03474656 0.00781126 9.05212784 0.00987244 C40.40525497 0.04320601 71.58041863 0.69617467 102.83908463 3.31785583 C104.70512225 3.4693531 106.57117044 3.6207202 108.43722916 3.7719574 C218.71867919 12.8531683 218.71867919 12.8531683 240.83908463 37.31785583 C244.69655074 42.11598384 244.26229322 46.87927542 244.22676468 52.74935913 C244.23484299 54.34200265 244.23484299 54.34200265 244.24308449 55.96682078 C244.25741083 59.530483 244.25024863 63.09377622 244.24313736 66.65745544 C244.24883845 69.21000468 244.2558017 71.76255135 244.26393509 74.31509399 C244.28004249 80.53219022 244.28196133 86.74914981 244.27672219 92.9662606 C244.27268088 98.01949506 244.27412356 103.07269966 244.27947044 108.12593269 C244.28021887 108.84511683 244.28096729 109.56430096 244.28173839 110.30527856 C244.28326986 111.76629651 244.28480821 113.22731445 244.28635336 114.68833239 C244.30008154 128.38969175 244.29463847 142.09099402 244.28316814 155.79235209 C244.2732353 168.32663241 244.2861767 180.86076513 244.31010234 193.39502268 C244.33448569 206.26606657 244.3441031 219.13704168 244.33744961 232.0081082 C244.33395569 239.23390308 244.33620075 246.45958443 244.35370064 253.68536186 C244.36995014 260.47911495 244.36525294 267.27254075 244.34639549 274.06630135 C244.34269996 276.56163605 244.34584596 279.05699151 244.35628128 281.55230713 C244.36942623 284.95498941 244.35800019 288.35672767 244.34029007 291.7593689 C244.34989508 292.75012781 244.35950008 293.74088672 244.36939615 294.76166862 C244.3065277 300.62007113 243.62667168 303.79515223 239.83908463 308.31785583 C239.37888931 308.92371521 238.918694 309.52957458 238.44455338 310.15379333 C225.0232897 324.72122553 201.61522754 329.35905279 183.21408463 333.75535583 C182.14827164 334.01461853 181.08245865 334.27388123 179.9843483 334.54100037 C166.35180681 337.64342437 166.35180681 337.64342437 159.83908463 336.31785583 C157.35773339 334.3100456 155.99962536 333.11192237 155.35806656 329.93864441 C155.36694901 329.05928223 155.37583145 328.17992004 155.38498306 327.27391052 C155.38543625 325.77280731 155.38543625 325.77280731 155.38589859 324.24137878 C155.40654373 323.16833496 155.42718887 322.09529114 155.44845963 320.98973083 C155.45411942 319.88558838 155.45977921 318.78144592 155.4656105 317.6438446 C155.48799695 314.11807358 155.53819966 310.59331959 155.58908463 307.06785583 C155.6091466 304.67724551 155.62739789 302.28661926 155.64377213 299.89598083 C155.68786919 294.03625896 155.75480464 288.17713006 155.83908463 282.31785583 C155.01698502 282.26742126 154.19488541 282.21698669 153.34787369 282.1650238 C146.23337122 281.69662421 139.18151763 281.05012672 132.10071182 280.2088623 C46.02525615 270.00095966 -42.1780556 270.79374976 -128.24094772 280.68478394 C-134.86883679 281.42982547 -141.50452123 281.90622858 -148.16091537 282.31785583 C-148.15203293 282.9353772 -148.14315048 283.55289856 -148.13399887 284.18913269 C-148.04554619 290.61280568 -147.98518969 297.03630585 -147.94118881 303.46043396 C-147.92106602 305.85829189 -147.89376478 308.25610071 -147.85915756 310.65379333 C-147.81067047 314.09922906 -147.78795297 317.54401635 -147.77029037 320.98973083 C-147.74964523 322.06277466 -147.72900009 323.13581848 -147.70772934 324.24137878 C-147.70727615 325.74248199 -147.70727615 325.74248199 -147.70681381 327.27391052 C-147.69793137 328.15327271 -147.68904892 329.03263489 -147.67989731 329.93864441 C-148.32142386 333.11176287 -149.67999291 334.3098414 -152.16091537 336.31785583 C-159.88454931 337.90149302 -168.22743328 335.52341345 -175.72341537 333.69285583 C-177.42860336 333.28462585 -177.42860336 333.28462585 -179.16823959 332.8681488 C-199.20168311 327.95951662 -222.54295208 321.98300444 -235.16091537 304.31785583 C-236.326194 301.98729858 -236.2912188 300.62981583 -236.30072308 298.03359032 C-236.30925994 296.67649328 -236.30925994 296.67649328 -236.31796926 295.29198015 C-236.31914914 294.29161623 -236.32032902 293.29125232 -236.32154465 292.26057434 C-236.32663247 291.2027864 -236.33172029 290.14499847 -236.33696228 289.05515635 C-236.35274207 285.48696249 -236.3612264 281.91878896 -236.36965561 278.35057068 C-236.37918963 275.80171071 -236.38908059 273.25285205 -236.39930344 270.70399475 C-236.42802653 263.0369537 -236.44777883 255.36990981 -236.46469578 247.70283455 C-236.46949015 245.53736187 -236.47447356 243.3718897 -236.47950101 241.20641756 C-236.51047455 227.76052807 -236.53716167 214.31463428 -236.55391979 200.8687191 C-236.55786934 197.75329455 -236.56187232 194.63787007 -236.56594467 191.52244568 C-236.56695303 190.74811532 -236.56796139 189.97378497 -236.56900031 189.17599006 C-236.5860019 176.63636243 -236.62710396 164.09693233 -236.67796766 151.55740111 C-236.72975528 138.68419848 -236.75886366 125.81109739 -236.76611668 112.93779147 C-236.77077785 105.70955406 -236.78551694 98.48163996 -236.82586098 91.25350571 C-236.86377557 84.45233101 -236.87115269 77.65180476 -236.85785484 70.85050583 C-236.85790887 68.3543782 -236.86823807 65.85822641 -236.88960648 63.36219025 C-236.91723045 59.95313826 -236.90780264 56.54610718 -236.8891716 53.13703918 C-236.90596653 52.1500596 -236.92276146 51.16308001 -236.94006532 50.14619195 C-236.84622041 43.27101454 -235.0295666 39.19643296 -230.16091537 34.31785583 C-218.20632505 24.34430777 -202.03191812 19.86190714 -187.16091537 16.31785583 C-186.3169017 16.11450623 -185.47288803 15.91115662 -184.60329819 15.7016449 C-158.25274202 9.4849697 -131.27528023 6.51272652 -104.34841537 4.13035583 C-103.47634445 4.05163239 -102.60427353 3.97290894 -101.70577621 3.89179993 C-67.84714157 0.87736186 -33.97888944 -0.06396877 0 0 Z M-200.91091537 37.88035583 C-201.7382518 38.14896423 -202.56558823 38.41757263 -203.41799545 38.69432068 C-208.5378804 40.46808051 -214.1906422 42.51833978 -218.16091537 46.31785583 C-218.16091537 47.63785583 -218.16091537 48.95785583 -218.16091537 50.31785583 C-204.74197527 57.82713026 -190.84604244 61.92350751 -175.86794662 65.14207458 C-175.14653488 65.29725555 -174.42512314 65.45243652 -173.68185043 65.61231995 C-170.05491145 66.38753315 -166.42506993 67.14260242 -162.78835678 67.87059021 C-161.44248482 68.14855556 -160.09661867 68.42654909 -158.75075912 68.70457458 C-157.5531395 68.94393738 -156.35551987 69.18330017 -155.12160873 69.42991638 C-152.05437765 70.34980749 -151.08909605 70.86179264 -149.16091537 73.31785583 C-148.77615452 75.26435375 -148.77615452 75.26435375 -148.76218796 77.51296997 C-148.74964981 78.36692352 -148.73711166 79.22087708 -148.72419357 80.10070801 C-148.72562866 81.03434677 -148.72706375 81.96798553 -148.72854233 82.92991638 C-148.71325485 84.40823944 -148.71325485 84.40823944 -148.69765854 85.91642761 C-148.66742581 89.17920032 -148.6582468 92.44167996 -148.64919662 95.70457458 C-148.63235758 97.96474186 -148.61420841 100.22489972 -148.59479904 102.48504639 C-148.54720893 108.43787191 -148.5174578 114.39065929 -148.49135971 120.34361267 C-148.46159967 126.41648392 -148.41505373 132.48922362 -148.36989975 138.56199646 C-148.28376407 150.48054757 -148.21646443 162.39912568 -148.16091537 174.31785583 C-146.90306358 173.38419228 -145.64657903 172.44868659 -144.3906517 171.51243591 C-143.34086891 170.7313018 -143.34086891 170.7313018 -142.26987839 169.93438721 C-139.00486858 167.43173981 -135.9309584 164.72707977 -132.84841537 162.00535583 C-127.61050035 157.42234262 -122.31176606 152.941542 -116.90310287 148.56004333 C-113.79091389 146.01531901 -110.7236504 143.42167359 -107.66091537 140.81785583 C-102.80924877 136.6948643 -97.90593146 132.64315152 -92.96560287 128.62644958 C-90.42772059 126.53746849 -87.92214181 124.41751074 -85.42531967 122.28001404 C-83.24131365 120.41539654 -81.04307338 118.56822738 -78.84011459 116.72605896 C-77.7047824 115.77395136 -76.57369142 114.81676698 -75.44655991 113.85496521 C-73.76305261 112.42630296 -72.05925698 111.02609526 -70.34841537 109.63035583 C-69.35197006 108.80148865 -68.35552475 107.97262146 -67.32888412 107.11863708 C-63.10289066 104.71643858 -60.97079586 104.75256086 -56.16091537 105.31785583 C-53.98122787 106.53269958 -53.98122787 106.53269958 -52.28591537 108.25535583 C-51.62204819 108.89988708 -50.958181 109.54441833 -50.27419662 110.20848083 C-49.22812241 111.25262146 -49.22812241 111.25262146 -48.16091537 112.31785583 C-46.60504986 113.7210805 -45.04216179 115.11654641 -43.47341537 116.50535583 C-38.94179202 120.59147397 -34.4586165 124.72829522 -29.98073959 128.87303162 C-25.91552528 132.63206915 -21.81140901 136.34504712 -17.68825912 140.04051208 C-14.83009334 142.61595359 -11.99381276 145.21471347 -9.16091537 147.81785583 C-4.71029559 151.90706129 -0.2301342 155.96154698 4.26877213 159.99754333 C7.18336923 162.6286538 10.07446776 165.28439022 12.96408463 167.94285583 C17.52785689 172.13992244 22.14870437 176.26287192 26.83908463 180.31785583 C32.92241118 175.30428432 38.39449492 169.8112657 43.90158463 164.17723083 C45.35238257 162.70435107 46.80500228 161.23328243 48.25761795 159.76219559 C51.81221583 156.16214566 55.36264429 152.55819951 58.89670181 148.93797302 C61.37072649 146.40439024 63.85693671 143.88333849 66.35150528 141.36998749 C67.7490041 139.95515349 69.13318946 138.5272086 70.51706314 137.0990448 C78.56720773 129.01506496 78.56720773 129.01506496 84.83908463 128.31785583 C90.36659729 130.08782052 94.13343178 134.10751198 98.21408463 138.06785583 C99.55050065 139.3408564 100.8877307 140.61300297 102.22580338 141.88426208 C102.85663834 142.48641541 103.4874733 143.08856873 104.13742447 143.70896912 C106.63213522 146.06766981 109.21794954 148.30947161 111.81955338 150.54832458 C114.53394655 152.92670004 117.1848085 155.37294489 119.83908463 157.81785583 C123.13931247 160.85680076 126.44857936 163.87941794 129.83908463 166.81785583 C133.22959815 169.75630089 136.53859039 172.77919195 139.83908463 175.81785583 C147.28468747 183.3301351 147.28468747 183.3301351 155.83908463 189.31785583 C155.84266716 188.42525448 155.84266716 188.42525448 155.84632206 187.51462078 C155.90542891 173.04287653 155.98095113 158.57128707 156.07479954 144.09972668 C156.11978692 137.10140678 156.15919466 130.1031381 156.18552017 123.10472107 C156.21092622 116.35488374 156.25181077 109.60530452 156.30227089 102.85560036 C156.31899697 100.27635329 156.33047533 97.69706685 156.33669853 95.11777306 C156.34627714 91.51389415 156.37426211 87.91060468 156.40671158 84.30686951 C156.40527649 83.23296967 156.4038414 82.15906982 156.40236282 81.05262756 C156.41490097 80.0724617 156.42743912 79.09229584 156.44035721 78.08242798 C156.44496617 77.22976947 156.44957514 76.37711096 156.45432377 75.49861431 C156.93001133 72.80249886 157.66884514 71.94669114 159.83908463 70.31785583 C162.33866112 69.5904249 164.72360228 69.01630093 167.26877213 68.52098083 C168.79242629 68.20271666 170.3160244 67.88418404 171.83957291 67.56541443 C173.03456406 67.32163055 173.03456406 67.32163055 174.25369644 67.07292175 C201.96862464 61.87591956 201.96862464 61.87591956 226.83908463 49.31785583 C224.91780977 44.28800145 221.34432894 43.09363611 216.67502213 40.89207458 C137.08457016 6.98309439 27.61128625 14.24297309 -200.91091537 37.88035583 Z M-220.16091537 69.31785583 C-220.32060579 98.13408256 -220.44448397 126.95025711 -220.51837268 155.76683921 C-220.52712762 159.16893663 -220.53618788 162.57103317 -220.54543686 165.97312927 C-220.54727303 166.65042496 -220.54910921 167.32772065 -220.55100102 168.02554046 C-220.58145982 178.99208562 -220.63665133 189.9583739 -220.70098495 200.92476667 C-220.76644738 212.17743526 -220.80480315 223.42997553 -220.81953484 234.68284404 C-220.82866934 241.00348607 -220.85017139 247.32354551 -220.90102577 253.64400101 C-220.94849286 259.59157865 -220.96320527 265.53833301 -220.95266914 271.48608208 C-220.95459698 273.67023503 -220.96854887 275.85441514 -220.9953537 278.03840446 C-221.03015049 281.01946093 -221.02182603 283.99740343 -221.00269699 286.97853088 C-221.02308688 287.8442991 -221.04347677 288.71006731 -221.06448454 289.60207093 C-221.00355026 293.1113884 -220.91800781 295.39714884 -218.6403085 298.16707969 C-206.15701439 309.07217583 -180.97025227 318.31785583 -164.16091537 318.31785583 C-164.16091537 241.09785583 -164.16091537 163.87785583 -164.16091537 84.31785583 C-174.39091537 82.00785583 -184.62091537 79.69785583 -195.16091537 77.31785583 C-205.66091537 74.00535583 -205.66091537 74.00535583 -209.62966537 72.57957458 C-213.10875959 71.33649114 -216.60527927 70.3166211 -220.16091537 69.31785583 Z M221.19406509 71.14671326 C205.33740972 77.52261377 188.49638643 80.74843402 171.83908463 84.31785583 C171.83908463 161.53785583 171.83908463 238.75785583 171.83908463 318.31785583 C187.78579728 314.96065317 202.82292004 311.75237948 217.21408463 304.25535583 C217.82671158 303.93921326 218.43933853 303.62307068 219.07052994 303.29734802 C222.97410092 301.14829003 225.48068467 299.09503129 227.83908463 295.31785583 C228.40988162 292.25436289 228.36198623 289.24543804 228.32010269 286.13674927 C228.32522924 284.74601683 228.32522924 284.74601683 228.33045936 283.32718879 C228.3370501 280.21919012 228.31504204 277.11205429 228.29318619 274.00413513 C228.29205797 271.77682516 228.29269107 269.5495137 228.29495621 267.32220459 C228.29610528 261.27297682 228.27256436 255.22406542 228.24466038 249.17491126 C228.2196791 242.85415224 228.2173073 236.53338622 228.21255875 230.21258545 C228.20153326 219.60267509 228.1765374 208.99288988 228.14084244 198.38304138 C228.10411738 187.45563843 228.07580806 176.52826704 228.05881119 165.60081482 C228.05776029 164.92706744 228.0567094 164.25332005 228.05562666 163.55915608 C228.05040645 160.17910935 228.04535163 156.79906239 228.04037905 153.41901529 C227.99892295 125.38521464 227.92818207 97.35154246 227.83908463 69.31785583 C225.34212844 69.31785583 223.48087516 70.21935045 221.19406509 71.14671326 Z M-65.97341537 128.13035583 C-67.45261459 129.36205505 -67.45261459 129.36205505 -68.96169662 130.61863708 C-70.02888778 131.51744554 -71.09527898 132.41720458 -72.16091537 133.31785583 C-72.69249252 133.76693298 -73.22406967 134.21601013 -73.77175522 134.67869568 C-75.9571016 136.52671998 -78.14112253 138.37628017 -80.32229233 140.22923279 C-84.62019742 143.87638306 -88.97669287 147.44697705 -93.34841537 151.00535583 C-96.47891204 153.57931976 -99.57263998 156.1935467 -102.66091537 158.81785583 C-107.51050919 162.93887217 -112.41252344 166.98776937 -117.34841537 171.00535583 C-120.47891421 173.57932154 -123.57255982 176.19363833 -126.66091537 178.81785583 C-142.87795119 192.59089888 -142.87795119 192.59089888 -146.27877426 194.5178833 C-148.45537688 196.2370997 -148.45537688 196.2370997 -148.64193344 199.29812622 C-148.63305099 200.51724197 -148.62416855 201.73635773 -148.61501694 202.99241638 C-148.61560104 203.66585083 -148.61618515 204.33928528 -148.61678696 205.03312683 C-148.61400176 207.25746848 -148.58289251 209.48046731 -148.55154037 211.70457458 C-148.54407945 213.24727649 -148.53838582 214.78998787 -148.5343895 216.33270264 C-148.51912121 220.39194432 -148.47982982 224.45061294 -148.43557358 228.5096283 C-148.3946462 232.65200549 -148.37638394 236.79447533 -148.35622787 240.93699646 C-148.31333609 249.06421248 -148.24507107 257.19096286 -148.16091537 265.31785583 C-141.28626592 264.81574589 -134.43186196 264.29737296 -127.59060287 263.45066833 C-117.79387536 262.27378243 -107.98328063 261.25598463 -98.16091537 260.31785583 C-97.31855331 260.23732971 -96.47619125 260.15680359 -95.60830307 260.07383728 C-63.53264759 257.07737549 -31.39391769 257.027643 0.79224014 257.00778198 C4.10034142 257.00539284 7.4084288 257.00007409 10.71652603 256.99449158 C45.50177986 256.95158237 80.08185664 257.87614374 114.71408463 261.31785583 C116.47704164 261.48519621 118.24006324 261.6518575 120.00314713 261.81785583 C129.21295706 262.69667329 138.38911383 263.71687646 147.55832291 264.95066833 C150.36594934 265.26490186 153.02109885 265.34603532 155.83908463 265.31785583 C156.17095631 257.99086066 156.39724973 250.66582388 156.55319595 243.33299255 C156.61824623 240.84364937 156.70672368 238.35479668 156.81979752 235.86717224 C158.11447852 221.20637165 158.11447852 221.20637165 153.02804947 208.06004333 C149.94429333 204.93916281 146.5476303 202.64166315 142.83908463 200.31785583 C141.4818265 199.17911123 140.1404122 198.02011847 138.83908463 196.81785583 C138.23064713 196.29191833 137.62220963 195.76598083 136.99533463 195.22410583 C134.0666805 192.63500581 131.2051179 189.9758935 128.33908463 187.31785583 C124.25609589 183.53151677 120.14138648 179.8001845 115.92892838 176.15769958 C113.19537784 173.75115323 110.51799413 171.28477127 107.83908463 168.81785583 C103.870367 165.1647616 99.87102707 161.55543013 95.79611588 158.02098083 C92.1158956 154.81823425 88.48123299 151.56375195 84.83908463 148.31785583 C78.75575807 153.33142735 73.28367433 158.82444597 67.77658463 164.45848083 C66.32578668 165.9313606 64.87316697 167.40242924 63.4205513 168.87351608 C59.86595342 172.47356601 56.31552496 176.07751216 52.78146744 179.69773865 C50.30744276 182.23132143 47.82123254 184.75237318 45.32666397 187.26572418 C43.92916516 188.68055818 42.54497979 190.10850307 41.16110611 191.53666687 C33.1209615 199.6106047 33.1209615 199.6106047 26.83908463 200.31785583 C20.91684804 198.50784251 16.8018057 193.7975198 12.46408463 189.56785583 C11.02011946 188.17583187 9.57481299 186.78519788 8.12814713 185.39598083 C7.06056168 184.37045105 7.06056168 184.37045105 5.97140884 183.32420349 C3.28110619 180.79284247 0.50750319 178.3695407 -2.28542709 175.95262146 C-5.09027261 173.50778345 -7.81297147 170.97809876 -10.53591537 168.44285583 C-15.19924761 164.11921423 -19.89787713 159.83967131 -24.63357162 155.59519958 C-27.4917378 153.01975773 -30.32798154 150.42095887 -33.16091537 147.81785583 C-37.6492536 143.6950384 -42.15827357 139.59671654 -46.69997787 135.53269958 C-48.4551664 133.95302991 -50.19874547 132.36042103 -51.93435287 130.75926208 C-52.8341185 129.93297302 -53.73388412 129.10668396 -54.66091537 128.25535583 C-55.47560287 127.50125427 -56.29029037 126.74715271 -57.12966537 125.97019958 C-61.00472579 122.81798698 -62.57812792 125.29183587 -65.97341537 128.13035583 Z " fill="#000000" transform="translate(252.16091537475586,39.68214416503906)"/>
<path d="M0 0 C0.71677611 -0.00453111 1.43355221 -0.00906223 2.17204881 -0.01373065 C4.56237713 -0.02634238 6.95247666 -0.02475638 9.34283447 -0.02310181 C11.06146537 -0.02908914 12.78009357 -0.03589516 14.49871826 -0.04345703 C19.16005719 -0.06110496 23.82132266 -0.06581195 28.48269176 -0.0670886 C31.39781391 -0.06851163 34.31291746 -0.07278414 37.22803497 -0.07808304 C47.40628746 -0.09658046 57.58448761 -0.10475415 67.76275635 -0.10317993 C77.23650276 -0.10197913 86.71002113 -0.12307012 96.18370986 -0.15466726 C104.32830426 -0.1808593 112.47282432 -0.19154597 120.61746049 -0.19026911 C125.47696595 -0.18976027 130.33626876 -0.19540016 135.19573212 -0.21662521 C139.7693326 -0.23605656 144.34253816 -0.23609872 148.91615295 -0.22159195 C150.58902313 -0.2195087 152.26191834 -0.22417574 153.93474579 -0.23631287 C165.35916562 -0.31379335 175.37523913 0.38500048 184.13287354 8.56430054 C190.50972764 15.65692398 192.98956713 22.82956122 192.66412354 32.26742554 C193.60513916 32.22101929 194.54615479 32.17461304 195.51568604 32.12680054 C205.69239579 31.83182344 205.69239579 31.83182344 210.28912354 33.89242554 C215.25949806 38.86280007 217.11835283 42.56608467 217.21990967 49.50180054 C217.20776428 50.87078491 217.20776428 50.87078491 217.19537354 52.26742554 C217.19920044 53.22133179 217.20302734 54.17523804 217.20697021 55.15805054 C217.2096839 57.16847798 217.20236091 59.17894106 217.18560791 61.18930054 C217.16419062 64.25781341 217.1854282 67.32398506 217.21099854 70.39242554 C217.20835516 72.35076401 217.20322999 74.30910104 217.19537354 76.26742554 C217.20347046 77.18008179 217.21156738 78.09273804 217.21990967 79.03305054 C217.11835283 85.9687664 215.25949806 89.67205101 210.28912354 94.64242554 C204.58291347 97.20038177 198.82303978 96.57115291 192.66412354 96.26742554 C192.74662354 97.38117554 192.82912354 98.49492554 192.91412354 99.64242554 C192.88703387 107.29525526 189.5388569 114.19889789 184.36724854 119.73617554 C178.01373448 125.44850927 171.04308594 128.49603216 162.45025635 128.55795288 C161.24169983 128.57071259 160.03314331 128.58347229 158.78796387 128.59661865 C156.84720978 128.59995712 156.84720978 128.59995712 154.86724854 128.60336304 C153.50972355 128.60980066 152.15219991 128.61652972 150.79467773 128.62353516 C147.95360096 128.63547938 145.1126455 128.63921909 142.27154541 128.63803101 C138.6560222 128.63782831 135.04128937 128.66509101 131.42595291 128.69957542 C128.6221164 128.7219723 125.81846601 128.72586463 123.01454926 128.72481155 C121.04166319 128.72827626 119.06883522 128.74986152 117.09606934 128.77191162 C106.18887995 128.71695201 97.99753256 126.51801046 90.22662354 118.70492554 C89.72453369 118.22346069 89.22244385 117.74199585 88.70513916 117.24594116 C87.34349958 115.93479947 86.00278866 114.60201557 84.66412354 113.26742554 C84.05439697 112.6602771 83.44467041 112.05312866 82.81646729 111.42758179 C82.43619385 111.04473022 82.05592041 110.66187866 81.66412354 110.26742554 C78.12388812 111.75847063 76.02218789 113.78892142 73.41412354 116.57992554 C67.25895751 122.86648263 60.68852023 127.73182717 51.65612793 128.53485107 C50.59819031 128.54247467 49.54025269 128.55009827 48.45025635 128.55795288 C47.24169983 128.57071259 46.03314331 128.58347229 44.78796387 128.59661865 C42.84720978 128.59995712 42.84720978 128.59995712 40.86724854 128.60336304 C39.50972355 128.60980066 38.15219991 128.61652972 36.79467773 128.62353516 C33.95360096 128.63547938 31.1126455 128.63921909 28.27154541 128.63803101 C24.6560222 128.63782831 21.04128937 128.66509101 17.42595291 128.69957542 C14.6221164 128.7219723 11.81846601 128.72586463 9.01454926 128.72481155 C7.04166319 128.72827626 5.06883522 128.74986152 3.09606934 128.77191162 C-6.92820668 128.72140087 -15.30866206 126.97149843 -22.80462646 119.97055054 C-29.18148057 112.87792709 -31.66132006 105.70528985 -31.33587646 96.26742554 C-32.27689209 96.31383179 -33.21790771 96.36023804 -34.18743896 96.40805054 C-44.36414872 96.70302763 -44.36414872 96.70302763 -48.96087646 94.64242554 C-53.93125099 89.67205101 -55.79010576 85.9687664 -55.8916626 79.03305054 C-55.88356567 78.12039429 -55.87546875 77.20773804 -55.86712646 76.26742554 C-55.87095337 75.31351929 -55.87478027 74.35961304 -55.87872314 73.37680054 C-55.88143683 71.36637309 -55.87411384 69.35591001 -55.85736084 67.34555054 C-55.83594355 64.27703767 -55.85718113 61.21086601 -55.88275146 58.14242554 C-55.88010809 56.18408706 -55.87498292 54.22575004 -55.86712646 52.26742554 C-55.87522339 51.35476929 -55.88332031 50.44211304 -55.8916626 49.50180054 C-55.79010576 42.56608467 -53.93125099 38.86280007 -48.96087646 33.89242554 C-43.2546664 31.3344693 -37.4947927 31.96369816 -31.33587646 32.26742554 C-31.41837646 31.15367554 -31.50087646 30.03992554 -31.58587646 28.89242554 C-31.5587868 21.23959581 -28.21060983 14.33595319 -23.03900146 8.79867554 C-16.25003119 2.6948307 -9.13384047 0.02392888 0 0 Z M-11.27337646 22.01742554 C-16.1928632 29.76934403 -15.64699528 37.71197617 -15.63665771 46.63461304 C-15.64055177 48.03794479 -15.64488789 49.44127539 -15.64964294 50.84460449 C-15.65707868 53.77806426 -15.65683342 56.71140363 -15.65155029 59.64486694 C-15.64576226 63.38251646 -15.66268297 67.11966935 -15.68589497 70.85723686 C-15.7007109 73.7536705 -15.70149335 76.64998674 -15.69838524 79.54645157 C-15.69889462 80.92340197 -15.70405939 82.30035962 -15.71419716 83.6772728 C-16.0187172 95.95182576 -16.0187172 95.95182576 -11.06092834 106.84283447 C-4.72998215 112.68895105 3.00232266 112.5760369 11.09381104 112.56820679 C12.57846359 112.57463448 12.57846359 112.57463448 14.09310913 112.58119202 C16.17911009 112.58691415 18.26513099 112.58745125 20.35113525 112.58309937 C23.52222155 112.57994236 26.69237128 112.60341541 29.86334229 112.62875366 C31.89849737 112.63102734 33.93365494 112.63172983 35.96881104 112.63070679 C37.37548538 112.64452141 37.37548538 112.64452141 38.81057739 112.65861511 C46.09817183 112.60804826 52.4740422 111.68127939 58.39825439 107.19857788 C59.13438965 106.42465698 59.8705249 105.65073608 60.62896729 104.85336304 C61.85776611 103.58879272 61.85776611 103.58879272 63.11138916 102.29867554 C63.9331665 101.42211304 64.75494385 100.54555054 65.60162354 99.64242554 C67.27561865 97.89852174 68.95131244 96.15624642 70.62896729 94.41586304 C71.7213269 93.25836548 71.7213269 93.25836548 72.83575439 92.07748413 C75.44644409 89.49293968 76.54355401 89.28405582 80.28912354 88.76742554 C86.05050049 88.90141105 88.83469436 92.30306682 92.66412354 96.26742554 C93.15074463 96.78192261 93.63736572 97.29641968 94.13873291 97.82650757 C95.22708433 98.97683272 96.3207912 100.12210989 97.41925049 101.26278687 C98.51448929 102.40507119 99.59476141 103.56195936 100.65704346 104.73495483 C106.00244015 110.34041136 112.07686061 112.32650467 119.76568604 112.65560913 C121.60673141 112.67514382 123.44801365 112.6778656 125.28912354 112.66586304 C126.76953125 112.6701683 126.76953125 112.6701683 128.27984619 112.67456055 C130.35390806 112.67659016 132.42798956 112.67113803 134.50201416 112.65853882 C137.65544922 112.64246974 140.80760278 112.65842564 143.96099854 112.67758179 C145.987043 112.67559916 148.01308667 112.67175508 150.03912354 112.66586304 C150.97063232 112.67193573 151.90214111 112.67800842 152.86187744 112.68426514 C159.20826612 112.61692583 166.11111476 112.11420771 171.25518799 107.99261475 C177.95626465 100.65074384 176.97565258 91.17696115 176.96490479 81.90023804 C176.96879884 80.49690628 176.97313496 79.09357569 176.97789001 77.69024658 C176.98532575 74.75678681 176.98508049 71.82344745 176.97979736 68.88998413 C176.97400933 65.15233462 176.99093004 61.41518172 177.01414204 57.67761421 C177.02895797 54.78118057 177.02974042 51.88486434 177.02663231 48.98839951 C177.02714169 47.6114491 177.03230646 46.23449145 177.04244423 44.85757828 C177.34696427 32.58302531 177.34696427 32.58302531 172.38917542 21.6920166 C167.12031623 16.82665144 160.71194563 16.0189275 153.8086853 16.00672913 C152.82918641 16.00099081 152.82918641 16.00099081 151.82989967 15.99513656 C149.66143843 15.98489193 147.49324622 15.98878225 145.32476807 15.99276733 C143.76200111 15.9884161 142.19923629 15.98323158 140.63647461 15.97727966 C136.40499065 15.96392218 132.1735962 15.9633074 127.94209528 15.96584296 C124.40347768 15.96691495 120.86487801 15.96202344 117.32626426 15.95723754 C108.97451482 15.94615345 100.62281036 15.94569867 92.27105713 15.95175171 C83.6692385 15.95779035 75.06758349 15.94548076 66.46579278 15.92418164 C59.06768477 15.90653988 51.66962872 15.90056837 44.27150047 15.90381938 C39.85864999 15.90562839 35.44591621 15.90303444 31.03308487 15.88910484 C26.88139393 15.87648925 22.72995719 15.87850569 18.57826996 15.89151573 C17.0597894 15.89387302 15.54129075 15.8911774 14.02283096 15.88289261 C0.22139281 15.45660894 0.22139281 15.45660894 -11.27337646 22.01742554 Z M-39.33587646 48.26742554 C-39.33587646 58.82742554 -39.33587646 69.38742554 -39.33587646 80.26742554 C-36.69587646 80.26742554 -34.05587646 80.26742554 -31.33587646 80.26742554 C-31.33587646 69.70742554 -31.33587646 59.14742554 -31.33587646 48.26742554 C-33.97587646 48.26742554 -36.61587646 48.26742554 -39.33587646 48.26742554 Z M192.66412354 48.26742554 C192.66412354 58.82742554 192.66412354 69.38742554 192.66412354 80.26742554 C195.30412354 80.26742554 197.94412354 80.26742554 200.66412354 80.26742554 C200.66412354 69.70742554 200.66412354 59.14742554 200.66412354 48.26742554 C198.02412354 48.26742554 195.38412354 48.26742554 192.66412354 48.26742554 Z " fill="#000000" transform="translate(175.33587646484375,343.7325744628906)"/>
<path d="M0 0 C8.34468007 4.97590182 13.53387008 11.86345977 16.109375 21.2578125 C17.10789012 32.35758522 16.45884702 41.9922991 9.359375 51.0703125 C3.70168013 57.1280464 -3.34488592 60.84888618 -11.625 61.59375 C-22.35447774 61.83515993 -31.19802606 60.58332943 -39.359375 52.9609375 C-46.75303791 44.73737365 -48.47252567 36.02335615 -48.203125 25.24609375 C-47.72879865 16.86039919 -44.11592977 9.8548755 -37.890625 4.2578125 C-27.15195714 -3.81766573 -12.32399863 -5.91386512 0 0 Z M-29.265625 20.8828125 C-31.46970393 25.46051489 -31.6877889 29.26333661 -30.890625 34.2578125 C-28.56093569 39.09639798 -25.72921048 41.92812319 -20.890625 44.2578125 C-15.89614911 45.0549764 -12.09332739 44.83689143 -7.515625 42.6328125 C-3.93154787 39.39007605 -1.29527259 36.79305354 -0.5078125 31.859375 C-0.25178581 26.17558256 -0.95435568 22.60842595 -4.890625 18.2578125 C-9.24123845 14.32154318 -12.80839506 13.61897331 -18.4921875 13.875 C-23.42586604 14.66246009 -26.02288855 17.29873537 -29.265625 20.8828125 Z " fill="#000000" transform="translate(303.890625,82.7421875)"/>
<path d="M0 0 C0.87269531 -0.0038269 1.74539063 -0.00765381 2.64453125 -0.01159668 C4.48699092 -0.0143149 6.32948924 -0.00695994 8.171875 0.00976562 C10.99045934 0.03117752 13.80649485 0.00996199 16.625 -0.015625 C18.41667229 -0.01298171 20.20834299 -0.00785669 22 0 C22.84175781 -0.00809692 23.68351562 -0.01619385 24.55078125 -0.02453613 C30.38715618 0.06889601 30.38715618 0.06889601 33.52929688 2.43945312 C35.12144695 4.7039853 35.542797 5.7922417 35.5 8.53125 C35.5103125 9.19125 35.520625 9.85125 35.53125 10.53125 C34.72011424 13.58493756 33.53019712 14.62236769 31 16.53125 C28.00263779 17.13239553 25.04890723 17.09182764 22 17.0625 C21.12730469 17.0663269 20.25460937 17.07015381 19.35546875 17.07409668 C17.51300908 17.0768149 15.67051076 17.06945994 13.828125 17.05273438 C11.00954066 17.03132248 8.19350515 17.05253801 5.375 17.078125 C3.58332771 17.07548171 1.79165701 17.07035669 0 17.0625 C-0.84175781 17.07059692 -1.68351562 17.07869385 -2.55078125 17.08703613 C-8.38715618 16.99360399 -8.38715618 16.99360399 -11.52929688 14.62304688 C-13.12144695 12.3585147 -13.542797 11.2702583 -13.5 8.53125 C-13.51546875 7.54125 -13.51546875 7.54125 -13.53125 6.53125 C-11.69061453 -0.39820116 -5.94975317 -0.05723107 0 0 Z " fill="#000000" transform="translate(301,375.46875)"/>
</svg>
