<?xml version="1.0" encoding="UTF-8"?>
<svg version="1.1" xmlns="http://www.w3.org/2000/svg" width="512" height="512">
<path d="M0 0 C2.14027571 -0.00457179 4.28054997 -0.0098803 6.42082214 -0.0158844 C10.88973991 -0.02477735 15.35847861 -0.02243669 19.82739258 -0.01245117 C25.51252476 -0.00097672 31.19703435 -0.02116978 36.88208485 -0.05036831 C41.29802786 -0.06884675 45.71382494 -0.06841462 50.12979698 -0.06273079 C52.22385213 -0.06257894 54.31791805 -0.06850839 56.41193581 -0.08102226 C77.10400274 -0.18726988 96.17056894 2.33190346 111.86328125 17.27734375 C127.53602466 34.24078368 129.33042647 53.61689961 129.2890625 75.578125 C129.29363429 77.71840071 129.2989428 79.85867497 129.3049469 81.99894714 C129.31383985 86.46786491 129.31149919 90.93660361 129.30151367 95.40551758 C129.29003922 101.09064976 129.31023228 106.77515935 129.33943081 112.46020985 C129.35790925 116.87615286 129.35747712 121.29194994 129.35179329 125.70792198 C129.35164144 127.80197713 129.35757089 129.89604305 129.37008476 131.99006081 C129.47633238 152.68212774 126.95715904 171.74869394 112.01171875 187.44140625 C95.04827882 203.11414966 75.67216289 204.90855147 53.7109375 204.8671875 C51.57066179 204.87175929 49.43038753 204.8770678 47.29011536 204.8830719 C42.82119759 204.89196485 38.35245889 204.88962419 33.88354492 204.87963867 C28.19841274 204.86816422 22.51390315 204.88835728 16.82885265 204.91755581 C12.41290964 204.93603425 7.99711256 204.93560212 3.58114052 204.92991829 C1.48708537 204.92976644 -0.60698055 204.93569589 -2.70099831 204.94820976 C-23.39306524 205.05445738 -42.45963144 202.53528404 -58.15234375 187.58984375 C-73.82508716 170.62640382 -75.61948897 151.25028789 -75.578125 129.2890625 C-75.58269679 127.14878679 -75.5880053 125.00851253 -75.5940094 122.86824036 C-75.60290235 118.39932259 -75.60056169 113.93058389 -75.59057617 109.46166992 C-75.57910172 103.77653774 -75.59929478 98.09202815 -75.62849331 92.40697765 C-75.64697175 87.99103464 -75.64653962 83.57523756 -75.64085579 79.15926552 C-75.64070394 77.06521037 -75.64663339 74.97114445 -75.65914726 72.87712669 C-75.76539488 52.18505976 -73.24622154 33.11849356 -58.30078125 17.42578125 C-41.33734132 1.75303784 -21.96122539 -0.04136397 0 0 Z M-35.14453125 41.43359375 C-40.94174986 49.37696101 -42.29269007 55.69208587 -42.30566406 65.30371094 C-42.31062897 66.18731293 -42.31559387 67.07091492 -42.32070923 67.98129272 C-42.3352857 70.89769273 -42.3421256 73.81403833 -42.34765625 76.73046875 C-42.35341175 78.76442465 -42.35916943 80.79838054 -42.3649292 82.83233643 C-42.37542658 87.09590914 -42.3812774 91.35946306 -42.38476562 95.62304688 C-42.39024536 101.07132116 -42.41426772 106.51934492 -42.44273758 111.96754074 C-42.46141346 116.16958326 -42.46657221 120.37156604 -42.4681015 124.57364655 C-42.47111776 126.5813865 -42.47911139 128.58912566 -42.49228668 130.59682465 C-42.50944958 133.41337333 -42.50744194 136.22931787 -42.50097656 139.04589844 C-42.51019135 139.86595367 -42.51940613 140.68600891 -42.52890015 141.53091431 C-42.46907377 149.90195493 -40.24181299 158.39396952 -34.14453125 164.43359375 C-26.20116399 170.23081236 -19.88603913 171.58175257 -10.27441406 171.59472656 C-8.94901108 171.60217392 -8.94901108 171.60217392 -7.59683228 171.60977173 C-4.68043227 171.6243482 -1.76408667 171.6311881 1.15234375 171.63671875 C3.18629965 171.64247425 5.22025554 171.64823193 7.25421143 171.6539917 C11.51778414 171.66448908 15.78133806 171.6703399 20.04492188 171.67382812 C25.49319616 171.67930786 30.94121992 171.70333022 36.38941574 171.73180008 C40.59145826 171.75047596 44.79344104 171.75563471 48.99552155 171.757164 C51.0032615 171.76018026 53.01100066 171.76817389 55.01869965 171.78134918 C57.83524833 171.79851208 60.65119287 171.79650444 63.46777344 171.79003906 C64.69785629 171.80386124 64.69785629 171.80386124 65.95278931 171.81796265 C74.32382993 171.75813627 82.81584452 169.53087549 88.85546875 163.43359375 C94.65268736 155.49022649 96.00362757 149.17510163 96.01660156 139.56347656 C96.02156647 138.67987457 96.02653137 137.79627258 96.03164673 136.88589478 C96.0462232 133.96949477 96.0530631 131.05314917 96.05859375 128.13671875 C96.06434925 126.10276285 96.07010693 124.06880696 96.0758667 122.03485107 C96.08636408 117.77127836 96.0922149 113.50772444 96.09570312 109.24414062 C96.10118286 103.79586634 96.12520522 98.34784258 96.15367508 92.89964676 C96.17235096 88.69760424 96.17750971 84.49562146 96.179039 80.29354095 C96.18205526 78.285801 96.19004889 76.27806184 96.20322418 74.27036285 C96.22038708 71.45381417 96.21837944 68.63786963 96.21191406 65.82128906 C96.22573624 64.59120621 96.22573624 64.59120621 96.23983765 63.33627319 C96.18001127 54.96523257 93.95275049 46.47321798 87.85546875 40.43359375 C79.91210149 34.63637514 73.59697663 33.28543493 63.98535156 33.27246094 C63.10174957 33.26749603 62.21814758 33.26253113 61.30776978 33.25741577 C58.39136977 33.2428393 55.47502417 33.2359994 52.55859375 33.23046875 C50.52463785 33.22471325 48.49068196 33.21895557 46.45672607 33.2131958 C42.19315336 33.20269842 37.92959944 33.1968476 33.66601562 33.19335938 C28.21774134 33.18787964 22.76971758 33.16385728 17.32152176 33.13538742 C13.11947924 33.11671154 8.91749646 33.11155279 4.71541595 33.1100235 C2.707676 33.10700724 0.69993684 33.09901361 -1.30776215 33.08583832 C-4.12431083 33.06867542 -6.94025537 33.07068306 -9.75683594 33.07714844 C-10.57689117 33.06793365 -11.39694641 33.05871887 -12.24185181 33.04922485 C-20.61289243 33.10905123 -29.10490702 35.33631201 -35.14453125 41.43359375 Z " fill="#000000" transform="translate(101.14453125,281.56640625)"/>
<path d="M0 0 C2.14027571 -0.00457179 4.28054997 -0.0098803 6.42082214 -0.0158844 C10.88973991 -0.02477735 15.35847861 -0.02243669 19.82739258 -0.01245117 C25.51252476 -0.00097672 31.19703435 -0.02116978 36.88208485 -0.05036831 C41.29802786 -0.06884675 45.71382494 -0.06841462 50.12979698 -0.06273079 C52.22385213 -0.06257894 54.31791805 -0.06850839 56.41193581 -0.08102226 C77.10400274 -0.18726988 96.17056894 2.33190346 111.86328125 17.27734375 C127.53602466 34.24078368 129.33042647 53.61689961 129.2890625 75.578125 C129.29363429 77.71840071 129.2989428 79.85867497 129.3049469 81.99894714 C129.31383985 86.46786491 129.31149919 90.93660361 129.30151367 95.40551758 C129.29003922 101.09064976 129.31023228 106.77515935 129.33943081 112.46020985 C129.35790925 116.87615286 129.35747712 121.29194994 129.35179329 125.70792198 C129.35164144 127.80197713 129.35757089 129.89604305 129.37008476 131.99006081 C129.47633238 152.68212774 126.95715904 171.74869394 112.01171875 187.44140625 C95.04827882 203.11414966 75.67216289 204.90855147 53.7109375 204.8671875 C51.57066179 204.87175929 49.43038753 204.8770678 47.29011536 204.8830719 C42.82119759 204.89196485 38.35245889 204.88962419 33.88354492 204.87963867 C28.19841274 204.86816422 22.51390315 204.88835728 16.82885265 204.91755581 C12.41290964 204.93603425 7.99711256 204.93560212 3.58114052 204.92991829 C1.48708537 204.92976644 -0.60698055 204.93569589 -2.70099831 204.94820976 C-23.39306524 205.05445738 -42.45963144 202.53528404 -58.15234375 187.58984375 C-73.82508716 170.62640382 -75.61948897 151.25028789 -75.578125 129.2890625 C-75.58269679 127.14878679 -75.5880053 125.00851253 -75.5940094 122.86824036 C-75.60290235 118.39932259 -75.60056169 113.93058389 -75.59057617 109.46166992 C-75.57910172 103.77653774 -75.59929478 98.09202815 -75.62849331 92.40697765 C-75.64697175 87.99103464 -75.64653962 83.57523756 -75.64085579 79.15926552 C-75.64070394 77.06521037 -75.64663339 74.97114445 -75.65914726 72.87712669 C-75.76539488 52.18505976 -73.24622154 33.11849356 -58.30078125 17.42578125 C-41.33734132 1.75303784 -21.96122539 -0.04136397 0 0 Z M-35.14453125 41.43359375 C-40.94174986 49.37696101 -42.29269007 55.69208587 -42.30566406 65.30371094 C-42.31062897 66.18731293 -42.31559387 67.07091492 -42.32070923 67.98129272 C-42.3352857 70.89769273 -42.3421256 73.81403833 -42.34765625 76.73046875 C-42.35341175 78.76442465 -42.35916943 80.79838054 -42.3649292 82.83233643 C-42.37542658 87.09590914 -42.3812774 91.35946306 -42.38476562 95.62304688 C-42.39024536 101.07132116 -42.41426772 106.51934492 -42.44273758 111.96754074 C-42.46141346 116.16958326 -42.46657221 120.37156604 -42.4681015 124.57364655 C-42.47111776 126.5813865 -42.47911139 128.58912566 -42.49228668 130.59682465 C-42.50944958 133.41337333 -42.50744194 136.22931787 -42.50097656 139.04589844 C-42.51019135 139.86595367 -42.51940613 140.68600891 -42.52890015 141.53091431 C-42.46907377 149.90195493 -40.24181299 158.39396952 -34.14453125 164.43359375 C-26.20116399 170.23081236 -19.88603913 171.58175257 -10.27441406 171.59472656 C-8.94901108 171.60217392 -8.94901108 171.60217392 -7.59683228 171.60977173 C-4.68043227 171.6243482 -1.76408667 171.6311881 1.15234375 171.63671875 C3.18629965 171.64247425 5.22025554 171.64823193 7.25421143 171.6539917 C11.51778414 171.66448908 15.78133806 171.6703399 20.04492188 171.67382812 C25.49319616 171.67930786 30.94121992 171.70333022 36.38941574 171.73180008 C40.59145826 171.75047596 44.79344104 171.75563471 48.99552155 171.757164 C51.0032615 171.76018026 53.01100066 171.76817389 55.01869965 171.78134918 C57.83524833 171.79851208 60.65119287 171.79650444 63.46777344 171.79003906 C64.69785629 171.80386124 64.69785629 171.80386124 65.95278931 171.81796265 C74.32382993 171.75813627 82.81584452 169.53087549 88.85546875 163.43359375 C94.65268736 155.49022649 96.00362757 149.17510163 96.01660156 139.56347656 C96.02156647 138.67987457 96.02653137 137.79627258 96.03164673 136.88589478 C96.0462232 133.96949477 96.0530631 131.05314917 96.05859375 128.13671875 C96.06434925 126.10276285 96.07010693 124.06880696 96.0758667 122.03485107 C96.08636408 117.77127836 96.0922149 113.50772444 96.09570312 109.24414062 C96.10118286 103.79586634 96.12520522 98.34784258 96.15367508 92.89964676 C96.17235096 88.69760424 96.17750971 84.49562146 96.179039 80.29354095 C96.18205526 78.285801 96.19004889 76.27806184 96.20322418 74.27036285 C96.22038708 71.45381417 96.21837944 68.63786963 96.21191406 65.82128906 C96.22573624 64.59120621 96.22573624 64.59120621 96.23983765 63.33627319 C96.18001127 54.96523257 93.95275049 46.47321798 87.85546875 40.43359375 C79.91210149 34.63637514 73.59697663 33.28543493 63.98535156 33.27246094 C63.10174957 33.26749603 62.21814758 33.26253113 61.30776978 33.25741577 C58.39136977 33.2428393 55.47502417 33.2359994 52.55859375 33.23046875 C50.52463785 33.22471325 48.49068196 33.21895557 46.45672607 33.2131958 C42.19315336 33.20269842 37.92959944 33.1968476 33.66601562 33.19335938 C28.21774134 33.18787964 22.76971758 33.16385728 17.32152176 33.13538742 C13.11947924 33.11671154 8.91749646 33.11155279 4.71541595 33.1100235 C2.707676 33.10700724 0.69993684 33.09901361 -1.30776215 33.08583832 C-4.12431083 33.06867542 -6.94025537 33.07068306 -9.75683594 33.07714844 C-10.57689117 33.06793365 -11.39694641 33.05871887 -12.24185181 33.04922485 C-20.61289243 33.10905123 -29.10490702 35.33631201 -35.14453125 41.43359375 Z " fill="#000000" transform="translate(357.14453125,25.56640625)"/>
<path d="M0 0 C2.14027571 -0.00457179 4.28054997 -0.0098803 6.42082214 -0.0158844 C10.88973991 -0.02477735 15.35847861 -0.02243669 19.82739258 -0.01245117 C25.51252476 -0.00097672 31.19703435 -0.02116978 36.88208485 -0.05036831 C41.29802786 -0.06884675 45.71382494 -0.06841462 50.12979698 -0.06273079 C52.22385213 -0.06257894 54.31791805 -0.06850839 56.41193581 -0.08102226 C77.10400274 -0.18726988 96.17056894 2.33190346 111.86328125 17.27734375 C127.53602466 34.24078368 129.33042647 53.61689961 129.2890625 75.578125 C129.29363429 77.71840071 129.2989428 79.85867497 129.3049469 81.99894714 C129.31383985 86.46786491 129.31149919 90.93660361 129.30151367 95.40551758 C129.29003922 101.09064976 129.31023228 106.77515935 129.33943081 112.46020985 C129.35790925 116.87615286 129.35747712 121.29194994 129.35179329 125.70792198 C129.35164144 127.80197713 129.35757089 129.89604305 129.37008476 131.99006081 C129.47633238 152.68212774 126.95715904 171.74869394 112.01171875 187.44140625 C95.04827882 203.11414966 75.67216289 204.90855147 53.7109375 204.8671875 C51.57066179 204.87175929 49.43038753 204.8770678 47.29011536 204.8830719 C42.82119759 204.89196485 38.35245889 204.88962419 33.88354492 204.87963867 C28.19841274 204.86816422 22.51390315 204.88835728 16.82885265 204.91755581 C12.41290964 204.93603425 7.99711256 204.93560212 3.58114052 204.92991829 C1.48708537 204.92976644 -0.60698055 204.93569589 -2.70099831 204.94820976 C-23.39306524 205.05445738 -42.45963144 202.53528404 -58.15234375 187.58984375 C-73.82508716 170.62640382 -75.61948897 151.25028789 -75.578125 129.2890625 C-75.58269679 127.14878679 -75.5880053 125.00851253 -75.5940094 122.86824036 C-75.60290235 118.39932259 -75.60056169 113.93058389 -75.59057617 109.46166992 C-75.57910172 103.77653774 -75.59929478 98.09202815 -75.62849331 92.40697765 C-75.64697175 87.99103464 -75.64653962 83.57523756 -75.64085579 79.15926552 C-75.64070394 77.06521037 -75.64663339 74.97114445 -75.65914726 72.87712669 C-75.76539488 52.18505976 -73.24622154 33.11849356 -58.30078125 17.42578125 C-41.33734132 1.75303784 -21.96122539 -0.04136397 0 0 Z M-35.14453125 41.43359375 C-40.94174986 49.37696101 -42.29269007 55.69208587 -42.30566406 65.30371094 C-42.31062897 66.18731293 -42.31559387 67.07091492 -42.32070923 67.98129272 C-42.3352857 70.89769273 -42.3421256 73.81403833 -42.34765625 76.73046875 C-42.35341175 78.76442465 -42.35916943 80.79838054 -42.3649292 82.83233643 C-42.37542658 87.09590914 -42.3812774 91.35946306 -42.38476562 95.62304688 C-42.39024536 101.07132116 -42.41426772 106.51934492 -42.44273758 111.96754074 C-42.46141346 116.16958326 -42.46657221 120.37156604 -42.4681015 124.57364655 C-42.47111776 126.5813865 -42.47911139 128.58912566 -42.49228668 130.59682465 C-42.50944958 133.41337333 -42.50744194 136.22931787 -42.50097656 139.04589844 C-42.51019135 139.86595367 -42.51940613 140.68600891 -42.52890015 141.53091431 C-42.46907377 149.90195493 -40.24181299 158.39396952 -34.14453125 164.43359375 C-26.20116399 170.23081236 -19.88603913 171.58175257 -10.27441406 171.59472656 C-8.94901108 171.60217392 -8.94901108 171.60217392 -7.59683228 171.60977173 C-4.68043227 171.6243482 -1.76408667 171.6311881 1.15234375 171.63671875 C3.18629965 171.64247425 5.22025554 171.64823193 7.25421143 171.6539917 C11.51778414 171.66448908 15.78133806 171.6703399 20.04492188 171.67382812 C25.49319616 171.67930786 30.94121992 171.70333022 36.38941574 171.73180008 C40.59145826 171.75047596 44.79344104 171.75563471 48.99552155 171.757164 C51.0032615 171.76018026 53.01100066 171.76817389 55.01869965 171.78134918 C57.83524833 171.79851208 60.65119287 171.79650444 63.46777344 171.79003906 C64.69785629 171.80386124 64.69785629 171.80386124 65.95278931 171.81796265 C74.32382993 171.75813627 82.81584452 169.53087549 88.85546875 163.43359375 C94.65268736 155.49022649 96.00362757 149.17510163 96.01660156 139.56347656 C96.02156647 138.67987457 96.02653137 137.79627258 96.03164673 136.88589478 C96.0462232 133.96949477 96.0530631 131.05314917 96.05859375 128.13671875 C96.06434925 126.10276285 96.07010693 124.06880696 96.0758667 122.03485107 C96.08636408 117.77127836 96.0922149 113.50772444 96.09570312 109.24414062 C96.10118286 103.79586634 96.12520522 98.34784258 96.15367508 92.89964676 C96.17235096 88.69760424 96.17750971 84.49562146 96.179039 80.29354095 C96.18205526 78.285801 96.19004889 76.27806184 96.20322418 74.27036285 C96.22038708 71.45381417 96.21837944 68.63786963 96.21191406 65.82128906 C96.22573624 64.59120621 96.22573624 64.59120621 96.23983765 63.33627319 C96.18001127 54.96523257 93.95275049 46.47321798 87.85546875 40.43359375 C79.91210149 34.63637514 73.59697663 33.28543493 63.98535156 33.27246094 C63.10174957 33.26749603 62.21814758 33.26253113 61.30776978 33.25741577 C58.39136977 33.2428393 55.47502417 33.2359994 52.55859375 33.23046875 C50.52463785 33.22471325 48.49068196 33.21895557 46.45672607 33.2131958 C42.19315336 33.20269842 37.92959944 33.1968476 33.66601562 33.19335938 C28.21774134 33.18787964 22.76971758 33.16385728 17.32152176 33.13538742 C13.11947924 33.11671154 8.91749646 33.11155279 4.71541595 33.1100235 C2.707676 33.10700724 0.69993684 33.09901361 -1.30776215 33.08583832 C-4.12431083 33.06867542 -6.94025537 33.07068306 -9.75683594 33.07714844 C-10.57689117 33.06793365 -11.39694641 33.05871887 -12.24185181 33.04922485 C-20.61289243 33.10905123 -29.10490702 35.33631201 -35.14453125 41.43359375 Z " fill="#000000" transform="translate(101.14453125,25.56640625)"/>
<path d="M0 0 C9.09266284 7.14991641 17.10705529 15.46058519 25.27763367 23.62373352 C26.95036819 25.2900295 28.62324774 26.95617992 30.29626465 28.62219238 C33.78864288 32.10264647 37.27691508 35.58715721 40.76274109 39.07417297 C45.21082005 43.52245539 49.67251795 47.95680041 54.13785839 52.38774586 C57.59272721 55.82029192 61.03838095 59.26197688 64.48157692 62.70622826 C66.12205804 64.34436349 67.7657503 65.97929 69.412817 67.6108036 C93.1268834 91.12171293 93.1268834 91.12171293 93.29716492 108.35420227 C93.16240219 129.22798552 77.39863633 141.4513463 63.64872742 155.21357727 C61.95761514 156.91112726 60.26664882 158.60882265 58.57582092 160.30665588 C55.04409234 163.85030866 51.50830666 167.38985567 47.97001648 170.92695618 C43.45213436 175.44463468 38.948195 179.97594295 34.44764137 184.5108757 C30.96451206 188.01630464 27.47226685 191.51254249 23.9774437 195.00630951 C22.31336368 196.67273827 20.65249922 198.34238488 18.99502945 200.01538849 C16.67241955 202.35773175 14.33730976 204.68690117 11.99882507 207.01338196 C11.32733932 207.69610672 10.65585358 208.37883148 9.96401978 209.08224487 C0.36692846 218.55548932 -9.37507567 223.04132341 -22.9433136 222.96772766 C-37.68523112 222.58625193 -47.10139197 213.884508 -57.05683899 203.91572571 C-57.79793411 203.18134781 -58.53902924 202.44696991 -59.30258179 201.69033813 C-61.72511236 199.28664125 -64.14018741 196.87562891 -66.55439758 194.46357727 C-68.25098063 192.77343083 -69.94770959 191.08343086 -71.64457703 189.39356995 C-75.19001547 185.86006665 -78.7313367 182.32249482 -82.2702179 178.78242493 C-86.78670596 174.26573356 -91.31680464 169.76296697 -95.85056496 165.26362228 C-99.35604818 161.78046212 -102.85231655 158.28816219 -106.34612656 154.79329681 C-108.01172775 153.13004226 -109.68054186 151.46999826 -111.35272598 149.81336212 C-135.28256691 126.08534172 -135.28256691 126.08534172 -135.45283508 108.85420227 C-135.36663238 92.96172571 -127.10277578 83.32436986 -116.2816925 72.51753235 C-115.53595474 71.76507736 -114.79021698 71.01262238 -114.0218811 70.23736572 C-111.58091319 67.77756246 -109.13262702 65.32521534 -106.68330383 62.87373352 C-104.96834113 61.152335 -103.25352525 59.43079019 -101.53884888 57.70910645 C-97.954071 54.11239353 -94.36522432 50.5197974 -90.77388 46.92964172 C-86.1875889 42.34355408 -81.61522807 37.74384503 -77.04627514 33.14049244 C-73.51253188 29.58444894 -69.96967155 26.03759663 -66.42423439 22.49321556 C-64.73503503 20.80166675 -63.04905292 19.10689844 -61.3664608 17.40877724 C-59.00781948 15.03040524 -56.63667621 12.66519907 -54.26216125 10.3026886 C-53.23854996 9.26221878 -53.23854996 9.26221878 -52.19425964 8.20072937 C-38.40533884 -5.41290898 -17.15272998 -11.52244553 0 0 Z M-31.07783508 34.60420227 C-31.68171995 35.18195971 -32.28560482 35.75971714 -32.90778923 36.35498238 C-34.75731518 38.12698642 -36.57859156 39.92449013 -38.39595032 41.72944641 C-39.07826218 42.40358078 -39.76057404 43.07771515 -40.46356201 43.77227783 C-42.69082762 45.97499047 -44.9141644 48.18160091 -47.13642883 50.38935852 C-47.90012346 51.14772947 -48.66381809 51.90610043 -49.45065498 52.68745232 C-53.48151924 56.69173407 -57.50880175 60.69958274 -61.53364563 64.70991516 C-64.86040307 68.02326979 -68.19430327 71.32917902 -71.53462219 74.62886047 C-75.58141832 78.62644553 -79.61590139 82.63606687 -83.64172554 86.65476799 C-85.17451404 88.18083808 -86.71155869 89.70264567 -88.25291252 91.22006416 C-90.40231795 93.33794324 -92.53551024 95.47095419 -94.66548157 97.60835266 C-95.62306366 98.54132675 -95.62306366 98.54132675 -96.59999084 99.4931488 C-99.15151169 102.0813397 -100.90020796 104.21434614 -102.41610718 107.54144287 C-101.86458068 112.53503526 -98.53457572 115.16606975 -95.07783508 118.60420227 C-94.50007765 119.20808714 -93.92232021 119.81197201 -93.32705498 120.43415642 C-91.55505093 122.28368236 -89.75754722 124.10495875 -87.95259094 125.9223175 C-87.27845657 126.60462936 -86.6043222 127.28694122 -85.90975952 127.9899292 C-83.70704689 130.21719481 -81.50043644 132.44053159 -79.29267883 134.66279602 C-78.53430788 135.42649065 -77.77593693 136.19018528 -76.99458504 136.97702217 C-72.99030328 141.00788643 -68.98245462 145.03516894 -64.97212219 149.06001282 C-61.65876756 152.38677026 -58.35285833 155.72067045 -55.05317688 159.06098938 C-51.05559183 163.1077855 -47.04597048 167.14226858 -43.02726936 171.16809273 C-41.50119927 172.70088122 -39.97939168 174.23792588 -38.46197319 175.77927971 C-36.34409411 177.92868514 -34.21108316 180.06187742 -32.07368469 182.19184875 C-31.1407106 183.14943085 -31.1407106 183.14943085 -30.18888855 184.12635803 C-27.60069765 186.67787888 -25.46769122 188.42657515 -22.14059448 189.94247437 C-17.1470021 189.39094787 -14.5159676 186.0609429 -11.07783508 182.60420227 C-10.47395021 182.02644484 -9.87006535 181.4486874 -9.24788094 180.85342216 C-7.39835499 179.08141812 -5.5770786 177.28391441 -3.75971985 175.47895813 C-3.07740799 174.80482376 -2.39509613 174.13068939 -1.69210815 173.43612671 C0.53515746 171.23341407 2.75849424 169.02680363 4.98075867 166.81904602 C5.7444533 166.06067507 6.50814793 165.30230412 7.29498482 164.52095222 C11.32584908 160.51667047 15.35313158 156.5088218 19.37797546 152.49848938 C22.70473291 149.18513475 26.0386331 145.87922552 29.37895203 142.57954407 C33.42574815 138.58195901 37.46023122 134.57233767 41.48605537 130.55363655 C43.01884387 129.02756646 44.55588853 127.50575887 46.09724236 125.98834038 C48.24664779 123.8704613 50.37984007 121.73745035 52.5098114 119.60005188 C53.46739349 118.66707779 53.46739349 118.66707779 54.44432068 117.71525574 C56.99584152 115.12706484 58.7445378 112.9940584 60.26043701 109.66696167 C59.70891052 104.67336928 56.37890555 102.04233479 52.92216492 98.60420227 C52.34440748 98.0003174 51.76665005 97.39643253 51.17138481 96.77424812 C49.39938076 94.92472218 47.60187705 93.10344579 45.79692078 91.28608704 C44.78571922 90.26261925 44.78571922 90.26261925 43.75408936 89.21847534 C41.55137672 86.99120973 39.34476627 84.76787295 37.13700867 82.54560852 C36.37863771 81.78191389 35.62026676 81.01821926 34.83891487 80.23138237 C30.83463312 76.20051811 26.82678445 72.17323561 22.81645203 68.14839172 C19.50309739 64.82163428 16.19718817 61.48773409 12.89750671 58.14741516 C8.89992166 54.10061904 4.89030031 50.06613597 0.8715992 46.04031181 C-0.65447089 44.50752332 -2.17627848 42.97047866 -3.69369698 41.42912483 C-5.81157606 39.2797194 -7.94458701 37.14652712 -10.08198547 35.01655579 C-11.01495956 34.05897369 -11.01495956 34.05897369 -11.96678162 33.08204651 C-14.55497251 30.53052566 -16.68797895 28.78182939 -20.01507568 27.26593018 C-25.00866807 27.81745667 -27.63970256 31.14746164 -31.07783508 34.60420227 Z " fill="#000000" transform="translate(405.0778350830078,275.3957977294922)"/>
</svg>
