<?xml version="1.0" encoding="UTF-8"?>
<svg version="1.1" xmlns="http://www.w3.org/2000/svg" width="512" height="512">
<path d="M0 0 C1.18191925 -0.0071553 2.3638385 -0.01431061 3.58157349 -0.02168274 C4.88498184 -0.02437164 6.1883902 -0.02706055 7.53129578 -0.02983093 C8.91262483 -0.03609481 10.2939522 -0.04274154 11.67527771 -0.04974365 C15.43363373 -0.06716009 19.19197702 -0.07770712 22.9503634 -0.08594918 C25.29789657 -0.09109791 27.64542578 -0.0971737 29.99295616 -0.10346031 C37.3361778 -0.12251408 44.67938937 -0.13674489 52.02263099 -0.14507228 C60.50228466 -0.15484684 68.98167744 -0.18117109 77.46123916 -0.22157317 C84.01332266 -0.2517214 90.56533132 -0.26653991 97.11748284 -0.26985329 C101.0318017 -0.27220525 104.94584191 -0.28118411 108.86008644 -0.30631447 C112.54308569 -0.32957794 116.22562249 -0.33383571 119.90867615 -0.32355309 C121.90325881 -0.32282087 123.8978179 -0.34192424 125.89230347 -0.36161804 C127.08268219 -0.35467422 128.27306091 -0.34773041 129.49951172 -0.34057617 C130.5320876 -0.34296453 131.56466349 -0.34535288 132.62852955 -0.34781361 C136.18107829 0.27759305 137.85901316 1.67985183 140.44023132 4.14717102 C141.97320429 7.21311696 141.56154587 10.41828955 141.53788757 13.77998352 C141.53576515 14.90773697 141.53576515 14.90773697 141.53359985 16.05827332 C141.52799597 18.46294612 141.51544289 20.86752629 141.50273132 23.27217102 C141.49771682 24.90107593 141.49315383 26.52998229 141.48905945 28.15888977 C141.47802529 32.15501929 141.46075811 36.15107944 141.44023132 40.14717102 C142.60676743 40.13606796 143.77330353 40.1249649 144.97518921 40.11352539 C155.96650558 40.01218486 166.95772723 39.93722249 177.94940472 39.88811016 C183.6004349 39.86201209 189.25108806 39.82660944 194.90190125 39.76997375 C200.35488403 39.71566261 205.80750409 39.68575207 211.26073647 39.67278481 C213.34160384 39.6635434 215.42245127 39.645497 217.50316429 39.61852074 C220.41711255 39.58224282 223.32956051 39.57722521 226.24369812 39.57954407 C227.10469116 39.56156769 227.9656842 39.54359131 228.85276794 39.52507019 C233.24393599 39.56290143 234.90582943 39.71953418 238.45251465 42.55764771 C241.03947025 45.9278372 241.56862418 47.52300237 241.63310242 51.68525696 C241.65719681 53.09747528 241.65719681 53.09747528 241.68177795 54.53822327 C241.72623985 58.85089926 241.76730221 63.16342091 241.79032898 67.47627258 C241.80687917 69.74981428 241.83415657 72.02330414 241.87236023 74.29658508 C241.92717826 77.57517992 241.94901225 80.85255435 241.96366882 84.13154602 C241.9863382 85.14424561 242.00900757 86.15694519 242.03236389 87.20033264 C242.01863282 91.79698953 241.99673843 95.10437685 239.03251648 98.77314758 C235.96544795 101.58197923 235.25906075 102.08537257 231.12773132 102.39717102 C227.19964663 102.13086019 225.4837519 101.58198748 222.44023132 99.14717102 C216.61881492 87.50433822 220.44023132 73.16425381 220.44023132 60.14717102 C117.81023132 60.14717102 15.18023132 60.14717102 -90.55976868 60.14717102 C-90.55976868 89.84717102 -90.55976868 119.54717102 -90.55976868 150.14717102 C-85.60976868 148.16717102 -85.60976868 148.16717102 -80.55976868 146.14717102 C-65.38844242 142.25708737 -49.97499209 143.71282518 -36.18476868 151.33467102 C-31.24305309 154.44165751 -27.10782143 158.14576524 -22.86445618 162.13154602 C-16.2548022 167.91219255 -7.44658306 170.67180637 1.30741882 170.39717102 C11.63914278 169.18612645 18.95722619 164.2921289 26.69023132 157.70967102 C38.03167874 148.32095215 51.37498039 143.42346015 66.17070007 143.77998352 C73.12496653 144.56098836 81.15443328 146.004272 87.44023132 149.14717102 C87.39382507 147.90580383 87.34741882 146.66443665 87.29960632 145.38545227 C87.26207711 143.74354931 87.22567818 142.10162025 87.19023132 140.45967102 C87.1567157 139.64304993 87.12320007 138.82642883 87.08866882 137.98506165 C87.02326811 133.94656791 87.1245948 131.69545649 89.17851257 128.12763977 C91.59450685 126.01208002 92.72090481 125.40978397 95.87773132 125.14717102 C96.61894226 125.06467102 97.3601532 124.98217102 98.12382507 124.89717102 C102.81033436 125.40296629 106.37401899 128.79388364 110.06523132 131.52217102 C122.07338426 139.94208891 134.53583778 142.90921576 148.94023132 144.08467102 C164.60200049 145.40680419 177.61195629 150.20499624 188.59648132 161.93232727 C195.6246908 170.37511281 201.96844501 180.78328189 201.30351257 192.15498352 C200.94139811 199.564998 201.20361778 204.20447847 206.27616882 210.01045227 C210.43663693 214.31143804 214.84960831 218.31113121 219.44023132 222.14717102 C219.45481384 220.84046448 219.46939636 219.53375793 219.48442078 218.18745422 C219.54245947 213.33236027 219.61969248 208.47772739 219.7026825 203.6230011 C219.73590554 201.52314241 219.76394563 199.42319499 219.78666687 197.32319641 C219.82026068 194.30189758 219.87257966 191.28141001 219.92851257 188.26045227 C219.9349025 187.32381241 219.94129242 186.38717255 219.94787598 185.42214966 C220.05773327 180.53519096 220.24036177 177.10280608 223.44023132 173.14717102 C226.86942705 170.57527423 230.27962619 170.64502902 234.44023132 171.14717102 C237.41262373 172.93193343 239.8662716 174.99925157 241.44023132 178.14717102 C241.12419021 179.83685343 240.72785869 181.51170703 240.29667664 183.17573547 C235.63379191 203.05720039 232.94823186 226.27946751 242.44023132 245.14717102 C259.87543803 272.88314886 289.24534785 296.27621609 313.82766724 317.53965759 C332.19894869 333.5484915 332.19894869 333.5484915 334.44023132 347.27217102 C334.83585403 356.41545137 332.53686901 365.17658397 326.68241882 372.27998352 C320.67400802 378.66539265 314.21589035 382.62617085 305.40898132 383.42060852 C304.26429382 383.45412415 303.11960632 383.48763977 301.94023132 383.52217102 C300.81616882 383.5711554 299.69210632 383.62013977 298.53398132 383.67060852 C292.13537744 383.15051687 285.56224595 381.32878869 280.96000671 376.63868713 C279.42892396 374.81729968 277.97329927 372.95593105 276.53398132 371.06123352 C264.17026092 354.7187273 264.17026092 354.7187273 245.96855164 346.84638977 C230.83987895 345.5151249 215.4451486 347.1165605 200.44023132 349.14717102 C200.72012405 350.18792786 201.00001678 351.22868469 201.28839111 352.30097961 C202.39673339 356.42229699 203.50500921 360.54363223 204.61328125 364.66496849 C205.38957653 367.55169275 206.1659408 370.43839845 206.94230652 373.32510376 C209.77837394 383.87091449 212.61263965 394.41720556 215.44389343 404.96430969 C216.58837567 409.22712141 217.73300525 413.48989353 218.87773132 417.75263977 C219.16154222 418.80957724 219.44535313 419.8665147 219.73776436 420.95548058 C223.09610439 433.45967864 226.46931154 445.95956523 229.8783741 458.45003128 C231.1057731 462.95110121 232.32666603 467.45394099 233.54859924 471.95649719 C234.18065693 474.27714859 234.81629316 476.59682851 235.4556427 478.91548157 C236.32527525 482.06979589 237.18292448 485.22713617 238.03788757 488.38545227 C238.41101074 489.71809868 238.41101074 489.71809868 238.79167175 491.07766724 C240.17964928 496.26233371 240.84218742 500.7741743 240.44023132 506.14717102 C238.64659221 508.95720562 237.42142197 510.6565757 234.44023132 512.14717102 C232.58820386 512.2636641 230.73205317 512.31684272 228.87651062 512.34004211 C227.71157578 512.35610504 226.54664093 512.37216797 225.34640503 512.38871765 C220.01642819 512.43307558 214.68659956 512.47467194 209.35649109 512.49726868 C206.54235804 512.51060426 203.72895081 512.53844821 200.91508484 512.57929993 C196.86474864 512.6381012 192.81519084 512.65592856 188.76445007 512.67060852 C187.50597763 512.69327789 186.24750519 512.71594727 184.95089722 512.73930359 C176.27414089 512.71824666 176.27414089 512.71824666 172.22099304 509.94258118 C170.47218802 507.19733612 169.43366784 505.03892337 168.62382507 501.89717102 C168.34023132 500.83482239 168.05663757 499.77247375 167.76445007 498.67793274 C167.47183289 497.51278137 167.1792157 496.34763 166.87773132 495.14717102 C166.37930343 493.25140053 165.88083544 491.3556404 165.38142395 489.46012878 C164.81988791 487.31845571 164.26633564 485.17481205 163.71318054 483.03096008 C162.26716484 477.45225376 160.76112453 471.89002625 159.25663757 466.32685852 C158.42629748 463.24854689 157.59657992 460.1700683 156.76716614 457.09150696 C156.21593048 455.04548423 155.66423376 452.99958567 155.11207581 450.95381165 C154.33211003 448.0583645 153.5573217 445.16158126 152.78398132 442.26435852 C152.54687943 441.38746368 152.30977753 440.51056885 152.06549072 439.60710144 C151.85077621 438.79903046 151.63606171 437.99095947 151.4148407 437.15840149 C151.22579163 436.4531131 151.03674255 435.74782471 150.84196472 435.02116394 C150.44023132 433.14717102 150.44023132 433.14717102 150.44023132 430.14717102 C94.01023132 430.14717102 37.58023132 430.14717102 -20.55976868 430.14717102 C-21.21976868 433.44717102 -21.87976868 436.74717102 -22.55976868 440.14717102 C-23.13709832 442.55482393 -23.73586957 444.95747506 -24.3598175 447.35346985 C-24.52764236 448.00038788 -24.69546722 448.64730591 -24.86837769 449.31382751 C-25.41408024 451.41162698 -25.96465647 453.50808931 -26.51679993 455.60420227 C-26.70731115 456.32797247 -26.89782238 457.05174267 -27.09410667 457.7974453 C-28.10071168 461.61687523 -29.11199328 465.43503601 -30.12641907 469.25239563 C-30.96106646 472.39713584 -31.78576645 475.54423429 -32.602005 478.69380188 C-33.59415452 482.5219823 -34.60301532 486.34538359 -35.62398338 490.16597557 C-36.00811813 491.61445041 -36.38645542 493.06447626 -36.75872231 494.51604652 C-37.28031232 496.54462564 -37.8232605 498.56634019 -38.37153625 500.58784485 C-38.67416885 501.73682755 -38.97680145 502.88581024 -39.28860474 504.0696106 C-40.81871138 507.77408608 -42.40169464 509.68580592 -45.55976868 512.14717102 C-48.36726379 512.77536011 -48.36726379 512.77536011 -51.46406555 512.77827454 C-52.6287738 512.79080765 -53.79348206 512.80334076 -54.9934845 512.81625366 C-56.24254578 512.80299545 -57.49160706 512.78973724 -58.77851868 512.77607727 C-60.06915222 512.77848923 -61.35978577 512.78090118 -62.68952942 512.78338623 C-65.41661707 512.78623911 -68.14288109 512.77159566 -70.86982727 512.74409485 C-74.3570981 512.71001066 -77.84289702 512.71603384 -81.33023834 512.73475742 C-84.6673102 512.74789605 -88.00395706 512.72960431 -91.34101868 512.71357727 C-92.59007996 512.71853714 -93.83914124 512.72349701 -95.12605286 512.72860718 C-96.29076111 512.71277084 -97.45546936 512.69693451 -98.6554718 512.68061829 C-99.67741638 512.67441971 -100.69936096 512.66822113 -101.75227356 512.66183472 C-105.29052585 512.01321026 -106.98196749 510.6053101 -109.55976868 508.14717102 C-112.51297926 502.24074985 -110.19218495 494.49867922 -108.50288391 488.477005 C-108.28286996 487.65755559 -108.06285601 486.83810617 -107.83617496 485.99382496 C-107.10755865 483.29062427 -106.36302896 480.59208386 -105.61836243 477.89326477 C-105.09713082 475.97172412 -104.57693006 474.04990358 -104.05769348 472.12782288 C-102.66972848 467.00044903 -101.26826889 461.87685516 -99.864254 456.75385666 C-98.41991482 451.47420675 -96.9883755 446.19109196 -95.55610657 440.90815735 C-93.56127164 433.55393898 -91.5629915 426.20067693 -89.55953121 418.84880352 C-85.4805713 403.87976378 -81.4537774 388.89712743 -77.45140076 373.90745544 C-76.22482772 369.31450533 -74.9954231 364.72231547 -73.76594543 360.13014221 C-72.69662369 356.13597786 -71.62815672 352.14158521 -70.55976868 348.14717102 C-71.15365891 348.15605347 -71.74754913 348.16493591 -72.35943604 348.17408752 C-78.57300638 348.26297949 -84.78639437 348.32307805 -91.0004425 348.36689758 C-93.31562138 348.38694102 -95.6307501 348.41418327 -97.945755 348.44892883 C-101.28466719 348.49776644 -104.62290667 348.52021327 -107.96211243 348.53779602 C-108.98747604 348.55844116 -110.01283966 348.5790863 -111.0692749 348.60035706 C-121.22132686 348.60348575 -129.08623009 344.96657056 -136.55976868 338.14717102 C-143.25518328 330.75612893 -145.55976868 321.98351381 -145.55976868 312.14717102 C-144.63325732 302.34641805 -140.75777371 293.91593722 -133.55976868 287.14717102 C-126.46315189 281.78212873 -120.34605268 280.04814528 -111.55976868 280.14717102 C-111.56345585 278.94580663 -111.56714302 277.74444223 -111.57094193 276.50667286 C-111.65755465 247.99509737 -111.72352137 219.48352371 -111.76402999 190.97184642 C-111.76903288 187.46331181 -111.77421016 183.95477748 -111.77949524 180.44624329 C-111.78054448 179.74775098 -111.78159372 179.04925868 -111.78267476 178.32959994 C-111.80008473 167.01651333 -111.83162564 155.70350794 -111.86837986 144.39046953 C-111.90577289 132.78409135 -111.9277016 121.17776058 -111.93612266 109.571325 C-111.94134467 103.051358 -111.95364734 96.53157528 -111.9826889 90.01166725 C-112.00978964 83.87792509 -112.01822438 77.74444355 -112.0121994 71.6106472 C-112.01330202 69.35676534 -112.02128741 67.10287498 -112.03659058 64.8490448 C-112.05643442 61.77637019 -112.05172787 58.70468509 -112.04078674 55.63198853 C-112.05243811 54.73607083 -112.06408947 53.84015314 -112.07609391 52.91708642 C-112.03625782 48.79017019 -111.89933305 46.68730117 -109.65470505 43.11686993 C-105.68648206 39.38587141 -101.88419151 40.01228139 -96.70381165 40.03364563 C-95.78668396 40.0334996 -94.86955627 40.03335358 -93.92463684 40.03320312 C-90.88371949 40.03390154 -87.84286287 40.04169062 -84.80195618 40.04951477 C-82.69731174 40.0513792 -80.59266687 40.05280299 -78.48802185 40.05380249 C-72.94120593 40.05762567 -67.39441608 40.06745428 -61.84761047 40.07850647 C-56.19046888 40.08872486 -50.53332308 40.09330103 -44.87617493 40.0983429 C-33.77069471 40.10907671 -22.66523386 40.12615076 -11.55976868 40.14717102 C-11.58071594 39.14339417 -11.60166321 38.13961731 -11.62324524 37.10542297 C-11.69583562 33.36891536 -11.74163679 29.63246965 -11.77949524 25.89546204 C-11.7995676 24.28044644 -11.82683198 22.66550313 -11.86152649 21.05073547 C-11.91024082 18.72462601 -11.93278022 16.39948009 -11.95039368 14.07295227 C-11.97103882 13.3550502 -11.99168396 12.63714813 -12.01295471 11.89749146 C-12.01457245 8.25463359 -11.66024578 6.30231645 -9.66035461 3.21430969 C-6.3843137 -0.00956739 -4.49449069 0.01862157 0 0 Z M9.44023132 20.14717102 C9.44023132 26.74717102 9.44023132 33.34717102 9.44023132 40.14717102 C46.07023132 40.14717102 82.70023132 40.14717102 120.44023132 40.14717102 C120.44023132 33.54717102 120.44023132 26.94717102 120.44023132 20.14717102 C83.81023132 20.14717102 47.18023132 20.14717102 9.44023132 20.14717102 Z M108.44023132 156.14717102 C108.31549556 161.90881183 108.2253619 167.66964583 108.16557312 173.43232727 C108.14061769 175.38754489 108.10664062 177.34267106 108.06303406 179.29756165 C107.74266588 194.04203601 108.53272933 205.35012026 118.44413757 217.11592102 C126.40058473 225.2125013 136.68588356 230.09950433 148.12773132 230.58467102 C158.59663073 230.02658631 166.63252403 225.48612874 173.83085632 218.08076477 C180.45990518 210.11625219 181.23988024 201.18334436 180.44023132 191.14717102 C178.71949089 183.40931914 174.45368044 177.23771599 168.44023132 172.14717102 C160.42719535 167.20008266 153.48885708 165.26434347 144.24369812 164.55171204 C132.90175103 163.65361005 122.92622433 161.59533171 112.24613953 157.5785675 C111.53166153 157.31003464 110.81718353 157.04150177 110.08105469 156.76483154 C109.26884712 156.45908958 109.26884712 156.45908958 108.44023132 156.14717102 Z M-90.55976868 176.14717102 C-90.55976868 210.46717102 -90.55976868 244.78717102 -90.55976868 280.14717102 C0.19023132 280.14717102 90.94023132 280.14717102 184.44023132 280.14717102 C179.37899899 274.24239996 174.29386164 268.41897882 168.92997742 262.79243469 C167.93720121 261.73767098 166.95818266 260.66978628 165.99345398 259.58930969 C160.02947229 252.80574877 160.02947229 252.80574877 151.85258484 249.51411438 C148.34734356 249.55177496 144.92891968 249.82587949 141.44023132 250.14717102 C125.9900957 248.73675257 111.66049139 240.56138671 101.44023132 229.14717102 C93.81270609 218.810205 88.178071 207.20944218 88.44023132 194.18232727 C88.43894226 193.05246399 88.4376532 191.92260071 88.43632507 190.75849915 C88.43892521 188.39627881 88.4726937 186.03388362 88.53788757 183.67256165 C88.5993517 177.34102243 88.5993517 177.34102243 85.56547546 172.06025696 C77.89569755 166.77583199 68.69761436 164.26551549 59.44023132 165.14717102 C49.9655219 167.10902899 43.46539979 171.39193105 36.19023132 177.58467102 C24.86641283 186.94590199 11.23612872 191.99754807 -3.58320618 191.49482727 C-18.56283566 189.745238 -29.95484081 184.72563316 -40.94258118 174.33467102 C-48.43258744 168.07436728 -57.24222336 164.71187493 -66.96992493 164.87373352 C-76.9594453 165.92843401 -82.52432153 169.89737879 -90.55976868 176.14717102 Z M192.44023132 227.14717102 C191.15740227 228.66592266 189.93845481 230.23895277 188.75273132 231.83467102 C185.33585263 236.23850918 182.14852021 239.20449047 177.44023132 242.14717102 C182.71144822 248.53484443 188.50340308 254.35879758 194.35502625 260.20722961 C195.45467619 261.30987618 196.55412235 262.41272601 197.65338135 263.51576233 C200.62178491 266.49295171 203.59337928 269.46693588 206.5658586 272.44005537 C208.42348764 274.29839716 210.28040204 276.15744997 212.13706398 278.01675797 C218.61539863 284.50432291 225.09628988 290.98932102 231.57963562 297.47187805 C237.62367412 303.51531402 243.66209312 309.56432512 249.69794768 315.61593378 C254.88517042 320.81621295 260.07622174 326.01264897 265.27029687 331.20608389 C268.37069296 334.30622475 271.46950861 337.40790643 274.56448936 340.51345444 C277.46982953 343.42844545 280.37989116 346.33863722 283.29370689 349.24515533 C284.36332922 350.31372856 285.43123675 351.38402136 286.49731827 352.45612717 C287.94961178 353.9160967 289.40789315 355.36980665 290.8678894 356.82206726 C292.09094174 358.04593675 292.09094174 358.04593675 293.3387022 359.29453087 C296.10600547 361.73409599 298.10661701 362.10940336 301.75273132 362.52217102 C306.53772067 362.03556193 308.21725419 360.66995998 311.44023132 357.14717102 C313.36966033 352.97960436 313.7748346 351.11443249 312.26451969 346.74845791 C310.62515969 343.1867971 308.47362431 340.68251875 305.68911743 337.90158081 C305.21427321 337.42190776 304.739429 336.94223472 304.25019556 336.44802612 C302.67044787 334.85708459 301.07692187 333.28074176 299.48295593 331.70405579 C298.34207106 330.56102325 297.20205308 329.41712489 296.06283569 328.27243042 C292.97703306 325.17696145 289.8789227 322.09409047 286.77813792 319.01363873 C283.53469678 315.78779486 280.30183445 312.55138076 277.06756592 309.31634521 C271.6395836 303.89023363 266.20392313 298.4719123 260.76322937 293.05854797 C254.46658713 286.7934174 248.18052084 280.51783334 241.9003486 274.2361961 C235.86052474 268.19515347 229.81501631 262.15983538 223.76628304 256.12771416 C221.19018906 253.55869388 218.61581204 250.98797078 216.0427227 248.41594124 C213.01789087 245.39311212 209.98803269 242.37541291 206.95413399 239.3616848 C205.83895785 238.2523699 204.72548776 237.14133705 203.61381531 236.02851105 C202.10189902 234.5156194 200.58401957 233.00898488 199.06436157 231.50387573 C198.21467772 230.65754357 197.36499388 229.81121141 196.48956203 228.93923283 C194.64303214 226.92774596 194.64303214 226.92774596 192.44023132 227.14717102 Z M-122.55976868 307.14717102 C-124.44262942 310.91289252 -124.20183952 315.05626251 -123.55976868 319.14717102 C-121.4518653 323.15145806 -119.04760196 325.56516031 -114.82303274 327.21772754 C-111.5176679 328.15916217 -108.87530797 328.39576209 -105.44910622 328.39326668 C-104.23887185 328.39724877 -103.02863748 328.40123087 -101.78172934 328.40533364 C-100.44737587 328.39962836 -99.11302318 328.39373718 -97.77867126 328.38768005 C-96.35456083 328.38855252 -94.93045071 328.39030425 -93.50634229 328.39285839 C-89.59771579 328.3973279 -85.68919901 328.38933368 -81.78058648 328.37930226 C-77.56388368 328.37066437 -73.34718706 328.37358817 -69.13047791 328.37510681 C-61.82630065 328.37615545 -54.52215914 328.36988107 -47.21799088 328.35863113 C-36.65739791 328.34237622 -26.09682221 328.33716813 -15.53621809 328.33465515 C1.59770583 328.33027804 18.73161071 328.31696848 35.86552429 328.29804993 C52.50940353 328.27969156 69.1532776 328.26553484 85.79716492 328.2570343 C86.82311505 328.25650885 87.84906519 328.25598341 88.90610473 328.25544204 C94.0530014 328.25283196 99.19989811 328.25030455 104.34679484 328.24781823 C147.0446202 328.22708522 189.74242478 328.19185924 232.44023132 328.14717102 C231.06715094 326.55879017 229.69405755 324.97042055 228.32091832 323.38209057 C227.0114449 321.82597423 225.73379769 320.24275055 224.481879 318.63996601 C217.42364368 309.69502745 210.11947051 300.55962925 198.48221207 298.22888184 C191.09100556 297.37626094 183.72633902 297.45533767 176.30533886 297.66581583 C172.44455216 297.75159151 168.58451961 297.71343014 164.72311401 297.69163513 C157.19165907 297.66781119 149.66543595 297.75395102 142.13512196 297.87775093 C133.35468691 298.01712585 124.5750941 298.03843103 115.7937104 298.05405575 C100.12916534 298.08526967 84.46692473 298.21207808 68.80351257 298.39814758 C53.61960031 298.57835305 38.43662615 298.70561385 23.25175476 298.76728821 C21.84565089 298.77301968 21.84565089 298.77301968 20.41114087 298.77886695 C16.64264861 298.7940651 12.87415551 298.809028 9.10566095 298.82364687 C-8.01995813 298.89104333 -25.14536505 298.99856133 -42.27070618 299.11592102 C-43.13881359 299.12176264 -44.006921 299.12760425 -44.9013347 299.13362288 C-55.74216545 299.20704424 -66.58255007 299.29912239 -77.42291832 299.42368698 C-80.44190896 299.45792345 -83.46083995 299.48549542 -86.47994804 299.5069313 C-90.59518537 299.53652911 -94.7097849 299.58946733 -98.82475281 299.64509583 C-100.62282712 299.65347481 -100.62282712 299.65347481 -102.45722616 299.66202307 C-110.66508637 299.80255948 -116.98539217 300.50079903 -122.55976868 307.14717102 Z M-48.55976868 348.14717102 C-51.74282961 360.01712934 -54.92561164 371.88716237 -58.10795975 383.75731182 C-59.58717981 389.2747587 -61.0665019 394.79217817 -62.5460968 400.30952454 C-65.69471341 412.05084291 -68.84167254 423.7926024 -71.98534393 435.5352459 C-73.72815518 442.04452079 -75.47366596 448.55306513 -77.22092056 455.06114864 C-78.35316387 459.28043968 -79.48333631 463.50028345 -80.6129837 467.72027016 C-81.14724497 469.71436059 -81.68237554 471.70821833 -82.21840668 473.70183372 C-82.95394926 476.43796985 -83.68643713 479.17490582 -84.41816711 481.9120636 C-84.74636066 483.12849895 -84.74636066 483.12849895 -85.08118439 484.36950874 C-86.16853318 488.20471783 -86.16853318 488.20471783 -86.55976868 492.14717102 C-77.31976868 492.14717102 -68.07976868 492.14717102 -58.55976868 492.14717102 C-49.33841004 458.63298585 -40.36392039 425.05343925 -31.39546204 391.47090149 C-31.14664087 390.53927531 -30.89781971 389.60764914 -30.64145851 388.64779186 C-29.46039962 384.22563626 -28.27965642 379.80339701 -27.09968567 375.38095093 C-26.88503977 374.57701999 -26.67039387 373.77308905 -26.44924355 372.94479656 C-26.03817933 371.40490537 -25.62751773 369.86490663 -25.21730614 368.32478809 C-23.86898094 363.27146812 -22.47900005 358.23103793 -21.04367065 353.20162964 C-20.44513679 351.01226851 -20.44513679 351.01226851 -20.55976868 348.14717102 C-29.79976868 348.14717102 -39.03976868 348.14717102 -48.55976868 348.14717102 Z M1.44023132 348.14717102 C-4.87408714 370.97383981 -4.87408714 370.97383981 -11.05976868 393.83467102 C-11.40869763 395.13090289 -11.75765618 396.42712679 -12.10664368 397.7233429 C-12.43148743 398.93957336 -12.75633118 400.15580383 -13.09101868 401.40888977 C-13.37525696 402.47067444 -13.65949524 403.53245911 -13.9523468 404.62641907 C-14.63785639 407.03907808 -14.63785639 407.03907808 -14.55976868 409.14717102 C37.91023132 409.14717102 90.38023132 409.14717102 144.44023132 409.14717102 C139.62556036 388.68481943 133.97126266 368.42761927 128.44023132 348.14717102 C86.53023132 348.14717102 44.62023132 348.14717102 1.44023132 348.14717102 Z M150.44023132 348.14717102 C151.21899588 353.80902843 151.21899588 353.80902843 152.43556213 359.28166199 C152.63139389 360.02296356 152.82722565 360.76426514 153.0289917 361.5280304 C153.24188339 362.31742004 153.45477509 363.10680969 153.67411804 363.92012024 C153.90043411 364.77212006 154.12675018 365.62411987 154.35992432 366.50193787 C155.10941891 369.31961619 155.86463856 372.13572604 156.61991882 374.95185852 C157.15298639 376.95104496 157.68570448 378.95032462 158.21809387 380.94969177 C159.62740292 386.23836301 161.04159367 391.52571714 162.45677185 396.81282043 C163.8527112 402.03153944 165.24390263 407.2515233 166.63554382 412.47138977 C169.09183509 421.68173611 171.55378367 430.89055727 174.01910019 440.09849167 C175.64322909 446.16550567 177.26403396 452.23339457 178.88194847 458.30206871 C179.90952889 462.15527962 180.93883981 466.00802687 181.96852493 469.86067581 C182.45147385 471.66916026 182.93369017 473.47784053 183.41514206 475.28672409 C184.0740258 477.761738 184.73555518 480.2360298 185.39775085 482.7101593 C185.59149418 483.44055546 185.7852375 484.17095161 185.98485184 484.92348099 C186.96645088 488.62460899 186.96645088 488.62460899 188.44023132 492.14717102 C197.68023132 492.14717102 206.92023132 492.14717102 216.44023132 492.14717102 C213.45145103 479.12405545 210.1213803 466.22300399 206.64335632 453.32295227 C206.08507491 451.24441788 205.52703583 449.1658184 204.96922302 447.0871582 C203.5082033 441.64515763 202.0441083 436.20398937 200.57926941 430.76301575 C199.11452881 425.32056822 197.65241982 419.87741403 196.19023132 414.4342804 C194.49287287 408.11611747 192.79537883 401.79799146 191.09660339 395.48020935 C186.85612218 379.70825096 182.64066839 363.92984775 178.44023132 348.14717102 C169.20023132 348.14717102 159.96023132 348.14717102 150.44023132 348.14717102 Z " fill="#000000" transform="translate(161.5597686767578,-0.1471710205078125)"/>
<path d="M0 0 C2.97239241 1.78476241 5.42604027 3.85208055 7 7 C7.67660495 12.86390959 7.67660495 12.86390959 5.953125 15.7578125 C4.16405507 17.93626824 2.54084375 19.72957812 0 21 C-4.97067782 21.3751455 -8.05151502 21.15878799 -12 18 C-14.56632517 14.57823311 -14.36435051 11.15359579 -14 7 C-12.74544028 4.17724064 -11.71615278 2.53711459 -9.25 0.6875 C-5.9260257 -0.32815881 -3.46313738 -0.41796486 0 0 Z " fill="#000000" transform="translate(396,126)"/>
</svg>
