<?xml version="1.0" encoding="UTF-8"?>
<svg version="1.1" viewBox="0 0 1500 1500" width="1280" height="1280" xmlns="http://www.w3.org/2000/svg">
<path transform="translate(727,55)" d="m0 0 4 1 8 10 12 19 9 15 14 24 15 26 70 120 17 29 9 15 26 44 17 29 13 22 28 48 15 26 13 22 19 32 9 15 13 22 9 15 19 32 12 20 17 28 8 14 15 25 19 32 14 23 17 28 18 30 17 28 13 22 12 20 13 22 12 20 16 27 17 29 14 24 10 17 3 5-1 4-13 24-28 49-15 26-13 23-12 21-15 26-14 25-28 49-14 25-16 27-13 21-10 14-4 5-4-2-10-13-13-19-11-17-15-24-13-22-16-28-11-20 1-5 10-9 7-8 33-33 7-8 9-9 7-8 9-10 9-11 12-14 12-16 10-14 9-16 3-11v-10l-3-12-8-16-9-17-31-51-34-56-19-32-15-25-17-29-30-52-13-21-7-10-5-3-15-3-19-1-9-3-10-10-10-15-13-22-28-50-14-24-10-18-15-25-17-29-17-28-16-26-14-22-18-27-9-11-10-7-9-1-12 6-11 11-13 17-7 10-10 15-13 21-17 28-19 32-16 26-14 23-8 13-15 24-16 26-24 38-13 21-15 24-9 15-13 21-34 56-9 15-17 28-13 21-45 72-10 15-28 44-13 21-15 26-10 21-4 14-2 8 1 9 4 14 8 16 9 14 9 11 11 8 4-2 6-7 11-15 62-93 12-17 14-19 8-10 9-10 9-6 13-3 36-1h550l12 22 2 6v12l-7 13-9 12-9 11-11 12-7 8-5 4-5 5-12 11-11 7-11 4-9 2-10 1h-33l-21-2-35-4-121-16-36-4h-8l-2 37-1 33-2 240-1 27-5 1-7-6-13-20-17-28-19-32-12-20-17-29-16-27-15-26-14-24-16-28-13-22-14-22-8-12-8-9-10-4h-12l-10 4-11 8-7 7-14 19-10 15-13 20-15 23-12 19-15 24-11 18-12 19-12 20-10 16-11 18-8 13-15 24-10 14-9 10-3 2-4-1-6-8-12-21-14-27-12-24-10-19-30-56-16-31-10-19-17-33-14-27-12-22-14-27-1-3v-10l4-10 13-23 29-49 17-28 9-15 17-28 15-25 13-21 17-28 14-23 24-40 14-23 15-25 17-28 12-20 14-23 48-80 10-17 14-23 19-32 9-15 19-32 66-110 19-32 12-20 13-22 17-28 9-16 9-15 13-22 17-28 11-19 16-27 15-26 17-28 10-17 13-20z" fill="#131413"/>
<path transform="translate(716,514)" d="m0 0 7 1 10 10 13 18 15 24 14 24 15 25 12 19 16 25 22 34 19 29 27 41 10 15 29 44 33 48 11 17 4 8v5l-7 2h-117l-11-18-15-25-17-29-15-25-14-25-10-17-14-25-14-26-11-18-8-9-5-2-8 1-8 6-7 7-14 19-14 22-16 26-12 20-17 29-27 45-12 19-8 12-7 9-6 3-6 1h-49l-8-7-7-12-3-8 1-9 17-28 13-21 9-14 21-33 13-20 15-23 13-20 14-22 15-23 16-25 9-14 14-22 11-17 16-25 12-19 12-18 7-8z" fill="#131413"/>
<path transform="translate(715,399)" d="m0 0h6l-3 2-12 6-11 11-13 17-7 10-10 15-13 21-17 28-19 32-16 26-14 23-8 13-15 24-16 26-24 38-13 21-15 24-9 15-13 21-34 56-9 15-17 28-13 21-45 72-10 15-28 44-13 21-15 26-10 21-4 14-2 8 1 9 4 14 8 16 9 14 9 11 11 8 4-2 4-3-4 8h-7l-5-5-7-6v-3l-4-2-6-7-7-11-7-15-1-6h-2l-3-13-1-1v-18l4-13 10-20 8-14 6-8 3-5 3-4h2l1-5 6-7 3-8h2l2-6 6-9 4-7 6-10h2l2-4h2v-5l4-5 5-9 3-1 1-6 7-8 4-6 5-7 4-8 1-5 5-5 3-6h2l2-4 7-11 3-7 5-5 6-12 4-5 3-9h2l2-7 3-5h3l1-6 1-2h2l2-6 6-9 5-9 3-1 1-5 1-2h2l2-7 4-5h2l1-6 4-6 5-8h2l1-6 7-11 6-11 7-10 9-14 5-9 8-13 11-18 7-10 1-2h2l1-6 10-15 3-6 3-5 3-3 4-7h2l1-4 3-6h2l1-6 6-9 3-5 3-2v-4h2v-2l4-1 2-7 3-5 4-3 1-6 4-4 1-5 5-4 3-9 5-4 2-7 3-1 2-6 5-5 3-8 3-5 2-4 4-4 3-7h2l3-9 4-4 3-7 3-5 5-8h2l1-6 7-11 4-7 7-10 12-16 3-3h2l1-3 8-4z" fill="#3D3E3D"/>
<path transform="translate(483,1131)" d="m0 0h9l11 4 5 4v2l4 2 8 11 6 12 5 8-1 3-11-17-8-12-8-9-10-4h-12l-10 4-11 8-7 7-14 19-10 15-13 20-15 23-12 19-15 24-11 18-12 19-12 20-10 16-11 18-8 13-9 14-1-2 2-7 5-7 3-6 2-1 1-5 4-5 3-6 3-4h2l-1-3 6-7 1-3h2l1-5 2-2 3-7 5-5 2-6 2-2 3-7 5-6 4-7 4-5 10-16 6-10 3-7 4-5 2-4h2l2-5 3-9h2v-2l4-4 1-5 3-4 6-9 3-6 5-7 4-7 4-5 3-5 10-14 10-13 7-7 6-4 9-3z" fill="#414241"/>
<path transform="translate(709,681)" d="m0 0 11 2 10 9 6 10-1 4-8-12-7-8-5-2-8 1-8 6-7 7-14 19-14 22-16 26-12 20-17 29-27 45-12 19-8 12-7 9-6 3h-6l5-4 12-9 3-6h2l2-6 9-15 4-8 2-5 3-5h2l1-6 3-4 3-6 5-8 4-6 4-7 3-4 2-5 3-1 2-6 4-6h2l1-6 6-6 8-16 4-5 3-7h2l2-7 18-30 8-12 4-5 9-7 5-2z" fill="#3D3E3D"/>
<path transform="translate(1310,1031)" d="m0 0 3 4-1 4-13 24-28 49-15 26-13 23-12 21-15 26-14 25-12 21-14 24-1-2 4-10 4-8 4-5 9-16 4-8 7-12 8-16 4-7 4-8h2l1-4 3-6 3-3 3-7 4-8 3-3 4-8 2-2 3-7 3-8 3-1 4-9 3-3 1-4 8-11 3-8h2v-2h2l1-8 3-3 2-7 4-3 2-6 2-4 8-12 3-5h2l2-6 1-2z" fill="#3C3D3C"/>
<path transform="translate(641,773)" d="m0 0 1 2-10 17-13 22-27 45-12 19-8 12-7 9-6 3h-6l5-4 12-9 3-6h2l2-6 9-15 4-8 2-5 3-5h2l1-6 3-4 3-6 5-8 4-6 4-7 3-4 2-5 3-1 2-6 4-6h2l1-5z" fill="#3C3D3C"/>
<path transform="translate(707,1103)" d="m0 0h13l26 3 15 1 10 2 25 4 24 3 3 2-9 1-36-5-46-6-21-2h-8l-2 37-1 33h-1l-1-63 2-7 2-2z" fill="#3F403F"/>
<path transform="translate(789,616)" d="m0 0 3 3 15 24 33 51 19 29 14 21v2h-2l-6-9-7-11-5-5-2-7-3-1-3-3-2-8-3-1-3-3-2-8-3-1-13-19v-3h-2l-7-12-8-13-4-8-5-9-4-7z" fill="#404140"/>
<path transform="translate(391,1079)" d="m0 0v3l-6 11-1 2h-2l-2 5-5 8-2 5-2 4h-2l-2 5-1 2h-2l-1 5-3 3-9 14-11 15-7 9-8 9v-3l11-15 54-81z" fill="#494A49"/>
<path transform="translate(1117,1127)" d="m0 0v3l-12 16-11 12-1 2h-2l-1 4h-2l-2 4-9 10-13 13-11 9-5 5h-2l-1 3-3 1v-2l33-33 7-8 9-9 7-8 9-10 9-11z" fill="#434443"/>
<path transform="translate(1105,688)" d="m0 0 3 3 17 29 34 56 12 20-1 2-16-24-9-14-4-6-4-8-5-7-6-11-5-8-5-10-8-14-3-5z" fill="#3F403F"/>
<path transform="translate(925,824)" d="m0 0 4 5 14 20 15 22 11 17 2 5-5-5-11-15-6-8-5-8-4-5-3-6-5-6-4-8v-2h-2z" fill="#3E3F3E"/>
<path transform="translate(993,500)" d="m0 0 3 3 17 29 12 20 13 22 12 20-1 2-5-8v-2h-2l-5-7-3-7-6-9-5-10v-2h-2l-3-6-7-11-5-9-3-5v-2h-2l-2-7h-2l-4-8z" fill="#3B3C3B"/>
<path transform="translate(1058,1048)" d="m0 0 1 2-8 12-13 16-11 12-7 8-5 4-3 3-2-3h2l2-4 9-9h2v-3l8-7 2-1 2-4 2-1 1-3 5-5 8-11z" fill="#3C3D3C"/>
<path transform="translate(275,1134)" d="m0 0h2l8 17 10 15 9 11 11 8 4-2 4-3-4 8h-7l-5-5-7-6v-3l-4-2-6-7-7-11-7-15z" fill="#454645"/>
<path transform="translate(862,609)" d="m0 0 3 1 5 10 6 9 8 13 9 19 3 5-1 3-28-50z" fill="#464746"/>
<path transform="translate(701,1106)" d="m0 0h1v13l-2 57h-1l-1-63 2-6z" fill="#4D4E4D"/>
<path transform="translate(723,400)" d="m0 0 8 1 8 7 8 8 7 9 6 9 1 4h-3l-12-18-9-11-10-7z" fill="#4B4C4B"/>
<path transform="translate(1192,1246)" d="m0 0 1 2-12 22-5 8-1-2 4-10 4-8 4-5z" fill="#3B3C3B"/>
<path transform="translate(1173,1278)" d="m0 0h2l-2 6-13 23-4 7-2-2 3-6h2l3-9 6-10z" fill="#3B3C3B"/>
<path transform="translate(1177,808)" d="m0 0 3 3 17 28 3 5-1 2-4-6v-2h-2l-7-12-9-15z" fill="#404140"/>
<path transform="translate(1162,1057)" d="m0 0h1l-1 10-7 14-7 10-5 6v-3l10-15 7-14z" fill="#434443"/>
<path transform="translate(300,1174)" d="m0 0 3 1 5 5 7 5 4-2 4-3-4 8h-7l-5-5-7-6z" fill="#545554"/>
<path transform="translate(572,887)" d="m0 0v3l-7 9-6 3h-6l5-4 12-9z" fill="#3E3E3E"/>
<path transform="translate(708,522)" d="m0 0v3l-4 7-6 10-3 3-3 6h-2l2-5 10-16z" fill="#414241"/>
<path transform="translate(718,683)" d="m0 0 5 2 7 7 6 10-1 4-8-12-7-8-2-1z" fill="#474847"/>
<path transform="translate(993,500)" d="m0 0 3 3 13 22-1 2-4-5-1-4h-2l-2-7h-2l-4-8z" fill="#3B3C3B"/>
<path transform="translate(1279,979)" d="m0 0 3 3 11 19-1 2-7-10-2-6h-2z" fill="#424342"/>
<path transform="translate(1008,527)" d="m0 0 3 1 12 20h-3l-9-14z" fill="#464746"/>
<path transform="translate(1036,574)" d="m0 0 3 1 11 19-1 2-5-8v-2h-2l-5-7z" fill="#3F403F"/>
<path transform="translate(1040,1210)" d="m0 0v3l-9 9-2-1zm-12 12m-2 1h2l-1 5-2 3-1-5z" fill="#3F403F"/>
<path transform="translate(934,399)" d="m0 0 3 3 11 19-1 2-10-16-3-4z" fill="#3B3C3B"/>
<path transform="translate(956,719)" d="m0 0h13l5 3 2 3-5-2-15-3z" fill="#575857"/>
<path transform="translate(298,1391)" d="m0 0 2 1-2 5-5 8-1-3 2-6z" fill="#3B3C3B"/>
<path transform="translate(577,725)" d="m0 0 1 3-7 10-3 5-4 4 2-5z" fill="#3B3C3B"/>
<path transform="translate(768,581)" d="m0 0 3 3 10 17-1 2-7-10-5-9z" fill="#3B3C3B"/>
<path transform="translate(1105,688)" d="m0 0 3 3 9 15-1 2-7-9-4-8z" fill="#3B3C3B"/>
<path transform="translate(860,728)" d="m0 0 3 1 10 15v2h-2l-6-9-5-8z" fill="#3B3C3B"/>
<path transform="translate(391,1079)" d="m0 0v3l-6 11-1 2h-3l2-4 7-11z" fill="#3B3C3B"/>
</svg>
