<?xml version="1.0" encoding="UTF-8"?>
<svg version="1.1" viewBox="0 0 1600 1600" width="40" height="40" xmlns="http://www.w3.org/2000/svg">
<path transform="translate(808,694)" d="m0 0 5 1 11 9 12 11 8 7 9 9 8 7 13 12 10 9 13 12 8 7 20 18 11 9 14 13 11 9 13 12 11 9 15 14 8 7 14 12 12 11 11 9 10 9 14 11 13 11 10 8 13 11 14 12 11 9 11 10 8 7 10 9 7 6 2 3-1 4-8 7-11 10-14 11-13 11-20 16-16 13-14 11-32 26-11 9-10 8-51 42-13 11-11 9-14 11-11 9-17 13-16 13-14 11-14 12-17 13-14 9-7 3h-11l-11-6-12-10-10-8-14-11-12-10-22-18-17-14-13-11-10-8-13-11-22-18-13-11-22-18-13-11-11-9-16-13-11-9-13-11-10-8-14-12-13-11-14-12-11-10-8-7-13-13-3-4 1-4 9-9 7-8 13-12 8-8 8-7 7-7 8-7 16-15 8-7 26-24 20-18 13-12 8-7 10-9 13-12 8-7 10-9 11-10 11-9 7-7 8-7 10-9 11-9 15-14 11-9 14-13 11-9 12-11 11-9 13-11zm-36 225-8 4-14 10-16 13-13 11-2 5 7-1 16-9 13-10 17-17 2-6z" fill="#030929"/>
<path transform="translate(811,90)" d="m0 0h12l12 6 14 11 14 12 10 8 17 14 10 8 16 13 14 11 32 26 14 11 16 13 13 10 15 12 14 11 16 13 13 10 17 14 10 8 11 9 14 12 10 9 10 10 1 6-7 9-15 15-8 7-10 9-11 9-11 10-8 7-14 12-12 11-8 7-20 18-15 14-13 14-4 4-4-2-2-5-2 1-3 14-11 12-14 12-13 10-17 14-10 9-8 7-4 1-16-15-4-4-6 1-3 3 13 15 4 6-1 5-9 10-8 7-8 8-11 9-11 10-14 10-4 3-4 8-5 1-10-8-36-33-10-9-11-10-8-7-20-18-11-9-14-13-11-9-15-14-11-9-13-12-11-9-12-11-11-9-15-13-22-18-13-11-11-9-15-13-14-12-9-9-8-7-7-7-7-9 5-6 11-9 10-9 14-11 13-11 14-11 17-14 14-11 16-13 14-11 32-26 14-11 17-14 14-11 17-14 16-13 14-11 15-12 17-13 16-13 20-15zm141 302-8 6-4 4-1 3 3 2 10-6 6-6-1-3zm-22 20-11 6-19 14-13 10-14 11-15 12-17 13-18 14-5 4 2 5 6 5h4l5-9 9-9 11-9 13-11 10-8 16-13 14-12 11-9 12-11zm-93 103 2 6 13 18 5 5 6-1 2-4-12-13-11-10z" fill="#030929"/>
<path transform="translate(428,363)" d="m0 0 5 2 11 8 15 13 11 9 13 12 11 9 11 10 8 7 10 10 7 9 19 12 18 14 17 14 26 22 14 12 10 9 8 7 14 12 13 12 14 12 12 11 8 7 14 12 10 9 11 9 10 9 11 9 15 14 10 10v3l-14 10-11 10-8 7-14 12-16 15-8 7-24 22-8 7-12 11-70 63-36 33-11 10-15 11-8 4h-2l-6 10-41 41-8 7-7 7-8 7-13 12-14 11-4 1-1-226v-245l1-141 1-11z" fill="#E8CD81"/>
<path transform="translate(808,694)" d="m0 0 5 1 11 9 12 11 8 7 9 9 8 7 13 12 10 9 13 12 8 7 20 18 11 9 14 13 11 9 13 12 11 9 15 14 8 7 14 12 12 11 11 9 9 8-3 2-29 4-66 7-39 4-56 7-50 6-32 3-17 3-4 2h-7-3l13-12 10-10 3-6-10 5-14 10-16 13-12 10-3 5 7-1-5 4h-3v2h-3v2l-10 6h-3v2l-4 1-1 3-10 6-27 18-4 4-7 5 5-2 5-1h7l3 9 1 15-3 5-5 3-2 5-8 4-12 2-18 2-30 5-18 1-8-1-13 5-12 6-11-9-28-24-11-10-8-7-13-13-3-4 1-4 9-9 7-8 13-12 8-8 8-7 7-7 8-7 16-15 8-7 26-24 20-18 13-12 8-7 10-9 13-12 8-7 10-9 11-10 11-9 7-7 8-7 10-9 11-9 15-14 11-9 14-13 11-9 12-11 11-9 13-11z" fill="#02423C"/>
<path transform="translate(1149,383)" d="m0 0 2 1 1 41v176l-5 5-12 11-11 9-17 14-14 11-13 10-20 15-14 10-9 6-1 3 15 50 18 64 15 55 7 29-1 3-6-4-13-10-17-14-22-18-14-12-11-9-15-13-28-24-15-13-10-9-11-9-13-12-11-9-14-13-11-9-14-13-8-7-12-11-8-7-11-10 2-5 8-7 14-13 8-7 14-12 12-11 8-7 10-9 11-9 15-14 11-9 7-7 11-9 14-13 11-9 14-13 11-9 13-12 8-7 10-9 14-12 14-13 11-9 15-14 11-9 15-14 11-9 14-12z" fill="#02423C"/>
<path transform="translate(428,363)" d="m0 0 5 2 11 8 15 13 11 9 13 12 11 9 11 10 8 7 10 10 4 6v100l-2 122v226l-7 9-38 38-8 7-7 7-8 7-13 12-14 11-4 1-1-226v-245l1-141 1-11z" fill="#062D40"/>
<path transform="translate(1146,385)" d="m0 0h4v6l-2 3-1 105v101l-3 5-11 9-11 8-10 8-8 6-1 2h-2v2l-7 4-8 6-3 3-13 10-9 7-5 3h-2v2l-11 7-4 3h-5l-8-28-4-10v-2h-2l-5-16-9-31-2-5-2-13-8-28-4-15-5-6 2-3h2l1-4 10-9h2l2-4 4-2 4-5 4-2 4-5 8-7 9-10 10-9 8-7 10-9 14-12 13-12 11-9 15-14 11-9 14-12z" fill="#030F1F"/>
<path transform="translate(617,521)" d="m0 0 6 4 11 10 8 7 14 12 13 12 14 12 12 11 8 7 14 12 10 9 11 9 10 9 11 9 15 14 10 10v3l-14 10-11 10-8 7-14 12-16 15-8 7-24 22-8 7-12 11-10 9-6 5-5 3-11 9h-2l-1 3h-3v2l-5 3-6 7h-2l-1-47-1-101v-139z" fill="#7B5018"/>
<path transform="translate(428,363)" d="m0 0 5 2 11 8 15 13 11 9 13 12 11 9 11 10 8 7 10 10 2 3v117l-1 58-1 13-2 4-1 4-7 1-6 4-4 4-8 2-2 1-4-2-10-1-6-4h-5l-1-2h-12l-4 1-7-2-4-1-1-2-2 2h-3l-1 6h-2l-1 10-2 52-1 20h-1v-354l1-11z" fill="#030928"/>
<path transform="translate(916,789)" d="m0 0 4 2 12 11 8 7 10 9 11 9 13 12 11 9 15 14 8 7 14 12 12 11 11 9 9 8-3 2-29 4-66 7-39 4-56 7-50 6-32 3-17 3-4 2h-7-3l13-12 10-10 3-6-8 4h-2l2-4 5-4 9-5 12-10 9-7 10-10 8-7 7-8 9-7 5-6 8-5 5-5 5-4 8-8h2l2-4 7-5 4-5 5-2 2-4 13-10 5-5 3-1 2-4 4-2z" fill="#549692"/>
<path transform="translate(808,694)" d="m0 0 5 1 11 9 12 11 8 7 9 9 8 7 13 12 10 9 13 12 8 7 10 9 1 4-6 4-5 5-8 7-10 8-9 9-9 7-10 10-9 7-4 5-8 5-4 5-9 7-8 9-5 2h-5l-3-16-1-8-6-2-5-1-2 1-1-7-8-1-4-3h-5l1-6 3-5 3-2 1-8-5 2-6 1-7-3v-2h-3v-3l-3-1-1-7-2-2-1-7-2-7-2-1v-3l-3-1v-2l-9 3-5 2h-14l-8 4-8 5h-2l-1 2-7 3-10 9-12 11-10 9-11 9-10 10-9 7-10 9-12 12-14 11-8 8-10 8-1-3 10-11 8-6 6-5 2-3h2l1-3h2l1-4 6-6h5l2-4 6-4h2l1-3h2l1-4h2l2-7 7-7 8-7 10-9 11-10 11-9 7-7 8-7 10-9 11-9 15-14 11-9 14-13 11-9 12-11 11-9 13-11z" fill="#033439"/>
<path transform="translate(988,363)" d="m0 0h2l-1 14-1 2-2 29-3 35-1 4-1 19-2 23 5-1-1 3-5 2-3-5-2-2-3 9-2 7-9 10-15 13-13 10-17 14-10 9-8 7-4 1-16-15-4-4-6 1-5 3-5-6 1-2 6-1v-4l-11-12-10-9-5-2 6 10v3l-9-10-9-11 1-2 4 1 2-6 7-8 11-10 11-9 17-14 16-13 14-12 11-9 11-10v-2l-9 5-2-1 8-7 9-7 4-2v-2l3 1h-2l-1 5 2 1 10-6 5-5v-2l-5-1 5-5 19-14 4-2v-2l5-2 1-3z" fill="#F7E2AF"/>
<path transform="translate(525,447)" d="m0 0 2 2v100l-2 122v226l-7 9-38 38-8 7-7 7-8 7-13 12-14 11-4 1v-149l3-9 4-23 3-8 5-2 2 1 21 1 10-1 10 3 3 2v2l4 2 13 2 10-1 5 8 2 1 1-145 2-110z" fill="#347373"/>
<path transform="translate(982,360)" d="m0 0 8 1v2l-4 2-4 4h-2v2l-19 14-8 6-4 4-5 4h-4v2l-14 11-6 5-5 5-18 13-16 13-13 10-14 11-13 10-18 14-4 3 2 5 4 3 4 7 11 12 5 5 9 12 7 10 5 5 11 12 3 5-1 5-9 10-8 7-8 8-11 9-11 10-14 10-4 3-4 8-5 1-10-8-36-33-10-9-11-10-8-7-20-18-11-9-14-13-11-9-15-14-4-4 5 1 7 6v2h2l5 5 9 6 4 5 8 7 14 13 8 6 4 5 9 5-2-6-7-10-3-4 4 2 7 4h11l2-4 4-7 5-5 4-2 2-4 8-6 8-5 5-6 13-8 13-5 12-14 11-8h2v-2l8-6 10-8 17-14 13-10 10-8 13-10 14-11 11-9 16-12 5-3 5-5 15-11 5-4h2v-2z" fill="#03293D"/>
<path transform="translate(1231,1327)" d="m0 0h3v62l-1 53-2 47-10 2h-12l-1-2v-99l-13 23-13 26-12 22-10 17h-3l-6-8-15-26-14-27-12-24-4-2v15l-1 26-1 58-1 1h-21l-1-1v-161l1-1h17l6 5 9 15 16 31 10 19 12 23 4 6 4-2 9-15 12-23 15-31 12-26 2-2z" fill="#040C2B"/>
<path transform="translate(1028,693)" d="m0 0h4l3 6 1 6 4 3 15 51 14 50 15 55 7 29-1 3-6-4-13-10-17-14-22-18-14-12-11-9-15-13-28-24-15-13-10-9-3-2 1-6 8-4 11-9 10-8 9-7h2l1-3 10-8 15-13 11-8 2-2 7-3z" fill="#030929"/>
<path transform="translate(617,521)" d="m0 0 4 3h-3l1 86 1 37 1 6 5-3 3-1 7 3v2l6 2 6 3 20 1 12 5 6 1 11 3 11 2 15 8 13 11 3 1v2h7l6-3h2l1-3 4-3h2l1-3h2v-2l6-4h3l1-3 8-6 2 2v3l-14 10-11 10-8 7-14 12-16 15-8 7-24 22-8 7-12 11-10 9-6 5-5 3-11 9h-2l-1 3h-3v2l-5 3-6 7h-2l-1-47-1-101v-139z" fill="#9F7928"/>
<path transform="translate(589,1328)" d="m0 0h43l18 2 16 5 10 5 9 8 5 10 1 4v17l-3 8-8 10-4 3 2 4 10 8 8 9 5 10 1 3v14l-5 13-7 9-7 7-12 7-17 3-48 2h-17l-1-20v-140zm22 24v40h23l17-2 7-4 4-5 2-6v-12l-3-5-3-2-19-3-16-1zm5 60-6 1v33l2 19 2 1h11l27-2 12-3 8-6 3-4 1-3v-14l-6-10-9-6-12-4-7-1z" fill="#040B2A"/>
<path transform="translate(808,694)" d="m0 0 5 1 11 9 12 11 8 7 9 9 8 7 13 12 10 9 13 12 8 7 10 9-4 3-5 3-5 5-8 7-7 8h-2v2l-5 4h-2l-1 2-5 3-1 2h-2l-1 3h-2l-1 3h-2v2l-11 9-12 11h-2l-2 4-5 2-2 4-5 4-3 4-4-1-1-6 1-52-1-48v-19l-1-35-1-4v-4l-9 2-6 7-8 7-14 12-10 8-5 5-11 10-11 9-10 10-11 9h-2l-1 3-8 7-3 1v2h-2v2l-5 4h-4l1-4 1-3 5-3 7-8 8-9 8-7 10-9 11-9 14-13 11-9 12-11 11-9 13-11z" fill="#031634"/>
<path transform="translate(876,1325)" d="m0 0h17l-2 4-27 27-8 7-13 12-19 19-5 8v6l9 12 12 14 10 11 7 8 12 14 14 15 5 6v2l-2 1h-12l-8-2-14-9-12-11-8-7-28-30-13-14-4-5-3 54-1 23-12 1-7-1-4-5-1-3v-153h24l2 47 1 16 5-3 14-12 9-9 8-7 19-19 11-9 12-6z" fill="#030A2A"/>
<path transform="translate(540,1323)" d="m0 0h3l-2 4-10 9-14 14-8 7-24 24-8 7-14 14h-2l3 5 11 12 9 11 10 11 9 11 13 15 10 13 4 7-1 4h-10l-10-4-13-10-16-15-12-13-9-9-7-8-6-5v-2l-4-2-7-7-3-2-1 8-3 68-2 1h-11l-5-2-2-2-1-5-1-34v-120h16l6 1 2 6 1 9 2 39 1 8 5-2 10-9 8-7 18-18 8-7 12-11 11-8 10-3 20-2z" fill="#030A29"/>
<path transform="translate(523,445)" d="m0 0 2 1v117l-1 58-1 13-2 4-1 4-7 1-6 4-4 4-8 2-2 1-4-2-10-1-6-4h-5l-1-2h-12l-4 1-7-2-4-1-1-2-2 2h-3l-1 6h-2l-1 10h-1v-48l1-23 4-26 2-11 2 2 6 1 1 4 5 1 4 3 9 1 1 1 7 1v2l5 2 8 4 2 4 8 1 6-5 3-4h2l3-9 1-2 5 1 3 3 3-1 1-2 1-26v-87z" fill="#031634"/>
<path transform="translate(522,634)" d="m0 0h1v39l-1 138-1 7-4-2-3-6-10 1-13-2-4-3v-2l-9-3-7-1-7 1-21-1-4-1-3 2-3 11-3 19-3 9h-1v-43l2-20 1-26 1-9 3-12 3-7 4-2 5 1 8 4 10 3 4 2 7 2 10 4 13 1 6-4 6-7 3-4 4 2 2 5h2l1-72z" fill="#053F42"/>
<path transform="translate(724,973)" d="m0 0 5 1v2l4 1 6 3 7-1h8l1 5-1 5 1 7 2 9 1 6-1 3 5 5 3 9 1 1v9l2 5-5 2-49 6-43 5-50 5-13 2-37 3-19 1 1-2 13-5 15 1 18-2 23-4 26-3 11-4 3-6 5-2 2-7-1-13-2-8h-7l-8 2h-3l9-7h2l1-3 27-18 9-5h7l8-1v-2l7-1v-2z" fill="#031634"/>
<path transform="translate(439,798)" d="m0 0 4 1 21 1 10-1 10 3 3 2v2l4 2 13 2 10-1 5 8 2 1v-7h1l1 13v33l-1 16-2 2-5-1-4-4-9 3h-11l-9-2-16-4h-8l-9-4h-12l-3 9-3 7-5 1v-40l3-9 4-23 3-8z" fill="#1F5C65"/>
<path transform="translate(618,524)" d="m0 0 2 3v91h2l2-4 5-4 5 1 8 4 8 2 13 2 3 1 1 2 8 2 16 5 11 3 12 6 15 3 3 1v-2-3h7l8 6 7 8v2l2 1v3l2 1h-2l5 8 2 3h-2v2h2v2l6-1 7-4 4-4v4l-6 5-1 2-6 3-3 1v2l-9 7-3 3-7 3-6-1v-2l-4-1-12-10-15-8-19-4-6-2-5-1-10-4-20-1-12-6v-2l-9-2-5 4-2-1-1-6-1-37z" fill="#856123"/>
<path transform="translate(617,521)" d="m0 0 4 3h-3l1 144 1 35 5-4 5 1 6 5 5 1 2 3 9 2 14 4 9 6 7 2 1 5 6 2 5 2 10 1v-2l6-4h3v-2l12-9h3l1-3 4-3 6-5 3 1-8 7-13 12-8 7-24 22-8 7-12 11-10 9-6 5-5 3-11 9h-2l-1 3h-3v2l-5 3-6 7h-2l-1-47-1-101v-139z" fill="#B08D3A"/>
<path transform="translate(928,1331)" d="m0 0h115l1 2-1 16-5 2-54 5 1 6-1 74-1 46-1 9h-11l-7-2-3-5-1-9-1-121-23-1-5-3-3-4z" fill="#030C2B"/>
<path transform="translate(816,497)" d="m0 0 3 1 5 5 6 9 10 11 5 5 9 12 7 10 5 5 11 12 3 5-1 5-9 10-8 7-8 8-11 9-11 10-14 10-4 3-2 5h-1l-1-89v-46z" fill="#866325"/>
<path transform="translate(529,762)" d="m0 0h2l2 12 2 30v5l5-3 4-1 8 6 9 3 1 1 15 1 5-1h13l6 4h7l1-2 7 1-6 7-12 11-10 9-13 12-12 11-11 10-15 11-8 4h-2l-2 2v-63l2-42 1-25z" fill="#F8E3AF"/>
<path transform="translate(765,542)" d="m0 0h5l-1 8 7 2 4 1 4 12 2 3 10-1v-2l3 1 2 9 3 18v10l4 12v3l2-3 1 11v15l-2 2-5-1-9-7-36-33-10-9-11-10-8-7-4-4h6l9-7 21-21z" fill="#064043"/>
<path transform="translate(1149,383)" d="m0 0 2 1 1 41v176l-5 5-12 11-11 9-17 14-14 11-13 10-20 15-14 10-9 6-1 3 3 12-4-2-2-9-1-3-7 3-5 4-5 2-10 8-11 9-14 12-11 9-4 3h-2l2-4 3-1 4-5 9-7 4-1 2-4 11-10 14-11 11-8 3-7-7-25-6-21-2-8-6-20-14-42-6-11-4-4-6-2-10 4-10 8-7 4-5 4-3 1-1-2-2 1 1-4 8-8 11-9 14-13 11-9 14-13 11-9 13-12 8-7 2-1-2 4-10 9-3 4-5 3-2 3-5 3-5 5-8 7-1 3-3 3 6 8 5 20 7 24 2 13 9 29 4 15 1 5h2l6 15 6 22v3l7-2 5-4 6-4h2v-2l8-5 13-10 8-6h2l1-3 12-9h3v-2h2l2-4 12-9 9-7 8-6 11-9 1-3v-118l1-88 2-3 1-6-3-1z" fill="#033339"/>
<path transform="translate(811,90)" d="m0 0h12l12 6 14 11 14 12 10 8 3 3 1 5-6-2-8-6-5-5-8-7-3-4v-2l-6-2-11-6-7-1-10 2-4 4-3 2h-3l-2 4-10 6-12 9-14 10-11 9-12 9-6 5h-2v2l-11 8-12 10h-2v2l-4 3h-2v2l-9 7-12 9-15 11h-2v2l-15 10-11 8-12 11-17 12-15 13-8 6-7 4-5 2 6-7 9-9 3-5 16-13 14-11 17-14 14-11 17-14 14-11 17-14 16-13 14-11 15-12 17-13 16-13 20-15z" fill="#01031B"/>
<path transform="translate(1146,385)" d="m0 0h4v6l-3 5-1 34-1 5h-2l-1-6h-2l-2-2 1 6-5 5h-2l-1-2-4-1-7 3-7 6-4 1v2h-5l5-5 15-10 4-2 1-2-8 1-8 6-3 1-4 4-7 5-1 2h5l-3 2-15 8-14 12-13 9h-2v2l-8 7-5 5-12 8h-2l-2 5-5 2v2l-9 5-3 3h-2l-1 2-7 6-9 6-5 2-1-2 2-3h2l1-4 10-9h2l2-4 4-2 4-5 4-2 4-5 8-7 9-10 10-9 8-7 10-9 14-12 13-12 11-9 15-14 11-9 14-12z" fill="#010213"/>
<path transform="translate(696,979)" d="m0 0 2 1-11 7-27 18-4 4-7 5 5-2 5-1h7l3 9 1 15-3 5-5 3-2 5-8 4-12 2-18 2-30 5-18 1-8-1-13 5-12 6v-3l11-5 18-11 45-25 22-13h2v-2l11-7 5-1v-2l12-7 10-5 16-11z" fill="#032A3D"/>
<path transform="translate(439,919)" d="m0 0 4 1 10 5 12 3h14 4l8-1 1-2 6-2h3l-21 21-8 7-7 7-8 7-13 12-14 11-4 1v-64l4 4 4-4 1-3h3z" fill="#559792"/>
<path transform="translate(813,523)" d="m0 0 2 4 1 20 3 17 5 6 6 3 6 1 1 2 7 1 5 3h15l2-1 2 1 1-2 8-4v-5l3 3-1 5-9 10-8 7-8 8-11 9-11 10-14 10-4 3-2 3v-112z" fill="#9F7928"/>
<path transform="translate(438,760)" d="m0 0 12 7 9 2 14 1 15 5 9 1 11-4 3-5 5 1 5 6v27l-1-3-1 2-6-3v-2l-6 1-1 2h-2v2h-6l-1-2-6-2-6-4-4-3-3-1v2l-8 1v-2l-7 1-1 3-5-1-3 1-8-3-1-5-9-1-3 17-3 21-3 11h-1v-18l3-17 1-11 3-16 3-10z" fill="#02423C"/>
<path transform="translate(1161 1e3)" d="m0 0 4 2 3 4-1 4-8 7-11 10-14 11-13 11-20 16-16 13-14 11-32 26-11 9-10 8-51 42-13 11-11 9-14 11-11 9-17 13-16 13-14 11-14 12-17 13-14 9-7 3h-11l-6-3 1-2h13l7-2 10-6 10-8 13-10 44-36 16-13 6-4 5-5h2v-2l9-7 3-1v-2l14-10 10-9 10-8 13-10 5-4h2v-2l8-5 4-5 7-5 5-3 8-8 5-4 5-3 5-5 9-6 5-3 11-12 5-3 5-5 9-7 11-9 20-16 11-9 4-1v-2l14-11 6-4 6-7 4-3h2l-2-4-2-2z" fill="#0A233D"/>
<path transform="translate(1055,914)" d="m0 0h5l16 13 14 11 9 8 11 9 15 13 14 12 11 10 8 7 3 3 1 4 2 5-9 7-5 6-9 6-7 6h-2v2l-5 3-2-1 2-4h2l1-5 1-3-4-2-5 8h-2l-1 5-6 6-2-1 1-2-4 2-3 3 1-4 5-6 8-2v-3l-4 1 2-11 1-11 2-5 1-9 4 2-1-12 5 2 1 4-1 8h5l1 3-3 1-2-1-1 9v3l4-8 5-7 3-1v3l3-3v-5l-16-14-5-5-16-12-4-4-11-9-6-4-2-5-3-1v-2l-5-2-1-3-6-3-5-6-1-3-7-3-2-2z" fill="#02051D"/>
<path transform="translate(879,135)" d="m0 0 5 1 32 26 14 11 32 26 14 11 16 13 13 10 15 12 14 11 16 13 13 10 17 14 10 8 11 9 14 12 10 9 10 10-1 5-5 3-2-2 4-1-3-6-11-10v-2l-7-2-7-6-1-2 4 1-1-1-7-5-5-2-9-6-10-7-9-8-8-7v-2l-6-2-4-3v-2l-4-1-5-5-9-8-5-5v-2l-6-2-9-7v-2l-12-6-6-5v-3l-7-2-8-8-14-8-4-4v-2l-4-2-7-6v-2h-2l-4-4-7-4-6-7-9-6-5-5-14-10-11-9-5-5-2-4-4-2z" fill="#030920"/>
<path transform="translate(1149,383)" d="m0 0 2 1 1 41v176l-5 5-12 11-11 9-17 14-14 11-13 10-20 15-14 10-9 6-1 3 3 12-4-2-2-9-1-3-7 3-5 4-2-1 9-7 5-2-2-10-8-26-1-9 2 2 5 13 6 22v3l7-2 5-4 6-4h2v-2l8-5 13-10 8-6h2l1-3 12-9h3v-2h2l2-4 12-9 9-7 8-6 11-9 1-3v-118l1-88 2-3 1-6-3-1z" fill="#0A243D"/>
<path transform="translate(540,1323)" d="m0 0h3l-2 4-9 8-10 3-13 13-8 7-4 3 1-5h-3l-5 10-9 2v2l-6 4-11 6-8 7-8 6-7 3-3-1 2-5 9-10 8-7 18-18 8-7 12-11 11-8 10-3 20-2z" fill="#02041C"/>
<path transform="translate(428,363)" d="m0 0 5 2 3 2 1 6-3 5v11l1 3-2 44-1 26h1v27h-1v24l-1 14v32l-1 25-1 11-1 76-1 27h-1v-321l1-11z" fill="#030515"/>
<path transform="translate(988,363)" d="m0 0h2l-1 14-1 2-2 29-3 35-1 4-1 19-2 23 5-1-1 3-5 2-2-2v-14l2-24v-38h-3l-4 8-2 6-12-1-4-5-1-8-3-2v-3h2l1-4 2-6 8-7 8-6 5-4h5l2-5 3-7v-4l1-3z" fill="#E8CD81"/>
<path transform="translate(1145,399)" d="m0 0h1v31l-1 5h-2l-1-6h-2l-2-2 1 6-5 5h-2l-1-2-4-1-7 3-7 6-4 1v2h-5l5-5 15-10 4-2 1-2-8 1-8 6-3 1-4 4-7 5-1 2h5l-3 2-15 8-14 12-13 9h-2v2l-8 7-5 5-12 8h-2l-2 5-5 2v2l-9 5-3 3h-2l-1 2v-3l3-3h2l1-3 9-7 4-2 1-3 8-7 10-9 4-1 2-4 9-8 11-9 15-13 3-1v-2l8-7 6-5h2l1-3 5-2 1-3 11-9 5-4h2v-3l3-3 3-1 2-2h7z" fill="#01021A"/>
<path transform="translate(928,1331)" d="m0 0h115l1 2-1 12-1 2-31 1-13-2-8-4h-6l-5 2-9 1-2-1-10-1v-1l10-1 2-1-16 1-7 1-14 1v3l-4 1-1-1z" fill="#01051D"/>
<path transform="translate(876,1325)" d="m0 0h17l-1 3h-5v2l-5 3-13 12-10 10-3 1-1-4-4 1h-2l1 3-7 5-2 4-4 1v2l-13 7-14 11-9 7-9 2 6-7 10-10 3-5 14-15 16-16 11-9 12-6z" fill="#01021A"/>
<path transform="translate(982,360)" d="m0 0 8 1v2l-4 2-4 4h-2v2l-19 14-8 6-4 4-5 4h-4v2l-14 11-6 5-5 5-18 13-16 13-13 10-14 11-13 10-18 14-10 8-2 3-1 12-2-1-1-3v-7l-3-1 12-14 11-8h2v-2l8-6 10-8 17-14 13-10 10-8 13-10 14-11 11-9 16-12 5-3 5-5 15-11 5-4h2v-2z" fill="#142639"/>
<path transform="translate(811,90)" d="m0 0h12l8 4v2l-17 1-12 5-9 7-6 4-6 7-15 10-7 6-5 5-11 8h-2v2l-20 16-11 8-10 9-5 2-1 3-15 11-10 8-7 5h-2v2l-11 7-3-1v-3l13-10 17-14 16-13 10-8 16-13 14-11 15-12 17-13 16-13 20-15z" fill="#060A1A"/>
<path transform="translate(819,961)" d="m0 0h5v2l4 2 11 7 21 14 14 10 17 13 20 16 15 13 10 8 8 7 4 4-1 3-11-6-19-11-14-10-17-13-14-12-10-9-7-5-5-5-10-9-9-7-8-6z" fill="#F2DDA6"/>
<path transform="translate(806,703)" d="m0 0h7l2 8 1 45v18l1 43-1 52 1 2 4-1 5-5 4-5 6-4 5-5 11-10 8-7h2v-2l5-4 1-2h2l1-3 10-7 3-1v-2l7-6 7-8 7-6 3-3 5-2h3l-1 4-5 3-5 5-8 7-10 8-9 9-9 7-10 10-9 7-4 5-8 5-4 5-9 7-8 9h-4l-1-3v-32l1-29v-14l-1-15v-34l-1-24-4-13-2-1-9 5-7 1 4-5h2l1-3h2l1-3h2l2-4z" fill="#042B3E"/>
<path transform="translate(1130,351)" d="m0 0h2l-2 4-16 16-8 7-10 9-11 9-11 10-8 7-14 12-12 11-8 7-20 18-15 14-12 13-6 1v-15l1-8 1-19 2-13 2-26 2-29 2-9 1-7h1l-1 19-5 59-2 16-2 27 5-5 10-11 8-7 13-12 8-7 8-8 8-7 11-9 13-12 12-10 11-9 13-11 5-5h2v-2l8-7h2v-2l10-8z" fill="#0B263E"/>
<path transform="translate(1210,1328)" d="m0 0 19 1 1 6h-13l-5 3-3 5-9 26-10 26-4 10h-2l-1 6-6 10h-2l-2 5-7 4-4 1 1-5 8-14 3-1v-7l3-6h2l1-6 5-11 3-9 14-29 7-14z" fill="#02061E"/>
<path transform="translate(805,951)" d="m0 0 5 1 12 8-2 2 4 5 8 6 11 9 12 10 4 4 8 7 15 13 18 14 17 12 26 15 4 2-1-4 5 2 3 4v3h-5v2l-11-3-12-6-7-4-10-7-8-7v-2l-4-2-5-6-9-3-11-9-4-4-3-5-10-8-6-3-5-5-4-7-3-2v-2l-4-2-5-6v-2l-5-2-2-4h-3l-3-5-10-8z" fill="#1E191B"/>
<path transform="translate(406,1328)" d="m0 0h16l6 1 2 6 1 9 2 39 1 8 5-2 4-2-6 8-4 1-1-3-3-1v-48l-4-1 3-1-2-3-9 1-2 1-2 11-3 54-1 33v24l1 6v9l-2 2-1-9-1-23z" fill="#01021A"/>
<path transform="translate(707,781)" d="m0 0 2 1-7 7-4 5h-3l-1 4-1 3 3 1-11 9-17 16-15 13-10 9-9 8-11 9-16 16-14 11-8 8-10 8-1-3 10-11 8-6 6-5 2-3h2l1-3h2l1-4 6-6h5l2-4 6-4h2l1-3h2l1-4h2l2-7 7-7 8-7 10-9 11-10 11-9 7-7 8-7z" fill="#031A35"/>
<path transform="translate(632,848)" d="m0 0 3 1-2 4h-2l-1 4-9 7-4 4-6 2-5 5-1 3-5 4-2 3h-2l-1 3-13 10-7 8v2l2 1-11 11h-2v2l-10 8-12 11-13 13-11 9-7 7-2-1 5-5-4 1-2-1 2-4 10-10 8-7 16-15 8-7 26-24 20-18 13-12 8-7 10-9z" fill="#073C3F"/>
<path transform="translate(802,505)" d="m0 0 2 1-10 7-10 9-11 9-10 9-4 4h-2l-2 4-3 3h-2l-2 4-11 12-3 5-4 1-6-2-14-13-11-9-14-13-11-9-15-14-4-4 5 1 7 6v2h2l5 5 9 6 4 5 8 7 14 13 8 6 4 5 9 5-2-6-7-10-3-4 4 2 7 4h11l2-4 4-7 5-5 4-2 2-4 8-6 8-5 5-6 13-8z" fill="#031634"/>
<path transform="translate(993,362)" d="m0 0 4 3-1 25-1 2h2l-1 3-3 31-2 28-2 16 1 2 2-6 4-2 4 1-5 5-10 11-2 3h-2v-13l2-24 2-18 5-58 2-8z" fill="#01021A"/>
<path transform="translate(680,1430)" d="m0 0h3l3 7v11l-1 10-8 7-6 4-12 6-21 2-5 1-10-1-9-5h-4v-4l27-1 10-2 11-1 4-1v-2l9-6 3-4h2l2-5z" fill="#01041C"/>
<path transform="translate(784,714)" d="m0 0h3l1 5-7 8-15 12-5 5-11 10-11 9-10 10-11 9h-2l-1 3-8 7-3 1v2h-2v2l-5 4h-4l1-4 1-3 5-3 7-8 8-9 8-7 10-9 11-9 14-13 11-9 12-11z" fill="#041326"/>
<path transform="translate(1212,1391)" d="m0 0 2 1 1 3v18l2 30 1 1 1-3 5 8-1 9-4 4-1 13 3-1 4 1v8l-6 3-3 4h-6v-93z" fill="#01021A"/>
<path transform="translate(1082,1328)" d="m0 0h17l5 4v2h-9l-6 1v2h-2l-1 15v43l1 8v48l-2 22-2 5h-1z" fill="#01021A"/>
<path transform="translate(589,264)" d="m0 0h2l-2 4-6 7-7 6-5 5-5 3-5 5-4 1-1 3-5 3-5 5-5 2v2l-4 3h-2l-2 4-7 6-5 4h-2l-2 4-11 9-12 11-9 7-4-2v-3l11-10 11-9 14-12 14-11 13-11 14-11 16-13 14-11z" fill="#02071D"/>
<path transform="translate(433,389)" d="m0 0 2 1-2 46-1 26h1v27h-1v24l-1 14v32l-1 25-1 5h-1v-58l-1-26v-55l2-23 2-29 1-8z" fill="#01021A"/>
<path transform="translate(963,922)" d="m0 0h4l-2 4-13 3-18 1-11 2h-11l-8-1v2l-10 2h-13l-8 3-19 1-8 2-14 1-5 1h-10l-2-1v-2l17-3 10-2 20-1 10-2 19-2 42-5z" fill="#01021A"/>
<path transform="translate(1231,1327)" d="m0 0h3v62l-1 53-2 47h-1l-1-48v-112h-13v-1z" fill="#051935"/>
<path transform="translate(1021,828)" d="m0 0 9 3 6 4 7 4 2 1v2l9 2 6 2 5 6 3 7v7l-5-1-11-8-6-3-5-6-5-3-1-2h-5l2 5h2l-1 3-10-9-5-5 6 2 2-1z" fill="#031734"/>
<path transform="translate(926,580)" d="m0 0h5l-2 4-6 7-11 9-14 13-10 8-10 9-8 8-11 9-11 10-10 8h-2l2-4 12-11 9-7 13-13h2l1-3h2l1-3 7-5 4-6 13-14 11-9 10-9z" fill="#041D36"/>
<path transform="translate(876,1325)" d="m0 0h17l-1 3h-5v2l-5 3-5 1v-2l-13 2-6 4-3 1-1 3h-2l-1 3h-2v2l-15 10-7 6-3 1h-2l-6 5 2-4 23-23 11-9 12-6z" fill="#010213"/>
<path transform="translate(887,1328)" d="m0 0 4 1-27 27-8 7-13 12-19 19-5 8v6l9 12 7 8-1 2h-2l-7-8-3-5-7-6-2-4v-6l8-10 36-36 8-7 12-12 7-6h3z" fill="#0A253E"/>
<path transform="translate(813,575)" d="m0 0h1l3 22v9l2 17 5-1 3-5 12-9 11-9 14-10 2 1-12 12-11 9-11 10-14 10-4 3-2 3v-54z" fill="#B3903E"/>
<path transform="translate(1042,1345)" d="m0 0 1 4-5 2-54 5 1 6-1 74h-1l-2-82 2-5 5-2h54z" fill="#0C2A41"/>
<path transform="translate(1209,1384)" d="m0 0m-1 1 3 1-1 66h-1l-1-62-13 23-13 26-12 22-10 17-2 1 3-12 8-16 9-16 2-3h2l1-4 6-11 4-9 6-14h2l2-4z" fill="#0A243D"/>
<path transform="translate(611,1347)" d="m0 0h16l20 1 7 1 6 4 4 5 2 4v13l-3 6-1-3 1-3v-12l-3-5-7-2-14-2-28-2v40l-2-1-1-13-1-16v-11z" fill="#051C37"/>
<path transform="translate(463,393)" d="m0 0 4 2 2 2 5 2 30 26 10 9 9 9-1 36-2 3 1-20h-2l-1-5v-11l-14-14-6-4-1-2-8-4-7-7-1-5-4-2-14-14z" fill="#02041C"/>
<path transform="translate(426,463)" d="m0 0h2v51l1 27v56l-1 74-1 27h-1z" fill="#010011"/>
<path transform="translate(668,1374)" d="m0 0h4l1 8-4 6-5 3-1 2h-3l-2 4-12 2-11 1h-13l-10-3v-3l36-2v-2l9-1 5-4 5-10z" fill="#01021B"/>
<path transform="translate(900,1032)" d="m0 0 7 3 15 10 22 13 3 1-1-4 5 2 3 4v3h-5v2l-11-3-12-6-7-4-10-7-8-7v-2l-4-2 1-2 2 1z" fill="#12101D"/>
<path transform="translate(977,1337)" d="m0 0h13l16 3 17 1 17-1 3 3-1 4-31 1-13-2-8-4h-6l-5 2-9 1-2-1-10-1v-1l10-1 9-2z" fill="#020726"/>
<path transform="translate(526,1327)" d="m0 0h5l1 4-10 4h-8l-10 4-9 8-9 7-11 8-6 3 2-4 4-6 8-7 12-11 11-8 2-1z" fill="#030415"/>
<path transform="translate(647,838)" d="m0 0h2l1 4-12 12-9 7-10 9-12 12-14 11-8 8-10 8-1-3 10-11 8-6 6-5 2-3h2l1-3h2l1-4 6-6h5l2-4 6-4h2l1-3h2l1-4h2l2-7 6-4z" fill="#031C35"/>
<path transform="translate(517,483)" d="m0 0h5l1 59-1 10-2 1-3-9-3-21v-17l1-7h2z" fill="#030E1F"/>
<path transform="translate(527,1335)" d="m0 0 4 1-14 14-8 7-24 24-8 7-14 14-3-3 62-62z" fill="#0B243D"/>
<path transform="translate(1062,788)" d="m0 0 2 3 17 62 10 40-1 3-6-4-3-3 4-1v-5l-1-1-2-9-3-8-1-7-4-11-1-6-1-5-4-16-2-7-3-12-2-7v-4z" fill="#0B263F"/>
<path transform="translate(507,963)" d="m0 0 4 1 4-1-6 7-9 9-7 8-4 2v2l-5 5-8 7h-5v-5l16-17 8-7 10-10z" fill="#033439"/>
<path transform="translate(1038,914)" d="m0 0h6l3 3-4 3-6 1-11-2v2l-8 2h-25l-4 2-4 1h-14l-3-3 3-3 19-1 44-4z" fill="#01021A"/>
<path transform="translate(990,377)" d="m0 0 2 1 1 3v28l-4 39-2 9-3 2v-18l5-59z" fill="#010011"/>
<path transform="translate(1029,487)" d="m0 0v3l-12 12-7 5-2 3-5 3-5 5-8 7-1 3-3 3 6 8 5 20 7 24v5l-2-3-8-28-5-16-1-5-6 2-12 12-5 4-3-1 5-7 1-2h2l1-3h2l1-5 14-13 11-9 14-13 11-9z" fill="#031022"/>
<path transform="translate(913,788)" d="m0 0h3l-1 4-5 3-5 5-8 7-10 8-9 9-9 7-10 10-9 7-4 5-6 2 3-5 9-9 8-7h2v-2l5-4 1-2h2l1-3 10-7 3-1v-2l7-6 7-8 7-6 3-3z" fill="#093947"/>
<path transform="translate(588,1374)" d="m0 0 3 1v40l1 37 2 15v5l-1 5-2 7h-2l-1-15z" fill="#060B22"/>
<path transform="translate(1210,1398)" d="m0 0h2l1 4 1 36 1 5-1 31-1 9-2 6h-1z" fill="#010011"/>
<path transform="translate(893,607)" d="m0 0v3l-6 7-5 5-7 6-19 19-9 7-10 9-5 2-5 5v-3l15-15 11-9 14-13 8-7 14-12z" fill="#043E3E"/>
<path transform="translate(610,1409)" d="m0 0h22l16 1 12 3 8 5v2l4 2 4 6v6l-3-4-4-6-10-6-10-3-7-1-26-1h-6v18h-1l-1-20z" fill="#15394A"/>
<path transform="translate(1105,1382)" d="m0 0 3 1 2 3v6l-4-1v15l-1 26-1 58-1 1h-21l2-2 14-1 4-3v-90l1-10z" fill="#1E3A4B"/>
<path transform="translate(819,502)" d="m0 0 6 2 4 7 11 12 4 5-1 4-5-1-6-5-3-1-4-4-3-2v-3h-2l-2-4v-8z" fill="#7A5119"/>
<path transform="translate(867,748)" d="m0 0 8 5 4 4 10 8 7 8 4 3 4 1 11 10-3 1-4 1-5-3v-2l-3-1v-2l-3-1v-2l-4-2-4-3v-2l-4-2-10-8v-2l-3-1-5-8z" fill="#030B2A"/>
<path transform="translate(988,363)" d="m0 0h2l-1 14-1 2-2 29-3 35-1 4-1 19-2 23 5-1-1 3-5 2-1-3 1-20 3-40 4-45 1-13 2-6-3-1z" fill="#53928D"/>
<path transform="translate(700,1431)" d="m0 0 2 3v14l-5 13-7 9-7 7-12 7-7 1 2-4 5-3h2l1-2 2 1v-2l5-3h2l2-4 7-8h2l1-5 2-4 2-16z" fill="#0A243D"/>
<path transform="translate(1233,1336)" d="m0 0h1v53l-1 53-1 24h-1v-101l1-7z" fill="#699E90"/>
<path transform="translate(783,1356)" d="m0 0h1l2 36 5-3 14-12 9-9 2 1-6 6-3 5-16 16-7 1-2-5-1-6v-17l1-1z" fill="#1D3E4E"/>
<path transform="translate(993,269)" d="m0 0h6l3 3v2l6-1v2l7 1-3 6-7 5-8-3-3-6-3-5z" fill="#01021A"/>
<path transform="translate(1191,1372)" d="m0 0h1v10l-6 16-8 10h-2l-1 3h-1v-7l3-6h2l1-6 5-11 2-7z" fill="#010416"/>
<path transform="translate(655,509)" d="m0 0 5 1 7 6v2h2l5 5 9 6 4 5 8 7 14 13 8 6 4 5 6 4-1 3-7-6-8-7-14-12-12-11-11-9-15-14z" fill="#133347"/>
<path transform="translate(1132,396)" d="m0 0 2 1-9 8-4 4-8 7-2-1 7-7 11-9zm-23 20 2 1-4 5h-2v2l-7 5-1 2h-2l-2 4-5 3h-3l7-7 11-9zm-26 23 2 1-6 7-8 6-6 7-5 3-2-1 8-8 11-9zm-27 24 2 1-4 5h-2v2l-5 3-4 5-5 3-4 3 2-4 11-10 8-7z" fill="#1A3141"/>
<path transform="translate(965,920)" d="m0 0h6l-4 2-21 3-24 2-38 5-19 2-3 1-20 1 2-2 57-7 43-5z" fill="#032639"/>
<path transform="translate(1209,1384)" d="m0 0m-1 1 3 1-1 66h-1l-1-62-13 23-4 8-2-1 1-5 5-12 4-9h2l2-4z" fill="#0C263F"/>
<path transform="translate(784,903)" d="m0 0m-6 1 3 1zm5 0 3 2-12 9-7 4-4 6-13 9-2 1 1-4 2-4 4-5 5-4 4-2 8-7 3-3h2v2z" fill="#0E494C"/>
<path transform="translate(658,1483)" d="m0 0 4 3-8 1-48 2h-17v-4l7-1h59z" fill="#0E2B42"/>
<path transform="translate(463,1407)" d="m0 0 6 5 9 11 10 11 9 11 13 15 7 9-2 1-5-4v-2l-3-1v-3h-2l-1-4-4-2-4-5-4-6-7-8v-2l-5-2-5-5-6-9-6-5z" fill="#0F2B43"/>
<path transform="translate(411,1330)" d="m0 0h17v4l-2 1-14 1-2 1-1 6-1 75h-1v-87z" fill="#010112"/>
<path transform="translate(589,264)" d="m0 0h2l-2 4-6 7-7 6-5 5-5 3-5 5-7 1-2 3-4-1 16-13 14-11z" fill="#090E22"/>
<path transform="translate(611,872)" d="m0 0 3 1-3 5-10 9-10 8-14 13-3 1 1-4 9-10 8-6 6-5 2-3h2l1-3h2v-2z" fill="#031532"/>
<path transform="translate(1020,694)" d="m0 0 3 2-14 11-9 7-14 12-8 6-5 5-8 6h-2l2-4 3-1 4-5 9-7 4-1 2-4 11-10 14-11z" fill="#03303B"/>
<path transform="translate(906,1038)" d="m0 0h3l1 2 10 4 19 11 4 5-3 1-10-4-6-5-7-3-8-6-3-3z" fill="#010418"/>
<path transform="translate(1232,1344)" d="m0 0h1v14l-1 7-1 124h-1l-1-56 1-80h2z" fill="#093E46"/>
<path transform="translate(429,1335)" d="m0 0h1l1 9 2 39 1 8 5-2 4-2-6 8-4 1-1-3-3-1z" fill="#103647"/>
<path transform="translate(854,1452)" d="m0 0 4 2 9 11 7 7 14 16v2l-2 1h-12v-1l6-1 1-6h-2v-2l-3-1-1-4h-3l-5-5-9-11-2-4-3-3z" fill="#0E2A40"/>
<path transform="translate(810,504)" d="m0 0h1l1 21 1 2-1 112h-1l-1-89z" fill="#825C20"/>
<path transform="translate(406,1328)" d="m0 0h16l6 1v1l-21 1v117h-1z" fill="#15313D"/>
<path transform="translate(878,626)" d="m0 0h2l-2 4-8 8-11 9-11 10-10 8h-2l2-4 12-11 9-7 13-13h2l1-3z" fill="#031126"/>
<path transform="translate(990,363)" d="m0 0h1l-1 19-5 59-2 16h-1v-14l3-35 2-29 2-9z" fill="#092235"/>
<path transform="translate(818,705)" d="m0 0 5 1 4 4 8 7 10 9 6 5-2 1-6-2v-2l-4-1-4-4v-2l-5-2-6-4-5-5-2-4z" fill="#030929"/>
<path transform="translate(954,555)" d="m0 0h6l-1 4-14 12-5 2-1-2-2 1 1-4 8-8z" fill="#062039"/>
<path transform="translate(913,788)" d="m0 0h3l-1 4-5 3-5 5-8 7-10 8h-3v-2l7-6 7-8 7-6 3-3z" fill="#083444"/>
<path transform="translate(516,1472)" d="m0 0 1 2 5 1 7 10v3l-7-1-6-4-4-4-1-5z" fill="#02071F"/>
<path transform="translate(610,1446)" d="m0 0h1l1 19h13l27-2 10-1-4 3-11 1-10 2h-26l-2-3z" fill="#2F545D"/>
<path transform="translate(785,1411)" d="m0 0 2 1-4 70h-1v-37l1-32z" fill="#3D6567"/>
<path transform="translate(1039,912)" d="m0 0h5l-1 2-17 3-47 4h-6v-2z" fill="#032639"/>
<path transform="translate(949,566)" d="m0 0 2 1-8 7-5 5-8 7h-2v2l-2-1 4-6-6 1 2-4 10-9 5 3 6-4z" fill="#07393D"/>
<path transform="translate(1117,1356)" d="m0 0 3 3 10 20 10 19 7 13v2h-3l-5-9-8-17-14-28z" fill="#102E45"/>
<path transform="translate(981,447)" d="m0 0h1v24l-1 13 5-5 7-5 4 1-12 13-6 1v-15l1-8z" fill="#0E2B39"/>
<path transform="translate(588,1329)" d="m0 0h9l1 3-5 1h-2v2l2 1-2 2v36l-2 1-1-2z" fill="#1D303E"/>
<path transform="translate(632,848)" d="m0 0 3 1-2 4h-2l-1 4-9 7-4 4-6 2-5 5-1 3-3 3-6 1 5-6 8-7 11-10 8-7z" fill="#114D4D"/>
<path transform="translate(1082,1328)" d="m0 0h17l5 4v2h-9l-8 1-4 2-1 2z" fill="#010316"/>
<path transform="translate(740,752)" d="m0 0h2v3h-3l-2 5-10 9-5 5-7 6-4 2-2-2 15-14 8-7z" fill="#0A273F"/>
<path transform="translate(436,368)" d="m0 0 4 2 10 8 2 6-5-2-6-4-5 1-1 10h-2v-11l3-5z" fill="#01021B"/>
<path transform="translate(862,1467)" d="m0 0 6 4 4 3v2h3l1 6h2l-1 4h-3v-2l-5-2-2-4h-2l-5-9h2z" fill="#01031B"/>
<path transform="translate(507,963)" d="m0 0 4 1 4-1-6 7-10 10-8 5-1-3 9-9z" fill="#031734"/>
<path transform="translate(724,952)" d="m0 0 3 1-5 4-3 5 7-1-5 4h-3v2h-3v2l-10 6-5 1 6-7 5-4 3-3 3-2 3-5z" fill="#468786"/>
<path transform="translate(1029,487)" d="m0 0v3l-12 12-7 5-2 3-5 3-5 5-11 9-8 9-6 2 6-7 8-7 14-12 12-11 11-9z" fill="#1E3744"/>
<path transform="translate(1103,1420)" d="m0 0h1v70l-1 1h-21l2-2 14-1 4-3v-64z" fill="#1F4B59"/>
<path transform="translate(760,1331)" d="m0 0h21l-1 3-11 4-4 1-3-1-1 7h-1z" fill="#01021A"/>
<path transform="translate(1144,1453)" d="m0 0 5 2 4 5 2 6v4l5-1-1 3h-2v3h-3l-10-17z" fill="#040A22"/>
<path transform="translate(689,1380)" d="m0 0 1 3-7 11-7 6 2 4 3 3h-4v-2l-7-2 1-4 6-5 8-10z" fill="#133146"/>
<path transform="translate(982,430)" d="m0 0h2l-1 13-1 4-1 19-2 23 5-1-1 3-5 2-1-3 1-20 3-39z" fill="#518D88"/>
<path transform="translate(929,1332)" d="m0 0h27l-3 2-10 3-13 2-1 2z" fill="#010011"/>
<path transform="translate(499,337)" d="m0 0 2 1-4 4-5 10-7 6-4-2v-3l11-10z" fill="#080F21"/>
<path transform="translate(782,1482)" d="m0 0h1v8l-12 1-7-1-3-3v-2h11l8-1z" fill="#09213B"/>
<path transform="translate(687,524)" d="m0 0 4 1 5 4 9 7 1-2 6 8h-3l-6-2-14-11-2-2z" fill="#031634"/>
<path transform="translate(980,1484)" d="m0 0h2v7h-11l-7-2-2-4z" fill="#0E2941"/>
<path transform="translate(925,751)" d="m0 0 5 2 1 3h2l2 5h2l-1 6-8-6-9-8 4-1z" fill="#0D454A"/>
<path transform="translate(848,1336)" d="m0 0v3l-4 4h-2l-1 4-17 17h-2l-6 5 2-4 23-23z" fill="#08182C"/>
<path transform="translate(930,1348)" d="m0 0h10l16 2 2 1v2h-22l-5-3z" fill="#071D39"/>
<path transform="translate(1143,585)" d="m0 0h2l1 12v6l-5 4h-2l2-18z" fill="#01031A"/>
<path transform="translate(427,1483)" d="m0 0h1v7l-2 1h-11l-5-2-2-3 11-1h6l2 1z" fill="#0E2941"/>
<path transform="translate(971,538)" d="m0 0h2v3l-5 5-5 7-2 4-1-2-9 2 5-5z" fill="#0B2B40"/>
<path transform="translate(804,597)" d="m0 0 3 1 2-1 1 3v15l-2 4-1-4-4-12z" fill="#033439"/>
<path transform="translate(517,483)" d="m0 0 4 1v28h-2l-2-13z" fill="#01021A"/>
<path transform="translate(817,1401)" d="m0 0 2 1v6l9 12 7 8-1 2h-2l-7-8-3-5-7-6-1-6h2z" fill="#21434D"/>
<path transform="translate(986,534)" d="m0 0 4 2 3 7 7 27 4 13v5l-2-3-8-28-5-16-1-5-4-1z" fill="#031634"/>
<path transform="translate(630,231)" d="m0 0 2 1-3 6-7 7-3 2-4-1-4 3-2-1 14-11z" fill="#101726"/>
<path transform="translate(540,1323)" d="m0 0h3l-2 4-5 4-5-2v-2l-5 1h-15v-1l25-3z" fill="#142D3E"/>
<path transform="translate(813,879)" d="m0 0 3 1-5 5-8 6-2 3-2-1 1-2-2-1 1-2h2v-3l2-1-1-2 10-2z" fill="#0A4649"/>
<path transform="translate(1085,872)" d="m0 0 2 4 4 17-1 3-6-4-3-3 4-1v-5l-1-1z" fill="#102E44"/>
<path transform="translate(639,1353)" d="m0 0h15l7 3 4 4 1 2v13l-3 6-1-3 1-3v-12l-3-5-7-2-14-2z" fill="#77A290"/>
<path transform="translate(624,1330)" d="m0 0h19l11 1v4l-9-1-5-1-8 1-6-2z" fill="#01021A"/>
<path transform="translate(1052,752)" d="m0 0 2 4 8 28v2l-3-1-2-4-2-9-2-4-2-14z" fill="#0D2941"/>
<path transform="translate(588,1374)" d="m0 0 3 1v38h-2l-1-36z" fill="#091126"/>
<path transform="translate(1158 1e3)" d="m0 0h3l2 4 1 4-9 7-4 1 2-7 5-6z" fill="#010011"/>
<path transform="translate(428,755)" d="m0 0h1v25l-2 17h-1v-34z" fill="#033439"/>
<path transform="translate(495,1445)" d="m0 0 4 2 18 22-2 1-5-4v-2l-3-1v-3h-2l-1-4-4-2-4-5z" fill="#0C2840"/>
<path transform="translate(871,1006)" d="m0 0 4 2 9 7v2l5 2 7 5 4 4 4 2v2l4 2 5 5-5-2-18-14-10-8-9-8z" fill="#E8CD81"/>
<path transform="translate(699,547)" d="m0 0 4 1 9 8 5 4 4 5 6 4-1 3-7-6-8-7-12-10z" fill="#123B4B"/>
<path transform="translate(688,798)" d="m0 0v3l-3 3-3 6-9 6-6 5-2-2 14-13 8-7z" fill="#10464B"/>
<path transform="translate(1147,1413)" d="m0 0 3 4 6 10 4-2 5-8 1 2-6 11-4 1-4-4v-2h-2l-5-10h2z" fill="#113347"/>
<path transform="translate(783,1356)" d="m0 0h1l1 27-2 9h-1l-1-6v-17l1-1z" fill="#183A4E"/>
<path transform="translate(1209,1386)" d="m0 0h2l-1 66h-1l-1-62v-3z" fill="#68876F"/>
<path transform="translate(1184,1381)" d="m0 0 2 1-6 12-1 4h-2l-2 6-1 7-4 4-1 2h-3l2-5 14-27z" fill="#1F3B49"/>
<path transform="translate(1e3 1332)" d="m0 0h36v1l-12 2h-15l-9-2z" fill="#010011"/>
<path transform="translate(744,935)" d="m0 0h2l-2 4-10 8-7 5 1-4 3-6 5-3z" fill="#114D4F"/>
<path transform="translate(759,1329)" d="m0 0h24l-1 4-1-1-21-1v24h-1z" fill="#06273B"/>
<path transform="translate(784,1383)" d="m0 0 2 3v6l10-6-2 5-5 6h-5l-1-2v-10z" fill="#184A55"/>
<path transform="translate(847,974)" d="m0 0 6 2v2l4 2 7 6 1 4-11-7-10-7z" fill="#15141F"/>
<path transform="translate(478,572)" d="m0 0 5 2 2 4-1 3-9-2-5-3v-2z" fill="#030929"/>
<path transform="translate(1051,270)" d="m0 0 8 6 14 11 6 5-3 1-6-4-4-4v-2l-5-2-7-5v-2h-3z" fill="#0E2534"/>
<path transform="translate(964,1444)" d="m0 0h3l1 18-1 6-3 1z" fill="#01021A"/>
<path transform="translate(664,1336)" d="m0 0 7 1 5 5v3l-2-1h-8l-5-1v-2l4-1z" fill="#03071E"/>
<path transform="translate(1071,924)" d="m0 0 4 2 17 14 5 5-4-1-5-4-5-3-6-5v-2h-2v-2l-4-2z" fill="#0B2031"/>
<path transform="translate(875,1476)" d="m0 0 4 2 9 10v2l-2 1h-12v-1l6-1 1-6h-2v-2l-3-1z" fill="#1A3B4D"/>
<path transform="translate(954,555)" d="m0 0h6l-1 4-6 5-4 1-3-1 2-4 2-2z" fill="#031123"/>
<path transform="translate(1068,453)" d="m0 0m-2 1 2 1-8 8-2-1zm-10 9 2 1-4 5h-2v2l-5 3-4 5-5 3-4 3 2-4 11-10 8-7z" fill="#203743"/>
<path transform="translate(942,772)" d="m0 0 6 2 1 3 5 2 12 11-2 2-15-13-7-6z" fill="#133347"/>
<path transform="translate(876,1325)" d="m0 0h17l-1 2h-9l-4 2h-18l3-2z" fill="#112E41"/>
<path transform="translate(989,1351)" d="m0 0 28 1v1l-33 3 2-4z" fill="#4C7B70"/>
<path transform="translate(554,294)" d="m0 0h3l-1 4-5 3-5 5-5 2-1-3 5-4 2-3h5z" fill="#010217"/>
<path transform="translate(815,1369)" d="m0 0 4 1-4 6-13 11v-3l6-6 3-5z" fill="#010317"/>
<path transform="translate(505,964)" d="m0 0 2 1-16 17-6 4-5 5-2-1 9-9 8-7z" fill="#16474E"/>
<path transform="translate(662,821)" d="m0 0 2 1-8 8-2 4-8 6-5 3-4 2 5-6 8-7 10-9z" fill="#1C5457"/>
<path transform="translate(792,900)" d="m0 0m-1 1m-1 1m-1 1v3l-16 12-1 2-6 3h-2l2-4 5-4 9-5z" fill="#4D8C89"/>
<path transform="translate(431,1368)" d="m0 0h1l2 23 5-2 4-2-6 8-4 1-2-4z" fill="#6FA091"/>
<path transform="translate(1119,1032)" d="m0 0 1 4-7 7-2-1 1-2-4 2-3 3 1-4 5-6z" fill="#01021A"/>
<path transform="translate(827,961)" d="m0 0 5 2 5 6 5 1 2 4-2 1-15-10-3-3z" fill="#292828"/>
<path transform="translate(790,904)" d="m0 0v3l-12 12-4 2v-2l-2-1 10-8z" fill="#F3DCA1"/>
<path transform="translate(690,1460)" d="m0 0 1 3-7 7-9 4-4 2-4 1 1-3 11-6 3-1h3v-3h2v-2h3z" fill="#01021B"/>
<path transform="translate(1233,1336)" d="m0 0h1v32l-1 1-1 17h-1v-21l1-7z" fill="#647B60"/>
<path transform="translate(970,1340)" d="m0 0h11l3 2-5 2-9 1-2-1-10-1v-1l10-1z" fill="#01021A"/>
<path transform="translate(965,920)" d="m0 0h6l-4 2-21 3h-13l3-2z" fill="#03283A"/>
<path transform="translate(1039,912)" d="m0 0h5l-1 2-17 3h-11l2-2z" fill="#031F36"/>
<path transform="translate(828,1430)" d="m0 0 5 1 4 6 5 5 1 3 3 1-4 1v-2l-4-1-6-8v-2h-2z" fill="#01021A"/>
<path transform="translate(669,1358)" d="m0 0 4 1 1 10-4 3-2-7z" fill="#01021A"/>
<path transform="translate(822,968)" d="m0 0 6 3 4 6 5 4v2l4 2 3 4-1 2-5-6-8-6-8-9z" fill="#010219"/>
<path transform="translate(508,1485)" d="m0 0 12 2 1 1 8 1 1-2-1 4h-10l-10-4z" fill="#16364B"/>
<path transform="translate(921,1032)" d="m0 0 4 1 8 7 2 1 1 5-4-2-10-9z" fill="#181823"/>
<path transform="translate(473,1425)" d="m0 0 5 2 5 9 3 3-1 2-6-5v-2h-2l-3-3z" fill="#01031C"/>
<path transform="translate(430,1409)" d="m0 0h3l2 6-3-1-1 8-1 19h-1v-27z" fill="#14384B"/>
<path transform="translate(718,961)" d="m0 0h8l-5 4h-3v2h-3v2l-3 2-4-1 7-7z" fill="#D3CB96"/>
<path transform="translate(805,951)" d="m0 0 5 1 12 8-2 2 1 2-4-2-12-10z" fill="#836327"/>
<path transform="translate(833,663)" d="m0 0h3v2l5-2-5 5-4 2v2l-5-1v-2l5-5z" fill="#05363B"/>
<path transform="translate(655,509)" d="m0 0 5 1 7 6v2h2l6 7-1 2-15-14z" fill="#173B4B"/>
<path transform="translate(485,349)" d="m0 0h2v2h5l-4 5-5 2-3-4z" fill="#060F25"/>
<path transform="translate(1102,1485)" d="m0 0 2 4-1 2h-21l2-2 14-1z" fill="#163F51"/>
<path transform="translate(946,757)" d="m0 0 2 1-2 5-7 2v3h2l1 4-6-4 1-6 8-4z" fill="#061B37"/>
<path transform="translate(859,637)" d="m0 0 2 1-11 11-10 8-4 4-2-1 8-8 11-9z" fill="#357474"/>
<path transform="translate(920,404)" d="m0 0h4l-2 4-8 6-2 2h-3l1-4 7-5z" fill="#01021B"/>
<path transform="translate(599,880)" d="m0 0 1 2-2 3h-2l-1 3-6 5h-5l5-6 6-5z" fill="#0D4346"/>
<path transform="translate(999,807)" d="m0 0 4 1v2l5 2 1 5-5-1-4-2z" fill="#031634"/>
<path transform="translate(1132,396)" d="m0 0 2 1-9 8-4 4-8 7-2-1 7-7 11-9zm-23 20 2 1-3 3-2-1z" fill="#1E3A47"/>
<path transform="translate(1117,1356)" d="m0 0 3 3 10 20-1 3-3-5-9-18z" fill="#0E2B42"/>
<path transform="translate(882,758)" d="m0 0 8 6 7 7 5 4v2l-4-2-8-7-1-3-4-2-3-3z" fill="#0F2940"/>
<path transform="translate(528,313)" d="m0 0 2 1-6 5-1 2h-2l-1 3-9 6-4 3-2-1 17-14z" fill="#132938"/>
<path transform="translate(861,932)" d="m0 0h11v1l-10 2-20 1 2-2z" fill="#032137"/>
<path transform="translate(644,220)" d="m0 0 1 2-3 5-8 6-1-4z" fill="#0C1221"/>
<path transform="translate(632,848)" d="m0 0 3 1-2 4h-2l-1 4-6 5-2-1 2-3h2l1-5z" fill="#0E4447"/>
<path transform="translate(852,841)" d="m0 0m-1 1m-1 1m-1 1 4 2-5 5-6 4-2-1 7-8z" fill="#0B3E4A"/>
<path transform="translate(979,470)" d="m0 0 1 4-1 15 5-1-1 3-5 2-1-3 1-19z" fill="#52938E"/>
<path transform="translate(620,1394)" d="m0 0h23v1l-14 2-4 1-5-3z" fill="#010011"/>
<path transform="translate(757,939)" d="m0 0h2v5l2 2-7 1-6 1 5-5z" fill="#2C7075"/>
<path transform="translate(823,503)" d="m0 0 2 1 4 7 11 12-1 2-8-8-7-8-1-1z" fill="#947431"/>
<path transform="translate(889,1006)" d="m0 0 4 1 8 7 1 4-6-4-7-6z" fill="#151A28"/>
<path transform="translate(1042,718)" d="m0 0 2 3 4 16-4-2-3-12z" fill="#0F2F44"/>
<path transform="translate(615,245)" d="m0 0 2 1-5 5-9 8-2-1 4-4 3-5 6-3z" fill="#040414"/>
<path transform="translate(783,1409)" d="m0 0 4 1-3 3-1 32h-1v-34z" fill="#031634"/>
<path transform="translate(876,622)" d="m0 0 2 1-6 6-3 5-6 3-2-1z" fill="#1C595A"/>
<path transform="translate(629,486)" d="m0 0 6 2 11 11-1 2-10-9-6-5z" fill="#1A3B4C"/>
<path transform="translate(1216,1329)" d="m0 0h13l-1 4h-7l-5-2z" fill="#010011"/>
<path transform="translate(406,1328)" d="m0 0h16l6 1v1l-22 1z" fill="#184050"/>
<path transform="translate(946,1055)" d="m0 0 5 2 3 4v3l-6-1v-2l-4-2h3z" fill="#4A402D"/>
<path transform="translate(861,1485)" d="m0 0 13 2 6 2v1h-12l-7-4z" fill="#0A233D"/>
<path transform="translate(665,1420)" d="m0 0h4l5 4 2 4v6l-3-4-4-6z" fill="#2B5159"/>
<path transform="translate(993,474)" d="m0 0 4 1-12 13v-3l4-8z" fill="#286769"/>
<path transform="translate(611,867)" d="m0 0 2 1-7 7-1 3-3 3-6 1 5-6 8-7z" fill="#1F5A5C"/>
<path transform="translate(1062,788)" d="m0 0 2 3 3 13-3-1-2-7-2-5z" fill="#0D2A42"/>
<path transform="translate(642,1330)" d="m0 0 12 1v4l-9-1-3-2z" fill="#01051D"/>
<path transform="translate(595,261)" d="m0 0 4 1-5 5-8 6-2-1 7-8z" fill="#010011"/>
<path transform="translate(604,252)" d="m0 0h2l-2 4-4 5-6 2h-3z" fill="#101E2F"/>
<path transform="translate(707,781)" d="m0 0 2 1-7 7-4 5-5 2 2-4z" fill="#194051"/>
<path transform="translate(715,181)" d="m0 0 2 1-7 6-5 5-6 4 2-4 10-9z" fill="#01021A"/>
<path transform="translate(917,1043)" d="m0 0 5 2 17 10-2 1-14-8-5-2z" fill="#816229"/>
<path transform="translate(801,948)" d="m0 0 5 1 6 3 1 2-7-2 5 5-5-2-6-5z" fill="#031935"/>
<path transform="translate(1079,443)" d="m0 0 2 1-5 5-5 4-6 7-2-1 11-12z" fill="#0D263B"/>
<path transform="translate(941,1051)" d="m0 0 7 6-1 3-9-5z" fill="#DEC881"/>
<path transform="translate(1113,1046)" d="m0 0 1 3-6 5-3-1v-3l4-3z" fill="#01031E"/>
<path transform="translate(760,735)" d="m0 0m-2 1 2 1-9 10-6 3 2-4z" fill="#143649"/>
<path transform="translate(864,635)" d="m0 0 3 1-11 11-2-1 6-8z" fill="#03383A"/>
<path transform="translate(736,569)" d="m0 0 1 2-2 6-6-2-3-3h6z" fill="#0A3645"/>
<path transform="translate(870,1478)" d="m0 0 6 2v2h2l-1 4h-3v-2l-3-1z" fill="#010116"/>
<path transform="translate(1051,910)" d="m0 0 6 1 2 3-2 1h-6l-2-1v-2l-3-1z" fill="#08273C"/>
<path transform="translate(589,264)" d="m0 0h2l-2 4-6 7-4-2 5-5z" fill="#101C2B"/>
<path transform="translate(634,475)" d="m0 0 7 3 1 3 3 1v2l-4-1-7-6z" fill="#031634"/>
<path transform="translate(1106,367)" d="m0 0 2 4-8 7h-3v-2l5-5z" fill="#01021B"/>
<path transform="translate(407,1463)" d="m0 0h2l1 6v9l-2 2z" fill="#01031C"/>
<path transform="translate(1173,1406)" d="m0 0h1v5l-4 4-1 2h-3l2-5 3-5z" fill="#1C3441"/>
<path transform="translate(661,1381)" d="m0 0 2 4-6 5h-6l4-3 5-5z" fill="#26525C"/>
<path transform="translate(751,946)" d="m0 0 7 1v1l-9 3-7 1 4-4z" fill="#0D3444"/>
<path transform="translate(795,1386)" d="m0 0 1 2-7 8h-2l-1-4 5-3z" fill="#7CA28C"/>
<path transform="translate(609,1329)" d="m0 0 10 1-2 3h-8-4l-1-2h5z" fill="#01021A"/>
<path transform="translate(436,368)" d="m0 0 4 2 10 8-3 1-6-4v-2h-2v-2l-3-1z" fill="#102A40"/>
<path transform="translate(1066,283)" d="m0 0 4 2 9 7-3 1-6-4-4-4z" fill="#0A1E2D"/>
<path transform="translate(965,792)" d="m0 0 5 1 7 7v2l-4-2-8-7z" fill="#1A4151"/>
<path transform="translate(952,764)" d="m0 0 5 1 1 5-5-1-2-4z" fill="#031634"/>
<path transform="translate(893,607)" d="m0 0v3l-6 7-6 4-2-1z" fill="#195154"/>
<path transform="translate(894,145)" d="m0 0 5 3 9 7-4 1v-2l-4-2-5-3z" fill="#0E2535"/>
<path transform="translate(825,1420)" d="m0 0 4 1 6 8-3 1-7-8z" fill="#0D2740"/>
<path transform="translate(675,1388)" d="m0 0 2 2v2h-2v2l-7 1-1-2z" fill="#01021A"/>
<path transform="translate(532,1330)" d="m0 0 3 1-3 4-8 1 3-4z" fill="#030C2B"/>
<path transform="translate(790,904)" d="m0 0v3l-8 8-1-2-2-1z" fill="#E8CD81"/>
<path transform="translate(657,832)" d="m0 0 1 2-6 7-4-1 1-3 6-3z" fill="#031125"/>
<path transform="translate(560,289)" d="m0 0 2 1-4 4-5 2-1 2-4-1 9-7z" fill="#0E1D2D"/>
<path transform="translate(534,1063)" d="m0 0 2 1v2l9 1-5 4-7-5z" fill="#0E4145"/>
<path transform="translate(796,894)" d="m0 0 3 1-4 2-1 3-5 4-2-1 6-7z" fill="#135055"/>
<path transform="translate(601,1475)" d="m0 0 3 2-1 5-4 1v-6z" fill="#01021A"/>
<path transform="translate(485,1433)" d="m0 0 3 1 8 10h-3l-8-9z" fill="#112F45"/>
<path transform="translate(724,766)" d="m0 0 2 1-10 10-5 2 4-5 8-7z" fill="#1D4C57"/>
<path transform="translate(1048,738)" d="m0 0 2 4 2 9-3-1-2-5z" fill="#102E45"/>
<path transform="translate(908,594)" d="m0 0v3l-4 5-7 4 2-4z" fill="#144D4F"/>
<path transform="translate(699,547)" d="m0 0 4 1 6 6-1 3-9-8z" fill="#174151"/>
<path transform="translate(1040,479)" d="m0 0 2 1-12 11-2-1 5-6 4-2z" fill="#031229"/>
<path transform="translate(498,421)" d="m0 0 4 2 7 6v2l-4-2-7-6z" fill="#0E202D"/>
<path transform="translate(450,379)" d="m0 0 8 6v3l-4-1-4-6z" fill="#09152C"/>
<path transform="translate(579,274)" d="m0 0v3l-6 5h-2l1-4 2-2z" fill="#090C1A"/>
<path transform="translate(608,1465)" d="m0 0m-2 1 3 3v3l-5 1v-5z" fill="#01021A"/>
<path transform="translate(1085,935)" d="m0 0 6 4 6 5-3 1-8-6z" fill="#122C41"/>
<path transform="translate(844,656)" d="m0 0 2 2-8 7h-2l2-4z" fill="#031634"/>
<path transform="translate(430,1409)" d="m0 0h3l2 6-3-1-1 8h-1z" fill="#3E696E"/>
<path transform="translate(1216,1328)" d="m0 0h15l2 2-1 3h-2l-1-4h-13z" fill="#0C2034"/>
<path transform="translate(762,1252)" d="m0 0 3 1 5 5 3 2-1 3-10-8z" fill="#0C1C31"/>
<path transform="translate(717,958)" d="m0 0v3l-5 2-2 4-4 2 6-8z" fill="#114E53"/>
<path transform="translate(692,804)" d="m0 0 2 1-5 6-5 3-2-1z" fill="#033439"/>
<path transform="translate(476,402)" d="m0 0 4 2 8 7-3 1-9-8z" fill="#0B2130"/>
<path transform="translate(1039,274)" d="m0 0 5 2 8 5-2 1-10-5z" fill="#01021A"/>
<path transform="translate(963,1472)" d="m0 0 2 1 2 7-1 3-3-1z" fill="#01021A"/>
<path transform="translate(673,1453)" d="m0 0v3l-7 7-4-2 9-6z" fill="#2E5961"/>
<path transform="translate(1165,1417)" d="m0 0 1 2-5 10h-5l6-7z" fill="#8AA587"/>
<path transform="translate(658,1356)" d="m0 0 5 1 2 3v12h-1l-2-12z" fill="#C2BF91"/>
<path transform="translate(814,957)" d="m0 0 5 1 3 3-2 1 1 2-4-2z" fill="#698064"/>
<path transform="translate(1105,952)" d="m0 0 5 3 6 5-3 1-8-7z" fill="#142F43"/>
<path transform="translate(788,835)" d="m0 0 2 2-1 2h-4l-1 4-2-1v-4z" fill="#02423C"/>
<path transform="translate(850,650)" d="m0 0 4 2-6 5h-3l2-4z" fill="#031228"/>
</svg>
