<?xml version="1.0" encoding="UTF-8"?>
<svg version="1.1" viewBox="0 0 1024 1024" width="40" height="40" xmlns="http://www.w3.org/2000/svg">
<path transform="translate(516,443)" d="m0 0 4 2 13 11 16 16 8 6 11 11 11 9 14 14 11 9 12 11 8 7 10 9 10 8 13 12 14 13 12 7 11 10 11 9 13 11 11 9 10 8 7 6 1 4-5 5-14 13-13 10-18 14-14 12-14 11-16 13-10 8-13 11-17 13-13 11-16 13-15 12-11 9-13 10-10 8-6 4-9 2-9-3-9-6-8-7-11-9-14-11-10-9-8-7-13-10-12-11-13-10-17-14-11-9-15-13-16-13-10-9-14-11-13-11-8-7-7-7-2-4 1-5 8-8 11-9 13-13 8-7 13-11 26-24 14-13 8-7 15-14 8-7 11-10 8-7 14-12 8-7 14-12 12-12 8-7zm45 83-8 7-4 4 2 1 9-7 2-5zm-19 17-10 8-2 4-4 2-3 3v2l4-2 12-11 5-5zm-21 20m-2 1-8 7v2l5-2 5-5v-2zm-36 32-10 8-14 9-8 7-1 3 5-1 10-7 15-9 5-2v-2h-2l1-6zm34 13 6 8 11 9 15 13 11 9 9 8 13 9 16 10 5 3 3-1-10-9-7-6-5-5-10-9-13-10-15-10-14-10-12-9z" fill="#01063D"/>
<path transform="translate(517,58)" d="m0 0h11l8 4 14 12 13 11 8 7 14 11 13 10 11 9 13 10 12 10 13 10 15 12 9 7 13 11 9 7 25 20 8 7 1 7-15 15-11 9-11 10-14 11-12 11-11 9-15 14-8 7-5 5-4 8-5 6-11 7-13 13-11 9-9 6-7 3-12 11-11 9-8 6-9 11-7 4h-5l-10-9-14-11-13-12-7-7-10-8-11-10-8-7-12-11-10-8-12-11-10-8-11-9-12-11-11-8-8-8-14-11-8-7-13-11-11-10v-5l15-13 17-13 13-11 13-10 14-12 9-7 14-11 16-13 14-11 16-13 14-11 11-9 14-11 15-12 12-9zm112 177v4l2-4z" fill="#01053C"/>
<path transform="translate(273,232)" d="m0 0 4 2 15 11 12 11 11 9 12 11 8 7 1 3 8 2 11 9 10 9 10 8 14 12 16 17 14 12 8 7 10 9 8 7 7 6 11 9 16 15 14 12 5 5-1 5-10 9-8 7-9 9-11 9-7 7-11 9-10 9-8 7-7 7-8 7-13 13-8 11-9 9-8 7-10 9-12 10-8 4-6 2-7 8-8 7-13 12-11 9-19 19h-2l-2-8-1-356 1-33z" fill="#FCF8BC"/>
<path transform="translate(516,443)" d="m0 0 4 2 13 11 16 16 8 6 11 11 11 9 14 14 11 9 12 11 8 7 10 9 10 8 26 24-1 3-11 2-26 3-29 3-52 6-49 5-16 2-1 3-8 1 3-3 4-1 1-2h-2v-5l-10 8-14 9-7 6v3l-5 4-7 5-9 4h-2v2h-3v2l-7 3-10 6h-3v2l-8 4-2 3-8 4-4 1v2l-10 4-3 2h-3v2l-13 7-1 2-6 2-7-7-4 1-14-12-11-9-10-10-2-4 1-5 8-8 11-9 13-13 8-7 13-11 26-24 14-13 8-7 15-14 8-7 11-10 8-7 14-12 8-7 14-12 12-12 8-7zm45 83-8 7-4 4 2 1 9-7 2-5zm-19 17-10 8-2 4-4 2-3 3v2l4-2 12-11 5-5zm-21 20m-2 1-8 7v2l5-2 5-5v-2z" fill="#017C87"/>
<path transform="translate(734,246)" d="m0 0 4 1v127l-1 11-10 9-13 10-17 13-11 9-15 10-7 5-1 6 2 4 2 10 7 21 5 21 8 28 4 18 4 11 2 7v4l-4-1-8-6-10-9-14-11-28-24-11-11-9-7-11-9-7-7-10-8-15-13-13-13-11-9-12-11-3-2 1-5 8-7 13-12 8-7 9-9 11-9 9-8 8-7 12-11 8-7 10-9 8-7 12-11 8-7 10-8 12-11 8-7 7-7 10-8 16-15 11-10z" fill="#027B87"/>
<path transform="translate(510,600)" d="m0 0h10l-3 2-2 1 5 2v2l4 2 4 4 5 2 5 7-4-2-9-6-5-4-1 1 4 5 11 9 15 13 11 9 9 8 13 9 16 10 5 4-1 2-4-1-12-7-4-2-2-2-4 3-21-1v4l-4 1-2 10-3 5v22l-1 2-4-1 2-7-4-1-1 3-3-1-1 5-2 5 1 5 5 8 3 10-3 4-9 3 1 11-1 15 1 3v6l1 1v6l6 2 2 4-3 1 5 1v2l4 2-4 4h-3l1 5 5-2 4-1-5 4-12 10-10 3-8-2-10-6-9-8-11-9-14-11-10-9-8-7-13-10-12-11-13-10-17-14-11-9-15-13-16-13-10-9-6-5 3-2 7 7 6-1 1-3 11-6h2v-2l12-6h4v-2l12-6 2-3 6-3h2v-2l12-6 4-3h4v-2h3v-2l14-7 10-7 15-10 7-4 10-2 1-2 16-3z" fill="#012A59"/>
<path transform="translate(358,189)" d="m0 0 4 1-1 4h-2l-1 7 2 3v3l6 2 1 1 8 1 5 5 5 2 5 6 7 2 4 9 10 5 5 4 6 3 3 4 3 7 9 5 8 7 2 5v3h2v2l5 1 8 9 10 6 7 7 5 1 9 3 7 2h8l4-2v-3l8-2 7-2 4-1 4-5 10-4 2-4 5-2 3 2h-2l2 2 4-1v-2h2v-2h2v-2h3v-2l5-2 1-4 10-4 11-8 13-10 8-7 12-8 5-4 3 1-1 2-2 26-1 21-4 30-5 10-5 6-11 7-13 13-11 9-9 6-7 3-12 11-11 9-8 6-9 11-7 4h-5l-10-9-14-11-13-12-7-7-10-8-11-10-8-7-12-11-10-8-12-11-10-8-11-9-12-11-11-8-8-8-14-11-8-7-13-11-11-10v-5l15-13 17-13 9-8h2v3l7-4zm271 46v4l2-4z" fill="#012B59"/>
<path transform="translate(273,232)" d="m0 0 4 2 15 11 12 11 11 9 12 11 8 7 1 1v216l-1 64-1 11-7 8-8 7-13 12-11 9-19 19h-2l-2-8-1-356 1-33z" fill="#025673"/>
<path transform="translate(734,246)" d="m0 0 4 1v127l-1 11-10 9-13 10-17 13-11 9-24 16-2-2-1-5-8-28-3-10-4-13-3-9-3-14-4-13-1-7 3-4-6 3 2-4 8-8 11-9 10-9 11-9 17-16 9-8 8-7 24-22z" fill="#015C6E"/>
<path transform="translate(510,600)" d="m0 0h10l-3 2-2 1 5 2v2l4 2 4 4 5 2 5 7-4-2-9-6-5-4-1 1 4 5 11 9 15 13 11 9 9 8 13 9 16 10 5 4-1 2-4-1-12-7-4-2-2-2-4 3-21-1v4l-4 1-2 10-3 5v22l-1 2-4-1 2-7-4-1-1 3-3-1-1 5-2 5 1 5 5 8 3 10-3 4-9 3 1 11-1 15 1 3v6l1 1v6l6 2 2 4-3 1 5 1v2l4 2-4 4h-3l1 5 5-2 4-1-5 4-12 10-10 3-8-2-10-6-9-8-10-8-1-4 3-7-5-3-2-5-6-3 4-10h2l-2-12 3-5v-16l1-6-2-7-2-2 3-8 2-1h7l1-7 2-1-2-6 2-2v5l5-1 2 1 1-7 6-8-1-4 2-5 9-1v-1h-17l-5-2v-1h7v-2l7-1 2-1v-2h-2v-2l-9-1-6-3-4-15-5-6 1-12-2-4 5-7h2l1-4h2v-2h-8l-9 2 1-3 8-2 1-2 16-3z" fill="#01164B"/>
<path transform="translate(393,335)" d="m0 0 6 2 9 9 14 11 8 8 11 9 8 8 8 6 11 10 8 7 12 11 9 7 1 5-5 5-17 16-14 13-8 7-15 13-13 11-5 3-17 16-7 7-3-1v-175z" fill="#EF861F"/>
<path transform="translate(273,232)" d="m0 0 4 2 15 11 12 11 11 9 2 2v4l4 1v2l4 2 3 2v2l4 2 3 3v166h-1l-1-33h-1l-2-18-2-3-6 3-3 8-5 2h-18l-8-2v-2l-4-1-2-5-1-10h-2l-2 2-1-8-1 79-2 2-1-5-1-194 1-33z" fill="#012958"/>
<path transform="translate(631,232)" d="m0 0 3 1-1 2-2 26-1 21-4 30-5 10-5 6-11 7-13 13-11 9-9 6-7 3-12 11-11 9-8 6-9 11-5 3h-2v-14l1-31v-21l1-19h2v-3l5-3h2l1-3 13-10 8-8h2l2-4 8-6 15-12 14-10 14-11 8-7 12-8zm-2 3v4l2-4z" fill="#FCFDDE"/>
<path transform="translate(390,160)" d="m0 0h1l1 11 1 4 3 2v2h2v2l3 1 4 4 9 5 4 6v4l6 2v2l8 2 4 4 2 6v6l7 1 1 8 2 2 7 1 7 3 2 4 4 3 1 3 3 3v2h4l-2 9v2l4-1 2 1v-2l7 1 4 3 4 2 8-1 2 1 14 1 3-7h6l6 1 7-1 3 4h-2l1 2 2-1v2l3-2 23-4 11-4 5-1v2l2-2 6 1v-3l-6 1 4-5 4 1-1 4 3 1-11 8-7 5-6 2-4 2v2l-5 2v2h-3v2h-2v2h-2v2l-5 2-2-4-5 1-1 5-11 4-4 5-5 2-14 2v3l-4 3h-8l-14-4-5-2-4-2-8-7-9-6-6-7-5-2v-2h-2l-4-9-7-6-8-4-3-5-3-6-9-5-9-6-4-2-3-8-8-3-5-6-5-2-4-4-8-1-7-4-3-6 1-5 1-2h2v-4l-4 2-6 2 1-5 14-11 14-12 4-3 6-1z" fill="#01164B"/>
<path transform="translate(585,505)" d="m0 0 7 6 13 11 11 10 8 7 10 9 10 8 26 24-1 3-11 2-26 3-29 3-52 6-49 5-16 2-1 3-8 1 3-3 4-1 1-2h-2v-5l-5 4-2-1 9-8 11-8 14-13 1 2 6-4 4-5-4 3-2-1 4-5h6l7-7 10-8v-2l-5 3 2-4 3-1v-2h2v-2l4-3h2l1 2 9-7 1-3-8 7-2 1 1-4 7-6 7-4 10-9h2v-2z" fill="#6ED6DA"/>
<path transform="translate(272,460)" d="m0 0h1l1 52 2-23h3v12l3 1v2l8-1 13 2 7-1 5 2 10 1 2-3h2l2 8 1 6 1-14 2 3v57l-1 11-7 8-8 7-13 12-11 9-19 19h-2l-2-8z" fill="#0993A4"/>
<path transform="translate(657,443)" d="m0 0h3l1 5 3 1 4 15 6 18 5 21 8 28 4 18 4 11 2 7v4l-4-1-8-6-10-9-14-11-28-24-11-11-9-7-11-9-1-4 4-7 8-3 3-1 1-4 5-2 1-3 6-3 9-8 2-2 5-3 3-1v-2h2v-2l3-3z" fill="#023B67"/>
<path transform="translate(475,608)" d="m0 0 2 1-1 2 9-3 8 1v2l-2 1-1 3-4 4-2 5 2 2-1 12 5 6 4 15 10 3 4 1v2h2l-1 4-21 2-36 2-38 4-24 2-7 2-15 1-5 1-1 9h-2v-3l-7-1v2l-4-2-11-10 3-2 7 7 6-1 1-3 11-6h2v-2l12-6h4v-2l12-6 2-3 6-3h2v-2l12-6 4-3h4v-2h3v-2l14-7 10-7 15-10z" fill="#013A66"/>
<path transform="translate(275,235)" d="m0 0 5 3 4 3v2l5 2 4 1 10 9 14 12v4l4 1v2l4 2 3 2v2l4 2 3 3v64h-1l-1 7h-1l-2-23-1-13-4-1-5 1-1 2h-2l-1 5-4 4-6 3-9 1-3 1-11-4-1-1-2-19h-2l-1-8v18l-1 18-1 36h-1l-1-41v-95z" fill="#01164B"/>
<path transform="translate(393,335)" d="m0 0 2 1 1 5 1 91h2l1-4 6-1 10 2 11 3 10 2 1 3h5l4-1 2-3 3 1 4 4h10v-2l6-1 2 4v5l14-10 5-4 3 1-14 12-12 12-11 9-7 7-11 9-10 9-5 4-5 3-17 16-7 7-3-1v-175z" fill="#F7A434"/>
<path transform="translate(510,600)" d="m0 0h10l-3 2-2 1 5 2v2l4 2 4 4 5 2 5 7-4-2-9-6-5-4-1 1 4 5 11 9 15 13 11 9 9 8 13 9 16 10 5 4-1 2-4-1-12-7-4-2-1-2-5-2-4-4 1 1 2 5-13 1-38 1h-23v-1l7-1 2-1v-2h-2v-2l-9-1-6-3-4-15-5-6 1-12-2-4 5-7h2l1-4h2v-2h-8l-9 2 1-3 8-2 1-2 16-3z" fill="#012A59"/>
<path transform="translate(521,450)" d="m0 0 6 1 8 7 14 14 8 6 11 11 11 9 6 6-2 4-5 2v2l-8 7-8 6-5 3-3 3h-2l-1 4-5 3h-2v2h-2v2l-5 5-6 3-3 4h-3v2l-3 1z" fill="#012B59"/>
<path transform="translate(517,321)" d="m0 0 4 1-1 24v15l-1 31-1 15h-5l-10-9-14-11-13-12-7-7 1-7 5-3 4-5 8-6 7-8 3-3 3-1 4-4 11-8h2z" fill="#017B87"/>
<path transform="translate(272,533)" d="m0 0h1l1 32 9-2 2-1h11l7 1 1 1 17 2 2 5h2l3-7 2 4 1 6 2-32 2 2v20l-1 11-7 8-8 7-13 12-11 9-19 19h-2l-2-8z" fill="#70D7DB"/>
<path transform="translate(275,235)" d="m0 0 5 3 4 3v2l5 2 4 1 10 9 14 12v4l4 1v2l4 2 3 2v2l4 2 3 3v64h-1l-1 7h-1l-1-36-2-33-1-2-1-1-1 4h2l1 7-1-2-11 4h-14l-8-2-3-5v-3h-3l-4-7v-9l1-6-3-5v-7l5-2v-2l-5 1-1-4-2-2-3-4v82l-1 18-1 36h-1l-1-41v-95z" fill="#01083E"/>
<path transform="translate(276,455)" d="m0 0h1l1 10 2 4 4-1 3 5 9 2h9l13-2v-2l11-6 5 4v35l-1 18-2-4-2-14-4 4-12-1-3-2-8 1-12-2h-8l-6-6-1 14-2 1v-48z" fill="#017A86"/>
<path transform="translate(520,321)" d="m0 0h4l5 7 8 7 6 7v2h2l7 8 1 3h2v2l4 2 5 6-3 5-11 9-9 8-7 5-9 11-5 3h-2v-14l1-31v-21z" fill="#F7A535"/>
<path transform="translate(336,286)" d="m0 0 8 2-3 1-1 4-1 1-1 13 1 60-1 7 1 8 2 34v72l1 24-1 19 2 12 3 6h4l3-8h8l11-4 11-7v-7l2-4 2 8h2l1-6-3-8v-5l3-1 2 5 1 10 2 1-8 11-9 9-8 7-10 9-12 10-8 4-6 1-1-3 1-11 1-60z" fill="#FDFDDF"/>
<path transform="translate(278,417)" d="m0 0 1 2 3 1 4 16 3 5 7 2h8l10-3 9-2 3-1v-2h2l1-3 2 8 1 27-2 2-2-3-8 5h-2v2l-13 3h-9l-9-2-3-5-5 1-2-2-1-8h-1l1-39z" fill="#036779"/>
<path transform="translate(400,384)" d="m0 0 2 4 4 10 8 2v4l2 1 1 4 4 1 5-4 1 1 7 1 1 2 7 4 1 1 7 1 3 2v2l9 1 8 3 3 3 10 5v7l-3 3-6 2-1-7-5-1h-2v2l-11 1-4-5h-2l-2 4-1-1v1h-9v-4l-12-1-9-3-13-2-3 1-1 3h-2v-10l2-25v-9z" fill="#F39123"/>
<path transform="translate(275,533)" d="m0 0 6 1 23 2 16 1 4 2 5-1v3h2l2 16-1 17-2 1v-5l-2-1-1-1-2 4-3-1-2-4-16-2-1-1-7-1h-11l-8 3-3-1-1-4v-21z" fill="#31B5BE"/>
<path transform="translate(431,635)" d="m0 0 2 1-1 2 4-2v2l3 1h-3l-3 12-3 3-1 2h-2l-1 14-2 3-16 4-23 3-2 1-15 1-5 1-1 9h-2v-3l-7-1v2l-4-2-11-10 3-2 7 7 6-1 1-3 11-6h2v-2l12-6h4v-2l12-6 2-3 6-3h2v-2l12-6 4-3h4v-2h3v-2z" fill="#014C6F"/>
<path transform="translate(276,353)" d="m0 0 5 2 4 15 6 8 5 3 5 4 4-1 3-3 5-3 4-2h5l3-5 2-3h2l3 21v20h-1l-1-9-2-3-6 3-3 8-5 2h-18l-8-2v-2l-4-1-2-5-1-10h-2l-2 2z" fill="#023A67"/>
<path transform="translate(615,245)" d="m0 0 6 1 5 7-2 18-4 9-4 6-8-2-15 2-5 1-1-1h-5l-2 2-4-1h-2l2 3v8l-2 1-9-1-1-3h2v-2h2l1-5-5-1 2-2h3l1-4h3l2-4 3-3h3l1-2h4v-2l5-5 3-4 4-1 8-6 3-3h2l2-4z" fill="#FCF7BC"/>
<path transform="translate(572,495)" d="m0 0 5 1 8 8-2 4-5 2v2l-8 7-8 6-5 3-3 3h-2l-1 4-5 3h-2v2h-2v2l-5 5-6 3-3 4h-3l1-33 5-3 7-1 8-5h10l2-3v-2l7-3h8l1-3 2-1v-3z" fill="#023D68"/>
<path transform="translate(734,246)" d="m0 0 4 1v127l-1 11-10 9-13 10-3 1v-2l-3-1-1-2 5-2 3-6 4-1 1-2 4-1 1-2v-15l1-2h2l2 19 2-3v-124l2-2-1-3-2-2 1-5-2-1z" fill="#017C87"/>
<path transform="translate(586,592)" d="m0 0h5l-2 3 9 1 10-1h14l2 1-1 3-4 1h-16l-3 1-21 1-9 1v2h-11l-5 3-7 2-4 1v3h-2l-1 3-8-4 2-3v-3l-4 2-5 1v-2l-5-1-8-4v-1l11-3 37-4z" fill="#01154A"/>
<path transform="translate(599,316)" d="m0 0h14l4 3v2l4 1-5 6-11 7-13 13-11 9-5 3 1-4 4-4h2l-3-9v-6l1-2h2l6-15 2-3z" fill="#FDFEFE"/>
<path transform="translate(413,645)" d="m0 0 3 1-1 1 4 1h-2l-1 6-5 2-3 18-11 1-16 4-8 1h-18l4-3 7-4h2v-2l12-6h4v-2l12-6 2-3 6-3h2v-2z" fill="#025372"/>
<path transform="translate(276,360)" d="m0 0h1l1 28 1 2h2l3 15 4 1v2l8 1h18l5-1 2-8 5-3 3-1 2 4 1 17-1-3-6-1h-1l-3 3-3 5-3 2-18-2-9-4-4-6-3-5-4-1-1 44h-1v-65z" fill="#014B6E"/>
<path transform="translate(394,292)" d="m0 0 5 1 3 1v3l12 1 1 3 3 1 1 4 7 5 4 10 5 5 1 3-2 2h-4l-1 2-11-9-12-11-10-8-2-3 4 2v-1-2h-2v-3l-4-1v-2h-2l1-2z" fill="#013D67"/>
<path transform="translate(685,528)" d="m0 0 2 3 4 18 4 11 2 7v4l-4-1-8-6-7-6 3-1-9-9-4-2 2-4h2l2-4 1-4 4 1v2l3 1 2-3z" fill="#01496E"/>
<path transform="translate(734,246)" d="m0 0 4 1v127l-2 10h-2v-125l-1-3-2-2 1-5-2-1z" fill="#5399A5"/>
<path transform="translate(634,232)" d="m0 0 4 1-1 5v17l-3 35-1 7 3 1h3l-3 3h-2l-2 4-3 1-1 5h-2l1-12 2-17 1-21 2-26z" fill="#030E2A"/>
<path transform="translate(275,235)" d="m0 0 5 3 4 3v2l-5-1-2-2v82l-1 18-1 36h-1l-1-41v-95z" fill="#03062A"/>
<path transform="translate(624,135)" d="m0 0 4 2 15 12 14 11 13 10 14 12 9 7 4 4-6-2-1-3-7-1-8-5-3-3v-3l-4-1-8-7-7-4-2-4-4-1v-2l-4-2-7-6-1-2h-2v-2h-2v-3h-2l-5-5z" fill="#041C3A"/>
<path transform="translate(471,368)" d="m0 0h2l4 5 6 4 10 5h5v4h9l5 1 2 8v6l-6-1 6 5h4v2h-5l-10-9-14-11-13-12-5-5z" fill="#0B91A1"/>
<path transform="translate(542,625)" d="m0 0 5 1 4 4 3 2 7 2 15 9 4 4v2l4 2 12 12 4 3 5 2 4 8-1 4-4-2v-2l-13-11v-2l-3-1-5-5-9-8-13-10-15-10z" fill="#06213E"/>
<path transform="translate(320,273)" d="m0 0 5 3 3 2v2l4 2 3 3v64h-1l-1 7h-1l-1-36-2-33-1-5h-2v-2l-2-1-4-3z" fill="#030624"/>
<path transform="translate(273,232)" d="m0 0 4 2 14 10-3 2-4-3v-2l-4-2-4-3-2 4-1 220h-1l-1-194 1-33z" fill="#015C6E"/>
<path transform="translate(560,595)" d="m0 0h14l2 2-5 2v1l-19 2-16 1-12 2-2 3-10-5v-1l11-3z" fill="#020B3B"/>
<path transform="translate(517,321)" d="m0 0 4 1-1 24v15l-2 29h-1v-31h-2l-3-20h-7l1-3 6-4 3-5h2z" fill="#036779"/>
<path transform="translate(524,319)" d="m0 0 1 2h2l2 2 4-1 3 4v2l4 2 4 6-1 2 4 2v2h2l5 7 3 1 3 5 5 5 1 5-3 2-1-4-7-6v-2h-2l-5-7-3-2v-2h-2l-9-11-6-5-4-5v-2l-2-1z" fill="#F5F4BC"/>
<path transform="translate(541,467)" d="m0 0 4 1 7 6 8 7 3 4-4-1 1 3-5 1-5-2-6-4-1-2-5-3-3-3 1-3h3z" fill="#013865"/>
<path transform="translate(657,443)" d="m0 0h3l1 5 3 1 4 15 2 5 1 14h-4l-1-3h2v-4l-2-1-3-6-1-6 1-2-4-1-1-7v-1l-3-4-3 4h-2l-1 3-1 1-4 2-4 3-2-1 8-8h2v-2h2v-2l3-3z" fill="#033C64"/>
<path transform="translate(333,337)" d="m0 0h1l1 12v102h-1l-1-33h-1l-1-34z" fill="#012656"/>
<path transform="translate(650,585)" d="m0 0h11l-5 4-9 2-8 1-15 1h-18l-3-1v-2l37-4z" fill="#031432"/>
<path transform="translate(340,676)" d="m0 0 7 6h4 3v-2l6-1h13l14-2h12v1l-14 2-2 1-15 1-5 1-1 9h-2v-3l-7-1v2l-4-2-11-10z" fill="#023E68"/>
<path transform="translate(694,282)" d="m0 0 2 1-4 4-5 2-2 4-6 7h3v3l4 2 1 4h-5l-3-4h-6l-6 7-4 1v2l-6 3h-3l7-8 11-9 17-16z" fill="#014C6D"/>
<path transform="translate(726,369)" d="m0 0h2l2 18-2 6-14 11-3 1v-2l-3-1-1-2 5-2 3-6 4-1 1-2 4-1 1-2v-15z" fill="#036678"/>
<path transform="translate(333,414)" d="m0 0h1l1 37 1 12v37l-1 7h-1l-1-36h-1v-53z" fill="#025A77"/>
<path transform="translate(336,286)" d="m0 0 8 2-3 1-1 4-1 1-1 13 1 60-2 7h-1z" fill="#FDFEDE"/>
<path transform="translate(516,443)" d="m0 0 4 2 6 5-2 1-3-1v2l2 1-1 3v98h-1l-1-87-1-14-1-4-5 1-3 1-1 3h-2l-2 4h-2l1-4z" fill="#015270"/>
<path transform="translate(510,600)" d="m0 0h10l-3 2-2 1 5 2v2l4 2 4 4 5 2 5 7-4-2-9-6-5-4-1 1v4l-3-2v-4l-5 1-8-1 4-6h-13v-1z" fill="#012956"/>
<path transform="translate(697,193)" d="m0 0 9 6 13 11 7 6 1 7-6 5-2-4 2-3-4-7-5-3v-2l-7-2 1-2v-3l-5-3v-2l-4-2z" fill="#072846"/>
<path transform="translate(565,654)" d="m0 0 7 3 10 7 16 10 5 4-1 2-4-1-12-7-4-2-1-2-5-2-4-4-3-1-5-6z" fill="#062644"/>
<path transform="translate(486,345)" d="m0 0h2l-1 3-6 5h-2l-2 4-4 4h-3l-1 6-4-2-5-5 2-3 3 4-1-5h5l4-2 2-4 5-1h3v-2z" fill="#01406A"/>
<path transform="translate(330,288)" d="m0 0 2 1v15h2v33l-1 19h-1l-1-36-1-11z" fill="#01053C"/>
<path transform="translate(273,232)" d="m0 0 4 2 14 10-3 2-4-3v-2l-4-2-4-3-2 4-1 66h-1l-1-26v-14l1-33z" fill="#2E5076"/>
<path transform="translate(560,595)" d="m0 0h14l2 2-12 2h-10l-6 2h-14l-3-3z" fill="#031836"/>
<path transform="translate(519,322)" d="m0 0h2l-1 24v15l-2 29h-1v-38h-1v-16l2-1z" fill="#036B7D"/>
<path transform="translate(520,325)" d="m0 0h1v58l-1 20 3 1-5 2v-14l1-31v-21z" fill="#FAF8CA"/>
<path transform="translate(734,342)" d="m0 0h1v18l-1 24h2v-5h1v6l-6 6h-2l1-3 2-3v-42z" fill="#07818C"/>
<path transform="translate(723,254)" d="m0 0 2 1-9 9-1 4-2 2-5 1-6 7h2l2-4h2v-2l4 1v2h-2v2l-6 3-10 3h-3l13-11 15-14z" fill="#145C7A"/>
<path transform="translate(518,59)" d="m0 0h10l11 7 1 3 4 2 4 3v2l2 1-3 1-8-7-5-5-7-2h-10l-6 2 2-4z" fill="#030828"/>
<path transform="translate(475,608)" d="m0 0 2 1-1 2 9-3h5l-2 2-7 3-3 3-9 3-3-1 1-1-8 2 4-4z" fill="#012656"/>
<path transform="translate(520,321)" d="m0 0h4l5 7 8 7-2 4-3-1-2-2-5-3-3 3z" fill="#F28C20"/>
<path transform="translate(335,511)" d="m0 0h1l1 59 9-1-3 3-9 2-1-3 1-11z" fill="#FDFFFF"/>
<path transform="translate(592,660)" d="m0 0 8 6 5 2 4 8-1 4-4-2v-2l-13-11v-2l-3-1z" fill="#283D55"/>
<path transform="translate(690,549)" d="m0 0 3 4 4 14v4l-4-1-8-6-3-4 6 1 2-2v-6l-1-2z" fill="#095776"/>
<path transform="translate(592,262)" d="m0 0 2 2-5 5-3 1v2l-10 3-3 6-3 1-1 3-7 3-2 4-6 1 1-3 8-6 15-12z" fill="#ECFAEE"/>
<path transform="translate(470,94)" d="m0 0 2 1-1 5-6 4-4 5-10 5-3-2 12-10 8-6z" fill="#06213F"/>
<path transform="translate(390,160)" d="m0 0h1v5h-4v2l-8 3-4 3-1 4-5 4-5 2-1 3-3 1 1-5 14-12 9-7 6-1z" fill="#022248"/>
<path transform="translate(505,602)" d="m0 0h5l-5 4-13 2-10 2-6 1 1-3 8-2 1-2 4-1z" fill="#010C42"/>
<path transform="translate(677,548)" d="m0 0 7 1 4 4 3 8-4 1-9-4 3-1-4-6z" fill="#015473"/>
<path transform="translate(555,477)" d="m0 0 7 6 1 2-4-1 1 3-5 1-5-2-6-4 1-3 6-1 3 2z" fill="#024069"/>
<path transform="translate(440,118)" d="m0 0 5 1-2 1-2 4-9 7-2 2-6 2-5 3-2-1 17-14z" fill="#031D3A"/>
<path transform="translate(657,443)" d="m0 0h3l1 5h2l-1 4-2 1-3-2-2-3-3 4h-2l-1 3-1 1-4 2-4 3-2-1 8-8h2v-2h2v-2l3-3z" fill="#012858"/>
<path transform="translate(641,522)" d="m0 0h4l1 4 6 3 2 4 2 1v2l5 2 2 1-1 3-7-3-10-9-6-5 2-1z" fill="#013E64"/>
<path transform="translate(517,322)" d="m0 0h1v6h-3l-3 5-6 4h-2v2l-3-1v-5z" fill="#017885"/>
<path transform="translate(730,250)" d="m0 0 1 2-8 7-4 5v3h3l-1 3h-5l-1 3-7-1v2l-4 4h-2l2-4 6-5 4-1 2-5 8-8 3-4z" fill="#014167"/>
<path transform="translate(620,505)" d="m0 0 6 1 2 2 1 3 3 1 7 8 2 4-5-1-14-14z" fill="#023C63"/>
<path transform="translate(552,354)" d="m0 0 3 1v2l4 2 5 6-2 4h-6l-1-7h-2v-2h-2l-1-3z" fill="#E98F2A"/>
<path transform="translate(328,427)" d="m0 0 1 2h2l1 5v25h-1l-1-19-2-5h-2v2l-4 2-2-2 3-5h2l1-3h2z" fill="#015C6E"/>
<path transform="translate(735,347)" d="m0 0 2 4v28l-1 5h-2v-24z" fill="#015F70"/>
<path transform="translate(333,337)" d="m0 0h1l1 12v26h-1l-1 9h-1v-28z" fill="#01164B"/>
<path transform="translate(586,592)" d="m0 0h5l-2 3 3 1v2h-16v-2l-10-1v-1z" fill="#011A4A"/>
<path transform="translate(552,348)" d="m0 0 5 2 3 5 5 5 1 5-3 2-1-4-7-6v-2h-2z" fill="#FDFCD5"/>
<path transform="translate(587,109)" d="m0 0 5 1 3 2v2l5 2v2h2v2h2l2 2 6 4-1 2-8-4v-2l-5-2-1-3-5-1-1-3-4-2z" fill="#030624"/>
<path transform="translate(576,271)" d="m0 0 4 1-11 8-18 15-2-2 5-5 5-1v-2h2v-2h2v-2h3v-2l5-2 1-4z" fill="#014266"/>
<path transform="translate(517,58)" d="m0 0h11v1l-10 1-5 2-2 5-5 4-7 3h-3l13-11z" fill="#02405E"/>
<path transform="translate(572,495)" d="m0 0 5 1 8 8-2 4-4 2 1-3-3-1-1-6v-3z" fill="#025272"/>
<path transform="translate(388,507)" d="m0 0h2l2 5 1 10 2 1-3 4h-2l-1-10-2-4v-5z" fill="#FDFEE0"/>
<path transform="translate(729,249)" d="m0 0h3l1 4v3h-2l-1 2-1-2-3 5h-2l-1 3h-3l-1 2v-3l7-8 3-3-1-1z" fill="#014E6F"/>
<path transform="translate(402,731)" d="m0 0 7 1 5 5 7 6 1 4-4-2-16-13z" fill="#024266"/>
<path transform="translate(423,493)" d="m0 0 2 1-9 9-8 7-12 12-3-1 12-11 8-8 8-7z" fill="#FDF8C2"/>
<path transform="translate(460,779)" d="m0 0 8 2 4 2 1 5 3 3-1 2-15-13z" fill="#023C63"/>
<path transform="translate(374,276)" d="m0 0 5 1 4 6v2h-2v-2l-5 1 3 5-4-2-2-3h2l-2-4-1-3z" fill="#023F68"/>
<path transform="translate(522,782)" d="m0 0 3 1-2 5 2 5-4 1-2-2h-3l2-4v-4z" fill="#01053C"/>
<path transform="translate(614,244)" d="m0 0 2 1-4 5-12 10h-2l-1 2h-3v-2l11-8z" fill="#F4FBE2"/>
<path transform="translate(624,135)" d="m0 0 4 2 15 12-2 1-6-1v-2h-2v-2h-2v-3h-2l-5-5z" fill="#0A3857"/>
<path transform="translate(471,368)" d="m0 0h2l4 5 6 4 4 2v2h2v2h2l1 3-4-2-5-2-12-12z" fill="#068B9A"/>
<path transform="translate(493,348)" d="m0 0 2 1-2 5h-2l-1 4-8 1 3-6 4-2z" fill="#036779"/>
<path transform="translate(563,791)" d="m0 0 4 1-11 10-8 5 1-3h2l1-4h4v-4h3v-2h2v-2z" fill="#024669"/>
<path transform="translate(571,661)" d="m0 0 5 3v2l4 2-4 3-16-1 3-2 11-1-1-3-2-1z" fill="#011449"/>
<path transform="translate(681,590)" d="m0 0 6 2 1 4 4 2 5 4 2 4-5-2-3-3v-2l-6-2-3-3v-2l-2-1z" fill="#030A28"/>
<path transform="translate(496,584)" d="m0 0h2v3l-6 4-4 3-2 3h-3l-5 4-2-1 9-8z" fill="#D9F5F6"/>
<path transform="translate(613,496)" d="m0 0 3 1 6 8v3l-4-2-10-8 4-1z" fill="#014267"/>
<path transform="translate(273,232)" d="m0 0 4 2 14 10-3 2-4-3v-2l-4-2-4-3-3 6h-1v-9z" fill="#024B6B"/>
<path transform="translate(484,693)" d="m0 0 4 2v8l-5 1-1-1v-8z" fill="#01164B"/>
<path transform="translate(548,640)" d="m0 0 6 2 8 7-1 4-4-2-6-7-3-2z" fill="#032345"/>
<path transform="translate(560,595)" d="m0 0h14l2 2-12 2h-7l1-3z" fill="#030D2B"/>
<path transform="translate(631,232)" d="m0 0 3 1-1 2-1 17h-1l-1-11-9-1 5-4zm-2 3v4l2-4z" fill="#EAF9FA"/>
<path transform="translate(319,236)" d="m0 0 4 2 5 5 4 5-1 2-11-9z" fill="#01375E"/>
<path transform="translate(692,192)" d="m0 0 5 1 4 4v2l5 2 3 3-1 2-4-2v-2l-6-2-2-4-4-2z" fill="#030727"/>
<path transform="translate(685,542)" d="m0 0 3 1v6h2l1 10h-2l-4-9-3-5h2z" fill="#013561"/>
<path transform="translate(685,528)" d="m0 0 2 3 3 14v4h-2v-6l-3-1-2-6 1-1z" fill="#0C5F7B"/>
<path transform="translate(390,160)" d="m0 0h1v5h-4v2l-8 3-6 5-2-1 9-8 4-3 6-1z" fill="#023257"/>
<path transform="translate(530,816)" d="m0 0h2v2h-3v3l-5 1h-7l-5-3v-1h6l1 1z" fill="#010B41"/>
<path transform="translate(403,545)" d="m0 0h5l-1 3-6 4h-2v2l-2 1 1 2-3 1-2-2h2l-1-3 8-7z" fill="#108C9C"/>
<path transform="translate(551,284)" d="m0 0 4 2h-2l-1 7-4-1v2l-2-1-1-5z" fill="#012354"/>
<path transform="translate(727,629)" d="m0 0h5l7 9-3 1-1-3-5-1-1-3-2-1z" fill="#031230"/>
<path transform="translate(333,542)" d="m0 0 2 2v20l-2 9h-1z" fill="#65D2D6"/>
<path transform="translate(516,443)" d="m0 0 3 1-3 3 2 1-5 2-3 1-1 3h-2l-2 4h-2l1-4z" fill="#015B72"/>
<path transform="translate(554,598)" d="m0 0h16l1 2-19 2h-6l2-2z" fill="#01053A"/>
<path transform="translate(640,328)" d="m0 0 4 1-5 6h-2v2l-7 3 2-4z" fill="#025572"/>
<path transform="translate(694,282)" d="m0 0 2 1-4 4-5 2-2 4-5 5-2-1 9-10 3-3z" fill="#013860"/>
<path transform="translate(676,176)" d="m0 0 8 6 9 7 4 4-6-2-1-3h-3v-2h-2v-2h-3l-4-4-2-1z" fill="#024868"/>
<path transform="translate(490,78)" d="m0 0 2 1-5 5h-2l-2 4-3 4-4-1v2l-4 1 5-5z" fill="#084966"/>
<path transform="translate(387,677)" d="m0 0h12v1l-14 2-2 1h-12l2-2z" fill="#023A67"/>
<path transform="translate(457,619)" d="m0 0 2 1-2 4-3 4h-4v2h-3l2-4 4-4z" fill="#0C3C65"/>
<path transform="translate(514,606)" d="m0 0 5 1 1 2-2 1 2 4h-3l-1-5-5 1-8-1v-1l10-1z" fill="#105D7C"/>
<path transform="translate(682,560)" d="m0 0 4 2 7 4v2h2v-5l2 4v4l-4-1-8-6z" fill="#167286"/>
<path transform="translate(541,467)" d="m0 0 4 1 7 6 3 3-3 1-5-5-7-2z" fill="#014166"/>
<path transform="translate(516,449)" d="m0 0h3l1 4 1 19h-2l-2-19z" fill="#046779"/>
<path transform="translate(727,391)" d="m0 0 2 1-11 9-3-2 1-2 3-4 4-1h3z" fill="#147C8C"/>
<path transform="translate(508,816)" d="m0 0 4 1 3 3 2 1h12l-3 2-6 1-9-3-5-3z" fill="#03516E"/>
<path transform="translate(369,693)" d="m0 0h6l2 5-1 2-7-2-1-4z" fill="#023A67"/>
<path transform="translate(735,632)" d="m0 0 8 6 4 5-2 5-5 3 4-8-9-9z" fill="#085572"/>
<path transform="translate(490,603)" d="m0 0 4 1-2 2-13 5h-3l1-3 8-2 1-2z" fill="#012051"/>
<path transform="translate(475,599)" d="m0 0 2 1-5 6-12 7-2 1 2-4 5-2v-2l6-3h2v-2h2z" fill="#3EAFBB"/>
<path transform="translate(669,547)" d="m0 0 5 1 3 4 3 2 2 4-6-2-4-3z" fill="#013C64"/>
<path transform="translate(557,300)" d="m0 0 4 2 3 3v3h-6l-3-3 1-2h2z" fill="#FDF8BC"/>
<path transform="translate(568,280)" d="m0 0 3 1-2 4-7 3-2 4-6 1 1-3 8-6z" fill="#BAECEE"/>
<path transform="translate(723,254)" d="m0 0 2 1-9 9-1 4-2 2h-3l1-4z" fill="#2A5E7C"/>
<path transform="translate(322,215)" d="m0 0 1 3-9 7h-2l1-4 4-4z" fill="#012754"/>
<path transform="translate(713,396)" d="m0 0h2l2 5-4 4h-2v-2l-3-1-1-2 5-2z" fill="#087383"/>
<path transform="translate(498,393)" d="m0 0 7 2 3 5 6 5h4v2h-5l-10-9z" fill="#2CA5B3"/>
<path transform="translate(649,324)" d="m0 0 3 1-2 6-6 3 2-8z" fill="#03697A"/>
<path transform="translate(664,711)" d="m0 0 2 1-13 11-5 4-2-1 3-4 4-2 1-2 3-1 2-3z" fill="#035D77"/>
<path transform="translate(688,594)" d="m0 0 4 2 14 12 1 2-4-2-6-4-5-5-4-3z" fill="#02526E"/>
<path transform="translate(560,355)" d="m0 0 5 5 1 5-3 2-1-4-4-5z" fill="#AED3C0"/>
<path transform="translate(464,616)" d="m0 0 4 1-5 5-3-1v3h-4l2-4z" fill="#012253"/>
<path transform="translate(523,611)" d="m0 0 10 4 5 7-4-2-9-6z" fill="#174D66"/>
<path transform="translate(521,450)" d="m0 0 6 1 4 5-1 3-4-3v-2l-4 1z" fill="#011745"/>
<path transform="translate(678,295)" d="m0 0 2 1-1 5v3h-6l2-3v-3zm2 5 2 1-2 1z" fill="#025774"/>
<path transform="translate(689,293)" d="m0 0 6 3 1 7-6-3z" fill="#025473"/>
<path transform="translate(316,274)" d="m0 0 4 1 2 6-5 1-2-7z" fill="#01154A"/>
<path transform="translate(730,250)" d="m0 0 1 2-8 7-6 7-2-2 9-9 3-4z" fill="#012D5A"/>
<path transform="translate(385,709)" d="m0 0 8 1 1 2-1 5-8-5z" fill="#013A66"/>
<path transform="translate(450,620)" d="m0 0 2 4-9 6-3-1 1-2h2v-2h2v-2h4z" fill="#3AB1BC"/>
<path transform="translate(489,468)" d="m0 0 3 1-4 4h-2v2l-8 7-2 1 2-4z" fill="#01516C"/>
<path transform="translate(542,625)" d="m0 0 5 1 4 4 6 3v2l4 2h-3l-12-8z" fill="#105B76"/>
<path transform="translate(591,592)" d="m0 0h10l-4 3-8 1-5-1v-1z" fill="#030522"/>
<path transform="translate(697,414)" d="m0 0 2 1-10 9-3-1 1-5 3 2 1-3z" fill="#2293A1"/>
<path transform="translate(730,361)" d="m0 0h1l1 23 1 2-3 3-1-4z" fill="#015471"/>
<path transform="translate(543,336)" d="m0 0 7 1-2 1 1 2 2-1 1 6 2 1-5-1v-3h-2l-4-4z" fill="#FDF9CA"/>
<path transform="translate(310,223)" d="m0 0h2v2l4 1-4 2v5l-4-3v-5z" fill="#1E4A6F"/>
<path transform="translate(669,587)" d="m0 0h5l1 3h-2l-1 2-10-1 2-2z" fill="#01164B"/>
<path transform="translate(552,354)" d="m0 0 3 2v2l3 4-1 3-2-1v-2h-2v-2h-2l-1-3z" fill="#F39123"/>
<path transform="translate(486,345)" d="m0 0h2l-1 3-6 5h-5l1-4h6v-2z" fill="#01426A"/>
<path transform="translate(626,341)" d="m0 0 2 1-8 10-3-3z" fill="#026277"/>
<path transform="translate(534,812)" d="m0 0m-1 1h7l-5 5-4 3h-2v-3h3z" fill="#114F6F"/>
<path transform="translate(614,478)" d="m0 0 3 1-9 8-4 1 5-7z" fill="#012E5C"/>
<path transform="translate(657,313)" d="m0 0 2 1-4 4-3 6-6 2 6-8z" fill="#0A5976"/>
<path transform="translate(716,231)" d="m0 0 2 1-13 12-3 1v-2l3-2 1-3 5-1v-2z" fill="#0B697E"/>
<path transform="translate(490,80)" d="m0 0 2 1-2 4-8 6-2-1 5-6z" fill="#030624"/>
<path transform="translate(475,608)" d="m0 0 2 1-4 4-5 2-6 4-3-1 13-8z" fill="#2D748B"/>
<path transform="translate(641,522)" d="m0 0h4l1 4 1 2-2 2-6-5 2-1z" fill="#014167"/>
<path transform="translate(623,235)" d="m0 0 4 1-11 8-3 1v-2h2v-2h2v-2l6-2z" fill="#024768"/>
<path transform="translate(539,68)" d="m0 0 7 4 2 4 2 1-3 1-8-7z" fill="#030624"/>
<path transform="translate(413,645)" d="m0 0 3 1-2 1-2 4-2 1h-6l2-1v-2z" fill="#015571"/>
<path transform="translate(657,445)" d="m0 0 1 2 3-1v2h2l-1 4-2 1-3-2-1-4z" fill="#012D5B"/>
<path transform="translate(530,310)" d="m0 0 3 1-8 7h-3l-1 3v-5l6-2v-3z" fill="#036A81"/>
<path transform="translate(641,296)" d="m0 0 2 1-13 12-1-3 8-7z" fill="#0A6079"/>
<path transform="translate(346,196)" d="m0 0h2l-1 3-8 7h-2l1-4h3l2-4z" fill="#010F44"/>
<path transform="translate(349,191)" d="m0 0h2l1 5-1 2-5-1h-3z" fill="#01345D"/>
<path transform="translate(470,94)" d="m0 0 2 1-1 5-9 2 5-5z" fill="#033252"/>
<path transform="translate(380,566)" d="m0 0 3 1-8 7-3 3-3-1 10-9z" fill="#037181"/>
<path transform="translate(548,535)" d="m0 0h2v2l-5 5-8 5 2-4 3-1v-2h2v-2z" fill="#2CA0AC"/>
<path transform="translate(600,364)" d="m0 0 3 1-5 6-4 3h-2l2-4z" fill="#137A89"/>
<path transform="translate(329,207)" d="m0 0 2 1-4 5-4 4-4-1z" fill="#024063"/>
<path transform="translate(357,187)" d="m0 0 3 1-1 3-6 3h-2v-4z" fill="#011244"/>
<path transform="translate(544,788)" d="m0 0 3 1-2 4-3 2-3-2v-2z" fill="#01164B"/>
<path transform="translate(740,638)" d="m0 0 5 5-2 4-3 2v-8z" fill="#030522"/>
<path transform="translate(717,620)" d="m0 0 5 3 5 6-2 2-3-3-1-4-5-2z" fill="#030523"/>
<path transform="translate(348,598)" d="m0 0 2 2-4 3h-2l-2 4h-3v-2h2l2-4z" fill="#078C9A"/>
<path transform="translate(694,410)" d="m0 0 3 1-4 6h-4l2-5z" fill="#03697A"/>
<path transform="translate(333,206)" d="m0 0h3v2l-8 6-2-1 5-6z" fill="#010E41"/>
<path transform="translate(429,127)" d="m0 0 2 1-4 5-8 5-2-1z" fill="#035271"/>
<path transform="translate(600,116)" d="m0 0 7 4 6 5h-3l-5-2-1-3h-2v-2h-2z" fill="#024969"/>
<path transform="translate(346,597)" d="m0 0v3l-5 5h-2l-1 3-5 1 5-5z" fill="#036D80"/>
<path transform="translate(543,302)" d="m0 0v3l-7 7h-2l1-4z" fill="#D0F0EA"/>
<path transform="translate(691,286)" d="m0 0 2 2-4 4-1 3-6 1 5-7z" fill="#014F70"/>
<path transform="translate(559,285)" d="m0 0h2l-1 3-6 4-3 3-2-2 5-5 5-1z" fill="#02516F"/>
<path transform="translate(691,689)" d="m0 0 2 1-10 9-2-1 4-6h4v-2z" fill="#0C5E79"/>
<path transform="translate(275,235)" d="m0 0 5 3 4 3v2l-5-1-4-4z" fill="#02082D"/>
<path transform="translate(657,713)" d="m0 0 2 2-2 3h-3l-1 3h-2l1-4 3-1v-2z" fill="#030726"/>
<path transform="translate(340,676)" d="m0 0 7 6-1 3-8-7z" fill="#025A73"/>
<path transform="translate(605,492)" d="m0 0 5 2 3 3-3 1-5-2z" fill="#012F5B"/>
<path transform="translate(546,472)" d="m0 0 7 5h2l-1 4-1-2-6-1v-3l-2-2z" fill="#012B59"/>
<path transform="translate(493,430)" d="m0 0 3 1-9 8-2-1 6-7z" fill="#F9C76E"/>
<path transform="translate(461,357)" d="m0 0 3 3 2 1 3 1-2 3-5-2-2-3z" fill="#013961"/>
<path transform="translate(637,335)" d="m0 0 3 1v5l-7 2 2-4z" fill="#036779"/>
<path transform="translate(517,321)" d="m0 0 3 1-1 13-3-1v-5l1-1z" fill="#015B6E"/>
<path transform="translate(341,198)" d="m0 0 2 1-2 3-3 1-2 4h-5l5-5z" fill="#024F6C"/>
</svg>
