<?xml version="1.0" encoding="UTF-8"?>
<svg version="1.1" xmlns="http://www.w3.org/2000/svg" width="512" height="512">
<path d="M0 0 C1.40063492 -0.0033028 2.8012689 -0.00702925 4.20190167 -0.01114148 C8.04138604 -0.02112162 11.88085477 -0.0248718 15.72035027 -0.02753079 C19.86499566 -0.03144553 24.00962881 -0.04102278 28.15426636 -0.04974365 C38.15667457 -0.06947143 48.15908374 -0.07956797 58.16150653 -0.08847144 C62.87507942 -0.09285895 67.5886512 -0.09822443 72.30222321 -0.10346031 C87.97514487 -0.1204662 103.64806586 -0.13496094 119.32099533 -0.14220905 C123.38467154 -0.14411884 127.44834774 -0.14603919 131.51202393 -0.147995 C133.02697157 -0.14872061 133.02697157 -0.14872061 134.57252422 -0.14946087 C150.93792794 -0.15776352 167.30325863 -0.18310727 183.66863045 -0.21557567 C200.48010113 -0.24865671 217.29153468 -0.26665862 234.10303807 -0.26985329 C243.5383503 -0.27201703 252.9735559 -0.2807462 262.40883636 -0.30631447 C270.44270314 -0.32803542 278.47643736 -0.33606488 286.51033017 -0.32634769 C290.60693426 -0.32180751 294.70326492 -0.32367275 298.79983139 -0.34310913 C302.55540827 -0.36077343 306.3105129 -0.35971706 310.06609502 -0.34421184 C312.05688648 -0.34072375 314.04768308 -0.35683737 316.03840518 -0.37381631 C327.28838962 -0.29350034 337.0143782 2.26227795 345.32452393 10.14717102 C355.33930242 20.68332627 360.17910133 34.50739343 364.32452393 48.14717102 C365.23589111 47.61349915 366.1472583 47.07982727 367.08624268 46.52998352 C430.04850889 10.1081994 430.04850889 10.1081994 457.32452393 17.14717102 C460.01034004 19.16503634 461.16038289 20.36508728 461.85577393 23.67842102 C461.58013234 49.86437164 451.58865317 86.92610212 433.88702393 106.89717102 C430.26987822 108.66163234 428.13706694 108.2768134 424.32452393 107.14717102 C422.32452393 105.64717102 422.32452393 105.64717102 421.32452393 103.14717102 C421.53957458 95.36694544 424.05568339 89.81344255 427.57452393 82.95967102 C434.15005106 69.67569258 438.72671374 56.50698982 442.32452393 42.14717102 C442.60030273 41.04647278 442.60030273 41.04647278 442.88165283 39.92353821 C443.36359017 37.99832761 443.84417977 36.07277974 444.32452393 34.14717102 C406.50494776 43.57083134 373.46586188 59.25012366 343.32452393 84.14717102 C342.76394287 84.61010559 342.20336182 85.07304016 341.62579346 85.55000305 C337.82159117 88.70654235 334.0607912 91.91062033 330.32452393 95.14717102 C329.4041333 95.94252258 328.48374268 96.73787415 327.53546143 97.55732727 C323.0014629 101.5502595 318.85743848 105.63672571 314.96514893 110.25654602 C313.35186171 112.11566748 311.6585546 113.81447929 309.88702393 115.52217102 C305.61717574 119.7543994 301.97000226 124.37277036 298.32452393 129.14717102 C297.81469971 129.8129718 297.30487549 130.47877258 296.77960205 131.16474915 C282.15616783 150.35272353 270.04494972 170.22171968 260.94952393 192.58467102 C260.4483606 193.80936096 260.4483606 193.80936096 259.93707275 195.05879211 C259.62407227 195.84979309 259.31107178 196.64079407 258.98858643 197.45576477 C258.71482178 198.14468811 258.44105713 198.83361145 258.15899658 199.54341125 C257.384552 201.95986867 256.81372473 204.33270726 256.27236938 206.80990601 C256.0942742 207.62172364 255.91617901 208.43354128 255.732687 209.26995945 C255.53064628 210.19917918 255.53064628 210.19917918 255.32452393 211.14717102 C255.99266554 210.47810761 256.66080715 209.80904421 257.34919548 209.11970615 C273.58674103 192.85998723 289.82714947 176.60313217 306.07058525 160.34929752 C313.92563263 152.48908802 321.77973801 144.62794151 329.63165283 136.76460266 C336.47325632 129.91304981 343.31660007 123.06324084 350.16206276 116.21554369 C353.78852899 112.58777079 357.4141018 108.95911482 361.03759384 105.32837105 C364.44495232 101.9142484 367.8546246 98.5024542 371.26612091 95.09246635 C372.52072904 93.83758208 373.7744741 92.58183425 375.02730942 91.32518005 C376.73215593 89.61539013 378.44002269 87.90867642 380.14871216 86.20272827 C380.64870975 85.69981783 381.14870735 85.1969074 381.66385639 84.67875725 C384.7927954 81.56345561 386.22175621 80.24927914 390.69952393 79.83467102 C394.32452393 80.14717102 394.32452393 80.14717102 396.76202393 81.64717102 C398.91131924 85.08604352 399.00661288 88.23888674 398.32452393 92.14717102 C396.69807188 94.55026951 395.36444703 96.16234675 393.31329346 98.12043762 C392.77426455 98.66630193 392.23523563 99.21216624 391.67987251 99.7745719 C389.87414888 101.5934424 388.04138613 103.38229163 386.20733643 105.17256165 C384.90514208 106.47249875 383.60470809 107.77420131 382.3059082 109.07752991 C378.77825606 112.60747714 375.22648528 116.11221773 371.66988373 119.61296272 C367.95601246 123.27681942 364.26478815 126.96334809 360.57110596 130.64753723 C353.57465834 137.61912122 346.55806883 144.57006234 339.53402138 151.51382589 C331.53777144 159.42065289 323.56422933 167.35021165 315.59251785 175.28176594 C299.19500358 191.59566241 282.76916464 207.88078952 266.32452393 224.14717102 C268.87680915 223.35987968 271.42826253 222.57004959 273.97930908 221.77876282 C275.05457603 221.44751026 275.05457603 221.44751026 276.15156555 221.10956573 C281.80279227 219.353371 287.27543767 217.33195526 292.69952393 214.95967102 C293.57818115 214.57802795 294.45683838 214.19638489 295.36212158 213.80317688 C337.11058727 195.2888033 373.86091846 163.30065247 401.32452393 127.14717102 C402.6760678 125.3743351 404.02984707 123.60319839 405.38702393 121.83467102 C405.91425049 121.13728821 406.44147705 120.4399054 406.98468018 119.72138977 C408.97652856 117.3811131 410.1185914 117.1650782 413.19952393 116.89717102 C416.32452393 117.14717102 416.32452393 117.14717102 418.63702393 118.14717102 C421.15385387 121.13008058 421.48899891 124.35508466 421.32452393 128.14717102 C420.02213193 130.7641554 418.923515 132.54864698 417.13702393 134.77217102 C416.68577148 135.3662677 416.23451904 135.96036438 415.76959229 136.57246399 C414.31805314 138.45710969 412.83054509 140.3058324 411.32452393 142.14717102 C410.83661377 142.74400696 410.34870361 143.3408429 409.8460083 143.95576477 C406.42519173 148.09699172 402.90114048 152.14018782 399.32452393 156.14717102 C398.85369385 156.67584778 398.38286377 157.20452454 397.89776611 157.7492218 C379.92059465 177.84913566 379.92059465 177.84913566 375.32452393 180.14717102 C373.05566094 190.96346578 374.1794135 203.06845989 374.19171143 214.07685852 C374.1910353 216.2331188 374.19006273 218.38937901 374.18881226 220.54563904 C374.18734159 225.06939926 374.18946403 229.59313968 374.19415283 234.11689758 C374.19976172 239.79319698 374.19652579 245.4694486 374.19071579 251.14574623 C374.17239895 272.19733005 374.21020899 293.24252693 374.76983643 314.28779602 C374.78925167 315.03239956 374.80866692 315.7770031 374.8286705 316.54417038 C375.22287019 331.17526155 376.08660451 345.77333365 377.0725708 360.37541199 C377.34500562 364.45378365 377.6024903 368.53290716 377.85577393 372.61250305 C377.90121338 373.3420369 377.94665283 374.07157074 377.99346924 374.82321167 C378.10398115 376.59785481 378.21427564 378.37251148 378.32452393 380.14717102 C379.12774582 380.14050919 379.93096771 380.13384735 380.75852966 380.12698364 C388.33576823 380.06682105 395.91289064 380.02117058 403.4903059 379.9917345 C407.38575128 379.97609225 411.28099896 379.95488061 415.17633057 379.92085266 C418.93700918 379.88820734 422.69749787 379.87030717 426.45830727 379.86253929 C427.8916148 379.85700502 429.32491218 379.84619782 430.75813866 379.82998085 C432.76868896 379.80814047 434.7794312 379.80694505 436.7901001 379.80659485 C437.93371506 379.79993301 439.07733002 379.79327118 440.25559998 379.78640747 C443.69985576 380.19129269 445.56364395 381.08166118 448.32452393 383.14717102 C453.98019251 393.61015791 452.69939138 411.63306239 450.19952393 422.89717102 C446.9142968 433.56648343 440.43073005 442.5949006 430.57452393 447.95967102 C421.27122181 452.72517368 410.34975319 452.43916833 400.16802979 452.41459656 C398.7639412 452.4183403 397.3598547 452.42294469 395.95577145 452.4283272 C392.12530167 452.44048241 388.29491972 452.44030566 384.4644351 452.43793845 C380.32257989 452.4375284 376.18075214 452.44858708 372.03890991 452.45805359 C363.93602276 452.47462162 355.83316472 452.48016116 347.73026204 452.48127834 C341.14260906 452.48223047 334.55496563 452.48634896 327.96731567 452.4926796 C309.27326309 452.51027774 290.57923341 452.51952028 271.88517249 452.51801865 C270.87870338 452.51793874 269.87223428 452.51785882 268.83526611 452.51777649 C267.32371148 452.51765385 267.32371148 452.51765385 265.78162038 452.51752873 C249.44233247 452.51671543 233.10313664 452.53586789 216.76387537 452.56405322 C199.97035316 452.59279283 183.17687586 452.60659304 166.38332844 452.60486567 C156.96149616 452.60420232 147.53976053 452.60967116 138.11795044 452.63122177 C130.09881234 452.64944735 122.07981475 452.65376931 114.06066489 452.64020292 C109.97213932 452.63368125 105.88388324 452.63352714 101.79538345 452.65090942 C98.04735895 452.66668002 94.29981673 452.66373643 90.55180371 452.64634116 C88.56518606 452.64183812 86.57855322 452.65689686 84.59199429 452.67282045 C74.11871361 452.592511 64.91931093 450.69040743 57.16436768 443.25263977 C53.63894215 439.21823561 50.92824612 434.81591427 48.32452393 430.14717102 C47.88366455 429.37373352 47.44280518 428.60029602 46.98858643 427.80342102 C35.12868881 404.53687028 32.53016014 373.8903596 32.01202393 348.14717102 C31.95594971 346.29092102 31.95594971 346.29092102 31.89874268 344.39717102 C32.32452393 341.14717102 32.32452393 341.14717102 34.12530518 338.73701477 C37.30598408 336.43766075 39.49501463 336.66848236 43.32452393 337.14717102 C46.50955962 338.90732233 47.15749365 339.64608018 48.32452393 343.14717102 C48.56557392 345.29311268 48.76338369 347.44400787 48.93780518 349.59638977 C49.04914795 350.9079303 49.16049072 352.21947083 49.27520752 353.570755 C49.33375916 354.26627472 49.39231079 354.96179443 49.45263672 355.6783905 C51.44328719 396.56502963 51.44328719 396.56502963 69.79327393 431.37763977 C75.41372572 435.3067519 79.531601 435.79554105 86.32452393 435.14717102 C91.88767738 433.92772778 97.0364407 431.94797206 101.32452393 428.14717102 C105.87676345 420.86852246 107.46749519 414.63000925 107.44952393 406.08467102 C107.4469458 404.76596008 107.44436768 403.44724915 107.44171143 402.08857727 C107.33549903 398.5163005 107.00497855 395.06683305 106.57452393 391.52217102 C106.19401385 387.59551841 106.11891174 386.52167893 108.07452393 382.95967102 C111.21893097 380.42667645 113.67274537 380.02215756 117.58239269 380.02412319 C118.45573134 380.02213214 119.32906998 380.02014109 120.22887343 380.01808971 C121.18898103 380.02100255 122.14908863 380.02391539 123.13829041 380.0269165 C124.66734212 380.02563487 124.66734212 380.02563487 126.22728378 380.02432734 C129.65904746 380.02267406 133.09076276 380.02819146 136.52252197 380.03364563 C138.97613524 380.03392756 141.4297486 380.03376965 143.88336182 380.03320312 C149.17408056 380.03297506 154.4647841 380.03582011 159.75549889 380.04144096 C167.40501498 380.04956253 175.0545251 380.05217186 182.70404503 380.05342896 C195.11440661 380.05561844 207.52476162 380.06227573 219.93511963 380.07173157 C231.99175992 380.08090836 244.04839843 380.08798789 256.1050415 380.09223938 C256.84801523 380.0925021 257.59098896 380.09276483 258.35647704 380.09303551 C262.08369887 380.09434053 265.81092071 380.09560425 269.53814256 380.09684741 C300.46694113 380.1072168 331.39573153 380.12490657 362.32452393 380.14717102 C362.18472894 379.11351221 362.04493395 378.0798534 361.90090275 377.0148716 C361.71695618 375.64724444 361.53305688 374.27961092 361.34919739 372.91197205 C361.25711455 372.23204225 361.16503171 371.55211245 361.07015848 370.85157871 C358.5869114 352.34200912 358.28299535 333.36205686 357.76983643 314.70576477 C357.74862291 313.94279398 357.7274094 313.17982319 357.70555305 312.39373207 C357.11267161 290.32563556 357.21065482 268.25158241 357.25585938 246.17750549 C357.26630996 240.51049692 357.27070224 234.84348344 357.2756958 229.1764679 C357.28624421 218.16668999 357.30318258 207.15693295 357.32452393 196.14717102 C356.36941422 196.83174881 355.4143045 197.5163266 354.43025208 198.22164917 C353.1613927 199.12988342 351.89250596 200.03807944 350.62359619 200.94624329 C349.99595619 201.39625954 349.36831619 201.84627579 348.7216568 202.30992889 C324.91296752 219.34142717 298.84612247 233.42266975 270.44952393 241.02217102 C269.28368774 241.33746765 269.28368774 241.33746765 268.09429932 241.65913391 C264.41363223 242.59124838 261.01363248 243.23812332 257.21124268 243.26826477 C246.22779223 243.62256962 240.68052952 248.97024868 233.35952759 256.62236023 C231.78024829 258.31513694 230.23511519 260.03357974 228.69683838 261.7636261 C228.20219086 262.30713715 227.70754333 262.85064819 227.19790649 263.41062927 C225.83345351 264.91933905 224.49878985 266.45483442 223.16607666 267.99165344 C219.22047156 270.98467238 217.18927713 270.68147546 212.32452393 270.14717102 C209.82452393 268.58467102 209.82452393 268.58467102 208.32452393 266.14717102 C207.63702393 262.89717102 207.63702393 262.89717102 208.32452393 259.14717102 C211.52105104 254.62794303 215.64216077 250.78412933 219.65655518 246.99873352 C220.39196533 246.30263977 221.12737549 245.60654602 221.8850708 244.88935852 C223.39290557 243.47175845 224.91397958 242.06811653 226.4475708 240.67842102 C227.17653564 239.97974915 227.90550049 239.28107727 228.65655518 238.56123352 C229.64232544 237.64785217 229.64232544 237.64785217 230.64801025 236.71601868 C232.42948637 233.98634171 232.8423951 232.15939239 233.42930603 228.98661804 C233.59980311 228.08167288 233.7703002 227.17672771 233.94596386 226.24435997 C234.07088868 225.55228762 234.1958135 224.86021526 234.32452393 224.14717102 C233.11773342 224.15408447 233.11773342 224.15408447 231.8865633 224.16113758 C212.31537331 224.27153415 192.74424542 224.35428735 173.17281055 224.40623188 C163.70821263 224.43201925 154.24382248 224.46717992 144.77935791 224.52436829 C136.53061733 224.57418699 128.2820272 224.60645816 120.03314036 224.61761349 C115.66488216 224.62413489 111.29705441 224.63947277 106.9289341 224.6758213 C102.81749203 224.70975678 98.70665777 224.7202291 94.59508896 224.71270943 C93.08618937 224.71408509 91.57726948 224.72403276 90.06849098 224.74319839 C88.00695628 224.76810124 85.94771201 224.76209018 83.88612366 224.7484436 C82.15637912 224.75535705 82.15637912 224.75535705 80.39169025 224.76241016 C76.34858247 223.95140812 74.85468868 222.3382495 72.32452393 219.14717102 C71.69952393 215.58467102 71.69952393 215.58467102 72.32452393 212.14717102 C74.98676905 209.40289251 76.65124833 208.25305567 80.45415974 207.65497971 C81.63682014 207.65866688 82.81948053 207.66235405 84.03797913 207.66615295 C85.03056521 207.66102641 85.03056521 207.66102641 86.04320353 207.65579629 C88.25306374 207.64922521 90.46170011 207.67117838 92.67144775 207.69306946 C94.2583717 207.69419811 95.84529773 207.69356372 97.43222046 207.69129944 C101.73568943 207.69015206 106.03871219 207.71366504 110.34207749 207.74159527 C114.84106066 207.76660503 119.34005412 207.76895059 123.83909607 207.7736969 C132.35656832 207.78612793 140.87383513 207.81895126 149.39121693 207.85909486 C159.08882189 207.9038086 168.78643667 207.92579861 178.48411906 207.9458766 C198.43103533 207.98768378 218.37776668 208.05803833 238.32452393 208.14717102 C238.48307861 207.43174133 238.6416333 206.71631165 238.80499268 205.97920227 C240.65683496 198.07050566 243.25766267 190.66279938 246.32452393 183.14717102 C245.45207661 183.15085819 244.57962929 183.15454536 243.68074417 183.15834427 C222.46587716 183.24662787 201.25104176 183.31284778 180.03602982 183.35441971 C169.77665872 183.37505723 159.51741014 183.40320055 149.25811768 183.44892883 C140.31757106 183.48876018 131.37711316 183.51459518 122.43648028 183.523525 C117.70112552 183.52874603 112.96602457 183.54104198 108.23075104 183.57009125 C103.77547264 183.59720191 99.32055309 183.60562487 94.86520004 183.59960175 C93.22850216 183.60070394 91.59179252 183.60868382 89.95516586 183.62399292 C87.72280049 183.6438537 85.49179532 183.63912576 83.25939941 183.62818909 C82.00944813 183.63187626 80.75949684 183.63556343 79.47166824 183.63936234 C76.32452393 183.14717102 76.32452393 183.14717102 73.91843796 181.33585739 C71.60848458 178.1639401 71.84613428 175.97428819 72.32452393 172.14717102 C74.08467523 168.96213532 74.82343309 168.3142013 78.32452393 167.14717102 C80.67026549 167.0428434 83.01889682 167.00065101 85.3669281 166.98895264 C86.08819659 166.98401466 86.80946508 166.97907668 87.55259019 166.97398907 C89.97550781 166.95860021 92.39839891 166.9502497 94.8213501 166.94184875 C96.55576308 166.93227132 98.29017373 166.92226132 100.02458191 166.91184998 C104.73911498 166.88478025 109.45365808 166.86378187 114.168226 166.84384799 C119.09300938 166.8220012 124.01776176 166.79460612 128.94252014 166.76779175 C138.27096907 166.71784718 147.59943519 166.67291489 156.92791778 166.62976938 C167.54691096 166.58041208 178.16587305 166.52548837 188.78483617 166.47008979 C210.63136979 166.35624267 232.4779331 166.24940956 254.32452393 166.14717102 C254.84401611 165.15717102 255.3635083 164.16717102 255.89874268 163.14717102 C259.49454324 156.32912595 263.10585408 149.60700922 267.32452393 143.14717102 C265.85351038 143.14497118 265.85351038 143.14497118 264.35277939 143.1427269 C240.50905034 143.10615888 216.66546205 143.04674483 192.82184982 142.96326828 C181.291326 142.92343077 169.7608709 142.89106224 158.23028564 142.87617493 C148.18216925 142.86318281 138.13420376 142.83628073 128.08617234 142.79255795 C122.76402539 142.76988817 117.44206494 142.75426364 112.11986542 142.75528717 C107.11294707 142.75603053 102.10644186 142.73821064 97.09963036 142.70600319 C95.25978923 142.69746743 93.41990195 142.69577904 91.58004951 142.70136833 C89.07175948 142.70797469 86.56479691 142.69016991 84.05664062 142.66615295 C83.32512087 142.67391337 82.59360111 142.68167379 81.83991408 142.68966937 C78.46477866 142.63228398 76.61791132 142.36418209 73.87251663 140.33348465 C71.60514791 137.13115745 71.77806016 134.97241741 72.32452393 131.14717102 C74.54315422 128.24000029 75.84397321 127.30735459 79.32452393 126.14717102 C81.99720485 126.05342941 84.64340974 126.01684993 87.31602478 126.0269165 C88.13938208 126.02606208 88.96273938 126.02520765 89.8110469 126.02432734 C92.57947715 126.0226757 95.34784727 126.02818877 98.11627197 126.03364563 C100.09698485 126.0339276 102.07769783 126.03376958 104.05841064 126.03320312 C109.44443397 126.03291552 114.83043515 126.03880636 120.21645331 126.04577708 C125.84189731 126.05201669 131.46734178 126.0526149 137.0927887 126.05380249 C147.74935826 126.05691401 158.4059176 126.065125 169.06248266 126.07515198 C181.19291256 126.08631867 193.32334295 126.09182497 205.45377672 126.09684741 C230.41069813 126.10730774 255.36761045 126.12490374 280.32452393 126.14717102 C280.61786621 125.5361554 280.9112085 124.92513977 281.21343994 124.29560852 C285.78693449 115.45211215 294.1470877 107.94479448 300.90411377 100.68525696 C302.34553982 99.12441404 303.76877723 97.54869992 305.18780518 95.96748352 C309.56979674 91.09491419 313.94364234 86.33266833 318.97686768 82.11592102 C320.93336401 80.47519864 322.85323456 78.80695173 324.76593018 77.11592102 C345.14321289 59.14717102 345.14321289 59.14717102 349.32452393 59.14717102 C344.12911923 37.2439356 344.12911923 37.2439356 330.75373268 20.04494119 C324.58197386 16.57061965 318.89550326 16.59550476 311.93536377 16.66615295 C310.69937911 16.66273525 309.46339445 16.65931756 308.18995571 16.65579629 C304.77581101 16.65036321 301.36259149 16.66279982 297.94855905 16.68290854 C294.2608677 16.70023108 290.57320339 16.69433345 286.88548279 16.69129944 C280.50182371 16.6892051 274.11832855 16.7017229 267.73471069 16.72425079 C258.50517334 16.75680073 249.27571501 16.76718086 240.04612648 16.77220276 C225.07068412 16.78095072 210.09532906 16.80755275 195.11993408 16.84541321 C180.57534216 16.88214622 166.03077398 16.91045166 151.48614502 16.92744446 C150.58916114 16.92849535 149.69217726 16.92954625 148.76801205 16.93062899 C144.26797182 16.93584925 139.76793143 16.94090405 135.26789093 16.9458766 C97.95337363 16.9873231 60.63895558 17.05775793 23.32452393 17.14717102 C23.74020126 17.83328964 24.1558786 18.51940826 24.58415222 19.22631836 C25.39910912 20.57679008 25.39910912 20.57679008 26.23052979 21.95454407 C26.76995712 22.84691269 27.30938446 23.73928131 27.86515808 24.65869141 C40.1813136 45.65993797 41.72414834 73.69503507 43.94952393 97.39717102 C44.07279053 98.69171204 44.19605713 99.98625305 44.32305908 101.32002258 C46.55766167 126.43534853 46.50069981 151.60444059 46.52471256 176.7961359 C46.52767486 179.75116976 46.53178421 182.7062 46.53621674 185.66123199 C46.54980204 194.93242216 46.55952155 204.2036038 46.56341863 213.47480321 C46.56792848 224.13775333 46.5856478 234.80057713 46.61441922 245.46348882 C46.63599721 253.74931958 46.64612022 262.03511458 46.64745975 270.32097316 C46.64850719 275.25488245 46.65440681 280.18867148 46.67227936 285.12255096 C46.68870066 289.7422722 46.69094476 294.36178167 46.68214035 298.98152161 C46.68136776 300.67627784 46.68574174 302.37104527 46.6955986 304.06577301 C46.7082489 306.37548898 46.70248067 308.6844459 46.6920166 310.99415588 C46.69421644 312.9329405 46.69421644 312.9329405 46.69646072 314.91089249 C46.30107814 318.3511764 45.7609335 319.73750948 43.32452393 322.14717102 C40.27586165 323.27036239 38.75590401 323.27758825 35.63702393 322.33467102 C33.16795667 321.06677162 31.67529106 320.11440716 30.70857143 317.44868946 C30.19725856 314.38449565 30.18951261 311.43041328 30.17976379 308.32287598 C30.17623695 307.63643723 30.1727101 306.94999849 30.16907638 306.24275857 C30.15840066 303.9416021 30.15470979 301.64048707 30.15093994 299.33930969 C30.14463189 297.6877322 30.13786581 296.03615641 30.13067627 294.38458252 C30.11599598 290.82046043 30.10427339 287.25634493 30.09472847 283.69220543 C30.07919768 278.01450994 30.05523313 272.33686898 30.02983093 266.65921021 C29.95888649 250.50964344 29.89958104 234.36004221 29.84771729 218.21040344 C29.81901178 209.29545893 29.78340337 200.38056553 29.74106354 191.46567518 C29.7190847 186.76793996 29.70040325 182.07025045 29.6906147 177.37247276 C29.64925826 158.26794352 29.38706425 139.21076836 28.40240479 120.12886047 C28.36216222 119.34017527 28.32191965 118.55149007 28.28045762 117.73890531 C27.48430949 102.48977034 26.05579343 87.31746344 24.32452393 72.14717102 C23.49624588 72.15383286 22.66796783 72.16049469 21.81459045 72.1673584 C14.00190684 72.22751493 6.18930123 72.27316849 -1.62356091 72.30260754 C-5.64007144 72.31825137 -9.6563903 72.33946594 -13.67279053 72.37348938 C-17.55017794 72.40612899 -21.42738119 72.42403369 -25.3048954 72.43180275 C-26.7828594 72.43733803 -28.26081353 72.44814721 -29.73869896 72.46436119 C-31.8118389 72.48619743 -33.88422172 72.48913548 -35.9574585 72.48774719 C-37.72617561 72.49773994 -37.72617561 72.49773994 -39.53062439 72.50793457 C-43.01198183 72.10856856 -44.87520238 71.21274482 -47.67547607 69.14717102 C-53.8856531 60.14241433 -51.88322105 41.06751254 -50.02703857 30.81123352 C-47.18082785 19.79128945 -41.81763427 11.73515241 -32.22625732 5.54951477 C-21.99361877 -0.0760859 -11.40038544 -0.00162298 0 0 Z M-30.23797607 25.75654602 C-36.64005859 36.40348759 -34.67547607 42.58020569 -34.67547607 56.14717102 C-16.19547607 56.14717102 2.28452393 56.14717102 21.32452393 56.14717102 C17.45561941 40.67155297 13.9247773 26.66405534 0.32452393 17.14717102 C-10.79658026 13.44013629 -22.79405922 16.89828497 -30.23797607 25.75654602 Z M124.32452393 396.14717102 C123.99452393 402.41717102 123.66452393 408.68717102 123.32452393 415.14717102 C122.1252736 421.20052981 120.76141769 426.24427919 118.2612915 431.82441711 C117.89917068 432.63413971 117.53704987 433.4438623 117.16395569 434.27812195 C116.88694321 434.89490814 116.60993073 435.51169434 116.32452393 436.14717102 C154.10069928 436.23877251 191.87685786 436.30923308 229.65312185 436.35143234 C234.11528535 436.35643503 238.57744864 436.36161233 243.03961182 436.36689758 C243.9279296 436.36794682 244.81624739 436.36899607 245.7314839 436.3700771 C260.10564157 436.38747141 274.4797351 436.41900372 288.85385475 436.4557822 C303.60847578 436.49321875 318.36306327 436.51541261 333.11772984 436.523525 C342.218527 436.52900715 351.31914284 436.54630763 360.41988417 436.57883689 C366.66481167 436.6000183 372.90964576 436.60636287 379.15460656 436.60117653 C382.75499232 436.59862037 386.35506175 436.60247487 389.95539093 436.62399292 C393.86654002 436.64719682 397.7772816 436.63908966 401.68849182 436.62818909 C403.37968383 436.64566614 403.37968383 436.64566614 405.10504133 436.66349626 C413.0955417 436.60345787 421.22659582 435.60587873 427.53688318 430.27990937 C436.98510636 420.65939798 435.32452393 409.25626122 435.32452393 396.14717102 C332.69452393 396.14717102 230.06452393 396.14717102 124.32452393 396.14717102 Z " fill="#000000" transform="translate(50.67547607421875,29.852828979492188)"/>
<path d="M0 0 C1.07680527 -0.00700928 2.15361053 -0.01401855 3.26304626 -0.02124023 C6.82601635 -0.0388598 10.38819357 -0.02718275 13.95117188 -0.01367188 C16.42452141 -0.01636563 18.89786992 -0.02024708 21.37121582 -0.02526855 C26.55633623 -0.031169 31.74118113 -0.02258265 36.92626953 -0.00390625 C43.57809143 0.01888337 50.22899875 0.00576344 56.88083649 -0.01819611 C61.98859536 -0.03263902 67.09620078 -0.02805491 72.20396423 -0.01768494 C74.65681535 -0.01501351 77.10968032 -0.01830196 79.56251526 -0.02760315 C82.98866772 -0.03774345 86.41376968 -0.02230144 89.83984375 0 C90.85711044 -0.00809692 91.87437714 -0.01619385 92.92247009 -0.02453613 C99.75343827 0.05798439 99.75343827 0.05798439 103.04992676 2.33117676 C105.07673288 5.56579534 104.95315519 7.78494491 104.41992188 11.51757812 C102.20129158 14.42474885 100.90047259 15.35739455 97.41992188 16.51757812 C95.98674247 16.61212629 94.54961087 16.65242595 93.11332703 16.65802002 C91.79491821 16.66658524 91.79491821 16.66658524 90.44987488 16.67532349 C89.00745171 16.67700027 89.00745171 16.67700027 87.53588867 16.67871094 C86.01350082 16.68615829 86.01350082 16.68615829 84.46035767 16.6937561 C81.0966118 16.70838309 77.73291309 16.71518068 74.36914062 16.72070312 C72.03367613 16.72645418 69.69821165 16.73221192 67.36274719 16.73797607 C62.46261373 16.74848762 57.56249667 16.75432927 52.66235352 16.7578125 C46.38419859 16.7632972 40.10626054 16.78732427 33.82817364 16.81578445 C29.00260281 16.8344104 24.17708422 16.83961642 19.35148048 16.84114838 C17.03703437 16.84417557 14.72258919 16.85220632 12.40817833 16.86533356 C9.16933073 16.88239257 5.931013 16.88051391 2.69213867 16.87402344 C1.73659592 16.88323822 0.78105316 16.892453 -0.20344543 16.90194702 C-5.40156614 16.86932456 -9.10516161 16.48063867 -13.58007812 13.51757812 C-15.12594688 10.42584061 -14.87367334 7.9232826 -14.58007812 4.51757812 C-11.17296365 -0.98641061 -5.79309566 -0.04611009 0 0 Z " fill="#000000" transform="translate(137.580078125,111.482421875)"/>
<path d="M0 0 C1.24809448 -0.01260864 2.49618896 -0.02521729 3.78210449 -0.03820801 C5.14054937 -0.03104816 6.49898909 -0.02284416 7.85742188 -0.01367188 C9.25460073 -0.01636757 10.65177775 -0.02025064 12.0489502 -0.02526855 C14.97438452 -0.03116013 17.89932966 -0.02261251 20.82470703 -0.00390625 C24.57098579 0.01888418 28.31611832 0.00575912 32.06235504 -0.01819611 C34.9466411 -0.03266392 37.83065626 -0.02804383 40.71495056 -0.01768494 C42.09602495 -0.01502031 43.47712408 -0.01827818 44.85816956 -0.02760315 C46.78955604 -0.03778276 48.72102898 -0.01951075 50.65234375 0 C51.75058472 0.00318237 52.84882568 0.00636475 53.98034668 0.00964355 C57.50739818 0.63916619 58.69522428 1.67921995 60.82617188 4.51757812 C61.2953587 8.27107274 61.35753569 10.55606266 59.51367188 13.89257812 C56.42020349 16.87147361 53.22780284 16.65157632 49.14892578 16.67871094 C47.98406647 16.68831848 46.81920715 16.69792603 45.61904907 16.70782471 C43.7299733 16.71419952 43.7299733 16.71419952 41.80273438 16.72070312 C39.86253922 16.72925323 39.86253922 16.72925323 37.88314819 16.73797607 C35.14442553 16.74847485 32.40573213 16.75432488 29.66699219 16.7578125 C26.16426664 16.7632955 22.66193015 16.78732354 19.15932655 16.81578445 C15.81130332 16.8389307 12.46333347 16.84086163 9.11523438 16.84570312 C7.23223129 16.86422333 7.23223129 16.86422333 5.31118774 16.88311768 C4.14002411 16.88011658 2.96886047 16.87711548 1.76220703 16.87402344 C0.73423004 16.87766907 -0.29374695 16.8813147 -1.35287476 16.8850708 C-4.63531863 16.4574586 -6.51666092 15.46086129 -9.17382812 13.51757812 C-10.71969688 10.42584061 -10.46742334 7.9232826 -10.17382812 4.51757812 C-7.16657615 0.47847222 -4.9217525 0.01426176 0 0 Z " fill="#000000" transform="translate(322.173828125,363.482421875)"/>
</svg>
