<?xml version="1.0" encoding="UTF-8"?>
<svg version="1.1" xmlns="http://www.w3.org/2000/svg" width="512" height="512">
<path d="M0 0 C6.5279012 5.0732157 18.00320849 14.33370563 19.23046875 22.98828125 C19.24772357 26.39898331 19.17127366 29.206852 17.9921875 32.4296875 C15.0617272 34.47212953 12.64748642 34.48775894 9.12890625 34.30078125 C4.65761406 33.41922986 2.81510855 30.03506187 0.203125 26.58984375 C-8.92823527 14.78455926 -20.09768408 6.4355916 -35.0703125 3.8671875 C-35.80378906 3.733125 -36.53726563 3.5990625 -37.29296875 3.4609375 C-51.85748567 1.37690906 -66.39107161 5.72309072 -78.4375 13.83984375 C-89.18200052 22.11342798 -96.78524343 34.4173108 -99.0703125 47.8671875 C-100.79749465 66.11987791 -97.1658491 81.2656472 -85.3828125 95.5546875 C-77.26488073 104.28995249 -65.04492094 111.0199009 -52.98657227 112.04418945 C-34.14118689 112.56324923 -19.3685534 109.31837957 -5.171875 96.125 C4.65046845 85.57237079 8.09492277 73.25555206 9.80371094 59.328125 C9.90844727 58.53664063 10.01318359 57.74515625 10.12109375 56.9296875 C10.20560791 56.21941406 10.29012207 55.50914062 10.37719727 54.77734375 C11.06446335 52.40121919 12.00778553 51.39589974 13.9296875 49.8671875 C16.3046875 49.46875 16.3046875 49.46875 18.9296875 49.4921875 C20.2290625 49.48058594 20.2290625 49.48058594 21.5546875 49.46875 C23.9296875 49.8671875 23.9296875 49.8671875 25.71484375 50.90234375 C27.62251909 53.98774791 27.41679657 57.1613195 27.3671875 60.6796875 C27.35816406 61.43942871 27.34914063 62.19916992 27.33984375 62.98193359 C26.7630108 82.1335886 16.88396767 98.38950207 3.9296875 111.8671875 C2.9396875 112.3621875 2.9396875 112.3621875 1.9296875 112.8671875 C2.61933594 112.94195312 3.30898438 113.01671875 4.01953125 113.09375 C12.11178162 114.22599902 18.42281816 116.39941953 23.59765625 122.9921875 C27.63979338 129.87627539 27.99959864 137.06148794 26.9296875 144.8671875 C25.94921875 147.36328125 25.94921875 147.36328125 24.8046875 149.4296875 C22.56165474 152.6352651 22.56165474 152.6352651 23.5546875 155.5546875 C24.0084375 156.3178125 24.4621875 157.0809375 24.9296875 157.8671875 C27.84212602 163.94904441 27.58726975 170.26147488 26.9296875 176.8671875 C25.9609375 179.3828125 25.9609375 179.3828125 24.8046875 181.4296875 C22.56165474 184.6352651 22.56165474 184.6352651 23.5546875 187.5546875 C24.0084375 188.3178125 24.4621875 189.0809375 24.9296875 189.8671875 C27.84212602 195.94904441 27.58726975 202.26147488 26.9296875 208.8671875 C25.9609375 211.3828125 25.9609375 211.3828125 24.8046875 213.4296875 C22.56165474 216.6352651 22.56165474 216.6352651 23.5546875 219.5546875 C24.0084375 220.3178125 24.4621875 221.0809375 24.9296875 221.8671875 C27.84212602 227.94904441 27.58726975 234.26147488 26.9296875 240.8671875 C25.9609375 243.3828125 25.9609375 243.3828125 24.8046875 245.4296875 C22.56165474 248.6352651 22.56165474 248.6352651 23.5546875 251.5546875 C24.0084375 252.3178125 24.4621875 253.0809375 24.9296875 253.8671875 C26.86805946 257.88490392 27.17292018 261.11127305 27.1171875 265.5546875 C27.10751953 267.26205078 27.10751953 267.26205078 27.09765625 269.00390625 C26.9296875 271.8671875 26.9296875 271.8671875 25.9296875 273.8671875 C26.90550781 273.83238281 27.88132812 273.79757812 28.88671875 273.76171875 C30.15902344 273.73464844 31.43132812 273.70757812 32.7421875 273.6796875 C34.00675781 273.64488281 35.27132812 273.61007812 36.57421875 273.57421875 C39.9296875 273.8671875 39.9296875 273.8671875 41.85546875 275.06640625 C43.27295683 277.44263172 43.32930248 279.11030957 43.3046875 281.8671875 C43.31242188 282.7334375 43.32015625 283.5996875 43.328125 284.4921875 C42.83446975 287.43475995 42.3366027 288.1246403 39.9296875 289.8671875 C36.91397095 290.24471092 36.91397095 290.24471092 33.13525391 290.24813843 C32.44060343 290.2528184 31.74595295 290.25749837 31.03025246 290.26232016 C28.69705879 290.27430898 26.36444828 290.26479816 24.03125 290.25537109 C22.360816 290.25943508 20.69038469 290.26477599 19.0199585 290.27130127 C14.47869044 290.28500126 9.93762639 290.27966519 5.39635468 290.27016401 C0.64915914 290.26258129 -4.09801864 290.26960916 -8.84521484 290.27432251 C-16.81806584 290.27978411 -24.79083352 290.27257784 -32.76367188 290.25830078 C-41.9880993 290.24197349 -51.21232781 290.24726171 -60.43675041 290.26378 C-68.34933617 290.27738334 -76.26186197 290.27932017 -84.17445564 290.27146399 C-88.90350735 290.26678113 -93.63246549 290.26617942 -98.36151123 290.27607346 C-102.80697718 290.28472412 -107.25218609 290.27875615 -111.69762421 290.26139069 C-113.33149539 290.25741565 -114.96538811 290.25857721 -116.59925079 290.26517868 C-118.82508795 290.27334445 -121.05009503 290.26313389 -123.27587891 290.24813843 C-124.52285553 290.24700735 -125.76983215 290.24587627 -127.05459595 290.24471092 C-130.0703125 289.8671875 -130.0703125 289.8671875 -131.97006226 288.49181557 C-133.50071575 286.23165463 -133.46950031 284.57622234 -133.4453125 281.8671875 C-133.45304687 281.0009375 -133.46078125 280.1346875 -133.46875 279.2421875 C-133.0703125 276.8671875 -133.0703125 276.8671875 -131.99609375 275.06640625 C-129.00742157 273.20530613 -126.35262323 273.58418812 -122.8828125 273.6796875 C-121.61050781 273.70675781 -120.33820313 273.73382813 -119.02734375 273.76171875 C-117.56361328 273.81392578 -117.56361328 273.81392578 -116.0703125 273.8671875 C-116.4003125 273.2071875 -116.7303125 272.5471875 -117.0703125 271.8671875 C-117.60089617 265.72633384 -118.06756714 259.85478657 -114.9453125 254.3671875 C-112.70325334 251.10638691 -112.70325334 251.10638691 -113.6953125 248.1796875 C-114.3759375 247.035 -114.3759375 247.035 -115.0703125 245.8671875 C-117.98275102 239.78533059 -117.72789475 233.47290012 -117.0703125 226.8671875 C-116.1015625 224.3515625 -116.1015625 224.3515625 -114.9453125 222.3046875 C-112.70227974 219.0991099 -112.70227974 219.0991099 -113.6953125 216.1796875 C-114.3759375 215.035 -114.3759375 215.035 -115.0703125 213.8671875 C-117.98275102 207.78533059 -117.72789475 201.47290012 -117.0703125 194.8671875 C-116.1015625 192.3515625 -116.1015625 192.3515625 -114.9453125 190.3046875 C-112.70227974 187.0991099 -112.70227974 187.0991099 -113.6953125 184.1796875 C-114.3759375 183.035 -114.3759375 183.035 -115.0703125 181.8671875 C-117.98275102 175.78533059 -117.72789475 169.47290012 -117.0703125 162.8671875 C-116.1015625 160.3515625 -116.1015625 160.3515625 -114.9453125 158.3046875 C-112.70227974 155.0991099 -112.70227974 155.0991099 -113.6953125 152.1796875 C-114.3759375 151.035 -114.3759375 151.035 -115.0703125 149.8671875 C-118.30070947 143.0726256 -118.24357253 135.13306983 -116.265625 127.94140625 C-113.46129938 121.56881804 -109.41042348 117.70930622 -103.0703125 114.8671875 C-99.75700993 113.91657423 -96.49043341 113.28131488 -93.0703125 112.8671875 C-94.524375 111.536875 -94.524375 111.536875 -96.0078125 110.1796875 C-111.29711974 94.7665802 -117.49785737 76.37846554 -117.43603516 55.04003906 C-117.08184019 33.76884395 -107.91699166 16.91895806 -92.85546875 2.2890625 C-66.4724904 -20.65265781 -27.75804434 -19.28230561 0 0 Z M-100.0703125 133.8671875 C-100.64464365 139.11507088 -100.64464365 139.11507088 -98.8203125 143.8046875 C-95.45950074 145.84518035 -92.01957462 146.00402516 -88.15625 146.11328125 C-87.23070312 146.14615234 -86.30515625 146.17902344 -85.3515625 146.21289062 C-83.40637662 146.27433131 -81.46105438 146.33159056 -79.515625 146.38476562 C-78.59265625 146.41892578 -77.6696875 146.45308594 -76.71875 146.48828125 C-75.87489746 146.5133374 -75.03104492 146.53839355 -74.16162109 146.56420898 C-72.0703125 146.8671875 -72.0703125 146.8671875 -70.0703125 148.8671875 C-69.8046875 151.1796875 -69.8046875 151.1796875 -69.8203125 153.8671875 C-69.81515625 154.7540625 -69.81 155.6409375 -69.8046875 156.5546875 C-70.0703125 158.8671875 -70.0703125 158.8671875 -72.0703125 160.8671875 C-74.14575195 161.15429688 -74.14575195 161.15429688 -76.68359375 161.2109375 C-77.60205078 161.24058594 -78.52050781 161.27023437 -79.46679688 161.30078125 C-80.91022461 161.33365234 -80.91022461 161.33365234 -82.3828125 161.3671875 C-92.0364973 161.22876224 -92.0364973 161.22876224 -100.0703125 165.8671875 C-100.64464365 171.11507088 -100.64464365 171.11507088 -98.8203125 175.8046875 C-95.69739217 177.70074627 -92.57704664 177.99225719 -88.97840881 178.00090027 C-88.17237717 178.00516525 -87.36634552 178.00943024 -86.53588867 178.01382446 C-85.6604541 178.01337128 -84.78501953 178.01291809 -83.88305664 178.01245117 C-82.95416122 178.01580978 -82.02526581 178.0191684 -81.06822205 178.02262878 C-77.99729068 178.03212857 -74.92641389 178.03408133 -71.85546875 178.03515625 C-69.72081988 178.03836921 -67.58617123 178.04173332 -65.45152283 178.04524231 C-60.97687265 178.05123093 -56.50224179 178.05308245 -52.02758789 178.05249023 C-46.29309354 178.05238856 -40.55872287 178.0660474 -34.82425785 178.08326244 C-30.41563854 178.09437832 -26.00704918 178.09640958 -21.59841728 178.09588051 C-19.48411062 178.09706099 -17.3698032 178.10148658 -15.25551033 178.10921288 C-12.29923953 178.11900547 -9.34323799 178.11613767 -6.38696289 178.11010742 C-5.07684738 178.11853668 -5.07684738 178.11853668 -3.74026489 178.12713623 C1.68704977 178.09899162 5.9039778 177.8928972 9.9296875 173.8671875 C10.50401865 168.61930412 10.50401865 168.61930412 8.6796875 163.9296875 C5.18431631 161.80749785 1.65682431 161.73481507 -2.35791016 161.69360352 C-3.4122525 161.68011368 -4.46659485 161.66662384 -5.55288696 161.65272522 C-7.25147354 161.63706764 -7.25147354 161.63706764 -8.984375 161.62109375 C-11.3776081 161.58817566 -13.77083718 161.55496369 -16.1640625 161.52148438 C-19.94105437 161.473927 -23.71802759 161.42945253 -27.49511719 161.39038086 C-31.13753725 161.35083052 -34.77963201 161.29926737 -38.421875 161.24609375 C-40.12653427 161.23347252 -40.12653427 161.23347252 -41.8656311 161.22059631 C-43.43768814 161.19563332 -43.43768814 161.19563332 -45.04150391 161.17016602 C-45.96653717 161.15985855 -46.89157043 161.14955109 -47.84463501 161.13893127 C-50.0703125 160.8671875 -50.0703125 160.8671875 -52.0703125 158.8671875 C-52.3359375 156.5546875 -52.3359375 156.5546875 -52.3203125 153.8671875 C-52.32804687 152.536875 -52.32804687 152.536875 -52.3359375 151.1796875 C-52.0703125 148.8671875 -52.0703125 148.8671875 -50.0703125 146.8671875 C-47.85136414 146.60217285 -47.85136414 146.60217285 -45.05737305 146.58007812 C-44.01256271 146.56666382 -42.96775238 146.55324951 -41.89128113 146.53942871 C-40.75797867 146.53415161 -39.62467621 146.52887451 -38.45703125 146.5234375 C-36.71447807 146.5015033 -36.71447807 146.5015033 -34.9367218 146.47912598 C-31.21045383 146.43248765 -27.48423996 146.39837501 -23.7578125 146.3671875 C-18.86568717 146.32606923 -13.97393898 146.27236211 -9.08203125 146.2109375 C-7.3911866 146.20302185 -7.3911866 146.20302185 -5.66618347 146.19494629 C-4.61191666 146.18153198 -3.55764984 146.16811768 -2.47143555 146.15429688 C-1.08482979 146.14335999 -1.08482979 146.14335999 0.32978821 146.13220215 C4.32526268 145.72493281 7.08253631 144.71433869 9.9296875 141.8671875 C10.50401865 136.61930412 10.50401865 136.61930412 8.6796875 131.9296875 C5.55676717 130.03362873 2.43642164 129.74211781 -1.16221619 129.73347473 C-1.96824783 129.72920975 -2.77427948 129.72494476 -3.60473633 129.72055054 C-4.4801709 129.72100372 -5.35560547 129.72145691 -6.25756836 129.72192383 C-7.18646378 129.71856522 -8.11535919 129.7152066 -9.07240295 129.71174622 C-12.14333432 129.70224643 -15.21421111 129.70029367 -18.28515625 129.69921875 C-20.41980512 129.69600579 -22.55445377 129.69264168 -24.68910217 129.68913269 C-29.16375235 129.68314407 -33.63838321 129.68129255 -38.11303711 129.68188477 C-43.84753146 129.68198644 -49.58190213 129.6683276 -55.31636715 129.65111256 C-59.72498646 129.63999668 -64.13357582 129.63796542 -68.54220772 129.63849449 C-70.65651438 129.63731401 -72.7708218 129.63288842 -74.88511467 129.62516212 C-77.84138547 129.61536953 -80.79738701 129.61823733 -83.75366211 129.62426758 C-85.06377762 129.61583832 -85.06377762 129.61583832 -86.40036011 129.60723877 C-91.82767477 129.63538338 -96.0446028 129.8414778 -100.0703125 133.8671875 Z M-100.0703125 197.8671875 C-100.64464365 203.11507088 -100.64464365 203.11507088 -98.8203125 207.8046875 C-95.32494131 209.92687715 -91.79744931 209.99955993 -87.78271484 210.04077148 C-86.7283725 210.05426132 -85.67403015 210.06775116 -84.58773804 210.08164978 C-82.88915146 210.09730736 -82.88915146 210.09730736 -81.15625 210.11328125 C-78.7630169 210.14619934 -76.36978782 210.17941131 -73.9765625 210.21289062 C-70.19957063 210.260448 -66.42259741 210.30492247 -62.64550781 210.34399414 C-59.00308775 210.38354448 -55.36099299 210.43510763 -51.71875 210.48828125 C-50.01409073 210.50090248 -50.01409073 210.50090248 -48.2749939 210.51377869 C-46.70293686 210.53874168 -46.70293686 210.53874168 -45.09912109 210.56420898 C-44.17408783 210.57451645 -43.24905457 210.58482391 -42.29598999 210.59544373 C-40.0703125 210.8671875 -40.0703125 210.8671875 -38.0703125 212.8671875 C-37.8046875 215.1796875 -37.8046875 215.1796875 -37.8203125 217.8671875 C-37.81257813 219.1975 -37.81257813 219.1975 -37.8046875 220.5546875 C-38.0703125 222.8671875 -38.0703125 222.8671875 -40.0703125 224.8671875 C-42.28926086 225.13220215 -42.28926086 225.13220215 -45.08325195 225.15429688 C-46.12806229 225.16771118 -47.17287262 225.18112549 -48.24934387 225.19494629 C-49.38264633 225.20022339 -50.51594879 225.20550049 -51.68359375 225.2109375 C-53.42614693 225.2328717 -53.42614693 225.2328717 -55.2039032 225.25524902 C-58.93017117 225.30188735 -62.65638504 225.33599999 -66.3828125 225.3671875 C-71.27493783 225.40830577 -76.16668602 225.46201289 -81.05859375 225.5234375 C-82.7494384 225.53135315 -82.7494384 225.53135315 -84.47444153 225.53942871 C-85.52870834 225.55284302 -86.58297516 225.56625732 -87.66918945 225.58007812 C-89.05579521 225.59101501 -89.05579521 225.59101501 -90.47041321 225.60217285 C-94.46588768 226.00944219 -97.22316131 227.02003631 -100.0703125 229.8671875 C-100.64464365 235.11507088 -100.64464365 235.11507088 -98.8203125 239.8046875 C-95.69739217 241.70074627 -92.57704664 241.99225719 -88.97840881 242.00090027 C-88.17237717 242.00516525 -87.36634552 242.00943024 -86.53588867 242.01382446 C-85.6604541 242.01337128 -84.78501953 242.01291809 -83.88305664 242.01245117 C-82.95416122 242.01580978 -82.02526581 242.0191684 -81.06822205 242.02262878 C-77.99729068 242.03212857 -74.92641389 242.03408133 -71.85546875 242.03515625 C-69.72081988 242.03836921 -67.58617123 242.04173332 -65.45152283 242.04524231 C-60.97687265 242.05123093 -56.50224179 242.05308245 -52.02758789 242.05249023 C-46.29309354 242.05238856 -40.55872287 242.0660474 -34.82425785 242.08326244 C-30.41563854 242.09437832 -26.00704918 242.09640958 -21.59841728 242.09588051 C-19.48411062 242.09706099 -17.3698032 242.10148658 -15.25551033 242.10921288 C-12.29923953 242.11900547 -9.34323799 242.11613767 -6.38696289 242.11010742 C-5.07684738 242.11853668 -5.07684738 242.11853668 -3.74026489 242.12713623 C1.68704977 242.09899162 5.9039778 241.8928972 9.9296875 237.8671875 C10.50401865 232.61930412 10.50401865 232.61930412 8.6796875 227.9296875 C5.31887574 225.88919465 1.87894962 225.73034984 -1.984375 225.62109375 C-2.90992188 225.58822266 -3.83546875 225.55535156 -4.7890625 225.52148438 C-6.73424838 225.46004369 -8.67957062 225.40278444 -10.625 225.34960938 C-11.54796875 225.31544922 -12.4709375 225.28128906 -13.421875 225.24609375 C-14.26572754 225.2210376 -15.10958008 225.19598145 -15.97900391 225.17016602 C-18.0703125 224.8671875 -18.0703125 224.8671875 -20.0703125 222.8671875 C-20.3359375 220.5546875 -20.3359375 220.5546875 -20.3203125 217.8671875 C-20.32804687 216.536875 -20.32804687 216.536875 -20.3359375 215.1796875 C-20.0703125 212.8671875 -20.0703125 212.8671875 -18.0703125 210.8671875 C-15.99487305 210.58007812 -15.99487305 210.58007812 -13.45703125 210.5234375 C-12.53857422 210.49378906 -11.62011719 210.46414063 -10.67382812 210.43359375 C-9.23040039 210.40072266 -9.23040039 210.40072266 -7.7578125 210.3671875 C1.8958723 210.50561276 1.8958723 210.50561276 9.9296875 205.8671875 C10.50401865 200.61930412 10.50401865 200.61930412 8.6796875 195.9296875 C5.55676717 194.03362873 2.43642164 193.74211781 -1.16221619 193.73347473 C-1.96824783 193.72920975 -2.77427948 193.72494476 -3.60473633 193.72055054 C-4.4801709 193.72100372 -5.35560547 193.72145691 -6.25756836 193.72192383 C-7.18646378 193.71856522 -8.11535919 193.7152066 -9.07240295 193.71174622 C-12.14333432 193.70224643 -15.21421111 193.70029367 -18.28515625 193.69921875 C-20.41980512 193.69600579 -22.55445377 193.69264168 -24.68910217 193.68913269 C-29.16375235 193.68314407 -33.63838321 193.68129255 -38.11303711 193.68188477 C-43.84753146 193.68198644 -49.58190213 193.6683276 -55.31636715 193.65111256 C-59.72498646 193.63999668 -64.13357582 193.63796542 -68.54220772 193.63849449 C-70.65651438 193.63731401 -72.7708218 193.63288842 -74.88511467 193.62516212 C-77.84138547 193.61536953 -80.79738701 193.61823733 -83.75366211 193.62426758 C-85.06377762 193.61583832 -85.06377762 193.61583832 -86.40036011 193.60723877 C-91.82767477 193.63538338 -96.0446028 193.8414778 -100.0703125 197.8671875 Z M-100.0703125 261.8671875 C-100.64464365 267.11507088 -100.64464365 267.11507088 -98.8203125 271.8046875 C-95.69739217 273.70074627 -92.57704664 273.99225719 -88.97840881 274.00090027 C-88.17237717 274.00516525 -87.36634552 274.00943024 -86.53588867 274.01382446 C-85.6604541 274.01337128 -84.78501953 274.01291809 -83.88305664 274.01245117 C-82.95416122 274.01580978 -82.02526581 274.0191684 -81.06822205 274.02262878 C-77.99729068 274.03212857 -74.92641389 274.03408133 -71.85546875 274.03515625 C-69.72081988 274.03836921 -67.58617123 274.04173332 -65.45152283 274.04524231 C-60.97687265 274.05123093 -56.50224179 274.05308245 -52.02758789 274.05249023 C-46.29309354 274.05238856 -40.55872287 274.0660474 -34.82425785 274.08326244 C-30.41563854 274.09437832 -26.00704918 274.09640958 -21.59841728 274.09588051 C-19.48411062 274.09706099 -17.3698032 274.10148658 -15.25551033 274.10921288 C-12.29923953 274.11900547 -9.34323799 274.11613767 -6.38696289 274.11010742 C-5.07684738 274.11853668 -5.07684738 274.11853668 -3.74026489 274.12713623 C1.68704977 274.09899162 5.9039778 273.8928972 9.9296875 269.8671875 C10.50401865 264.61930412 10.50401865 264.61930412 8.6796875 259.9296875 C5.55676717 258.03362873 2.43642164 257.74211781 -1.16221619 257.73347473 C-1.96824783 257.72920975 -2.77427948 257.72494476 -3.60473633 257.72055054 C-4.4801709 257.72100372 -5.35560547 257.72145691 -6.25756836 257.72192383 C-7.18646378 257.71856522 -8.11535919 257.7152066 -9.07240295 257.71174622 C-12.14333432 257.70224643 -15.21421111 257.70029367 -18.28515625 257.69921875 C-20.41980512 257.69600579 -22.55445377 257.69264168 -24.68910217 257.68913269 C-29.16375235 257.68314407 -33.63838321 257.68129255 -38.11303711 257.68188477 C-43.84753146 257.68198644 -49.58190213 257.6683276 -55.31636715 257.65111256 C-59.72498646 257.63999668 -64.13357582 257.63796542 -68.54220772 257.63849449 C-70.65651438 257.63731401 -72.7708218 257.63288842 -74.88511467 257.62516212 C-77.84138547 257.61536953 -80.79738701 257.61823733 -83.75366211 257.62426758 C-85.06377762 257.61583832 -85.06377762 257.61583832 -86.40036011 257.60723877 C-91.82767477 257.63538338 -96.0446028 257.8414778 -100.0703125 261.8671875 Z " fill="#FFFFFF" transform="translate(461.0703125,214.1328125)"/>
<path d="M0 0 C1.16874161 -0.01591187 2.33748322 -0.03182373 3.54164124 -0.04821777 C5.43999977 -0.0485199 5.43999977 -0.0485199 7.37670898 -0.04882812 C8.6805101 -0.05644165 9.98431122 -0.06405518 11.32762146 -0.07189941 C14.09252502 -0.08535528 16.85714316 -0.08691098 19.62207031 -0.08105469 C23.14038212 -0.0751937 26.65729707 -0.10559094 30.1753397 -0.14617157 C33.55500251 -0.17850173 36.93439259 -0.17393202 40.31420898 -0.17382812 C41.56561172 -0.19022339 42.81701447 -0.20661865 44.1063385 -0.22351074 C51.91465189 -0.16249359 57.78071592 0.98000257 64.31030273 5.41992188 C66.56420898 7.77148438 66.56420898 7.77148438 67.87280273 10.04492188 C68.3278418 10.8003125 68.78288086 11.55570313 69.25170898 12.33398438 C70.91273228 15.60699707 71.44201353 18.23816735 71.48730469 21.85620117 C71.50655754 23.19856087 71.50655754 23.19856087 71.52619934 24.56803894 C71.53358627 25.5336525 71.54097321 26.49926605 71.54858398 27.49414062 C71.55665573 28.49194046 71.56472748 29.4897403 71.57304382 30.51777649 C71.58687882 32.63186916 71.59760359 34.74598411 71.60546875 36.86010742 C71.62264434 40.07774818 71.66653196 43.29435138 71.71069336 46.51171875 C71.72082396 48.56835184 71.72933892 50.62499365 71.73608398 52.68164062 C71.75359207 53.63713303 71.77110016 54.59262543 71.78913879 55.57707214 C71.76572847 62.86421129 70.17754108 68.21147666 65.27514648 73.69726562 C64.60612305 74.24511719 63.93709961 74.79296875 63.24780273 75.35742188 C62.57620117 75.92332031 61.90459961 76.48921875 61.21264648 77.07226562 C59.31030273 78.41992187 59.31030273 78.41992187 56.31030273 79.41992188 C55.98030273 84.69992188 55.65030273 89.97992188 55.31030273 95.41992188 C55.97030273 95.08992188 56.63030273 94.75992188 57.31030273 94.41992188 C58.82239458 94.19830452 60.341864 94.02601221 61.86303711 93.87915039 C62.81424438 93.78557755 63.76545166 93.6920047 64.7454834 93.59559631 C65.78781128 93.49766281 66.83013916 93.39972931 67.90405273 93.29882812 C68.99697632 93.1940062 70.0898999 93.08918427 71.21594238 92.98118591 C73.55628235 92.75810169 75.8968262 92.53714799 78.23754883 92.31811523 C81.68572372 91.99412723 85.13276439 91.65973219 88.57983398 91.32421875 C121.56839144 88.16694385 154.29072892 87.04319102 187.41728592 87.10226822 C190.53965711 87.1074919 193.66201831 87.10941778 196.78439331 87.1109314 C225.63923669 87.13528051 254.36184086 87.4532465 283.10723877 90.2142334 C286.0651625 90.49039915 289.02563821 90.72985518 291.98667908 90.96986389 C295.34643977 91.24614234 298.7031891 91.55055081 302.06030273 91.85742188 C303.17477783 91.95514893 304.28925293 92.05287598 305.4375 92.15356445 C318.58956335 93.52901792 329.72095319 98.10019366 338.31030273 108.41992188 C344.10394989 117.75607016 344.84300971 128.67353798 342.73217773 139.34179688 C339.54219931 148.44773528 332.85188677 155.41650288 324.43530273 159.91992188 C316.8459512 163.33271308 308.54467524 165.77259973 300.31030273 163.41992188 C297.39629699 161.34944411 296.485219 159.89322472 295.24780273 156.54492188 C295.31541218 153.16444939 295.87977297 151.24730561 298.18920898 148.72851562 C302.2112359 146.24715464 307.00948641 145.89773485 311.61889648 145.25585938 C316.81216874 144.07981677 320.05403832 141.74230547 323.68530273 137.91992188 C326.08333849 132.75492179 326.06411809 128.01969308 325.31030273 122.41992188 C323.02436894 117.49637216 320.12732756 114.87222542 315.31030273 112.41992188 C306.78251439 110.27596448 297.91954279 109.67807671 289.18530273 108.91992188 C288.10886505 108.82520599 288.10886505 108.82520599 287.01068115 108.72857666 C209.48072597 101.94165008 132.64515689 104.77951753 55.31030273 112.41992188 C55.31030273 122.97992188 55.31030273 133.53992188 55.31030273 144.41992188 C120.08824121 150.37912829 184.49756948 154.82015599 249.56030273 150.85742188 C254.76850341 150.5453361 259.96877619 150.28147692 265.18530273 150.16992188 C266.82112305 150.13125 266.82112305 150.13125 268.48999023 150.09179688 C271.71256407 150.46672236 273.04119662 151.12965859 275.31030273 153.41992188 C276.48843236 157.58264655 276.57420453 159.74131725 274.99780273 163.79492188 C273.31030273 166.41992188 273.31030273 166.41992188 271.31030273 167.41992188 C266.02784827 167.94660765 260.7165062 168.17918257 255.41577148 168.46289062 C254.60007376 168.50713858 253.78437603 168.55138653 252.94396019 168.59697533 C233.13309448 169.64643425 213.33217789 169.7762634 193.49768448 169.73777771 C190.57286704 169.73232885 187.64805771 169.72996749 184.72323608 169.72790527 C154.83561231 169.69509786 125.09209957 169.15377772 95.31030273 166.41992188 C94.38280212 166.33552856 93.45530151 166.25113525 92.49969482 166.16418457 C58.57124925 163.05039513 58.57124925 163.05039513 55.31030273 161.41992188 C55.2661686 166.84211547 55.37540181 172.06898896 56.31030273 177.41992188 C57.97748042 179.04389035 59.19925345 179.87799105 61.39624023 180.64648438 C65.55034978 182.32508374 68.31304339 186.54948402 70.3659668 190.39990234 C71.74102591 194.79738972 71.65549641 199.03570376 71.68139648 203.61914062 C71.69042496 204.60936722 71.69945343 205.59959381 71.70875549 206.61982727 C71.72324248 208.71356187 71.73214087 210.80734159 71.73583984 212.90112305 C71.74769821 216.07940597 71.79686795 219.25572239 71.84741211 222.43359375 C71.85688176 224.47459997 71.8641142 226.51561804 71.86889648 228.55664062 C71.8884288 229.49553635 71.90796112 230.43443207 71.92808533 231.40177917 C71.88128707 238.36300981 70.08279251 243.55846275 66.31030273 249.41992188 C63.95874023 251.67382812 63.95874023 251.67382812 61.68530273 252.98242188 C60.92991211 253.43746094 60.17452148 253.8925 59.39624023 254.36132812 C56.10263605 256.03280141 53.48075484 256.54832256 49.84080505 256.57382202 C48.92557571 256.58242249 48.01034637 256.59102295 47.06738281 256.59988403 C46.06529785 256.60414398 45.06321289 256.60840393 44.03076172 256.61279297 C42.9734938 256.62097046 41.91622589 256.62914795 40.82691956 256.63757324 C37.32008429 256.66242955 33.81328959 256.67894646 30.30639648 256.69335938 C28.50887279 256.70134489 28.50887279 256.70134489 26.67503548 256.70949173 C20.32877365 256.73622789 13.98253149 256.75559892 7.63623047 256.77001953 C1.09153377 256.78664304 -5.45265701 256.83140108 -11.99716282 256.88239098 C-17.03735407 256.91610783 -22.07742608 256.92760205 -27.11771965 256.93324661 C-29.52936596 256.9399497 -31.94100468 256.955147 -34.35254097 256.97913742 C-37.73690628 257.01087713 -41.11991848 257.01081145 -44.50439453 257.00341797 C-45.49230988 257.0198233 -46.48022522 257.03622864 -47.49807739 257.0531311 C-54.52761196 256.99058881 -59.77235115 255.24721336 -65.68969727 251.41992188 C-67.94360352 249.06835938 -67.94360352 249.06835938 -69.25219727 246.79492188 C-69.70723633 246.03953125 -70.16227539 245.28414062 -70.63110352 244.50585938 C-72.29212681 241.23284668 -72.82140806 238.6016764 -72.86669922 234.98364258 C-72.87953445 234.08873611 -72.89236969 233.19382965 -72.90559387 232.27180481 C-72.9129808 231.30619125 -72.92036774 230.3405777 -72.92797852 229.34570312 C-72.93605026 228.34790329 -72.94412201 227.35010345 -72.95243835 226.32206726 C-72.96627335 224.20797459 -72.97699812 222.09385964 -72.98486328 219.97973633 C-73.00203887 216.76209557 -73.0459265 213.54549237 -73.09008789 210.328125 C-73.1002185 208.27149191 -73.10873345 206.2148501 -73.11547852 204.15820312 C-73.1329866 203.20271072 -73.15049469 202.24721832 -73.16853333 201.26277161 C-73.145123 193.97563246 -71.55693561 188.62836709 -66.65454102 183.14257812 C-65.98551758 182.59472656 -65.31649414 182.046875 -64.62719727 181.48242188 C-63.9555957 180.91652344 -63.28399414 180.350625 -62.59204102 179.76757812 C-60.68969727 178.41992188 -60.68969727 178.41992188 -57.68969727 177.41992188 C-57.66391602 176.67226562 -57.63813477 175.92460937 -57.61157227 175.15429688 C-57.15459731 167.21954995 -57.15459731 167.21954995 -55.12719727 163.73242188 C-51.72388238 161.8998677 -48.45850986 161.41883103 -44.68969727 162.41992188 C-42.14608207 164.4860717 -40.83726536 165.67935267 -40.18798828 168.93774414 C-40.18984131 169.86127686 -40.19169434 170.78480957 -40.19360352 171.73632812 C-40.19295898 172.74759766 -40.19231445 173.75886719 -40.19165039 174.80078125 C-40.21163086 175.85072266 -40.23161133 176.90066406 -40.25219727 177.98242188 C-40.24510742 179.03623047 -40.23801758 180.09003906 -40.23071289 181.17578125 C-40.29490701 188.91364186 -40.29490701 188.91364186 -42.07983398 191.20263672 C-44.11069603 192.7382567 -45.75268405 193.05828701 -48.25219727 193.48242188 C-51.88605405 194.06594636 -51.88605405 194.06594636 -54.68969727 196.41992188 C-56.70547569 201.91145651 -55.875637 208.33555656 -55.875 214.11889648 C-55.87718643 216.3463858 -55.89536155 218.57337945 -55.91430664 220.80078125 C-55.91724104 222.22460769 -55.91922553 223.64843647 -55.92016602 225.07226562 C-55.92632935 227.00573853 -55.92632935 227.00573853 -55.93261719 228.97827148 C-55.69457245 232.350851 -55.42484594 234.52496158 -53.68969727 237.41992188 C-49.10903927 239.98344208 -44.48650029 239.70238202 -39.38891602 239.67871094 C-38.45987457 239.68221558 -37.53083313 239.68572021 -36.57363892 239.68933105 C-33.50808196 239.69812077 -30.4427565 239.6923089 -27.37719727 239.68554688 C-25.24397741 239.68689432 -23.11075786 239.68883551 -20.97753906 239.69134521 C-16.50884067 239.69429274 -12.04022229 239.69001072 -7.5715332 239.68066406 C-1.84490083 239.6692698 3.88154406 239.67583125 9.60816956 239.68780899 C14.01250622 239.69503757 18.41679847 239.69273505 22.82113647 239.68755341 C24.93264793 239.68621968 27.04416343 239.68785494 29.15567017 239.69251251 C32.10706253 239.69759406 35.05815168 239.68984444 38.00952148 239.67871094 C39.31728043 239.68478363 39.31728043 239.68478363 40.65145874 239.690979 C44.93721403 239.66104345 48.47123635 239.56882883 52.31030273 237.41992188 C54.67096014 233.47066833 54.56797954 229.62654073 54.57592773 225.10742188 C54.57784119 224.41608154 54.57975464 223.72474121 54.58172607 223.01245117 C54.58308166 221.55679966 54.57942913 220.10113581 54.57104492 218.64550781 C54.56033596 216.42680516 54.57096097 214.20891207 54.58374023 211.99023438 C54.58241853 210.57096177 54.5798559 209.15168966 54.57592773 207.73242188 C54.57254395 205.80849609 54.57254395 205.80849609 54.5690918 203.84570312 C54.32031813 200.55250303 53.85198545 198.32380383 52.31030273 195.41992188 C50.04428408 194.12949424 50.04428408 194.12949424 47.31030273 193.41992188 C41.48173131 191.59135045 41.48173131 191.59135045 39.31030273 189.41992188 C39.05582714 187.27688694 39.05582714 187.27688694 39.04960632 184.56800842 C39.04252151 183.54306778 39.03543671 182.51812714 39.02813721 181.46212769 C39.03061462 180.33324127 39.03309204 179.20435486 39.03564453 178.04125977 C39.0305336 176.85585098 39.02542267 175.6704422 39.02015686 174.44911194 C39.008615 171.19288703 39.00619107 167.93681947 39.00872016 164.68057942 C39.00978818 161.96428852 39.00491082 159.24802122 39.00011474 156.53173536 C38.98901044 150.12441051 38.98858722 143.71714428 38.99462891 137.30981445 C39.00066977 130.6955239 38.98835711 124.08144602 38.96705884 117.46719176 C38.94945628 111.79240309 38.94343936 106.11768219 38.94669658 100.44286722 C38.94851185 97.05181407 38.94584932 93.66091259 38.93198204 90.26988411 C38.91969718 86.48908048 38.92636187 82.70877372 38.93798828 78.92797852 C38.93034454 77.80111633 38.92270081 76.67425415 38.91482544 75.51324463 C38.92183975 74.48548416 38.92885406 73.45772369 38.93608093 72.39881897 C38.93591319 71.50451203 38.93574545 70.6102051 38.93557262 69.68879795 C39.38783815 66.95046868 40.12864216 66.08307098 42.31030273 64.41992188 C44.50170898 63.75976562 44.50170898 63.75976562 46.87280273 63.35742188 C50.50665951 62.77389739 50.50665951 62.77389739 53.31030273 60.41992188 C55.32608116 54.92838724 54.49624247 48.50428719 54.49560547 42.72094727 C54.4977919 40.49345795 54.51596702 38.2664643 54.53491211 36.0390625 C54.53784651 34.61523606 54.53983099 33.19140728 54.54077148 31.76757812 C54.54488037 30.47859619 54.54898926 29.18961426 54.55322266 27.86157227 C54.31517792 24.48899275 54.04545141 22.31488217 52.31030273 19.41992188 C48.76494916 17.6533549 45.85961029 17.16693722 41.92504883 17.14868164 C40.8740097 17.13849503 39.82297058 17.12830841 38.74008179 17.11781311 C37.61598907 17.11567307 36.49189636 17.11353302 35.33374023 17.11132812 C32.94832097 17.08618266 30.56290436 17.06078443 28.17749023 17.03515625 C24.42033492 17.00633464 20.66322543 16.98231206 16.90600586 16.96362305 C13.27751707 16.94204748 9.64955006 16.90263013 6.02124023 16.86132812 C4.89309906 16.86121231 3.76495789 16.8610965 2.60263062 16.86097717 C1.55789581 16.8476384 0.51316101 16.83429962 -0.56323242 16.82055664 C-1.94292709 16.81295067 -1.94292709 16.81295067 -3.35049438 16.80519104 C-6.13314676 16.34688528 -7.02640806 15.66166859 -8.68969727 13.41992188 C-9.08813477 11.04492188 -9.08813477 11.04492188 -9.06469727 8.41992188 C-9.07629883 7.12054688 -9.07629883 7.12054688 -9.08813477 5.79492188 C-8.19287397 0.45846539 -4.88960262 0.0400036 0 0 Z " fill="#FFFFFF" transform="translate(160.689697265625,7.580078125)"/>
<path d="M0 0 C1.29679687 -0.020625 2.59359375 -0.04125 3.9296875 -0.0625 C5.16976562 -0.06765625 6.40984375 -0.0728125 7.6875 -0.078125 C8.82574219 -0.0874707 9.96398437 -0.09681641 11.13671875 -0.10644531 C14 0.25 14 0.25 15.86962891 1.62207031 C17.43869269 3.88179328 17.39936687 5.52091046 17.375 8.25 C17.38660156 9.549375 17.38660156 9.549375 17.3984375 10.875 C16.91434031 13.76059893 16.28257494 14.47098981 14 16.25 C11.81103516 16.65063477 11.81103516 16.65063477 9.2890625 16.69140625 C8.37382813 16.71783203 7.45859375 16.74425781 6.515625 16.77148438 C5.56171875 16.78501953 4.6078125 16.79855469 3.625 16.8125 C-4.53983597 16.59565924 -4.53983597 16.59565924 -12 19.25 C-15.44948714 27.07037987 -15.44948714 27.07037987 -15 48.25 C43.08 48.25 101.16 48.25 161 48.25 C161.44948714 27.07037987 161.44948714 27.07037987 158 19.25 C154.65699134 17.37479476 151.76744856 16.99896551 147.97714233 16.99171448 C146.99014847 16.98488647 146.0031546 16.97805847 144.98625183 16.97102356 C143.91490494 16.97357651 142.84355804 16.97612946 141.73974609 16.97875977 C140.60266708 16.97353302 139.46558807 16.96830627 138.29405212 16.96292114 C135.82775629 16.95268721 133.36143889 16.9469018 130.89512253 16.94503975 C126.99562199 16.94138015 123.09637667 16.92466601 119.19692993 16.90428162 C109.51510467 16.85515659 99.83323176 16.82417989 90.15130615 16.80297852 C81.96583423 16.7850307 73.78059572 16.7557093 65.59523392 16.70893669 C63.00760453 16.69725831 60.41994257 16.6913561 57.83228683 16.69125557 C54.22181777 16.69106439 50.61185554 16.67286282 47.00146484 16.65063477 C45.92606949 16.65521194 44.85067413 16.65978912 43.74269104 16.664505 C42.76133682 16.65485718 41.7799826 16.64520935 40.76889038 16.63526917 C39.91535162 16.63325784 39.06181286 16.63124651 38.18240929 16.62917423 C35.5069726 16.16434087 34.61999988 15.39489721 33 13.25 C32.6015625 10.875 32.6015625 10.875 32.625 8.25 C32.61339844 6.950625 32.61339844 6.950625 32.6015625 5.625 C33.08675832 2.73285238 33.69933382 2.02114636 36 0.25 C38.27776432 -0.13311005 38.27776432 -0.13311005 41.00099182 -0.14440918 C42.03401932 -0.15575897 43.06704681 -0.16710876 44.13137817 -0.17880249 C45.26437347 -0.17587189 46.39736877 -0.17294128 47.56469727 -0.16992188 C49.35542412 -0.18262619 49.35542412 -0.18262619 51.18232727 -0.19558716 C54.45967654 -0.21500292 57.73667705 -0.22073194 61.01407361 -0.21883965 C63.75462127 -0.21871994 66.49511572 -0.22728524 69.23564857 -0.23561716 C75.70897429 -0.25486666 82.18217108 -0.25773148 88.65551758 -0.25097656 C95.31584077 -0.24435347 101.97560764 -0.26712584 108.63581806 -0.30429029 C114.36425753 -0.33508637 120.09251912 -0.3463361 125.82103962 -0.34245348 C129.23756353 -0.34039396 132.65365577 -0.34573818 136.07010078 -0.37034607 C139.89035646 -0.39257233 143.70928841 -0.38281078 147.52954102 -0.36523438 C148.6483667 -0.37849762 149.76719238 -0.39176086 150.91992188 -0.40542603 C158.30278175 -0.32682072 163.80030266 1.15159529 170 5.25 C172.25390625 7.6015625 172.25390625 7.6015625 173.5625 9.875 C174.01753906 10.63039063 174.47257813 11.38578125 174.94140625 12.1640625 C177.06497767 16.34851689 177.11660267 19.68234469 177.09765625 24.32421875 C177.09553383 25.34996758 177.09553383 25.34996758 177.09336853 26.3964386 C177.08777876 28.57683722 177.07522822 30.75713251 177.0625 32.9375 C177.05748367 34.41731622 177.052921 35.89713406 177.04882812 37.37695312 C177.03781271 41.00133557 177.02055512 44.6256577 177 48.25 C177.94681641 48.22679687 178.89363281 48.20359375 179.86914062 48.1796875 C181.11888672 48.16164063 182.36863281 48.14359375 183.65625 48.125 C184.89181641 48.10179687 186.12738281 48.07859375 187.40039062 48.0546875 C193.69154564 48.39604154 198.50158117 50.66830054 202.875 55.1875 C208.4342292 62.24344476 209.28801874 67.99599499 209.1953125 76.80078125 C209.19106766 78.32169624 209.19106766 78.32169624 209.18673706 79.87333679 C209.17556625 83.10317927 209.15046711 86.33274171 209.125 89.5625 C209.1149662 91.75585536 209.10584105 93.94921508 209.09765625 96.14257812 C209.07563707 101.51181386 209.04219023 106.88088692 209 112.25 C210.35544922 112.19779297 210.35544922 112.19779297 211.73828125 112.14453125 C212.91777344 112.11746094 214.09726562 112.09039062 215.3125 112.0625 C216.48425781 112.02769531 217.65601563 111.99289062 218.86328125 111.95703125 C222 112.25 222 112.25 223.89306641 113.61328125 C225.42693888 115.88127443 225.39926615 117.53219106 225.375 120.25 C225.38273437 121.11625 225.39046875 121.9825 225.3984375 122.875 C224.9105608 125.78312777 224.33644193 126.48974246 222 128.25 C219.45751953 128.63095093 219.45751953 128.63095093 216.3828125 128.63818359 C215.23151855 128.64764008 214.08022461 128.65709656 212.89404297 128.6668396 C211.0283667 128.65773056 211.0283667 128.65773056 209.125 128.6484375 C207.21098389 128.65274277 207.21098389 128.65274277 205.25830078 128.65713501 C202.55795884 128.65917835 199.85842919 128.65513392 197.15820312 128.64111328 C193.6978077 128.62402089 190.23811029 128.63386307 186.77774048 128.65183067 C183.47680194 128.66528016 180.17594764 128.65586244 176.875 128.6484375 C175.63121582 128.65451019 174.38743164 128.66058289 173.10595703 128.6668396 C171.95466309 128.65738312 170.80336914 128.64792664 169.6171875 128.63818359 C168.60253418 128.63579681 167.58788086 128.63341003 166.54248047 128.63095093 C164 128.25 164 128.25 162.17382812 126.87417603 C160.54561607 124.62128829 160.60040014 123.00518472 160.625 120.25 C160.61726562 119.38375 160.60953125 118.5175 160.6015625 117.625 C161.09426567 114.68810268 161.59969104 113.98984415 164 112.25 C167.00268555 111.90942383 167.00268555 111.90942383 170.63671875 111.95703125 C171.93544922 111.96669922 173.23417969 111.97636719 174.57226562 111.98632812 C175.94401639 112.01139415 177.31576118 112.03678899 178.6875 112.0625 C180.07094924 112.0775498 181.45441401 112.0912377 182.83789062 112.10351562 C186.22565207 112.13892777 189.61263139 112.18831946 193 112.25 C192.90627768 106.78705568 192.80014176 101.32454474 192.68261719 95.86206055 C192.64439134 94.00470544 192.60952737 92.14727792 192.578125 90.28979492 C192.53233539 87.61611088 192.47436421 84.94292258 192.4140625 82.26953125 C192.39673569 81.0286248 192.39673569 81.0286248 192.37905884 79.76264954 C192.24320149 74.42651325 191.95124493 70.20124493 188 66.25 C183.79713132 64.86958273 179.50076589 65.10830251 175.12464905 65.11628723 C174.21821055 65.11402167 173.31177206 65.11175612 172.37786573 65.10942191 C169.33401024 65.10308088 166.29019926 65.10391134 163.24633789 65.10473633 C161.06669558 65.10174493 158.8870538 65.09834245 156.70741272 65.09455872 C150.78188018 65.08571324 144.85636207 65.08338039 138.93082356 65.08274293 C133.9877747 65.08179425 129.04472921 65.07811648 124.10168165 65.07457083 C111.77552866 65.06595838 99.44938396 65.06405806 87.12322842 65.06482115 C77.08417338 65.06520242 67.04514942 65.05740206 57.00610352 65.04418945 C45.34842394 65.02889908 33.69076733 65.02043042 22.03307718 65.02115268 C15.86199682 65.02140798 9.69095626 65.0185388 3.51988411 65.00797462 C-2.28227391 64.99831332 -8.08435394 64.99820094 -13.88651466 65.00549126 C-16.01783232 65.0065395 -18.14915479 65.00416006 -20.28046417 64.9981308 C-23.18629043 64.99044191 -26.09184522 64.99503511 -28.99766541 65.00276184 C-29.84416324 64.99761828 -30.69066108 64.99247471 -31.56281036 64.98717529 C-36.90519681 65.01864106 -41.04111472 65.29111472 -45 69.25 C-45.8812336 71.94604456 -46.14112707 74.45959091 -46.20532227 77.28417969 C-46.22526749 78.06468689 -46.24521271 78.84519409 -46.26576233 79.64935303 C-46.29083107 80.8980014 -46.29083107 80.8980014 -46.31640625 82.171875 C-46.33718735 83.03186096 -46.35796844 83.89184692 -46.37937927 84.77789307 C-46.44463739 87.51851598 -46.50364917 90.25923275 -46.5625 93 C-46.60570781 94.8606867 -46.64932282 96.72136398 -46.69335938 98.58203125 C-46.80029442 103.13792523 -46.90162851 107.6939134 -47 112.25 C-45.91413369 112.24585193 -45.91413369 112.24585193 -44.80633068 112.24162006 C-27.20527063 112.17541418 -9.60424214 112.12574575 7.99691486 112.09456348 C16.50864949 112.0790838 25.02030108 112.05797331 33.53198242 112.02368164 C40.94935145 111.99381291 48.36666035 111.97443301 55.78408784 111.96773452 C59.71286248 111.96381794 63.64146511 111.9545908 67.57018471 111.93280983 C71.26621185 111.91248446 74.9619957 111.90615811 78.65807343 111.91067696 C80.66497902 111.90945493 82.67185797 111.89329217 84.67869568 111.8767395 C85.86921539 111.88086349 87.05973511 111.88498749 88.28633118 111.88923645 C89.32334828 111.88647107 90.36036539 111.88370569 91.42880726 111.88085651 C94 112.25 94 112.25 95.83220196 113.62411022 C97.45166025 115.87883286 97.39957138 117.49800542 97.375 120.25 C97.38273438 121.11625 97.39046875 121.9825 97.3984375 122.875 C96.90478225 125.81757245 96.4069152 126.5074528 94 128.25 C90.98428345 128.62752342 90.98428345 128.62752342 87.20556641 128.63095093 C86.51091593 128.6356309 85.81626545 128.64031087 85.10056496 128.64513266 C82.76737129 128.65712148 80.43476078 128.64761066 78.1015625 128.63818359 C76.4311285 128.64224758 74.76069719 128.64758849 73.090271 128.65411377 C68.54900294 128.66781376 64.00793889 128.66247769 59.46666718 128.65297651 C54.71947164 128.64539379 49.97229386 128.65242166 45.22509766 128.65713501 C37.25224666 128.66259661 29.27947898 128.65539034 21.30664062 128.64111328 C12.0822132 128.62478599 2.85798469 128.63007421 -6.36643791 128.6465925 C-14.27902367 128.66019584 -22.19154947 128.66213267 -30.10414314 128.65427649 C-34.83319485 128.64959363 -39.56215299 128.64899192 -44.29119873 128.65888596 C-48.73666468 128.66753662 -53.18187359 128.66156865 -57.62731171 128.64420319 C-59.26118289 128.64022815 -60.89507561 128.64138971 -62.52893829 128.64799118 C-64.75477545 128.65615695 -66.97978253 128.64594639 -69.20556641 128.63095093 C-70.45254303 128.62981985 -71.69951965 128.62868877 -72.98428345 128.62752342 C-76 128.25 -76 128.25 -77.89974976 126.87462807 C-79.43040325 124.61446713 -79.39918781 122.95903484 -79.375 120.25 C-79.38273437 119.38375 -79.39046875 118.5175 -79.3984375 117.625 C-78.90562437 114.68744724 -78.40697511 113.98336975 -76 112.25 C-72.86328125 111.95703125 -72.86328125 111.95703125 -69.3125 112.0625 C-67.54326172 112.10310547 -67.54326172 112.10310547 -65.73828125 112.14453125 C-64.83464844 112.17933594 -63.93101563 112.21414063 -63 112.25 C-63.01110306 111.69591461 -63.02220612 111.14182922 -63.03364563 110.57095337 C-63.14494213 104.76279958 -63.21995581 98.95495251 -63.2746582 93.14599609 C-63.29968039 90.98311035 -63.33370909 88.82030811 -63.37719727 86.65771484 C-63.43839207 83.53462019 -63.46633343 80.41265087 -63.48828125 77.2890625 C-63.51408768 76.33448151 -63.5398941 75.37990051 -63.56648254 74.39639282 C-63.56934189 67.42926686 -61.96375558 62.03459743 -58 56.25 C-51.83486346 50.3851886 -46.25763497 47.96481056 -37.6875 48.125 C-35.80611328 48.15207031 -35.80611328 48.15207031 -33.88671875 48.1796875 C-32.93410156 48.20289063 -31.98148438 48.22609375 -31 48.25 C-31.03927612 46.9199292 -31.03927612 46.9199292 -31.0793457 45.56298828 C-31.16530961 42.22671814 -31.22760042 38.89164895 -31.2746582 35.5546875 C-31.29957855 34.11927552 -31.33352875 32.68398743 -31.37719727 31.24902344 C-31.64036268 22.36951287 -31.50567846 14.71061426 -26 7.25 C-23.6484375 4.99609375 -23.6484375 4.99609375 -21.375 3.6875 C-20.61960938 3.23246094 -19.86421875 2.77742188 -19.0859375 2.30859375 C-13.07099174 -0.74393491 -6.59230456 0.02621195 0 0 Z " fill="#FFFFFF" transform="translate(87,375.75)"/>
<path d="M0 0 C0.87527344 -0.02835938 1.75054687 -0.05671875 2.65234375 -0.0859375 C5.0625 0.375 5.0625 0.375 6.86328125 2.2421875 C8.0625 4.375 8.0625 4.375 8.3125 6.875 C8.86465343 9.7447925 8.86465343 9.7447925 12.25 11.25 C12.87648438 11.56839844 13.50296875 11.88679687 14.1484375 12.21484375 C19.07918298 15.20347928 22.32708245 19.95381031 24.0625 25.375 C24.36328125 28.3828125 24.36328125 28.3828125 24.375 31.5 C24.39175781 32.53382813 24.40851563 33.56765625 24.42578125 34.6328125 C24.0625 37.375 24.0625 37.375 22.85546875 39.21875 C20.48551835 40.74708402 18.86841244 40.77505279 16.0625 40.75 C14.763125 40.76160156 14.763125 40.76160156 13.4375 40.7734375 C11.0625 40.375 11.0625 40.375 9.31640625 39.13671875 C7.80798602 37.01741182 7.43370244 35.36839688 7 32.8125 C6.41647552 29.17864322 6.41647552 29.17864322 4.0625 26.375 C2.15243694 26.0573754 2.15243694 26.0573754 0.0625 26.125 C-0.63875 26.11984375 -1.34 26.1146875 -2.0625 26.109375 C-4.1810669 26.21794485 -4.1810669 26.21794485 -5.9375 28.375 C-6.2551246 30.28506306 -6.2551246 30.28506306 -6.1875 32.375 C-6.19265625 33.07625 -6.1978125 33.7775 -6.203125 34.5 C-6.09455515 36.6185669 -6.09455515 36.6185669 -3.9375 38.375 C-1.76167806 38.84888419 0.42904835 39.25545474 2.625 39.625 C10.22743231 41.20624361 15.84970499 43.26050073 20.71875 49.49609375 C24.80807373 56.41386639 25.04689068 63.528 24.0625 71.375 C22.32533894 78.07547837 17.59222356 82.45763937 12.0625 86.375 C11.0725 86.705 10.0825 87.035 9.0625 87.375 C8.3458793 89.69347874 7.68007973 92.02819703 7.0625 94.375 C4.55237037 96.88512963 3.59444763 96.67221609 0.125 96.6875 C-0.75027344 96.70425781 -1.62554687 96.72101563 -2.52734375 96.73828125 C-4.9375 96.375 -4.9375 96.375 -6.7109375 95.0859375 C-8.63006371 92.4089398 -8.63429039 89.58902185 -8.9375 86.375 C-9.51371094 86.27445312 -10.08992188 86.17390625 -10.68359375 86.0703125 C-16.04443459 84.41653491 -20.03936058 79.8064097 -22.9375 75.1875 C-24.30859065 69.9602169 -24.73774673 64.74136042 -23.9375 59.375 C-22.7265625 57.5390625 -22.7265625 57.5390625 -20.9375 56.375 C-18.5625 55.9765625 -18.5625 55.9765625 -15.9375 56 C-14.638125 55.98839844 -14.638125 55.98839844 -13.3125 55.9765625 C-10.9375 56.375 -10.9375 56.375 -9.19140625 57.61328125 C-7.68298602 59.73258818 -7.30870244 61.38160312 -6.875 63.9375 C-6.29147552 67.57135678 -6.29147552 67.57135678 -3.9375 70.375 C-2.02743694 70.6926246 -2.02743694 70.6926246 0.0625 70.625 C0.76375 70.63015625 1.465 70.6353125 2.1875 70.640625 C4.3060669 70.53205515 4.3060669 70.53205515 6.0625 68.375 C6.3801246 66.46493694 6.3801246 66.46493694 6.3125 64.375 C6.31765625 63.67375 6.3228125 62.9725 6.328125 62.25 C6.21955515 60.1314331 6.21955515 60.1314331 4.0625 58.375 C1.88667806 57.90111581 -0.30404835 57.49454526 -2.5 57.125 C-10.10243231 55.54375639 -15.72470499 53.48949927 -20.59375 47.25390625 C-24.68307373 40.33613361 -24.92189068 33.222 -23.9375 25.375 C-22.20033894 18.67452163 -17.46722356 14.29236063 -11.9375 10.375 C-10.9475 10.045 -9.9575 9.715 -8.9375 9.375 C-8.2208793 7.05652126 -7.55507973 4.72180297 -6.9375 2.375 C-4.43686853 -0.12563147 -3.45938302 0.05079858 0 0 Z " fill="#FFFFFF" transform="translate(415.9375,223.625)"/>
<path d="M0 0 C1.24910156 -0.020625 2.49820313 -0.04125 3.78515625 -0.0625 C4.98011719 -0.06765625 6.17507812 -0.0728125 7.40625 -0.078125 C8.50259766 -0.0874707 9.59894531 -0.09681641 10.72851562 -0.10644531 C13.5 0.25 13.5 0.25 15.32617188 1.55957031 C17.27840278 4.37097772 17.38384543 6.88151747 17.5 10.25 C16.36349056 12.62633793 15.35558971 14.39441029 13.5 16.25 C12.07150161 16.382593 10.63712385 16.4532469 9.203125 16.49609375 C7.88828125 16.54540039 7.88828125 16.54540039 6.546875 16.59570312 C4.69802482 16.65638466 2.84906196 16.7137347 1 16.76757812 C-5.54742433 16.86784021 -5.54742433 16.86784021 -11.5 19.25 C-13.64817679 23.36781243 -13.75754044 26.96584946 -13.765625 31.5625 C-13.76753845 32.25384033 -13.7694519 32.94518066 -13.77142334 33.6574707 C-13.77277892 35.11312221 -13.7691264 36.56878607 -13.76074219 38.02441406 C-13.75003322 40.24311672 -13.76065823 42.4610098 -13.7734375 44.6796875 C-13.77211579 46.09896011 -13.76955317 47.51823221 -13.765625 48.9375 C-13.76336914 50.22011719 -13.76111328 51.50273438 -13.75878906 52.82421875 C-13.51001539 56.11741885 -13.04168272 58.34611804 -11.5 61.25 C-9.23398135 62.54042763 -9.23398135 62.54042763 -6.5 63.25 C-0.67142857 65.07857143 -0.67142857 65.07857143 1.5 67.25 C1.76069641 70.27964783 1.76069641 70.27964783 1.7746582 74.22241211 C1.77976913 74.93964951 1.78488007 75.6568869 1.79014587 76.39585876 C1.80407629 78.77310469 1.80308252 81.1500618 1.80078125 83.52734375 C1.8046664 85.17639779 1.80900069 86.82545083 1.81376648 88.47450256 C1.82123618 91.93379965 1.82093209 95.3929947 1.81567383 98.85229492 C1.80987922 103.28903362 1.82680611 107.72535485 1.8500185 112.1620245 C1.86473897 115.56863352 1.86562984 118.97514162 1.86250877 122.38177681 C1.86302287 124.01767364 1.8682772 125.65357599 1.87832069 127.28944206 C1.89063502 129.57596961 1.88392421 131.86167925 1.87231445 134.14819336 C1.87294388 135.45010117 1.8735733 136.75200897 1.8742218 138.09336853 C1.5 141.25 1.5 141.25 0.12516785 143.16896057 C-2.13709726 144.67378838 -3.80260449 144.64908389 -6.5 144.625 C-7.36625 144.63273438 -8.2325 144.64046875 -9.125 144.6484375 C-12.04228007 144.15902538 -12.74893273 143.60935919 -14.5 141.25 C-14.85162354 138.56239319 -14.85162354 138.56239319 -14.82128906 135.28149414 C-14.81848938 134.05334488 -14.8156897 132.82519562 -14.81280518 131.55982971 C-14.80476112 130.90415071 -14.79671707 130.24847172 -14.78842926 129.57292366 C-14.76542362 127.51716138 -14.76430555 125.46247335 -14.76971436 123.40660095 C-14.78238935 117.56286917 -14.76536113 111.71970717 -14.70947266 105.8762207 C-14.67681049 102.29971791 -14.6780589 98.72453954 -14.70049286 95.14797783 C-14.70224082 93.78639611 -14.6909732 92.42473255 -14.66638947 91.06337166 C-14.17537589 83.80592 -14.17537589 83.80592 -17.04399109 77.56843567 C-19.13531538 76.30055658 -19.13531538 76.30055658 -22.5 75.25 C-24.42578125 73.50390625 -24.42578125 73.50390625 -25.8125 71.8125 C-26.28300781 71.25691406 -26.75351563 70.70132813 -27.23828125 70.12890625 C-30.91376003 64.65551525 -30.83499239 59.43950234 -30.87109375 53.05078125 C-30.88012222 52.06055466 -30.8891507 51.07032806 -30.89845276 50.0500946 C-30.91293974 47.95636 -30.92183813 45.86258028 -30.92553711 43.76879883 C-30.93739547 40.59051591 -30.98656522 37.41419948 -31.03710938 34.23632812 C-31.04657903 32.1953219 -31.05381147 30.15430384 -31.05859375 28.11328125 C-31.07812607 27.17438553 -31.09765839 26.23548981 -31.11778259 25.2681427 C-31.07098434 18.30691207 -29.27248977 13.11145913 -25.5 7.25 C-23.1484375 4.99609375 -23.1484375 4.99609375 -20.875 3.6875 C-19.74191406 3.00494141 -19.74191406 3.00494141 -18.5859375 2.30859375 C-12.69646147 -0.68026019 -6.45625688 0.02665122 0 0 Z " fill="#FFFFFF" transform="translate(118.5,7.75)"/>
<path d="M0 0 C0.7750098 -0.00282738 1.55001961 -0.00565475 2.34851456 -0.00856781 C6.42391527 -0.02335105 10.49928228 -0.0327199 14.57470703 -0.03710938 C18.7722162 -0.04266654 22.96941273 -0.06690205 27.16682243 -0.09508133 C30.41640174 -0.11365218 33.66590325 -0.11890959 36.91553116 -0.12044525 C38.46491391 -0.12346823 40.0142954 -0.13148482 41.56362534 -0.14463043 C43.71438309 -0.1616278 45.86433967 -0.15983069 48.01513672 -0.15332031 C49.23627167 -0.15696594 50.45740662 -0.16061157 51.71554565 -0.16436768 C54.6953125 0.203125 54.6953125 0.203125 56.58792114 1.57696533 C58.12734498 3.83754731 58.09454512 5.48907145 58.0703125 8.203125 C58.08191406 9.5025 58.08191406 9.5025 58.09375 10.828125 C57.61092964 13.70611304 56.95714184 14.41552472 54.6953125 16.203125 C52.69799805 16.61962891 52.69799805 16.61962891 50.33203125 16.6796875 C48.94153564 16.7252478 48.94153564 16.7252478 47.52294922 16.77172852 C46.4867041 16.79033936 45.45045898 16.8089502 44.3828125 16.828125 C42.73176514 16.8744104 42.73176514 16.8744104 41.04736328 16.92163086 C37.72814278 17.0100229 34.40908049 17.0832417 31.0894165 17.15167236 C27.4925679 17.22897366 23.89604438 17.31884079 20.29945374 17.40722656 C8.61582923 17.69259758 -3.06785949 17.96683213 -14.75354004 18.15167236 C-17.19872754 18.20098795 -19.64093049 18.28185362 -22.08496094 18.37060547 C-23.52017029 18.40769386 -24.95539105 18.44434487 -26.390625 18.48046875 C-28.22826416 18.54415649 -28.22826416 18.54415649 -30.10302734 18.60913086 C-34.00264738 18.11461598 -35.59098868 17.00234607 -38.3046875 14.203125 C-39.4706616 10.19508903 -39.73709251 8.15029789 -37.9921875 4.328125 C-36.3046875 2.203125 -36.3046875 2.203125 -34.3046875 1.203125 C-31.78443235 0.96734186 -29.28730797 0.78687107 -26.76123047 0.65332031 C-26.00218351 0.61135151 -25.24313656 0.56938271 -24.46108818 0.52614212 C-16.30840663 0.10553922 -8.16198619 0.02053828 0 0 Z " fill="#FFFFFF" transform="translate(318.3046875,119.796875)"/>
<path d="M0 0 C1.13758003 -0.00786278 1.13758003 -0.00786278 2.29814148 -0.0158844 C3.90276873 -0.02230526 5.50744305 -0.02096671 7.11206055 -0.01245117 C9.55538993 -0.0039716 11.99635661 -0.03264775 14.43945312 -0.06445312 C16.00130139 -0.06606616 17.56315376 -0.06548565 19.125 -0.0625 C20.2128051 -0.07935097 20.2128051 -0.07935097 21.32258606 -0.09654236 C26.46309804 -0.02671383 29.36847723 1.10480117 33.26171875 4.43359375 C38.23647356 9.78763411 37.83012754 15.14917033 37.7578125 22.0703125 C37.75926773 23.18670609 37.76072296 24.30309967 37.76222229 25.45332336 C37.76056629 27.80590432 37.74903869 30.15849645 37.72827148 32.51098633 C37.69923466 36.1191173 37.707686 39.72578601 37.72070312 43.33398438 C37.71446804 45.62110091 37.7060789 47.90821281 37.6953125 50.1953125 C37.69824814 51.27656906 37.70118378 52.35782562 37.70420837 53.47184753 C37.68518211 54.97404594 37.68518211 54.97404594 37.66577148 56.5065918 C37.6603685 57.38784225 37.65496552 58.26909271 37.6493988 59.17704773 C37.18145978 61.90075233 36.45063235 62.79247956 34.26171875 64.43359375 C31.88671875 64.83203125 31.88671875 64.83203125 29.26171875 64.80859375 C27.96234375 64.82019531 27.96234375 64.82019531 26.63671875 64.83203125 C23.7577819 64.34905171 23.03988542 63.70617104 21.26171875 61.43359375 C20.9009552 59.36445618 20.9009552 59.36445618 20.92114258 56.9621582 C20.92136917 56.06145096 20.92159576 55.16074371 20.92182922 54.23274231 C20.93731308 53.2639061 20.95279694 52.29506989 20.96875 51.296875 C20.97299484 50.30229782 20.97723969 49.30772064 20.98161316 48.28300476 C20.99841722 45.10376 21.03607299 41.92514719 21.07421875 38.74609375 C21.08926334 36.59180602 21.10295213 34.43750837 21.11523438 32.28320312 C21.14832631 26.99978408 21.19854283 21.71673406 21.26171875 16.43359375 C20.39893311 16.4493042 19.53614746 16.46501465 18.6472168 16.48120117 C15.44362608 16.5323533 12.2402436 16.56995535 9.03637695 16.59838867 C7.65023956 16.61346772 6.26414981 16.63393425 4.87817383 16.65991211 C2.88513729 16.69633091 0.89175152 16.71172393 -1.1015625 16.7265625 C-2.30079346 16.74227295 -3.50002441 16.7579834 -4.7355957 16.77416992 C-7.73828125 16.43359375 -7.73828125 16.43359375 -9.62817383 15.0637207 C-11.1693429 12.80060526 -11.13754254 11.15085789 -11.11328125 8.43359375 C-11.12101563 7.56734375 -11.12875 6.70109375 -11.13671875 5.80859375 C-10.73828125 3.43359375 -10.73828125 3.43359375 -9.69702148 1.81225586 C-6.68643481 -0.30674987 -3.55182747 -0.01425847 0 0 Z " fill="#FFFFFF" transform="translate(146.73828125,39.56640625)"/>
<path d="M0 0 C0.83096191 -0.00945648 1.66192383 -0.01891296 2.51806641 -0.02865601 C3.41187012 -0.02258331 4.30567383 -0.01651062 5.2265625 -0.01025391 C6.14743652 -0.01312408 7.06831055 -0.01599426 8.01708984 -0.01895142 C9.96387344 -0.02099272 11.91067752 -0.01545824 13.85742188 -0.00292969 C16.84030949 0.01312303 19.82184211 -0.00277613 22.8046875 -0.02197266 C24.6953155 -0.01999024 26.58594265 -0.01614659 28.4765625 -0.01025391 C29.37036621 -0.0163266 30.26416992 -0.02239929 31.18505859 -0.02865601 C32.43150146 -0.01447128 32.43150146 -0.01447128 33.703125 0 C34.79874756 0.00358017 34.79874756 0.00358017 35.91650391 0.00723267 C38.41180605 0.49847757 39.30541684 1.40401553 40.8515625 3.38818359 C41.25 5.76318359 41.25 5.76318359 41.2265625 8.38818359 C41.23816406 9.68755859 41.23816406 9.68755859 41.25 11.01318359 C40.76813411 13.88548225 40.10449008 14.60100851 37.8515625 16.38818359 C35.91650391 16.76913452 35.91650391 16.76913452 33.703125 16.77636719 C32.45668213 16.79055191 32.45668213 16.79055191 31.18505859 16.80502319 C30.29125488 16.7989505 29.39745117 16.79287781 28.4765625 16.78662109 C27.09525146 16.79092636 27.09525146 16.79092636 25.68603516 16.7953186 C23.73925156 16.79735991 21.79244748 16.79182543 19.84570312 16.77929688 C16.86281551 16.76324415 13.88128289 16.77914331 10.8984375 16.79833984 C9.0078095 16.79635742 7.11718235 16.79251377 5.2265625 16.78662109 C4.33275879 16.79269379 3.43895508 16.79876648 2.51806641 16.80502319 C1.68710449 16.79556671 0.85614258 16.78611023 0 16.77636719 C-0.73041504 16.77398041 -1.46083008 16.77159363 -2.21337891 16.76913452 C-4.70868105 16.27788962 -5.60229184 15.37235166 -7.1484375 13.38818359 C-7.546875 11.01318359 -7.546875 11.01318359 -7.5234375 8.38818359 C-7.53117187 7.52193359 -7.53890625 6.65568359 -7.546875 5.76318359 C-6.79810824 1.29994642 -4.30481448 0.01406686 0 0 Z " fill="#FFFFFF" transform="translate(63.1484375,455.61181640625)"/>
<path d="M0 0 C4.35452658 1.15055381 7.06397766 4.42229247 10.12890625 7.5625 C11.09831831 8.51240272 12.06979752 9.4601989 13.04296875 10.40625 C22.01879295 19.19709505 22.01879295 19.19709505 22.44140625 24.4375 C22.39678124 27.51104744 22.253565 28.38243736 20.44140625 31 C17.79072901 32.79099814 16.33507763 33.48616259 13.12890625 33.5625 C7.08619552 31.29536776 3.21848521 27.03025597 -1.18359375 22.5 C-1.91126953 21.76716797 -2.63894531 21.03433594 -3.38867188 20.27929688 C-9.77116369 13.80163277 -9.77116369 13.80163277 -10.18359375 8.6875 C-10.12450002 5.73281347 -9.93674339 4.67191607 -8.37109375 2.0625 C-5.55056583 0.37018325 -3.3002959 -0.19449258 0 0 Z " fill="#FFFFFF" transform="translate(49.87109375,247.4375)"/>
<path d="M0 0 C2.5 1.5 2.5 1.5 4 4 C4.74101214 8.04188439 5.00003078 10.39139785 2.8125 13.91015625 C0.97449673 16.06185719 -0.97446161 18.02301904 -3 20 C-3.94990272 20.96941206 -4.8976989 21.94089127 -5.84375 22.9140625 C-14.63459505 31.8898867 -14.63459505 31.8898867 -19.875 32.3125 C-22.82968653 32.25340627 -23.89058393 32.06564964 -26.5 30.5 C-28.19231675 27.67947208 -28.75699258 25.42920215 -28.5625 22.12890625 C-27.41194619 17.77437967 -24.14020753 15.06492859 -21 12 C-20.05009728 11.03058794 -19.1023011 10.05910873 -18.15625 9.0859375 C-8.1668505 -1.11366143 -8.1668505 -1.11366143 0 0 Z " fill="#FFFFFF" transform="translate(68,328)"/>
<path d="M0 0 C4.35452658 1.15055381 7.06397766 4.42229247 10.12890625 7.5625 C11.09831831 8.51240272 12.06979752 9.4601989 13.04296875 10.40625 C22.01879295 19.19709505 22.01879295 19.19709505 22.44140625 24.4375 C22.38231252 27.39218653 22.19455589 28.45308393 20.62890625 31.0625 C17.80837833 32.75481675 15.5581084 33.31949258 12.2578125 33.125 C7.90328592 31.97444619 5.19383484 28.70270753 2.12890625 25.5625 C1.15949419 24.61259728 0.18801498 23.6648011 -0.78515625 22.71875 C-9.76098045 13.92790495 -9.76098045 13.92790495 -10.18359375 8.6875 C-10.12450002 5.73281347 -9.93674339 4.67191607 -8.37109375 2.0625 C-5.55056583 0.37018325 -3.3002959 -0.19449258 0 0 Z " fill="#FFFFFF" transform="translate(257.87109375,327.4375)"/>
<path d="M0 0 C2.5 1.5 2.5 1.5 4 4 C4.74101214 8.04188439 5.00003078 10.39139785 2.8125 13.91015625 C0.97449673 16.06185719 -0.97446161 18.02301904 -3 20 C-3.94990272 20.96941206 -4.8976989 21.94089127 -5.84375 22.9140625 C-14.63459505 31.8898867 -14.63459505 31.8898867 -19.875 32.3125 C-22.82968653 32.25340627 -23.89058393 32.06564964 -26.5 30.5 C-28.19231675 27.67947208 -28.75699258 25.42920215 -28.5625 22.12890625 C-27.41194619 17.77437967 -24.14020753 15.06492859 -21 12 C-20.05009728 11.03058794 -19.1023011 10.05910873 -18.15625 9.0859375 C-8.1668505 -1.11366143 -8.1668505 -1.11366143 0 0 Z " fill="#FFFFFF" transform="translate(276,248)"/>
<path d="M0 0 C1.14984375 -0.00386719 2.2996875 -0.00773437 3.484375 -0.01171875 C4.68578125 -0.00011719 5.8871875 0.01148438 7.125 0.0234375 C8.32640625 0.01183594 9.5278125 0.00023437 10.765625 -0.01171875 C12.49039063 -0.00591797 12.49039063 -0.00591797 14.25 0 C15.83167969 0.00507568 15.83167969 0.00507568 17.4453125 0.01025391 C20.125 0.3984375 20.125 0.3984375 21.96728516 1.77490234 C23.57456373 4.02888853 23.52450596 5.65377045 23.5 8.3984375 C23.51160156 9.6978125 23.51160156 9.6978125 23.5234375 11.0234375 C23.03434796 13.93879475 22.47620888 14.64172989 20.125 16.3984375 C17.4453125 16.78662109 17.4453125 16.78662109 14.25 16.796875 C13.10015625 16.80074219 11.9503125 16.80460937 10.765625 16.80859375 C9.56421875 16.79699219 8.3628125 16.78539062 7.125 16.7734375 C5.92359375 16.78503906 4.7221875 16.79664063 3.484375 16.80859375 C1.75960937 16.80279297 1.75960937 16.80279297 0 16.796875 C-1.05445313 16.79349121 -2.10890625 16.79010742 -3.1953125 16.78662109 C-5.875 16.3984375 -5.875 16.3984375 -7.71728516 15.02197266 C-9.32456373 12.76798647 -9.27450596 11.14310455 -9.25 8.3984375 C-9.25773438 7.5321875 -9.26546875 6.6659375 -9.2734375 5.7734375 C-8.36230848 0.34239395 -4.95634198 0.01590513 0 0 Z " fill="#FFFFFF" transform="translate(208.875,487.6015625)"/>
<path d="M0 0 C1.14984375 -0.00386719 2.2996875 -0.00773437 3.484375 -0.01171875 C4.68578125 -0.00011719 5.8871875 0.01148438 7.125 0.0234375 C8.32640625 0.01183594 9.5278125 0.00023437 10.765625 -0.01171875 C12.49039063 -0.00591797 12.49039063 -0.00591797 14.25 0 C15.83167969 0.00507568 15.83167969 0.00507568 17.4453125 0.01025391 C20.125 0.3984375 20.125 0.3984375 21.96728516 1.77490234 C23.57456373 4.02888853 23.52450596 5.65377045 23.5 8.3984375 C23.51160156 9.6978125 23.51160156 9.6978125 23.5234375 11.0234375 C23.03434796 13.93879475 22.47620888 14.64172989 20.125 16.3984375 C17.4453125 16.78662109 17.4453125 16.78662109 14.25 16.796875 C13.10015625 16.80074219 11.9503125 16.80460937 10.765625 16.80859375 C9.56421875 16.79699219 8.3628125 16.78539062 7.125 16.7734375 C5.92359375 16.78503906 4.7221875 16.79664063 3.484375 16.80859375 C1.75960937 16.80279297 1.75960937 16.80279297 0 16.796875 C-1.05445312 16.79349121 -2.10890625 16.79010742 -3.1953125 16.78662109 C-5.875 16.3984375 -5.875 16.3984375 -7.71728516 15.02197266 C-9.32456373 12.76798647 -9.27450596 11.14310455 -9.25 8.3984375 C-9.25773437 7.5321875 -9.26546875 6.6659375 -9.2734375 5.7734375 C-8.36230848 0.34239395 -4.95634198 0.01590513 0 0 Z " fill="#FFFFFF" transform="translate(128.875,455.6015625)"/>
<path d="M0 0 C1.14984375 -0.00386719 2.2996875 -0.00773437 3.484375 -0.01171875 C4.68578125 -0.00011719 5.8871875 0.01148438 7.125 0.0234375 C8.32640625 0.01183594 9.5278125 0.00023437 10.765625 -0.01171875 C12.49039062 -0.00591797 12.49039062 -0.00591797 14.25 0 C15.83167969 0.00507568 15.83167969 0.00507568 17.4453125 0.01025391 C20.125 0.3984375 20.125 0.3984375 21.96728516 1.77490234 C23.57456373 4.02888853 23.52450596 5.65377045 23.5 8.3984375 C23.51160156 9.6978125 23.51160156 9.6978125 23.5234375 11.0234375 C23.03434796 13.93879475 22.47620888 14.64172989 20.125 16.3984375 C17.4453125 16.78662109 17.4453125 16.78662109 14.25 16.796875 C13.10015625 16.80074219 11.9503125 16.80460937 10.765625 16.80859375 C9.56421875 16.79699219 8.3628125 16.78539062 7.125 16.7734375 C5.92359375 16.78503906 4.7221875 16.79664063 3.484375 16.80859375 C1.75960938 16.80279297 1.75960938 16.80279297 0 16.796875 C-1.05445313 16.79349121 -2.10890625 16.79010742 -3.1953125 16.78662109 C-5.875 16.3984375 -5.875 16.3984375 -7.71728516 15.02197266 C-9.32456373 12.76798647 -9.27450596 11.14310455 -9.25 8.3984375 C-9.25773437 7.5321875 -9.26546875 6.6659375 -9.2734375 5.7734375 C-8.36230848 0.34239395 -4.95634198 0.01590513 0 0 Z " fill="#FFFFFF" transform="translate(272.875,295.6015625)"/>
<path d="M0 0 C1.14984375 -0.00386719 2.2996875 -0.00773437 3.484375 -0.01171875 C4.68578125 -0.00011719 5.8871875 0.01148438 7.125 0.0234375 C8.32640625 0.01183594 9.5278125 0.00023437 10.765625 -0.01171875 C12.49039063 -0.00591797 12.49039063 -0.00591797 14.25 0 C15.83167969 0.00507568 15.83167969 0.00507568 17.4453125 0.01025391 C20.125 0.3984375 20.125 0.3984375 21.96728516 1.77490234 C23.57456373 4.02888853 23.52450596 5.65377045 23.5 8.3984375 C23.51160156 9.6978125 23.51160156 9.6978125 23.5234375 11.0234375 C23.03434796 13.93879475 22.47620888 14.64172989 20.125 16.3984375 C17.4453125 16.78662109 17.4453125 16.78662109 14.25 16.796875 C13.10015625 16.80074219 11.9503125 16.80460937 10.765625 16.80859375 C9.56421875 16.79699219 8.3628125 16.78539062 7.125 16.7734375 C5.92359375 16.78503906 4.7221875 16.79664063 3.484375 16.80859375 C1.75960937 16.80279297 1.75960937 16.80279297 0 16.796875 C-1.05445313 16.79349121 -2.10890625 16.79010742 -3.1953125 16.78662109 C-5.875 16.3984375 -5.875 16.3984375 -7.71728516 15.02197266 C-9.32456373 12.76798647 -9.27450596 11.14310455 -9.25 8.3984375 C-9.25773437 7.5321875 -9.26546875 6.6659375 -9.2734375 5.7734375 C-8.36230848 0.34239395 -4.95634198 0.01590513 0 0 Z " fill="#FFFFFF" transform="translate(32.875,295.6015625)"/>
<path d="M0 0 C0.86625 -0.00773437 1.7325 -0.01546875 2.625 -0.0234375 C5.54035725 0.46565204 6.24329239 1.02379112 8 3.375 C8.38818359 6.0546875 8.38818359 6.0546875 8.3984375 9.25 C8.40423828 10.97476563 8.40423828 10.97476563 8.41015625 12.734375 C8.39855469 13.93578125 8.38695312 15.1371875 8.375 16.375 C8.38660156 17.57640625 8.39820313 18.7778125 8.41015625 20.015625 C8.40628906 21.16546875 8.40242188 22.3153125 8.3984375 23.5 C8.39505371 24.55445313 8.39166992 25.60890625 8.38818359 26.6953125 C8 29.375 8 29.375 6.62353516 31.21728516 C4.36954897 32.82456373 2.74466705 32.77450596 0 32.75 C-1.299375 32.76160156 -1.299375 32.76160156 -2.625 32.7734375 C-5.54035725 32.28434796 -6.24329239 31.72620888 -8 29.375 C-8.38818359 26.6953125 -8.38818359 26.6953125 -8.3984375 23.5 C-8.40230469 22.35015625 -8.40617188 21.2003125 -8.41015625 20.015625 C-8.39855469 18.81421875 -8.38695312 17.6128125 -8.375 16.375 C-8.38660156 15.17359375 -8.39820313 13.9721875 -8.41015625 12.734375 C-8.40628906 11.58453125 -8.40242187 10.4346875 -8.3984375 9.25 C-8.39505371 8.19554688 -8.39166992 7.14109375 -8.38818359 6.0546875 C-8 3.375 -8 3.375 -6.62353516 1.53271484 C-4.36954897 -0.07456373 -2.74466705 -0.02450596 0 0 Z " fill="#FFFFFF" transform="translate(176,119.625)"/>
</svg>
