<?xml version="1.0" standalone="no"?>
<!DOCTYPE svg PUBLIC "-//W3C//DTD SVG 20010904//EN"
 "http://www.w3.org/TR/2001/REC-SVG-20010904/DTD/svg10.dtd">
<svg version="1.0" xmlns="http://www.w3.org/2000/svg"
 width="512.000000pt" height="512.000000pt" viewBox="0 0 512.000000 512.000000"
 preserveAspectRatio="xMidYMid meet">

<g transform="translate(0.000000,512.000000) scale(0.100000,-0.100000)"
fill="white" stroke="none">
<path d="M129 5097 c-21 -14 -39 -37 -47 -61 -19 -57 -13 -4941 6 -4974 7 -13
28 -32 45 -42 31 -20 68 -20 1868 -20 l1836 0 34 23 c49 33 58 69 58 254 l1
162 433 3 c423 3 433 3 488 26 73 29 141 89 171 150 23 47 23 51 23 397 0 346
0 350 -23 397 -30 61 -98 121 -171 150 -55 23 -65 23 -488 26 l-433 3 -1 1707
c0 1295 -3 1715 -12 1742 -7 19 -27 44 -46 57 l-34 23 -1837 0 -1837 0 -34
-23z m3561 -1862 l0 -1645 -874 0 -873 0 -374 -236 c-206 -129 -385 -246 -398
-259 -35 -34 -39 -100 -9 -143 16 -23 140 -107 402 -273 l379 -239 874 0 873
0 0 -100 0 -100 -1690 0 -1690 0 0 2320 0 2320 1690 0 1690 0 0 -1645z m370
-2220 l0 -335 -970 0 -970 0 0 335 0 335 970 0 970 0 0 -335z m723 312 l27
-17 0 -295 0 -295 -27 -17 c-23 -16 -57 -18 -255 -21 l-228 -3 0 336 0 336
228 -3 c198 -3 232 -5 255 -21z m-2903 -312 c0 -152 -4 -235 -10 -235 -14 0
-371 227 -371 236 -1 9 352 233 369 233 9 1 12 -52 12 -234z"/>
<path d="M915 3948 c-87 -68 -52 -197 58 -213 23 -3 502 -5 1064 -3 1019 3
1022 3 1050 24 62 46 63 137 2 189 l-31 25 -1057 0 -1058 0 -28 -22z"/>
<path d="M940 3103 c-28 -10 -59 -46 -70 -78 -15 -46 6 -103 49 -132 l34 -23
1046 0 c1032 0 1046 0 1079 20 45 28 68 82 53 130 -6 20 -22 47 -37 61 l-26
24 -1056 2 c-581 1 -1064 -1 -1072 -4z"/>
<path d="M919 2227 c-65 -44 -72 -133 -13 -188 l26 -24 1068 0 1068 0 26 24
c15 14 31 41 37 61 15 48 -8 102 -53 130 -33 20 -47 20 -1079 20 l-1046 0 -34
-23z"/>
</g>
</svg>
