<?xml version="1.0" encoding="UTF-8"?>
<svg version="1.1" xmlns="http://www.w3.org/2000/svg" width="512" height="512">
<path d="M0 0 C1.10794922 -0.01260864 2.21589844 -0.02521729 3.35742188 -0.03820801 C4.54916016 -0.03011108 5.74089844 -0.02201416 6.96875 -0.01367188 C8.19658203 -0.01749878 9.42441406 -0.02132568 10.68945312 -0.02526855 C13.28516459 -0.02799029 15.88090336 -0.02061099 18.4765625 -0.00390625 C22.45374599 0.01749738 26.42912282 -0.0037015 30.40625 -0.02929688 C32.92708733 -0.02665365 35.44792353 -0.02152878 37.96875 -0.01367188 C39.16048828 -0.0217688 40.35222656 -0.02986572 41.58007812 -0.03820801 C43.24200195 -0.01929504 43.24200195 -0.01929504 44.9375 0 C45.91138672 0.00318237 46.88527344 0.00636475 47.88867188 0.00964355 C51.21236397 0.66397185 52.40812783 1.87649269 54.46875 4.51757812 C54.92285156 7.54199219 54.92285156 7.54199219 54.859375 11.03320312 C54.84648437 12.28359375 54.83359375 13.53398437 54.8203125 14.82226562 C54.77003906 16.77519531 54.77003906 16.77519531 54.71875 18.76757812 C54.70070312 20.085 54.68265625 21.40242188 54.6640625 22.75976562 C54.61691271 26.0131012 54.55111044 29.26497437 54.46875 32.51757812 C55.28859375 32.47117187 56.1084375 32.42476562 56.953125 32.37695312 C58.03078125 32.34085938 59.1084375 32.30476563 60.21875 32.26757812 C61.28609375 32.22117187 62.3534375 32.17476562 63.453125 32.12695312 C67.24766974 32.61847447 68.15423174 33.52020894 70.46875 36.51757812 C70.859375 39.53320313 70.859375 39.53320313 70.71875 42.76757812 C70.68265625 43.84523437 70.6465625 44.92289063 70.609375 46.03320312 C70.56296875 46.85304687 70.5165625 47.67289063 70.46875 48.51757812 C71.71267517 48.50869568 72.95660034 48.49981323 74.23822021 48.49066162 C85.95097494 48.40963673 97.66367293 48.34964192 109.37664413 48.31032944 C115.39867568 48.28943914 121.4204813 48.2610947 127.44238281 48.21582031 C133.25195797 48.17241473 139.06131558 48.14845189 144.87104034 48.13806915 C147.08947424 48.13066833 149.307896 48.11621655 151.52623749 48.0946579 C154.62940871 48.06569478 157.73167668 48.06161923 160.83496094 48.06347656 C161.75565369 48.04909546 162.67634644 48.03471436 163.62493896 48.01989746 C167.3502114 48.04408409 169.77343718 48.11986077 173.04248047 49.98974609 C175.17782802 53.77430421 174.99557008 57.13973789 174.92285156 61.41699219 C174.92343567 62.31490479 174.92401978 63.21281738 174.92462158 64.13793945 C174.92183668 67.10342172 174.89072534 70.06789664 174.859375 73.03320312 C174.85191406 75.09014334 174.84622044 77.14709066 174.84222412 79.20404053 C174.82695628 84.61620734 174.78766426 90.02794434 174.7434082 95.43994141 C174.70248049 100.963157 174.68421843 106.48644208 174.6640625 112.00976562 C174.62117136 122.84589191 174.55290587 133.68169926 174.46875 144.51757812 C175.11999344 144.508741 175.77123688 144.49990387 176.44221497 144.49079895 C179.43670831 144.45538876 182.43115737 144.43366328 185.42578125 144.41210938 C186.44998169 144.39796997 187.47418213 144.38383057 188.52941895 144.3692627 C197.40742503 144.32144579 205.02396419 145.64936023 213.46875 148.51757812 C214.54382813 148.87980469 215.61890625 149.24203125 216.7265625 149.61523438 C226.2491588 153.20751815 234.62932338 158.97062461 241.46875 166.51757812 C246.69853433 165.01625221 249.80633402 161.65350362 253.59375 157.95507812 C257.95451539 153.78485474 262.30697712 149.71764909 267.03125 145.95507812 C272.70494114 141.42459341 277.95225024 136.49021726 283.24609375 131.52929688 C286.90925941 128.09673188 290.6379506 124.76203068 294.46875 121.51757812 C295.63277344 120.48310547 295.63277344 120.48310547 296.8203125 119.42773438 C303.51614413 113.69585374 309.28149204 111.06360528 318.03125 110.14257812 C326.53178742 111.06990948 332.80968211 113.9898497 338.46875 120.51757812 C343.25159714 127.29440098 343.6781665 135.48740828 342.46875 143.51757812 C340.34837763 149.25839238 336.95082217 153.75053685 332.90625 158.26757812 C332.38393799 158.86393066 331.86162598 159.4602832 331.32348633 160.07470703 C326.9274369 165.07018764 322.43057306 169.97485331 317.9140625 174.86132812 C313.75370473 179.3805666 309.74189465 184.01936421 305.76171875 188.69726562 C299.9342594 195.5387752 294.01218269 202.2600992 287.9140625 208.86132812 C281.92128597 215.37105343 276.21412358 222.13282491 270.46704102 228.85888672 C266.57274051 233.41358762 266.57274051 233.41358762 265.46875 234.51757812 C265.25261761 236.06877827 265.09743575 237.62856393 264.96875 239.18945312 C264.88657227 240.15786133 264.80439453 241.12626953 264.71972656 242.12402344 C264.59549316 243.68008301 264.59549316 243.68008301 264.46875 245.26757812 C264.34064941 246.84297363 264.34064941 246.84297363 264.20996094 248.45019531 C264.04046401 250.53636097 263.87214492 252.6226227 263.70507812 254.70898438 C263.5128579 256.99338672 263.29498887 259.27003475 263.046875 261.54882812 C261.85305623 273.25962177 263.57399099 281.87742706 270.46875 291.51757812 C274.2634222 295.71832382 278.42251332 299.52401658 282.56835938 303.37304688 C288.91125563 309.44977251 294.23084056 315.73949935 295.1328125 324.79101562 C295.15374651 326.15810486 295.1403723 327.52612375 295.09375 328.89257812 C295.07828125 329.62226807 295.0628125 330.35195801 295.046875 331.10375977 C294.42534263 344.70426261 286.82191629 354.64122009 277.21875 363.70507812 C259.89547346 378.37231567 236.44821897 384.56831738 214.11523438 384.72290039 C213.21673767 384.73279999 212.31824097 384.74269958 211.39251709 384.75289917 C208.44920404 384.78426018 205.5058749 384.8091702 202.5625 384.83398438 C200.51126711 384.85457589 198.46003825 384.87557291 196.40881348 384.8969574 C191.02981854 384.95195124 185.65078677 385.00145989 180.27172852 385.04980469 C174.77486929 385.10018613 169.27806306 385.15578503 163.78125 385.2109375 C153.01046203 385.31824127 142.23962789 385.41974708 131.46875 385.51757812 C133.86808194 392.37550552 136.27152374 399.23198448 138.67758179 406.08755493 C139.53694273 408.53686259 140.39568912 410.98638596 141.2538147 413.43612671 C145.83906298 426.52112858 150.45787294 439.58870428 155.29296875 452.58398438 C155.66628326 453.59139679 156.03959778 454.5988092 156.42422485 455.63674927 C158.17918288 460.37057703 159.94800512 465.09828274 161.7421875 469.81738281 C162.37431874 471.51539401 163.00586341 473.21362374 163.63671875 474.91210938 C163.92641037 475.65674942 164.21610199 476.40138947 164.51457214 477.16859436 C166.31549108 482.07772484 167.70888585 487.31394878 166.46875 492.51757812 C164.42963763 495.22377723 163.24213433 496.36532357 159.88867188 497.0255127 C158.91478516 497.02869507 157.94089844 497.03187744 156.9375 497.03515625 C155.82955078 497.04776489 154.72160156 497.06037354 153.58007812 497.07336426 C152.38833984 497.06526733 151.19660156 497.05717041 149.96875 497.04882812 C148.12700195 497.05456848 148.12700195 497.05456848 146.24804688 497.0604248 C143.65233541 497.06314654 141.05659664 497.05576724 138.4609375 497.0390625 C134.48375401 497.01765887 130.50837718 497.03885775 126.53125 497.06445312 C124.01041267 497.0618099 121.48957647 497.05668503 118.96875 497.04882812 C117.77701172 497.05692505 116.58527344 497.06502197 115.35742188 497.07336426 C113.69549805 497.05445129 113.69549805 497.05445129 112 497.03515625 C111.02611328 497.03197388 110.05222656 497.0287915 109.04882812 497.0255127 C105.73030113 496.37220124 104.57185767 495.11226275 102.46875 492.51757812 C101.17041016 489.74267578 101.17041016 489.74267578 100.0078125 486.43164062 C99.78462341 485.8065863 99.56143433 485.18153198 99.33148193 484.53753662 C98.57468463 482.40956899 97.83439306 480.27621718 97.09375 478.14257812 C96.55135016 476.60655987 96.0078532 475.07092868 95.46337891 473.53564453 C94.20620575 469.98538334 92.95600093 466.43274698 91.70898438 462.87890625 C89.35117027 456.17010201 86.96236023 449.47243861 84.57226944 442.77508926 C82.57631236 437.18095995 80.58378304 431.58560793 78.59099579 425.99034882 C78.09345284 424.59357813 77.59577759 423.19685457 77.09796906 421.80017853 C75.65903647 417.76292348 74.22256438 413.72480988 72.78977203 409.6853714 C72.13842596 407.85083444 71.48462883 406.01716829 70.83074951 404.18353271 C68.52439717 397.67296629 66.39268191 391.15153147 64.46875 384.51757812 C61.16875 384.51757812 57.86875 384.51757812 54.46875 384.51757812 C54.47763245 386.06217712 54.48651489 387.60677612 54.4956665 389.19818115 C54.57666364 403.73646118 54.63691298 418.27465852 54.67599869 432.81310654 C54.69662821 440.2879314 54.72475601 447.76258789 54.77050781 455.23730469 C54.81036394 461.75191683 54.83617999 468.26640703 54.84510398 474.7811377 C54.8503209 478.23103316 54.86258994 481.68057977 54.89167023 485.13036346 C54.92386264 488.98053042 54.92471019 492.83035539 54.92285156 496.68066406 C54.93723267 497.82577454 54.95161377 498.97088501 54.96643066 500.1506958 C54.96093201 501.19954956 54.95543335 502.24840332 54.94976807 503.32904053 C54.95345524 504.239772 54.95714241 505.15050346 54.96094131 506.08883286 C54.31055219 509.29821396 52.99086785 510.49691425 50.46875 512.51757812 C47.88867187 513.0255127 47.88867187 513.0255127 44.9375 513.03515625 C43.82955078 513.04776489 42.72160156 513.06037354 41.58007812 513.07336426 C40.38833984 513.06526733 39.19660156 513.05717041 37.96875 513.04882812 C36.74091797 513.05265503 35.51308594 513.05648193 34.24804688 513.0604248 C31.65233541 513.06314654 29.05659664 513.05576724 26.4609375 513.0390625 C22.48375401 513.01765887 18.50837718 513.03885775 14.53125 513.06445312 C12.01041267 513.0618099 9.48957647 513.05668503 6.96875 513.04882812 C5.77701172 513.05692505 4.58527344 513.06502197 3.35742188 513.07336426 C1.69549805 513.05445129 1.69549805 513.05445129 0 513.03515625 C-0.97388672 513.03197388 -1.94777344 513.0287915 -2.95117188 513.0255127 C-6.32713752 512.36089342 -7.37498022 511.16275504 -9.53125 508.51757812 C-10.02344131 506.08883286 -10.02344131 506.08883286 -10.01226807 503.32904053 C-10.01776672 502.28018677 -10.02326538 501.23133301 -10.02893066 500.1506958 C-10.00735901 498.43303009 -10.00735901 498.43303009 -9.98535156 496.68066406 C-9.98593567 495.47063721 -9.98651978 494.26061035 -9.98712158 493.01391602 C-9.98481302 489.69981746 -9.96476078 486.38671683 -9.93682575 483.07279491 C-9.91181223 479.60815054 -9.90947016 476.14349271 -9.90472412 472.67877197 C-9.89229412 466.11973994 -9.85947245 459.56097474 -9.81932616 453.00206017 C-9.77460899 445.53419077 -9.75262159 438.06630858 -9.73254442 430.5983386 C-9.69073962 415.23792638 -9.61958122 399.87779715 -9.53125 384.51757812 C-12.83125 384.51757812 -16.13125 384.51757812 -19.53125 384.51757812 C-19.94608643 386.10320557 -20.36092285 387.68883301 -20.78833008 389.32250977 C-22.39455292 395.20331157 -24.33981594 400.91036256 -26.41796875 406.63867188 C-26.79238098 407.68141266 -27.16679321 408.72415344 -27.55255127 409.79849243 C-28.77013158 413.1856563 -29.99398481 416.5705062 -31.21875 419.95507812 C-32.06795822 422.30780051 -32.91699598 424.66058443 -33.76586914 427.01342773 C-35.06582633 430.61532433 -36.36649864 434.21695503 -37.66929626 437.81782532 C-40.15787973 444.69826623 -42.62831344 451.58472871 -45.07646179 458.47966003 C-46.52484823 462.55580555 -47.98201303 466.6287786 -49.44082642 470.70120239 C-50.12286129 472.61135765 -50.80110302 474.52287177 -51.47543335 476.4357605 C-52.40941145 479.08277462 -53.35726525 481.72441563 -54.30859375 484.36523438 C-54.57762512 485.1388028 -54.84665649 485.91237122 -55.12384033 486.7093811 C-56.64952577 490.89414708 -58.05039812 493.71956362 -61.53125 496.51757812 C-64.11132812 497.0255127 -64.11132812 497.0255127 -67.0625 497.03515625 C-68.17044922 497.04776489 -69.27839844 497.06037354 -70.41992188 497.07336426 C-71.61166016 497.06526733 -72.80339844 497.05717041 -74.03125 497.04882812 C-75.87299805 497.05456848 -75.87299805 497.05456848 -77.75195312 497.0604248 C-80.34766459 497.06314654 -82.94340336 497.05576724 -85.5390625 497.0390625 C-89.51624599 497.01765887 -93.49162282 497.03885775 -97.46875 497.06445312 C-99.98958733 497.0618099 -102.51042353 497.05668503 -105.03125 497.04882812 C-106.81885742 497.06097351 -106.81885742 497.06097351 -108.64257812 497.07336426 C-110.30450195 497.05445129 -110.30450195 497.05445129 -112 497.03515625 C-112.97388672 497.03197388 -113.94777344 497.0287915 -114.95117188 497.0255127 C-118.30081866 496.36607476 -119.48769561 495.21404778 -121.53125 492.51757812 C-123.29259256 485.78351009 -120.27854048 478.8516673 -117.9375 472.62695312 C-117.55866165 471.58393539 -117.1798233 470.54091766 -116.789505 469.46629333 C-115.54982823 466.06178043 -114.29055781 462.66487266 -113.03125 459.26757812 C-112.16991938 456.91177986 -111.31015364 454.55540889 -110.4519043 452.19848633 C-108.69116503 447.3655568 -106.9243402 442.53491636 -105.15380859 437.70556641 C-101.50184261 427.72222391 -97.94764395 417.70436846 -94.39892578 407.68395996 C-93.02976048 403.81864981 -91.65697758 399.95462886 -90.28422546 396.09059143 C-89.03238872 392.56655328 -87.78176369 389.04208596 -86.53125 385.51757812 C-87.31163635 385.5139325 -88.09202271 385.51028687 -88.89605713 385.50653076 C-96.25316271 385.46865238 -103.60976181 385.41180241 -110.96654129 385.33367538 C-114.74870785 385.29417807 -118.53064083 385.26200101 -122.31298828 385.24658203 C-125.96372635 385.23142973 -129.61382234 385.19701116 -133.2642746 385.1492691 C-134.65645515 385.13444028 -136.04872737 385.12653624 -137.44098663 385.12569427 C-139.39208165 385.12332778 -141.34308736 385.09398258 -143.29394531 385.06347656 C-144.4042511 385.05459412 -145.51455688 385.04571167 -146.6585083 385.03656006 C-150.21209344 384.39457875 -151.40085022 383.39671713 -153.53125 380.51757812 C-154.03918457 378.54492188 -154.03918457 378.54492188 -154.04882812 376.45507812 C-154.06774109 375.27365234 -154.06774109 375.27365234 -154.08703613 374.06835938 C-154.07893921 373.22660156 -154.07084229 372.38484375 -154.0625 371.51757812 C-154.0663269 370.64488281 -154.07015381 369.7721875 -154.07409668 368.87304688 C-154.0768149 367.0305872 -154.06945994 365.18808888 -154.05273438 363.34570312 C-154.03132248 360.52711879 -154.05253801 357.71108328 -154.078125 354.89257812 C-154.07548171 353.10090584 -154.07035669 351.30923514 -154.0625 349.51757812 C-154.07464539 348.25494141 -154.07464539 348.25494141 -154.08703613 346.96679688 C-154.07442749 346.17917969 -154.06181885 345.3915625 -154.04882812 344.58007812 C-154.04564575 343.89042969 -154.04246338 343.20078125 -154.03918457 342.49023438 C-153.23899119 339.3825379 -152.1491216 338.41643477 -149.53125 336.51757812 C-146.1039039 336.01606439 -142.7356536 336.14178752 -139.28125 336.26757812 C-138.34539062 336.285625 -137.40953125 336.30367188 -136.4453125 336.32226562 C-134.13957985 336.36932139 -131.83594055 336.435041 -129.53125 336.51757812 C-129.53276888 335.91816162 -129.53428776 335.31874512 -129.53585267 334.70116448 C-129.6253158 299.1948245 -129.69397132 263.68850387 -129.73551132 228.18207468 C-129.7405143 223.92118762 -129.74569157 219.66030078 -129.75097656 215.39941406 C-129.7520258 214.55112871 -129.75307505 213.70284336 -129.75415608 212.82885239 C-129.77157334 199.08368394 -129.80311828 185.33858225 -129.83986118 171.59345344 C-129.8772339 157.49540358 -129.89947807 143.39738874 -129.90760398 129.29929137 C-129.91309939 120.59615828 -129.93047174 111.89321383 -129.96291587 103.19013879 C-129.98401851 97.22652576 -129.99045973 91.26301061 -129.98525551 85.29936293 C-129.98268705 81.85578478 -129.9866938 78.41253684 -130.0080719 74.96901703 C-130.02786447 71.23918918 -130.02322755 67.5101798 -130.01226807 63.78033447 C-130.02391943 62.68695652 -130.0355708 61.59357857 -130.04757524 60.46706796 C-129.9896423 53.21290816 -129.9896423 53.21290816 -127.76852417 49.84371948 C-125.33558761 48.4015995 -124.06009186 48.02245832 -121.25384521 48.03656006 C-120.40693115 48.0310614 -119.56001709 48.02556274 -118.68743896 48.01989746 C-117.76674622 48.03427856 -116.84605347 48.04865967 -115.89746094 48.06347656 C-114.92151978 48.06289246 -113.94557861 48.06230835 -112.94006348 48.06170654 C-109.7148886 48.06449282 -106.49063839 48.09561126 -103.265625 48.12695312 C-101.02932236 48.13441356 -98.79301318 48.14010742 -96.55670166 48.144104 C-90.67108101 48.15937575 -84.78585526 48.19867131 -78.90039062 48.24291992 C-72.8945856 48.28383913 -66.88871675 48.30210789 -60.8828125 48.32226562 C-49.09878484 48.36516368 -37.31505026 48.43343402 -25.53125 48.51757812 C-25.57765625 47.69773438 -25.6240625 46.87789062 -25.671875 46.03320312 C-25.70796875 44.95554688 -25.7440625 43.87789062 -25.78125 42.76757812 C-25.82765625 41.70023438 -25.8740625 40.63289063 -25.921875 39.53320312 C-25.53125 36.51757812 -25.53125 36.51757812 -23.70410156 34.15136719 C-20.77872245 31.95174505 -18.89596705 32.11041651 -15.28125 32.26757812 C-14.20359375 32.30367187 -13.1259375 32.33976562 -12.015625 32.37695312 C-11.19578125 32.42335938 -10.3759375 32.46976563 -9.53125 32.51757812 C-9.55219727 31.69032227 -9.57314453 30.86306641 -9.59472656 30.01074219 C-9.67786619 26.26314442 -9.72990531 22.51574063 -9.78125 18.76757812 C-9.81476563 17.465625 -9.84828125 16.16367187 -9.8828125 14.82226562 C-9.89570313 13.571875 -9.90859375 12.32148438 -9.921875 11.03320312 C-9.94282227 9.88110352 -9.96376953 8.72900391 -9.98535156 7.54199219 C-9.10045067 1.64836193 -5.60110744 0.01830276 0 0 Z M6.46875 16.51757812 C6.46875 21.79757813 6.46875 27.07757813 6.46875 32.51757812 C17.02875 32.51757812 27.58875 32.51757812 38.46875 32.51757812 C38.46875 27.23757812 38.46875 21.95757812 38.46875 16.51757812 C27.90875 16.51757812 17.34875 16.51757812 6.46875 16.51757812 Z M-9.53125 48.51757812 C-9.53125 53.79757813 -9.53125 59.07757813 -9.53125 64.51757812 C11.58875 64.51757812 32.70875 64.51757812 54.46875 64.51757812 C54.46875 59.23757812 54.46875 53.95757812 54.46875 48.51757812 C33.34875 48.51757812 12.22875 48.51757812 -9.53125 48.51757812 Z M-113.53125 64.51757812 C-113.53125 139.09757812 -113.53125 213.67757812 -113.53125 290.51757812 C-110.45422527 287.4405534 -108.51261662 285.18545335 -106.2734375 281.60742188 C-105.65678223 280.63087646 -105.04012695 279.65433105 -104.40478516 278.64819336 C-103.74526855 277.59446533 -103.08575195 276.5407373 -102.40625 275.45507812 C-100.97620518 273.19319127 -99.54462566 270.93240317 -98.109375 268.67382812 C-97.73837677 268.08963608 -97.36737854 267.50544403 -96.98513794 266.90354919 C-92.81105428 260.35242791 -88.48568867 253.90409167 -84.15625 247.45507812 C-79.10902177 239.92866908 -74.11412481 232.38517886 -69.36791992 224.66430664 C-64.64128941 217.00750662 -59.67123791 209.5067963 -54.73193359 201.98632812 C-50.08155894 194.90368009 -50.08155894 194.90368009 -45.5078125 187.77148438 C-44.87854858 186.77882568 -44.87854858 186.77882568 -44.23657227 185.76611328 C-43.1860229 184.10130338 -42.14154414 182.4326668 -41.09765625 180.76367188 C-39.53125 178.51757812 -39.53125 178.51757812 -37.53125 177.51757812 C-31.78465136 177.05414275 -31.78465136 177.05414275 -29.53125 177.51757812 C-26.61221938 180.13321807 -24.49652099 182.87746841 -22.4296875 186.19335938 C-21.8622583 187.09610596 -21.2948291 187.99885254 -20.71020508 188.92895508 C-19.81724731 190.36501099 -19.81724731 190.36501099 -18.90625 191.83007812 C-17.64839821 193.83087257 -16.38927946 195.83087105 -15.12890625 197.83007812 C-14.51418457 198.80589844 -13.89946289 199.78171875 -13.26611328 200.78710938 C-11.01052789 204.33713288 -8.69296357 207.84154639 -6.34375 211.33007812 C-1.47467866 218.5727846 3.26108948 225.89779138 7.99169922 233.23144531 C10.60077825 237.2696959 13.22253415 241.29969914 15.84375 245.33007812 C16.38459229 246.16192627 16.92543457 246.99377441 17.48266602 247.85083008 C20.27665899 252.14784989 23.07167581 256.44420248 25.8671875 260.74023438 C32.09601701 270.31466006 38.3065624 279.90010704 44.46875 289.51757812 C47.46597246 285.946956 49.8589448 282.31362754 52.1484375 278.25585938 C52.48368439 277.66516159 52.81893127 277.07446381 53.16433716 276.46586609 C54.22828422 274.58957876 55.28629261 272.71002925 56.34375 270.83007812 C57.39160605 268.97489332 58.44073131 267.12044243 59.49139404 265.2668457 C60.17852549 264.05277396 60.86314603 262.83727763 61.54522705 261.62036133 C63.51768706 258.11755477 65.62157833 254.7442629 67.8203125 251.38085938 C71.07907961 245.99059594 71.99580049 240.54842776 72.96875 234.39257812 C78.06628987 206.20533069 91.67826156 181.04493192 115.59375 164.33398438 C128.99370642 155.81406016 143.13532359 150.35093473 158.46875 146.51757812 C158.46875 119.45757812 158.46875 92.39757812 158.46875 64.51757812 C129.42875 64.51757812 100.38875 64.51757812 70.46875 64.51757812 C70.13875 68.47757812 69.80875 72.43757813 69.46875 76.51757812 C66.1254261 79.86090202 65.06662599 79.87248129 60.54421997 79.92416382 C59.73685394 79.91809113 58.92948792 79.91201843 58.09765625 79.90576172 C57.24372284 79.91101868 56.38978943 79.91627563 55.50997925 79.92169189 C52.68355083 79.93491002 49.85768428 79.92614745 47.03125 79.91601562 C45.06974174 79.91803584 43.1082342 79.92094684 41.14672852 79.92471313 C37.03426976 79.92913894 32.92200638 79.92269714 28.80957031 79.90869141 C23.53323313 79.89159942 18.25735371 79.90143922 12.98103333 79.9194088 C8.93018127 79.93023967 4.87943807 79.92680349 0.82858276 79.91902542 C-1.11711684 79.91702149 -3.06282627 79.91948944 -5.0085144 79.92646408 C-7.7259954 79.93406709 -10.4427309 79.92249065 -13.16015625 79.90576172 C-13.96752228 79.91183441 -14.77488831 79.9179071 -15.60671997 79.92416382 C-21.18845294 79.86037519 -21.18845294 79.86037519 -24.53125 76.51757812 C-25.02625 70.57757813 -25.02625 70.57757813 -25.53125 64.51757812 C-54.57125 64.51757812 -83.61125 64.51757812 -113.53125 64.51757812 Z M303.09375 137.33007812 C301.93945897 138.41020762 300.78451453 139.48963929 299.62890625 140.56835938 C298.80543701 141.33913818 298.80543701 141.33913818 297.96533203 142.12548828 C293.85258131 145.95108447 289.56997931 149.58143765 285.29296875 153.22070312 C278.45055944 159.049915 271.72757339 164.97290344 265.125 171.07226562 C261.6300341 174.28969011 258.06959683 177.41960818 254.46875 180.51757812 C253.93958984 180.97310059 253.41042969 181.42862305 252.86523438 181.89794922 C246.76642855 187.1452551 240.66036477 192.37985523 234.46875 197.51757812 C238.70691537 202.58381581 243.14283963 207.31795881 247.84375 211.95507812 C248.48441406 212.59123047 249.12507813 213.22738281 249.78515625 213.8828125 C251.34405879 215.43008144 252.90526416 216.97494304 254.46875 218.51757812 C258.09688516 216.83036013 260.13788551 214.92563933 262.78125 211.89257812 C263.57144531 210.9928125 264.36164063 210.09304687 265.17578125 209.16601562 C265.93246094 208.29203125 266.68914062 207.41804688 267.46875 206.51757812 C268.635063 205.18393542 269.80169819 203.85057436 270.96875 202.51757812 C271.52820313 201.87433594 272.08765625 201.23109375 272.6640625 200.56835938 C274.69833141 198.25669016 276.7709731 195.98226382 278.84375 193.70507812 C281.91621773 190.3067426 284.85317622 186.8416729 287.71875 183.26757812 C292.37933865 177.50316584 297.40654281 172.12905859 302.47265625 166.72460938 C305.89974371 163.06757268 309.20781257 159.32312572 312.46875 155.51757812 C313.48544576 154.3428987 314.50239839 153.16844158 315.51953125 151.99414062 C316.62784936 150.71049812 317.73592042 149.42664227 318.84375 148.14257812 C319.3807251 147.52253906 319.9177002 146.9025 320.47094727 146.26367188 C324.38396577 141.78798932 324.38396577 141.78798932 325.90625 136.20507812 C325.4549092 132.40091992 325.38553051 131.93114407 322.71875 129.58007812 C314.66284241 124.46767523 308.79568671 131.91541196 303.09375 137.33007812 Z M114.09375 187.45507812 C93.56380898 208.51295077 86.88340564 234.66589716 87.1953125 263.36132812 C87.88898191 289.54219732 100.25170071 312.27512151 118.46875 330.51757812 C119.32082031 331.38125 120.17289062 332.24492187 121.05078125 333.13476562 C142.96417818 354.22682084 177.08322005 368.51757812 207.46875 368.51757812 C223.98227894 367.85144142 239.67991834 365.26303054 254.46875 357.51757812 C255.32082031 357.07671875 256.17289063 356.63585937 257.05078125 356.18164062 C265.1718395 351.66578335 273.09789859 345.35247008 276.87890625 336.62304688 C278.39574484 331.20863628 278.38795151 326.3927492 275.90625 321.33007812 C271.7694323 316.55682693 267.4402002 312.30353094 262.53125 308.33007812 C252.10970137 299.26434262 246.8390372 286.936934 245.65625 273.39257812 C245.26093293 264.74052493 245.82630559 256.14610072 246.46875 247.51757812 C239.92125587 250.48365069 239.92125587 250.48365069 235.27734375 255.67382812 C234.5979466 257.94107345 234.03319899 260.21946437 233.46875 262.51757812 C228.18817493 274.09422347 217.66845445 279.65149964 206.46875 284.51757812 C205.63601563 284.88109375 204.80328125 285.24460937 203.9453125 285.61914062 C195.54855254 288.68553419 183.02788498 289.5718659 174.71875 286.01757812 C169.98678179 283.02952629 167.35083314 278.23168011 165.65625 273.01757812 C165.17810848 266.64235791 165.49103609 260.96684167 167.09375 254.76757812 C167.35998169 253.73105103 167.35998169 253.73105103 167.6315918 252.67358398 C171.20049271 239.56843447 177.6959801 227.73501424 189.6484375 220.80664062 C192.46875 219.51757812 192.46875 219.51757812 194.53466797 219.11254883 C198.52564977 218.2335472 200.80629082 217.3389811 203.42041016 214.09765625 C205.3462798 210.93656654 207.11193629 207.72641176 208.84375 204.45507812 C219.46567507 185.51911559 219.46567507 185.51911559 229.46875 180.51757812 C226.2073613 172.79501525 217.71322037 168.69163228 210.34375 165.58007812 C177.76939342 153.54172895 138.52765334 163.32822981 114.09375 187.45507812 Z M-34.53125 201.51757812 C-36.06348086 203.56884053 -37.46211712 205.61683356 -38.84375 207.76757812 C-39.28033936 208.4350708 -39.71692871 209.10256348 -40.16674805 209.7902832 C-41.62825993 212.02843898 -43.07966207 214.27297567 -44.53125 216.51757812 C-45.56188487 218.10001018 -46.59314661 219.68203411 -47.625 221.26367188 C-50.37575968 225.48394626 -53.11793259 229.70973137 -55.85791016 233.93701172 C-58.57869636 238.13291341 -61.30520762 242.32509026 -64.03125 246.51757812 C-65.11461195 248.18422619 -66.19794526 249.85089287 -67.28125 251.51757812 C-73.78125 261.51757812 -80.28125 271.51757812 -86.78125 281.51757812 C-87.3182251 282.34370605 -87.8552002 283.16983398 -88.40844727 284.02099609 C-89.48441055 285.67629932 -90.56041916 287.33157309 -91.63647461 288.98681641 C-94.45795509 293.32709473 -97.27848756 297.6679853 -100.09765625 302.00976562 C-100.68289062 302.91082031 -101.268125 303.811875 -101.87109375 304.74023438 C-102.98727185 306.45879431 -104.10317473 308.17753306 -105.21875 309.89648438 C-105.72535156 310.67636719 -106.23195313 311.45625 -106.75390625 312.25976562 C-107.22844238 313.00709961 -107.70297852 313.75443359 -108.19189453 314.52441406 C-109.53125 316.51757812 -109.53125 316.51757812 -111.90234375 319.21289062 C-114.56285689 323.99642326 -114.56285689 323.99642326 -113.53125 336.51757812 C-58.09125 336.51757812 -2.65125 336.51757812 54.46875 336.51757812 C52.73526218 332.18385857 50.76363162 328.74758665 48.15625 324.95507812 C47.24887421 323.61469371 46.34268488 322.27350557 45.4375 320.93164062 C44.71433594 319.86091309 44.71433594 319.86091309 43.9765625 318.76855469 C41.32880176 314.81577715 38.74379275 310.8224314 36.15625 306.83007812 C35.335802 305.56538696 35.335802 305.56538696 34.4987793 304.27514648 C33.3796151 302.54965278 32.26071992 300.82398455 31.14208984 299.09814453 C28.42130364 294.90224284 25.69479238 290.71006599 22.96875 286.51757812 C21.88538805 284.85093006 20.80205474 283.18426338 19.71875 281.51757812 C18.914375 280.28007812 18.914375 280.28007812 18.09375 279.01757812 C0.21875 251.51757812 0.21875 251.51757812 -1.40698242 249.01635742 C-2.48775988 247.35368535 -3.56865137 245.6910874 -4.6496582 244.02856445 C-7.39804759 239.80138832 -10.14429733 235.57284763 -12.88671875 231.34179688 C-15.58483683 227.17995269 -18.28991112 223.02271046 -21 218.86865234 C-22.01553044 217.30941157 -23.02858027 215.7485522 -24.0390625 214.18603516 C-25.42588793 212.04229597 -26.82116735 209.9043141 -28.21875 207.76757812 C-28.62891357 207.12908936 -29.03907715 206.49060059 -29.46166992 205.83276367 C-30.43243877 204.35847971 -31.47487907 202.93178667 -32.53125 201.51757812 C-33.19125 201.51757812 -33.85125 201.51757812 -34.53125 201.51757812 Z M223.46875 211.51757812 C222.20985552 213.23156591 221.01155717 214.99027797 219.84375 216.76757812 C219.19148438 217.74210938 218.53921875 218.71664062 217.8671875 219.72070312 C216.33487685 222.29490507 216.33487685 222.29490507 216.41015625 224.51757812 C218.05333247 227.62202914 220.51426148 229.87313961 223.03125 232.26757812 C223.55138672 232.77417969 224.07152344 233.28078125 224.60742188 233.80273438 C225.88785084 235.04792218 227.17742554 236.28369314 228.46875 237.51757812 C231.8210801 236.26118821 234.77277615 234.83023925 237.78125 232.89257812 C238.47863281 232.4465625 239.17601562 232.00054687 239.89453125 231.54101562 C240.41402344 231.20328125 240.93351562 230.86554688 241.46875 230.51757812 C240.07857588 227.38179501 238.45541305 225.25745948 236.02734375 222.84570312 C235.36154297 222.18183594 234.69574219 221.51796875 234.00976562 220.83398438 C232.96852539 219.81111328 232.96852539 219.81111328 231.90625 218.76757812 C231.20822266 218.07019531 230.51019531 217.3728125 229.79101562 216.65429688 C227.02113133 213.30664199 227.02113133 213.30664199 223.46875 211.51757812 Z M192.984375 238.88867188 C185.84004355 246.56698686 182.38476809 256.58201259 181.03125 266.83007812 C181.23628579 269.62531435 181.23628579 269.62531435 183.28125 271.51757812 C192.03994069 274.26540265 200.51190567 269.37139309 208.20703125 265.46679688 C214.77561893 261.59221113 214.77561893 261.59221113 218.86328125 255.26367188 C218.23668229 249.31408375 214.40076613 246.52069095 210.15625 242.58007812 C209.35767578 241.80083984 208.55910156 241.02160156 207.73632812 240.21875 C201.88385554 234.59307922 199.61502103 232.76404883 192.984375 238.88867188 Z M71.46875 278.51757812 C69.26459298 281.3724088 67.39752919 284.47354444 65.46875 287.51757812 C65.04190918 288.18225098 64.61506836 288.84692383 64.17529297 289.53173828 C62.75193906 291.76446004 61.35811272 294.01357293 59.96875 296.26757812 C59.49896729 297.00032959 59.02918457 297.73308105 58.54516602 298.48803711 C58.11776123 299.19387939 57.69035645 299.89972168 57.25 300.62695312 C56.85876953 301.25569336 56.46753906 301.88443359 56.06445312 302.53222656 C55.18762486 305.4545083 56.1028225 306.83844313 57.46875 309.51757812 C58.55082337 311.33597059 59.67835376 313.1277631 60.83984375 314.89648438 C61.49662109 315.90001953 62.15339844 316.90355469 62.83007812 317.9375 C63.51521484 318.97455078 64.20035156 320.01160156 64.90625 321.08007812 C65.58751953 322.12099609 66.26878906 323.16191406 66.97070312 324.234375 C68.78998857 327.00517702 70.60844873 329.77413891 72.46875 332.51757812 C72.91718262 333.27772217 73.36561523 334.03786621 73.82763672 334.82104492 C75.39096028 336.77114122 75.39096028 336.77114122 78.10424805 336.97167969 C79.13590088 336.95073242 80.16755371 336.92978516 81.23046875 336.90820312 C82.34873047 336.8953125 83.46699219 336.88242187 84.61914062 336.86914062 C85.78638672 336.835625 86.95363281 336.80210937 88.15625 336.76757812 C89.92452148 336.74050781 89.92452148 336.74050781 91.72851562 336.71289062 C94.64273926 336.66569672 97.55534031 336.59986889 100.46875 336.51757812 C100.09290771 336.02781494 99.71706543 335.53805176 99.32983398 335.03344727 C86.00153353 317.49223851 77.47403981 299.94575433 72.46875 278.51757812 C72.13875 278.51757812 71.80875 278.51757812 71.46875 278.51757812 Z M-137.53125 352.51757812 C-137.53125 357.79757812 -137.53125 363.07757813 -137.53125 368.51757812 C-45.46125 368.51757812 46.60875 368.51757812 141.46875 368.51757812 C138.50947425 365.55830237 135.79549807 363.78030895 132.21875 361.64257812 C130.57132812 360.65644531 130.57132812 360.65644531 128.890625 359.65039062 C128.32035837 359.31092445 127.75009174 358.97145827 127.16254431 358.62170523 C125.46875 357.51757813 125.46875 357.51757813 123.97460121 356.23668414 C118.85581699 351.92150749 114.42246531 351.81906711 107.90821838 351.91630554 C106.33116282 351.90989736 106.33116282 351.90989736 104.72224754 351.90335971 C101.2057532 351.89513594 97.69045639 351.92260639 94.17407227 351.94995117 C91.65090462 351.95136176 89.12773493 351.95056945 86.60456848 351.94773865 C81.17571897 351.94660074 75.74725383 351.96076477 70.31848335 351.98892784 C62.46955129 352.02961951 54.62076439 352.04259081 46.77173828 352.0488678 C34.03630097 352.05980213 21.30102408 352.09305285 8.56567383 352.14038086 C-3.80313313 352.18629881 -16.17189646 352.22167974 -28.54077148 352.24291992 C-29.68501919 352.24489035 -29.68501919 352.24489035 -30.85238301 352.24690058 C-34.67941054 352.25342592 -38.50643837 352.25974443 -42.33346641 352.2659601 C-74.06617859 352.31776628 -105.79868933 352.40618051 -137.53125 352.51757812 Z M-67.53125 384.51757812 C-76.25511015 408.70003769 -84.97297667 432.8846076 -93.59619141 457.10317993 C-94.30334139 459.0890263 -95.0110244 461.07468294 -95.71923828 463.06015015 C-96.7024995 465.81750997 -97.68364248 468.57561326 -98.6640625 471.33398438 C-98.95693146 472.15450287 -99.24980042 472.97502136 -99.55154419 473.82040405 C-100.92524105 477.09400443 -100.92524105 477.09400443 -101.53125 480.51757812 C-91.63125 480.51757812 -81.73125 480.51757812 -71.53125 480.51757812 C-64.02408228 459.80437085 -56.56560388 439.07377014 -49.1451416 418.3293457 C-48.23575396 415.78721098 -47.32547107 413.24539959 -46.41442871 410.70385742 C-45.12334872 407.10077243 -43.83477839 403.4967996 -42.546875 399.89257812 C-42.15576538 398.8023938 -41.76465576 397.71220947 -41.36169434 396.58898926 C-41.00289185 395.58315796 -40.64408936 394.57732666 -40.27441406 393.54101562 C-39.8036142 392.22496338 -39.8036142 392.22496338 -39.32330322 390.88232422 C-38.62328863 388.79236772 -38.06581627 386.6558432 -37.53125 384.51757812 C-47.43125 384.51757812 -57.33125 384.51757812 -67.53125 384.51757812 Z M6.46875 384.51757812 C6.46875 421.47757812 6.46875 458.43757813 6.46875 496.51757812 C17.02875 496.51757812 27.58875 496.51757812 38.46875 496.51757812 C38.46875 459.55757812 38.46875 422.59757812 38.46875 384.51757812 C27.90875 384.51757812 17.34875 384.51757812 6.46875 384.51757812 Z M82.46875 384.51757812 C88.57664235 403.08235619 94.9883445 421.48189121 101.71875 439.83007812 C103.03421976 443.42746044 104.34861646 447.02523326 105.66278076 450.62309265 C106.46877887 452.82854986 107.27569869 455.03367057 108.08380127 457.23835754 C110.92068074 464.98409816 113.69407061 472.74847584 116.46875 480.51757812 C126.36875 480.51757812 136.26875 480.51757812 146.46875 480.51757812 C140.55679621 462.33553156 134.23879209 444.3245921 127.78125 426.33007812 C127.36837738 425.17859283 126.95550476 424.02710754 126.53012085 422.84072876 C121.93412265 410.03094993 117.28740887 397.24537658 112.46875 384.51757812 C102.56875 384.51757812 92.66875 384.51757812 82.46875 384.51757812 Z " fill="white" transform="translate(161.53125,-0.517578125)"/>
<path d="M0 0 C8.34296853 4.97488123 13.53708251 11.86384564 16.109375 21.2578125 C16.89814221 30.10851435 17.06941889 38.555881 12.109375 46.2578125 C11.67367187 46.96421875 11.23796875 47.670625 10.7890625 48.3984375 C6.10935787 55.30291974 0.10880944 59.05772679 -7.890625 61.2578125 C-16.74132685 62.04657971 -25.1886935 62.21785639 -32.890625 57.2578125 C-33.59703125 56.82210937 -34.3034375 56.38640625 -35.03125 55.9375 C-41.93709584 51.25687115 -45.68778524 45.25759899 -47.890625 37.2578125 C-48.88914012 26.15803978 -48.24009702 16.5233259 -41.140625 7.4453125 C-30.84272373 -3.5807232 -13.59449082 -6.52353083 0 0 Z M-29.265625 20.8828125 C-31.46970393 25.46051489 -31.6877889 29.26333661 -30.890625 34.2578125 C-28.56093569 39.09639798 -25.72921048 41.92812319 -20.890625 44.2578125 C-15.89614911 45.0549764 -12.09332739 44.83689143 -7.515625 42.6328125 C-3.93154787 39.39007605 -1.29527259 36.79305354 -0.5078125 31.859375 C-0.25178581 26.17558256 -0.95435568 22.60842595 -4.890625 18.2578125 C-9.24123845 14.32154318 -12.80839506 13.61897331 -18.4921875 13.875 C-23.42586604 14.66246009 -26.02288855 17.29873537 -29.265625 20.8828125 Z " fill="white" transform="translate(215.890625,114.7421875)"/>
<path d="M0 0 C5.82485779 3.51996782 10.54466582 8.98962934 12.5625 15.5 C13.36764105 23.33608208 13.68710392 31.11922577 8.5625 37.5 C3.75801361 42.54521222 -0.59927055 46.10562995 -7.70703125 46.8359375 C-16.22326573 46.92983204 -22.11345494 46.6177288 -28.40234375 40.62890625 C-34.7841668 33.72505269 -35.91792252 28.29832071 -35.7421875 18.9453125 C-35.04689797 11.08319245 -31.38995981 6.95041296 -25.53515625 1.9453125 C-18.47077988 -2.92213491 -7.84396301 -3.47595223 0 0 Z M-16.8125 17.125 C-18.92456506 20.21186432 -19.04945145 21.8282913 -18.4375 25.5 C-16.9375 28 -16.9375 28 -14.4375 29.5 C-10.7657913 30.11195145 -9.14936432 29.98706506 -6.0625 27.875 C-3.95043494 24.78813568 -3.82554855 23.1717087 -4.4375 19.5 C-5.9375 17 -5.9375 17 -8.4375 15.5 C-12.1092087 14.88804855 -13.72563568 15.01293494 -16.8125 17.125 Z " fill="white" transform="translate(379.4375,305.5)"/>
<path d="M0 0 C5.82485779 3.51996782 10.54466582 8.98962934 12.5625 15.5 C13.36764105 23.33608208 13.68710392 31.11922577 8.5625 37.5 C3.75801361 42.54521222 -0.59927055 46.10562995 -7.70703125 46.8359375 C-16.22326573 46.92983204 -22.11345494 46.6177288 -28.40234375 40.62890625 C-34.7841668 33.72505269 -35.91792252 28.29832071 -35.7421875 18.9453125 C-35.04689797 11.08319245 -31.38995981 6.95041296 -25.53515625 1.9453125 C-18.47077988 -2.92213491 -7.84396301 -3.47595223 0 0 Z M-16.8125 17.125 C-18.92456506 20.21186432 -19.04945145 21.8282913 -18.4375 25.5 C-16.9375 28 -16.9375 28 -14.4375 29.5 C-10.7657913 30.11195145 -9.14936432 29.98706506 -6.0625 27.875 C-3.95043494 24.78813568 -3.82554855 23.1717087 -4.4375 19.5 C-5.9375 17 -5.9375 17 -8.4375 15.5 C-12.1092087 14.88804855 -13.72563568 15.01293494 -16.8125 17.125 Z " fill="white" transform="translate(307.4375,265.5)"/>
<path d="M0 0 C5.82485779 3.51996782 10.54466582 8.98962934 12.5625 15.5 C13.36764105 23.33608208 13.68710392 31.11922577 8.5625 37.5 C3.75801361 42.54521222 -0.59927055 46.10562995 -7.70703125 46.8359375 C-16.22326573 46.92983204 -22.11345494 46.6177288 -28.40234375 40.62890625 C-34.7841668 33.72505269 -35.91792252 28.29832071 -35.7421875 18.9453125 C-35.04689797 11.08319245 -31.38995981 6.95041296 -25.53515625 1.9453125 C-18.47077988 -2.92213491 -7.84396301 -3.47595223 0 0 Z M-16.8125 17.125 C-18.92456506 20.21186432 -19.04945145 21.8282913 -18.4375 25.5 C-16.9375 28 -16.9375 28 -14.4375 29.5 C-10.7657913 30.11195145 -9.14936432 29.98706506 -6.0625 27.875 C-3.95043494 24.78813568 -3.82554855 23.1717087 -4.4375 19.5 C-5.9375 17 -5.9375 17 -8.4375 15.5 C-12.1092087 14.88804855 -13.72563568 15.01293494 -16.8125 17.125 Z " fill="white" transform="translate(315.4375,193.5)"/>
</svg>
