<?xml version="1.0" encoding="UTF-8"?>
<svg version="1.1" viewBox="0 0 2048 2048" width="512" height="512" xmlns="http://www.w3.org/2000/svg">
<path transform="translate(629)" d="m0 0h553l12 7 8 7 6 10 3 11v125l3-1h353l15 2 12 6 8 8 5 9 3 9v179l-3 10-7 11-8 7-8 4-8 2h-14l-11-4-6-4-5-4-7-10-4-13v-131h-1247v363l7-3 24-10 21-6 20-4 20-2h22l22 2 18 3 24 7 24 10 20 11 17 12 14 12 12 11 11 9 15 10 19 9 15 5 14 3 8 1h29l22-4 15-5 19-9 12-8 9-7 13-12 8-7 18-14 21-13 21-10 27-9 26-5 22-2h22l20 2 25 5 24 8 13 6v-55l2-14 6-12 10-10 11-5 10-2 10 1 11 4 14 10 9 8 16 11 15 9 19 10 20 8 23 7 24 5 16 2 46 3 22 3 23 6 19 7 17 8 17 10 16 12 13 11 16 16 11 14 12 18 11 21 8 21 6 22 3 18 1 13v25l-1 15 77 77 1-176 3-10 6-10 7-7 12-6 10-2 12 1 10 4 8 6 7 8 4 8 2 7 1 259 2 4 8 7 325 325 9 11 10 15 7 15 5 15 3 16v34l-4 19-6 16-10 19-9 11-9 10-10 9-15 10-19 9-18 5-17 3h-23l-17-3-17-5-16-8-12-7-14-12-109-109-7 1-16 3-9 1h-179l15 57 11 41 18 67 12 45 20 74 29 109 11 41 20 74 19 71 8 31v12l-3 10-6 9-4 5-11 7-7 3h-219l-15-8-7-7-7-14-9-32-11-42-18-67-20-75-17-63-5-18v-3h-369l-315 1-6 21-40 150-25 93-10 36-6 12-3 4h-2l-1 3-10 6-7 3h-221v-2l-7-2-9-7-7-8-5-12-1-4v-8l5-22 20-75 22-82 15-55 11-42 23-86 18-67 16-59 10-38 19-71 4-16h-177l-21-3-18-6-16-8-12-8-15-13-10-11-11-16-10-19-6-18-3-15-1-9v-19l2-16 5-19 8-19 9-15 10-13 15-15 15-11 16-9 17-6 12-3 19-2h6v-925l4-12 8-11 9-7 10-4 8-1h359l1-122 3-12 5-9 6-7 11-7zm53 80-1 62v17l445 1 4-2v-78zm395 540v152l3 21 6 20 7 16 8 15 11 15 12 14 4 2v2l11 9 11 8 15 9 19 8 16 5 21 4 14 1h11l22-3 17-5 16-7 16-10 13-11 11-11 10-14 10-19 6-18 3-16 1-10v-12l-2-18-4-15-6-16-7-13-10-14-11-12-10-9-15-10-16-8-16-6-20-4-52-3-28-4-26-6-26-8-28-11zm-701 39-20 3-15 4-21 9-14 9-9 7-14 12-1 7v409h1105l-6-7-112-112-17 1h-25l-26-3-23-5-16-5-21-8-22-11-17-11-16-12-10-9-8-7-14-15-10-13-7-10-12-20-11-23-7-20-5-18-4-23-2-29v-61l-4-6-15-11-21-11-14-5-16-4-15-2h-20l-21 3-15 4-17 7-14 8-13 10-12 11-10 9-17 13-14 9-18 10-20 8-15 5-28 6-17 2h-34l-24-3-21-5-22-8-16-7-22-13-19-14-15-14-8-7-13-10-17-10-20-8-16-4-15-2zm1043 244-8 11-7 9-11 13-11 11-14 11-13 9-3 3 469 469 11 7 9 3 7 1h8l14-3 12-7 9-9 6-12 3-14-1-12-4-11-6-10-3-4h-2l-2-4-452-452h-2l-2-4h-2l-2-4zm-1222 297-9 1-9 4-11 7-9 10-8 16-3 15 1 13 4 13 7 12 11 11 14 7 7 2h1387l-6-7-103-103-3-1zm256 192-2 2-11 40-10 38-27 101-22 82-46 172-15 55-10 38-10 37-2 6v4h115l4-13 14-52 11-42 20-74 16-60 26-97 18-67 13-48 11-42 15-56 6-22-1-2zm199 0-2 2-17 64-17 63-27 101-4 16h641l-5-21-12-45-13-48-10-38-19-71-6-21-1-2zm592 0 4 16 20 75 27 101 18 67 19 71 26 97 19 71 20 74 1 3h115l-1-7-22-83-22-82-18-67-23-86-22-82-15-56-22-82-8-29-1-1z"/>
<path transform="translate(1567,505)" d="m0 0 12 1 10 4 8 6 7 8 4 8 2 7v14l-4 11-6 9-8 7-8 4-7 2h-15l-11-4-6-4-5-4-7-11-4-11v-12l3-10 6-10 7-7 12-6z"/>
<path transform="translate(231,2047)" d="m0 0"/>
</svg>
